<?xml version="1.0" standalone="no"?>
<!DOCTYPE svg PUBLIC "-//W3C//DTD SVG 1.1//EN" "http://www.w3.org/Graphics/SVG/1.1/DTD/svg11.dtd" >
<svg xmlns="http://www.w3.org/2000/svg" xmlns:xlink="http://www.w3.org/1999/xlink" version="1.1">
<metadata>
Created by FontForge 20170731 at Mon Oct 15 18:38:42 2018
 By Aleksey,,,
Copyright (c) 2015 by Colophon Foundry. All rights reserved.
</metadata>
<defs>
<font id="RostelecomBasis-Regular" horiz-adv-x="0" >
  <font-face 
    font-family="Rostelecom Basis"
    font-weight="400"
    font-stretch="normal"
    units-per-em="1000"
    panose-1="2 11 5 3 3 6 4 4 1 3"
    ascent="800"
    descent="-200"
    x-height="496"
    cap-height="700"
    bbox="-713 -275 1106 938"
    underline-thickness="50"
    underline-position="-200"
    unicode-range="U+000D-FB02"
  />
<missing-glyph horiz-adv-x="500" 
 />
    <glyph glyph-name="f_f" unicode="ff" horiz-adv-x="583" 
d="M179 0h-81v433h-76v63h76v92q0 76 40 119t114 43q29 0 52 -10l-13 -69q-18 7 -39 7q-32 0 -52.5 -21.5t-20.5 -64.5v-96h185v92q0 76 39.5 119t113.5 43q29 0 52 -10l-13 -69q-18 7 -39 7q-32 0 -52.5 -21.5t-20.5 -64.5v-96h117v-63h-117v-433h-80v433h-185v-433z" />
    <glyph glyph-name="f_f_i" unicode="ffi" horiz-adv-x="817" 
d="M98 0v433h-76v63h76v92q0 76 40 119t114 43q29 0 52 -10l-13 -69q-18 7 -39 7q-32 0 -52.5 -21.5t-20.5 -64.5v-96h198v92q0 76 39.5 119t113.5 43q28 0 53 -10l-14 -69q-18 7 -39 7q-32 0 -52 -21.5t-20 -64.5v-96h287v-496h-80v433h-207v-433h-81v433h-198v-433h-81z
M657 583v97h96v-97h-96z" />
    <glyph glyph-name="f_f_l" unicode="ffl" horiz-adv-x="814" 
d="M98 0v433h-76v63h76v92q0 76 40 119t114 43q29 0 52 -10l-13 -69q-18 7 -39 7q-32 0 -52.5 -21.5t-20.5 -64.5v-96h198v92q0 76 39.5 119t113.5 43q28 0 53 -10l-14 -69q-18 7 -39 7q-32 0 -52 -21.5t-20 -64.5v-96h116v-63h-116v-433h-81v433h-198v-433h-81zM663 700h81
v-700h-81v700z" />
    <glyph glyph-name="f_i" unicode="fi" horiz-adv-x="540" 
d="M388 433h-209v-433h-81v433h-76v63h76v92q0 76 40 119t114 43q29 0 52 -10l-13 -69q-18 7 -39 7q-32 0 -52.5 -21.5t-20.5 -64.5v-96h290v-496h-81v433zM381 680h95v-97h-95v97z" />
    <glyph glyph-name="f_l" unicode="fl" horiz-adv-x="538" 
d="M22 496h76v92q0 76 40 119t114 43q29 0 52 -10l-13 -69q-18 7 -39 7q-32 0 -52.5 -21.5t-20.5 -64.5v-96h117v-63h-117v-433h-81v433h-76v63zM387 700h81v-700h-81v700z" />
    <glyph glyph-name=".notdef" horiz-adv-x="500" 
 />
    <glyph glyph-name=".null" 
 />
    <glyph glyph-name="nonmarkingreturn" horiz-adv-x="333" 
 />
    <glyph glyph-name="CR" unicode="&#xd;" horiz-adv-x="289" 
 />
    <glyph glyph-name="space" unicode=" " horiz-adv-x="276" 
 />
    <glyph glyph-name="exclam" unicode="!" horiz-adv-x="265" 
d="M103 184l-13 293v223h84v-223l-12 -293h-59zM83 0v102h99v-102h-99z" />
    <glyph glyph-name="quotedbl" unicode="&#x22;" horiz-adv-x="337" 
d="M67 487l-13 155v58h82v-58l-13 -155h-56zM213 487l-13 155v58h83v-58l-13 -155h-57z" />
    <glyph glyph-name="numbersign" unicode="#" horiz-adv-x="661" 
d="M113 0l42 223h-104v59h115l25 136h-120v59h131l41 223h74l-41 -223h161l42 223h74l-42 -223h104v-59h-115l-25 -136h120v-59h-131l-41 -223h-74l41 223h-161l-42 -223h-74zM240 282h161l25 136h-161z" />
    <glyph glyph-name="dollar" unicode="$" horiz-adv-x="644" 
d="M289 -100v89q-98 10 -159.5 68.5t-79.5 145.5l75 39q32 -159 164 -179v271q-206 45 -206 197q0 75 57 125t149 57v87h75v-90q75 -10 129 -54t77 -113l-66 -39q-38 110 -140 132v-242q109 -23 164.5 -71t55.5 -127q0 -82 -60.5 -140t-159.5 -68v-88h-75zM289 411v229
q-57 -5 -91.5 -34.5t-34.5 -75.5q0 -81 126 -119zM364 62q63 8 99.5 44t36.5 84q0 49 -33.5 78.5t-102.5 47.5v-254z" />
    <glyph glyph-name="percent" unicode="%" horiz-adv-x="880" 
d="M220 364q-75 0 -123 50.5t-48 124.5t48 124.5t123 50.5q74 0 122 -50.5t48 -124.5t-48 -124.5t-122 -50.5zM249 0l-52 35l435 665l51 -35zM220 426q46 0 75 31.5t29 81.5t-29 81.5t-75 31.5t-75 -31.5t-29 -81.5t29 -81.5t75 -31.5zM661 -14q-75 0 -123 50.5t-48 124.5
t48 124.5t123 50.5q74 0 122 -50.5t48 -124.5t-48 -124.5t-122 -50.5zM661 48q46 0 75 31.5t29 81.5t-29 81.5t-75 31.5t-75 -31.5t-29 -81.5t29 -81.5t75 -31.5z" />
    <glyph glyph-name="ampersand" unicode="&#x26;" horiz-adv-x="641" 
d="M275 -14q-95 0 -156 59.5t-61 149.5q0 132 138 213q-51 75 -51 144q0 71 47 116.5t117 45.5q69 0 113 -37.5t44 -100.5q0 -57 -38 -99t-127 -87l165 -213q34 62 51 153l64 -36q-22 -102 -71 -176l91 -118h-94l-47 60q-76 -74 -185 -74zM262 442q75 34 104 62t29 67
q0 33 -24.5 55.5t-61.5 22.5t-64.5 -25.5t-27.5 -70.5q0 -52 45 -111zM281 56q80 0 138 58l-182 240q-99 -62 -99 -157q0 -64 41.5 -102.5t101.5 -38.5z" />
    <glyph glyph-name="quotesingle" unicode="'" horiz-adv-x="199" 
d="M71 487l-13 155v58h83v-58l-13 -155h-57z" />
    <glyph glyph-name="parenleft" unicode="(" horiz-adv-x="337" 
d="M178 -148q-106 190 -106 424t106 424h73q-97 -187 -97 -424t97 -424h-73z" />
    <glyph glyph-name="parenright" unicode=")" horiz-adv-x="337" 
d="M87 -148q96 189 96 424t-96 424h72q107 -189 107 -424t-107 -424h-72z" />
    <glyph glyph-name="asterisk" unicode="*" horiz-adv-x="409" 
d="M164 396l16 110l-87 -69l-40 70l104 41l-104 41l40 70l87 -69l-16 110h81l-17 -110l87 69l41 -70l-104 -41l104 -41l-41 -70l-87 69l17 -110h-81z" />
    <glyph glyph-name="plus" unicode="+" horiz-adv-x="513" 
d="M224 154v179h-179v64h179v179h64v-179h179v-64h-179v-179h-64z" />
    <glyph glyph-name="comma" unicode="," horiz-adv-x="189" 
d="M69 -126l-21 7l32 119h-35v99h98v-99z" />
    <glyph glyph-name="hyphen" unicode="-" horiz-adv-x="453" 
d="M45 279v64h363v-64h-363z" />
    <glyph glyph-name="period" unicode="." horiz-adv-x="189" 
d="M45 0v99h98v-99h-98z" />
    <glyph glyph-name="slash" unicode="/" horiz-adv-x="495" 
d="M6 -30l400 760h84l-400 -760h-84z" />
    <glyph glyph-name="zero" unicode="0" horiz-adv-x="711" 
d="M356 -14q-134 0 -219.5 100.5t-85.5 263.5t85.5 263.5t219.5 100.5t219 -100.5t85 -263.5t-85 -263.5t-219 -100.5zM356 61q98 0 160 78t62 211t-62 211t-160 78t-160 -78t-62 -211t62 -211t160 -78z" />
    <glyph glyph-name="one" unicode="1" horiz-adv-x="361" 
d="M199 0v590q-46 -53 -147 -53v75q59 0 95 21t60 67h75v-700h-83z" />
    <glyph glyph-name="two" unicode="2" horiz-adv-x="578" 
d="M54 0v59l269 266q53 53 76 95t23 90q0 60 -38.5 95.5t-104.5 35.5q-61 0 -101 -37.5t-40 -99.5q0 -24 6 -46l-81 -6q-7 31 -7 59q0 83 61.5 143t162.5 60q105 0 164 -54.5t59 -141.5q0 -65 -27.5 -119.5t-98.5 -124.5l-194 -193h323v-81h-452z" />
    <glyph glyph-name="three" unicode="3" horiz-adv-x="584" 
d="M295 -14q-110 0 -173.5 58.5t-63.5 138.5q0 22 5 45l81 -10q-3 -16 -3 -32q0 -54 43 -91t111 -37t110 37t42 105q0 71 -50.5 105.5t-131.5 34.5v70q76 0 116.5 36t40.5 88q0 51 -35 80t-95 29q-55 0 -93.5 -30.5t-38.5 -77.5q0 -9 3 -27l-79 -9q-4 18 -4 40q0 73 61 124
t152 51q99 0 154.5 -49t55.5 -125q0 -50 -30 -93.5t-87 -62.5q64 -17 104.5 -63.5t40.5 -116.5q0 -99 -65.5 -158.5t-170.5 -59.5z" />
    <glyph glyph-name="four" unicode="4" horiz-adv-x="581" 
d="M387 0v139h-341v75l341 486h84v-486h77v-75h-77v-139h-84zM134 214h253v363z" />
    <glyph glyph-name="five" unicode="5" horiz-adv-x="592" 
d="M289 -14q-111 0 -171.5 56t-60.5 137q0 19 3 34l81 -6q-2 -14 -2 -25q0 -58 41 -91t110 -33q75 0 121.5 48t46.5 130q0 81 -43.5 126.5t-119.5 45.5q-48 0 -91 -23.5t-70 -57.5l-69 19l30 354h404v-75h-340l-23 -214q33 30 80 48.5t94 18.5q110 0 171 -66.5t61 -175.5
q0 -110 -70 -180t-183 -70z" />
    <glyph glyph-name="six" unicode="6" horiz-adv-x="604" 
d="M310 -14q-121 0 -190 85t-69 238q0 142 35 231q33 83 93.5 128.5t139.5 45.5q96 0 151.5 -42.5t55.5 -115.5q0 -18 -3 -33l-79 7q3 15 3 27q0 41 -33.5 64.5t-92.5 23.5q-176 0 -188 -293q26 49 78 77.5t112 28.5q101 0 167.5 -65.5t66.5 -167.5q0 -101 -70 -170
t-177 -69zM309 57q69 0 117 45t48 120q0 76 -47.5 120.5t-117.5 44.5t-118.5 -44.5t-48.5 -120.5q0 -75 48.5 -120t118.5 -45z" />
    <glyph glyph-name="seven" unicode="7" horiz-adv-x="536" 
d="M131 0l280 625h-370v75h453v-69l-280 -631h-83z" />
    <glyph glyph-name="eight" unicode="8" horiz-adv-x="574" 
d="M287 -14q-103 0 -168.5 57.5t-65.5 150.5q0 62 32.5 109t85.5 72q-45 24 -71 66t-26 91q0 80 60.5 131t152.5 51t152.5 -51t60.5 -131q0 -49 -26 -91t-71 -66q53 -25 85.5 -72t32.5 -109q0 -93 -65.5 -150.5t-168.5 -57.5zM287 405q58 0 95 33t37 89q0 55 -38 88t-94 33
t-94 -33t-38 -88q0 -56 37 -89t95 -33zM287 57q67 0 109.5 38.5t42.5 101.5q0 62 -44 101t-108 39t-108 -39t-44 -101q0 -63 42.5 -101.5t109.5 -38.5z" />
    <glyph glyph-name="nine" unicode="9" horiz-adv-x="614" 
d="M289 -14q-96 0 -151.5 46.5t-55.5 117.5q0 20 3 35l80 -7q-2 -14 -2 -28q0 -42 34 -68.5t93 -26.5q87 0 137 75.5t56 215.5q-25 -50 -74.5 -77t-112.5 -27q-103 0 -171 66t-68 167t69.5 170t176.5 69q126 0 192.5 -84t66.5 -239q0 -130 -40 -232q-32 -83 -92.5 -128
t-140.5 -45zM304 313q69 0 118 45t49 120t-49 120t-118 45t-117 -45t-48 -120t48 -120t117 -45z" />
    <glyph glyph-name="colon" unicode=":" horiz-adv-x="189" 
d="M45 377v99h98v-99h-98zM45 0v99h98v-99h-98z" />
    <glyph glyph-name="semicolon" unicode=";" horiz-adv-x="189" 
d="M45 377v99h98v-99h-98zM68 -130l-21 8l33 122h-35v99h98v-99z" />
    <glyph glyph-name="less" unicode="&#x3c;" horiz-adv-x="507" 
d="M452 71l-407 201v76l407 200v-80l-329 -158l329 -158v-81z" />
    <glyph glyph-name="equal" unicode="=" horiz-adv-x="513" 
d="M45 413v64h422v-64h-422zM45 219v65h422v-65h-422z" />
    <glyph glyph-name="greater" unicode="&#x3e;" horiz-adv-x="507" 
d="M56 71v81l328 158l-328 158v80l406 -200v-76z" />
    <glyph glyph-name="question" unicode="?" horiz-adv-x="533" 
d="M215 186v14q0 54 18 89t68 77q57 47 79 80.5t22 79.5q0 53 -38.5 85t-99.5 32q-58 0 -98 -35t-40 -98q0 -22 8 -41l-74 -15q-13 26 -13 64q0 78 59.5 137t156.5 59q102 0 160.5 -51t58.5 -130q0 -62 -26.5 -106.5t-98.5 -106.5q-33 -28 -46.5 -55.5t-13.5 -78.5h-82z
M208 0v102h98v-102h-98z" />
    <glyph glyph-name="at" unicode="@" horiz-adv-x="945" 
d="M448 -152q-76 0 -145 25t-126.5 74t-91.5 132t-34 190q0 187 125.5 316t317.5 129q79 0 149 -23t125 -67.5t87.5 -117.5t32.5 -165q0 -137 -70 -225.5t-164 -88.5q-42 0 -66.5 22t-24.5 59q0 13 3 27q-23 -47 -68 -77.5t-95 -30.5q-74 0 -122.5 56t-48.5 152
q0 72 22.5 132t59 96.5t79.5 56.5t86 20q44 0 80 -22.5t49 -62.5l11 69h70l-56 -377q-1 -8 -1 -16q0 -41 37 -41q54 0 100 66.5t46 180.5q0 139 -85.5 224.5t-242.5 85.5q-147 0 -254.5 -109.5t-107.5 -270.5q0 -171 96 -262.5t238 -91.5q105 0 184 57l34 -57
q-94 -65 -229 -65zM413 90q72 0 125 77t53 177q0 62 -28.5 96.5t-76.5 34.5q-69 0 -124.5 -65.5t-55.5 -172.5q0 -73 30.5 -110t76.5 -37z" />
    <glyph glyph-name="A" unicode="A" horiz-adv-x="658" 
d="M6 0l280 700h86l280 -700h-89l-80 206h-308l-80 -206h-89zM203 278h252l-107 276q-11 25 -19 53q-8 -28 -19 -53z" />
    <glyph glyph-name="B" unicode="B" horiz-adv-x="635" 
d="M81 700h255q101 0 160.5 -46.5t59.5 -119.5q0 -59 -34 -100t-82 -59q142 -44 142 -173q0 -91 -70 -146.5t-172 -55.5h-259v700zM165 408h167q65 0 103 26.5t38 82.5t-38 83t-103 27h-167v-219zM165 74h164q77 0 123 32.5t46 97.5q0 66 -46 98.5t-123 32.5h-164v-261z" />
    <glyph glyph-name="C" unicode="C" horiz-adv-x="747" 
d="M691 149q-53 -81 -122 -122t-176 -41q-147 0 -243.5 103.5t-96.5 260.5q0 155 101 259.5t244 104.5q100 0 174 -43t116 -117l-66 -45q-43 68 -97.5 99t-128.5 31q-107 0 -183 -82.5t-76 -206.5t73 -206.5t185 -82.5q145 0 230 130z" />
    <glyph glyph-name="D" unicode="D" horiz-adv-x="682" 
d="M81 700h192q160 0 258.5 -93.5t98.5 -256.5t-98.5 -256.5t-258.5 -93.5h-192v700zM270 75q126 0 200.5 70t74.5 205t-74.5 205t-200.5 70h-105v-550h105z" />
    <glyph glyph-name="E" unicode="E" horiz-adv-x="585" 
d="M81 700h437v-74h-353v-227h325v-74h-325v-251h356v-74h-440v700z" />
    <glyph glyph-name="F" unicode="F" horiz-adv-x="588" 
d="M81 0v700h450v-74h-366v-247h336v-74h-336v-305h-84z" />
    <glyph glyph-name="G" unicode="G" horiz-adv-x="761" 
d="M613 121q-73 -135 -225 -135q-147 0 -241 103.5t-94 260.5q0 154 101 259t244 105q94 0 167 -39t115 -109l-65 -43q-75 118 -219 118q-105 0 -182 -83t-77 -208q0 -127 70.5 -208t182.5 -81q93 0 151.5 62.5t68.5 156.5h-246v71h330v-351h-57z" />
    <glyph glyph-name="H" unicode="H" horiz-adv-x="685" 
d="M81 700h84v-305h355v305h84v-700h-84v319h-355v-319h-84v700z" />
    <glyph glyph-name="I" unicode="I" horiz-adv-x="246" 
d="M81 700h84v-700h-84v700z" />
    <glyph glyph-name="J" unicode="J" horiz-adv-x="532" 
d="M469 201q0 -98 -57.5 -156.5t-153.5 -58.5q-95 0 -152.5 56.5t-57.5 154.5l84 -5q0 -63 35.5 -97t90.5 -34q59 0 93 36.5t34 103.5v499h84v-499z" />
    <glyph glyph-name="K" unicode="K" horiz-adv-x="613" 
d="M81 0v700h84v-319l65 71l236 248h105l-243 -257l264 -443h-98l-227 379l-102 -107v-272h-84z" />
    <glyph glyph-name="L" unicode="L" horiz-adv-x="567" 
d="M81 0v700h84v-625h355v-75h-439z" />
    <glyph glyph-name="M" unicode="M" horiz-adv-x="849" 
d="M81 700h92l251 -621l252 621h92v-700h-82v539l-35 -99l-183 -440h-87l-183 439q-30 82 -36 100v-539h-81v700z" />
    <glyph glyph-name="N" unicode="N" horiz-adv-x="695" 
d="M81 700h87l335 -523q24 -40 30 -55v578h81v-700h-87l-335 524q-24 40 -30 55v-579h-81v700z" />
    <glyph glyph-name="O" unicode="O" horiz-adv-x="784" 
d="M731 350q0 -161 -97 -262.5t-242 -101.5t-242 101.5t-97 262.5t97 262.5t242 101.5t242 -101.5t97 -262.5zM392 61q111 0 183 79.5t72 209.5t-72 209.5t-183 79.5t-183 -79.5t-72 -209.5t72 -209.5t183 -79.5z" />
    <glyph glyph-name="P" unicode="P" horiz-adv-x="670" 
d="M81 0v700h293q113 0 179.5 -58.5t66.5 -160.5t-66.5 -161t-179.5 -59h-209v-261h-84zM165 335h207q81 0 122.5 38t41.5 108q0 69 -41.5 107t-122.5 38h-207v-291z" />
    <glyph glyph-name="Q" unicode="Q" horiz-adv-x="784" 
d="M731 350q0 -96 -36.5 -173.5t-100.5 -125.5q43 -24 96 -43l-33 -75q-88 33 -144 74q-57 -21 -121 -21q-145 0 -242 101.5t-97 262.5t97 262.5t242 101.5t242 -101.5t97 -262.5zM137 350q0 -130 72 -209.5t183 -79.5t183 79.5t72 209.5t-72 209.5t-183 79.5t-183 -79.5
t-72 -209.5z" />
    <glyph glyph-name="R" unicode="R" horiz-adv-x="630" 
d="M325 303h-160v-303h-84v700h278q104 0 164.5 -54.5t60.5 -140.5q0 -77 -44 -127.5t-124 -68.5l174 -309h-93zM165 376h184q151 0 151 125q0 126 -151 126h-184v-251z" />
    <glyph glyph-name="S" unicode="S" horiz-adv-x="644" 
d="M164 532q0 -53 48 -84.5t145 -50.5q227 -44 227 -201q0 -90 -71 -150.5t-184 -59.5q-108 1 -180.5 52.5t-98.5 128.5l74 33q24 -63 75 -102t129 -39t125 38.5t47 92.5q0 58 -47.5 91t-140.5 50q-229 42 -229 200q0 81 65.5 132t167.5 51q180 0 252 -145l-68 -40
q-62 112 -185 112q-66 0 -108.5 -29t-42.5 -80z" />
    <glyph glyph-name="T" unicode="T" horiz-adv-x="553" 
d="M235 0v625h-217v75h517v-75h-216v-625h-84z" />
    <glyph glyph-name="U" unicode="U" horiz-adv-x="669" 
d="M598 245q0 -122 -72 -190.5t-191 -68.5t-191 68.5t-72 190.5v455h84v-450q0 -87 49 -138t130 -51q80 0 129.5 51t49.5 138v450h84v-455z" />
    <glyph glyph-name="V" unicode="V" horiz-adv-x="615" 
d="M2 700h88l192 -530q15 -44 26 -81l26 81l192 530h87l-260 -700h-91z" />
    <glyph glyph-name="W" unicode="W" horiz-adv-x="895" 
d="M203 0l-198 700h85l140 -521q14 -52 19 -77l17 78l136 520h91l136 -520q13 -53 18 -78l18 77l140 521h85l-197 -700h-90l-155 593l-155 -593h-90z" />
    <glyph glyph-name="X" unicode="X" horiz-adv-x="572" 
d="M285 441l162 259h89l-203 -319l235 -381h-92l-191 311l-189 -311h-93l236 376l-203 324h93z" />
    <glyph glyph-name="Y" unicode="Y" horiz-adv-x="551" 
d="M234 0v286l-230 414h91l159 -295q13 -24 22 -48l22 48l158 295h91l-229 -414v-286h-84z" />
    <glyph glyph-name="Z" unicode="Z" horiz-adv-x="593" 
d="M53 700h480v-77l-395 -546h412v-77h-510v75l399 548h-386v77z" />
    <glyph glyph-name="bracketleft" unicode="[" horiz-adv-x="325" 
d="M83 -150v850h191v-73h-110v-704h110v-73h-191z" />
    <glyph glyph-name="backslash" unicode="\" horiz-adv-x="495" 
d="M406 -30l-400 760h84l400 -760h-84z" />
    <glyph glyph-name="bracketright" unicode="]" horiz-adv-x="325" 
d="M51 -150v73h110v704h-110v73h191v-850h-191z" />
    <glyph glyph-name="asciicircum" unicode="^" horiz-adv-x="442" 
d="M20 448l162 252h78l162 -252h-75l-126 194l-126 -194h-75z" />
    <glyph glyph-name="underscore" unicode="_" horiz-adv-x="452" 
d="M8 -72v65h436v-65h-436z" />
    <glyph glyph-name="grave" unicode="`" horiz-adv-x="292" 
d="M167 558l-108 145h107l67 -145h-66z" />
    <glyph glyph-name="a" unicode="a" horiz-adv-x="525" 
d="M401 0q-14 44 -14 98q-20 -50 -68.5 -81t-103.5 -31q-75 0 -120.5 42.5t-45.5 109.5q0 69 47 108.5t122 50.5l168 26v25q0 48 -30.5 73t-86.5 25q-55 0 -86.5 -23.5t-31.5 -57.5q0 -8 2 -14l-71 -15q-6 14 -6 34q0 59 54 99.5t139 40.5q95 0 146 -43t51 -121v-222
q0 -72 15 -124h-80zM227 56q72 0 115.5 54.5t43.5 130.5v20l-152 -24q-105 -19 -105 -96q0 -38 27 -61.5t71 -23.5z" />
    <glyph glyph-name="b" unicode="b" horiz-adv-x="601" 
d="M70 700h81v-287q28 45 76 71t106 26q99 0 164.5 -73.5t65.5 -188.5t-68 -188.5t-171 -73.5q-58 0 -104.5 28.5t-68.5 69.5v-84h-81v700zM312 59q74 0 121 53t47 136t-47 136t-121 53q-73 0 -120.5 -53.5t-47.5 -135.5t47 -135.5t121 -53.5z" />
    <glyph glyph-name="c" unicode="c" horiz-adv-x="542" 
d="M508 112q-71 -126 -215 -126q-110 0 -182 74t-72 188t74.5 188t179.5 74q154 0 215 -125l-65 -39q-51 90 -149 90q-74 0 -123.5 -51.5t-49.5 -136.5q0 -84 49 -136t124 -52q53 0 88.5 22.5t64.5 66.5z" />
    <glyph glyph-name="d" unicode="d" horiz-adv-x="601" 
d="M531 0h-80v88q-22 -44 -68 -73t-104 -29q-104 0 -172 73.5t-68 188.5q0 114 69 188t168 74q59 0 104.5 -25.5t70.5 -72.5v288h80v-700zM289 59q74 0 121 53.5t47 135.5t-47 135.5t-121 53.5t-121 -53t-47 -136t47 -136t121 -53z" />
    <glyph glyph-name="e" unicode="e" horiz-adv-x="566" 
d="M118 235q4 -78 50.5 -129t119.5 -51q58 0 91.5 22.5t64.5 65.5l61 -34q-73 -123 -220 -123q-104 0 -175 74t-71 188t72 188t178 74q108 0 173 -69t65 -179v-27h-409zM288 445q-63 0 -110.5 -41t-59.5 -104h328q-4 68 -49 106.5t-109 38.5z" />
    <glyph glyph-name="f" unicode="f" horiz-adv-x="317" 
d="M22 496h76v92q0 76 40 119t114 43q29 0 52 -10l-13 -69q-18 7 -39 7q-32 0 -52.5 -21.5t-20.5 -64.5v-96h117v-63h-117v-433h-81v433h-76v63z" />
    <glyph glyph-name="g" unicode="g" horiz-adv-x="584" 
d="M150 -52q-2 -12 -2 -22q0 -34 36.5 -55.5t97.5 -21.5q157 0 157 180v70q-56 -91 -167 -91q-100 0 -166 68.5t-66 182.5q0 115 67.5 183t164.5 68q114 0 167 -85v71h81v-463q0 -118 -63 -184.5t-175 -66.5q-105 0 -160 41t-55 105q0 12 4 30zM282 440q-73 0 -117.5 -49
t-44.5 -132t44.5 -132t117.5 -49t118 49t45 132t-45 132t-118 49z" />
    <glyph glyph-name="h" unicode="h" horiz-adv-x="573" 
d="M503 0h-80v316q0 58 -32.5 89.5t-88.5 31.5q-60 0 -105.5 -48.5t-45.5 -121.5v-267h-81v700h81v-295q27 49 74 77t104 28q81 0 127.5 -46t46.5 -128v-336z" />
    <glyph glyph-name="i" unicode="i" horiz-adv-x="223" 
d="M64 583v97h95v-97h-95zM71 496h81v-496h-81v496z" />
    <glyph glyph-name="j" unicode="j" horiz-adv-x="224" 
d="M65 680h95v-97h-95v97zM-25 -130q19 -8 40 -8q57 0 57 70v564h81v-560q0 -68 -31 -107.5t-95 -39.5q-34 0 -63 9z" />
    <glyph glyph-name="k" unicode="k" horiz-adv-x="502" 
d="M72 0v700h80v-391l194 187h102l-178 -172l208 -324h-92l-172 268l-62 -60v-208h-80z" />
    <glyph glyph-name="l" unicode="l" horiz-adv-x="221" 
d="M70 700h81v-700h-81v700z" />
    <glyph glyph-name="m" unicode="m" horiz-adv-x="816" 
d="M746 0h-81v339q0 101 -96 101q-51 0 -86.5 -45t-35.5 -129v-266h-80v336q0 48 -24 76t-70 28q-51 0 -86.5 -45.5t-35.5 -124.5v-270h-81v496h81v-77q22 41 61.5 66t86.5 25q49 0 85.5 -25t51.5 -70q24 43 66 69t91 26q70 0 111.5 -39.5t41.5 -108.5v-362z" />
    <glyph glyph-name="n" unicode="n" horiz-adv-x="567" 
d="M497 0h-81v316q0 58 -32.5 89.5t-87.5 31.5q-59 0 -102 -47.5t-43 -118.5v-271h-81v496h81v-88q27 47 73 74.5t99 27.5q76 0 125 -44.5t49 -128.5v-337z" />
    <glyph glyph-name="o" unicode="o" horiz-adv-x="597" 
d="M558 248q0 -121 -76 -191.5t-184 -70.5q-107 0 -183 70.5t-76 191.5t76 191.5t183 70.5q108 0 184 -70.5t76 -191.5zM298 59q76 0 127.5 53t51.5 136t-51.5 136t-127.5 53q-75 0 -126.5 -53t-51.5 -136t51.5 -136t126.5 -53z" />
    <glyph glyph-name="p" unicode="p" horiz-adv-x="603" 
d="M72 496h80v-90q25 45 73 74.5t107 29.5q100 0 166 -73.5t66 -188.5q0 -114 -66.5 -188t-169.5 -74q-57 0 -103.5 25t-72.5 69v-284h-80v700zM314 437q-74 0 -121 -53.5t-47 -135.5t47 -135.5t121 -53.5t121 53t47 136t-47 136t-121 53z" />
    <glyph glyph-name="q" unicode="q" horiz-adv-x="603" 
d="M531 -204h-80v286q-54 -96 -174 -96q-101 0 -169.5 74.5t-68.5 187.5q0 114 69 188t169 74q61 0 107 -27t67 -72v85h80v-700zM289 437q-74 0 -121 -53t-47 -136t47 -136t121 -53t121 53.5t47 135.5t-47 135.5t-121 53.5z" />
    <glyph glyph-name="r" unicode="r" horiz-adv-x="349" 
d="M320 432q-17 5 -38 5q-55 0 -93 -51.5t-38 -123.5v-262h-81v496h81v-89q19 45 56.5 74t84.5 29q24 0 42 -5z" />
    <glyph glyph-name="s" unicode="s" horiz-adv-x="482" 
d="M146 377q0 -61 131 -86q81 -16 122.5 -51t41.5 -96q0 -65 -49.5 -111.5t-136.5 -46.5q-80 0 -132.5 33t-76.5 85l67 42q44 -91 143 -91q50 0 79 23t29 62q0 36 -30 57t-94 33q-167 30 -167 147q0 60 49 96.5t121 36.5q127 0 181 -95l-57 -40q-39 69 -123 69
q-42 0 -70 -18t-28 -49z" />
    <glyph glyph-name="t" unicode="t" horiz-adv-x="344" 
d="M26 496h84v134h80v-134h119v-63h-119v-300q0 -76 69 -76q18 0 38 6l8 -67q-30 -10 -64 -10q-58 0 -94.5 34.5t-36.5 106.5v306h-84v63z" />
    <glyph glyph-name="u" unicode="u" horiz-adv-x="567" 
d="M72 496h80v-314q0 -59 32 -91t87 -32q61 0 103 48.5t42 124.5v264h81v-496h-81v87q-24 -46 -68.5 -73.5t-97.5 -27.5q-77 0 -127.5 46.5t-50.5 139.5v324z" />
    <glyph glyph-name="v" unicode="v" horiz-adv-x="494" 
d="M287 0h-80l-199 496h86l153 -400l153 400h86z" />
    <glyph glyph-name="w" unicode="w" horiz-adv-x="689" 
d="M496 95l107 401h79l-142 -496h-85l-111 404l-110 -404h-85l-142 496h79l107 -401l109 401h84z" />
    <glyph glyph-name="x" unicode="x" horiz-adv-x="447" 
d="M224 328l107 168h91l-151 -228l175 -268h-90l-132 203l-131 -203h-94l181 264l-153 232h92z" />
    <glyph glyph-name="y" unicode="y" horiz-adv-x="500" 
d="M75 -126q20 -10 39 -10q41 0 61 51l33 84l-203 497h91l155 -388l154 388h89l-248 -606q-21 -52 -52 -76t-78 -24q-31 0 -55 9z" />
    <glyph glyph-name="z" unicode="z" horiz-adv-x="481" 
d="M441 67v-67h-400v67l294 362h-285v67h376v-67l-295 -362h310z" />
    <glyph glyph-name="braceleft" unicode="{" horiz-adv-x="372" 
d="M284 -150q-81 0 -117.5 40t-36.5 130v127q0 53 -17.5 73t-57.5 20v70q40 0 57.5 20t17.5 73v127q0 90 36.5 130t117.5 40h37v-73h-29q-81 0 -81 -90v-140q0 -55 -15 -80.5t-51 -41.5q36 -16 51 -41.5t15 -80.5v-140q0 -90 81 -90h29v-73h-37z" />
    <glyph glyph-name="bar" unicode="|" horiz-adv-x="247" 
d="M83 -110v850h81v-850h-81z" />
    <glyph glyph-name="braceright" unicode="}" horiz-adv-x="372" 
d="M51 -150v73h29q81 0 81 90v140q0 55 15 80.5t51 41.5q-36 16 -51 41.5t-15 80.5v140q0 90 -81 90h-29v73h37q80 0 116.5 -40t36.5 -130v-127q0 -53 18 -73t58 -20v-70q-40 0 -58 -20t-18 -73v-127q0 -90 -36.5 -130t-116.5 -40h-37z" />
    <glyph glyph-name="asciitilde" unicode="~" horiz-adv-x="438" 
d="M57 268q-12 18 -12 45q0 40 27 62.5t67 22.5q29 0 53 -10t37.5 -22.5t30 -22.5t32.5 -10q14 0 22.5 8.5t8.5 21.5q0 11 -6 22l64 13q12 -18 12 -45q0 -40 -27 -62.5t-66 -22.5q-29 0 -53.5 10t-38 22.5t-30 22.5t-32.5 10q-14 0 -22.5 -8.5t-8.5 -21.5q0 -10 7 -22z" />
    <glyph glyph-name="uni00A0" unicode="&#xa0;" horiz-adv-x="276" 
 />
    <glyph glyph-name="exclamdown" unicode="&#xa1;" horiz-adv-x="265" 
d="M83 394v102h99v-102h-99zM90 -204v223l13 293h59l12 -293v-223h-84z" />
    <glyph glyph-name="cent" unicode="&#xa2;" horiz-adv-x="564" 
d="M335 63q71 12 119 86l61 -37q-62 -110 -180 -124v-98h-73v99q-95 13 -155.5 84.5t-60.5 174.5t62 174t154 85v113h73v-112q127 -13 180 -123l-65 -39q-41 71 -115 87v-370zM129 248q0 -72 36.5 -121.5t96.5 -62.5v368q-59 -13 -96 -62t-37 -122z" />
    <glyph glyph-name="sterling" unicode="&#xa3;" horiz-adv-x="562" 
d="M68 0v57q33 44 49 84t16 94q0 44 -10 81h-92v64h75q-22 70 -22 122q0 98 63.5 155t159.5 57q99 0 155.5 -48.5t56.5 -123.5q0 -39 -14 -71l-76 13q11 28 11 55q0 43 -35.5 74t-98.5 31q-62 0 -101 -38t-39 -108q0 -44 21 -118h199v-64h-184q9 -37 9 -77q0 -86 -50 -166
h348v-73h-441z" />
    <glyph glyph-name="currency" unicode="&#xa4;" horiz-adv-x="631" 
d="M119 101l-53 52l67 67q-40 56 -40 130t40 130l-67 67l53 52l67 -66q60 40 129 40q70 0 130 -40l67 66l53 -52l-67 -67q39 -55 39 -130t-39 -130l67 -67l-53 -52l-67 66q-60 -40 -130 -40q-69 0 -129 40zM315 195q65 0 106.5 43.5t41.5 111.5t-41.5 111.5t-106.5 43.5
t-106.5 -43.5t-41.5 -111.5t41.5 -111.5t106.5 -43.5z" />
    <glyph glyph-name="yen" unicode="&#xa5;" horiz-adv-x="558" 
d="M237 0v143h-148v64h148v79h-148v65h113l-187 349h91l151 -293q13 -25 22 -49l22 49l151 293h91l-187 -349h114v-65h-149v-79h149v-64h-149v-143h-84z" />
    <glyph glyph-name="brokenbar" unicode="&#xa6;" horiz-adv-x="247" 
d="M83 382v358h81v-358h-81zM83 -110v358h81v-358h-81z" />
    <glyph glyph-name="section" unicode="&#xa7;" horiz-adv-x="516" 
d="M262 -93q-149 0 -208 132l60 44q45 -109 150 -109q48 0 81 24t33 67t-33.5 71t-122.5 49q-78 17 -120 56t-42 94q0 63 54 104q-50 47 -50 113q0 75 55 118.5t134 43.5q150 0 209 -132l-60 -44q-45 109 -150 109q-48 0 -81 -24t-33 -69q0 -39 34 -69t122 -49
q87 -20 124.5 -54t37.5 -88q0 -67 -54 -109q50 -44 50 -116q0 -75 -55 -118.5t-135 -43.5zM348 218q34 27 34 66q0 32 -30 53.5t-101 37.5q-53 12 -86 30q-32 -26 -32 -61t29.5 -57.5t100.5 -40.5q43 -10 85 -28z" />
    <glyph glyph-name="dieresis" unicode="&#xa8;" horiz-adv-x="383" 
d="M66 588v92h93v-92h-93zM225 588v92h92v-92h-92z" />
    <glyph glyph-name="copyright" unicode="&#xa9;" horiz-adv-x="841" 
d="M421 -14q-150 0 -257 106.5t-107 257.5t107 257.5t257 106.5t257 -106.5t107 -257.5t-107 -257.5t-257 -106.5zM421 45q126 0 214 89t88 216t-88 216t-214 89q-127 0 -215 -89t-88 -216t88 -216t215 -89zM424 146q-88 0 -144 57.5t-56 146.5t57.5 146.5t140.5 57.5
q62 0 107 -28t65 -78l-48 -31q-38 79 -124 79q-56 0 -94.5 -40t-38.5 -106t38 -105.5t96 -39.5q83 0 125 83l48 -31q-54 -111 -172 -111z" />
    <glyph glyph-name="ordfeminine" unicode="&#xaa;" horiz-adv-x="381" 
d="M298 300q-20 24 -20 66q-16 -34 -47 -53.5t-69 -19.5q-52 0 -84 29.5t-32 76.5q0 48 32.5 75.5t87.5 36.5l111 18v11q0 68 -75 68q-36 0 -56 -14t-20 -35q0 -6 1 -10l-58 -20q-5 11 -5 28q0 41 38 70.5t100 29.5q68 0 103.5 -30t35.5 -86v-152q0 -55 21 -89h-64zM171 348
q50 0 78 35t28 85v12l-101 -16q-66 -10 -66 -61q0 -25 17 -40t44 -15z" />
    <glyph glyph-name="guillemotleft" unicode="&#xab;" horiz-adv-x="512" 
d="M202 75l-157 200l157 200h94l-156 -200l156 -200h-94zM384 75l-157 200l157 200h94l-156 -200l156 -200h-94z" />
    <glyph glyph-name="logicalnot" unicode="&#xac;" horiz-adv-x="528" 
d="M376 197v134h-331v68h412v-202h-81z" />
    <glyph glyph-name="uni00AD" unicode="&#xad;" horiz-adv-x="453" 
d="M45 279v64h363v-64h-363z" />
    <glyph glyph-name="registered" unicode="&#xae;" horiz-adv-x="841" 
d="M421 -14q-150 0 -257 106.5t-107 257.5t107 257.5t257 106.5t257 -106.5t107 -257.5t-107 -257.5t-257 -106.5zM421 45q126 0 214 89t88 216t-88 216t-214 89q-127 0 -215 -89t-88 -216t88 -216t215 -89zM282 151v398h160q62 0 96.5 -32t34.5 -84q0 -44 -27.5 -73.5
t-73.5 -39.5l98 -169h-66l-95 166h-67v-166h-60zM342 367h98q36 0 55 18t19 48t-19 47t-55 17h-98v-130z" />
    <glyph glyph-name="macron" unicode="&#xaf;" horiz-adv-x="311" 
d="M45 601v68h220v-68h-220z" />
    <glyph glyph-name="degree" unicode="&#xb0;" horiz-adv-x="358" 
d="M179 441q-59 0 -98 39.5t-39 97.5q0 57 39 96.5t98 39.5t98 -39.5t39 -96.5q0 -58 -39 -97.5t-98 -39.5zM179 498q35 0 57 23t22 57t-22 56.5t-57 22.5t-57 -22.5t-22 -56.5t22 -57t57 -23z" />
    <glyph glyph-name="plusminus" unicode="&#xb1;" horiz-adv-x="516" 
d="M225 158v179h-178v65h178v178h65v-178h179v-65h-179v-179h-65zM47 0v65h422v-65h-422z" />
    <glyph glyph-name="uni00B2" unicode="&#xb2;" horiz-adv-x="336" 
d="M59 350v42l131 126q44 44 44 86q0 22 -15.5 36.5t-42.5 14.5t-43.5 -15.5t-16.5 -40.5q0 -14 4 -23l-54 -8q-6 15 -6 36q0 41 32 72t84 31q54 0 85.5 -28t31.5 -72q0 -35 -14.5 -61.5t-49.5 -61.5l-82 -80h150v-54h-238z" />
    <glyph glyph-name="uni00B3" unicode="&#xb3;" horiz-adv-x="339" 
d="M173 343q-56 0 -90 30.5t-34 71.5q0 16 6 32l55 -12q-3 -7 -3 -18q0 -24 19 -38t48 -14q30 0 47.5 15.5t17.5 44.5t-25.5 44t-67.5 15v46q76 0 76 55q0 19 -14.5 30.5t-38.5 11.5t-40 -12.5t-16 -33.5q0 -7 2 -17l-52 -6q-5 13 -5 27q0 38 31 65t80 27q52 0 82 -24.5
t30 -61.5q0 -52 -52 -78q29 -10 48.5 -33t19.5 -56q0 -51 -34.5 -81t-89.5 -30z" />
    <glyph glyph-name="acute" unicode="&#xb4;" horiz-adv-x="292" 
d="M59 558l67 145h107l-108 -145h-66z" />
    <glyph glyph-name="uni00B5" unicode="&#xb5;" horiz-adv-x="569" 
d="M72 -204v700h80v-314q0 -59 32 -91t87 -32q61 0 103 48.5t42 124.5v264h81v-496h-81v87q-24 -46 -68.5 -73.5t-97.5 -27.5q-59 0 -100 28q2 -36 2 -63v-155h-80z" />
    <glyph glyph-name="paragraph" unicode="&#xb6;" horiz-adv-x="615" 
d="M288 -120v444h-36q-91 0 -150.5 51.5t-59.5 136.5t59.5 136.5t150.5 51.5h328v-69h-62v-751h-77v751h-76v-751h-77z" />
    <glyph glyph-name="periodcentered" unicode="&#xb7;" horiz-adv-x="189" 
d="M45 309v99h98v-99h-98z" />
    <glyph glyph-name="cedilla" unicode="&#xb8;" horiz-adv-x="298" 
d="M146 -204q-34 0 -56.5 16t-29.5 44l49 13q7 -28 39 -28q15 0 25 9.5t10 26.5t-10.5 27.5t-27.5 10.5q-23 0 -47 -20l-31 29l33 92h55l-39 -73q19 13 47 13q32 0 53 -21.5t21 -55.5q0 -39 -26 -61t-65 -22z" />
    <glyph glyph-name="uni00B9" unicode="&#xb9;" horiz-adv-x="244" 
d="M118 350v273q-21 -24 -75 -24v58q59 0 79 43h56v-350h-60z" />
    <glyph glyph-name="ordmasculine" unicode="&#xba;" horiz-adv-x="455" 
d="M409 475q0 -84 -55 -133t-126 -49q-72 0 -127 49t-55 133t55 133t127 49q71 0 126 -49t55 -133zM228 350q50 0 83.5 35t33.5 90t-33.5 90t-83.5 35q-51 0 -84.5 -35.5t-33.5 -89.5t33.5 -89.5t84.5 -35.5z" />
    <glyph glyph-name="guillemotright" unicode="&#xbb;" horiz-adv-x="512" 
d="M34 75l156 200l-156 200h94l157 -200l-157 -200h-94zM216 75l156 200l-156 200h94l157 -200l-157 -200h-94z" />
    <glyph glyph-name="onequarter" unicode="&#xbc;" horiz-adv-x="737" 
d="M118 350v273q-21 -24 -75 -24v58q59 0 79 43h56v-350h-60zM174 0l-51 35l434 665l51 -35zM586 0v66h-168v51l168 233h61v-233h39v-51h-39v-66h-61zM478 117h108v147z" />
    <glyph glyph-name="onehalf" unicode="&#xbd;" horiz-adv-x="752" 
d="M118 350v273q-21 -24 -75 -24v58q59 0 79 43h56v-350h-60zM174 0l-51 35l434 665l51 -35zM475 0v42l131 126q44 44 44 86q0 22 -15.5 36.5t-42.5 14.5t-43.5 -15.5t-16.5 -40.5q0 -14 4 -23l-54 -8q-6 15 -6 36q0 41 32 72t84 31q54 0 85.5 -28t31.5 -72
q0 -35 -14.5 -61.5t-49.5 -61.5l-82 -80h150v-54h-238z" />
    <glyph glyph-name="threequarters" unicode="&#xbe;" horiz-adv-x="772" 
d="M173 343q-56 0 -90 30.5t-34 71.5q0 16 6 32l55 -12q-3 -7 -3 -18q0 -24 19 -38t48 -14q30 0 47.5 15.5t17.5 44.5t-25.5 44t-67.5 15v46q76 0 76 55q0 19 -14.5 30.5t-38.5 11.5t-40 -12.5t-16 -33.5q0 -7 2 -17l-52 -6q-5 13 -5 27q0 38 31 65t80 27q52 0 82 -24.5
t30 -61.5q0 -52 -52 -78q29 -10 48.5 -33t19.5 -56q0 -51 -34.5 -81t-89.5 -30zM228 0l-52 35l435 665l51 -35zM621 0v66h-167v51l167 233h61v-233h39v-51h-39v-66h-61zM513 117h108v147z" />
    <glyph glyph-name="questiondown" unicode="&#xbf;" horiz-adv-x="533" 
d="M325 496v-102h-98v102h98zM318 310v-14q0 -54 -18 -89t-68 -77q-57 -47 -79 -80.5t-22 -79.5q0 -53 38.5 -85t99.5 -32q58 0 98 35t40 98q0 22 -8 41l74 15q13 -26 13 -64q0 -78 -59.5 -137t-156.5 -59q-102 0 -160.5 51t-58.5 130q0 62 26.5 106.5t98.5 106.5
q33 28 46.5 55.5t13.5 78.5h82z" />
    <glyph glyph-name="Agrave" unicode="&#xc0;" horiz-adv-x="658" 
d="M315 762l-108 145h107l67 -145h-66zM6 0l280 700h86l280 -700h-89l-80 206h-308l-80 -206h-89zM203 278h252l-107 276q-11 25 -19 53q-8 -28 -19 -53z" />
    <glyph glyph-name="Aacute" unicode="&#xc1;" horiz-adv-x="658" 
d="M278 762l67 145h107l-108 -145h-66zM6 0l280 700h86l280 -700h-89l-80 206h-308l-80 -206h-89zM203 278h252l-107 276q-11 25 -19 53q-8 -28 -19 -53z" />
    <glyph glyph-name="Acircumflex" unicode="&#xc2;" horiz-adv-x="658" 
d="M195 762l102 144h64l102 -144h-66l-68 72l-68 -72h-66zM6 0l280 700h86l280 -700h-89l-80 206h-308l-80 -206h-89zM203 278h252l-107 276q-11 25 -19 53q-8 -28 -19 -53z" />
    <glyph glyph-name="Atilde" unicode="&#xc3;" horiz-adv-x="658" 
d="M407 765q-31 0 -55 10.5t-36 23t-28 23t-34 10.5q-13 0 -21 -8t-8 -20q0 -14 6 -24l-58 -12q-11 20 -11 45q0 38 26 58.5t62 20.5q32 0 56 -10.5t35.5 -23t27.5 -23t34 -10.5q29 0 29 28q0 12 -5 24l57 12q11 -19 11 -45q0 -38 -26 -58.5t-62 -20.5zM6 0l280 700h86
l280 -700h-89l-80 206h-308l-80 -206h-89zM203 278h252l-107 276q-11 25 -19 53q-8 -28 -19 -53z" />
    <glyph glyph-name="Adieresis" unicode="&#xc4;" horiz-adv-x="658" 
d="M203 792v92h93v-92h-93zM362 792v92h92v-92h-92zM6 0l280 700h86l280 -700h-89l-80 206h-308l-80 -206h-89zM203 278h252l-107 276q-11 25 -19 53q-8 -28 -19 -53z" />
    <glyph glyph-name="Aring" unicode="&#xc5;" horiz-adv-x="658" 
d="M329 744q-40 0 -68 27.5t-28 67.5t28 67.5t68 27.5t68 -27.5t28 -67.5t-28 -67.5t-68 -27.5zM329 792q20 0 33 13.5t13 33.5t-13 33.5t-33 13.5t-33 -13.5t-13 -33.5t13 -33.5t33 -13.5zM6 0l280 700h86l280 -700h-89l-80 206h-308l-80 -206h-89zM203 278h252l-107 276
q-11 25 -19 53q-8 -28 -19 -53z" />
    <glyph glyph-name="AE" unicode="&#xc6;" horiz-adv-x="934" 
d="M430 206h-245l-91 -206h-88l313 700h548v-74h-353v-227h325v-74h-325v-251h356v-74h-440v206zM217 278h213v348h-59z" />
    <glyph glyph-name="Ccedilla" unicode="&#xc7;" horiz-adv-x="747" 
d="M393 -14h-15l-16 -29q19 13 46 13q33 0 54 -21.5t21 -55.5q0 -39 -26 -61t-65 -22q-34 0 -56.5 16t-29.5 44l49 13q7 -28 38 -28q16 0 26 9.5t10 26.5t-10.5 27.5t-27.5 10.5q-24 0 -48 -20l-31 29l20 53q-124 22 -201.5 121t-77.5 238q0 155 101 259.5t244 104.5
q100 0 174 -43t116 -117l-66 -45q-43 68 -97.5 99t-128.5 31q-107 0 -183 -82.5t-76 -206.5t73 -206.5t185 -82.5q145 0 230 130l66 -42q-53 -81 -122 -122t-176 -41z" />
    <glyph glyph-name="Egrave" unicode="&#xc8;" horiz-adv-x="585" 
d="M289 762l-108 145h107l67 -145h-66zM81 700h437v-74h-353v-227h325v-74h-325v-251h356v-74h-440v700z" />
    <glyph glyph-name="Eacute" unicode="&#xc9;" horiz-adv-x="585" 
d="M252 762l67 145h107l-108 -145h-66zM81 700h437v-74h-353v-227h325v-74h-325v-251h356v-74h-440v700z" />
    <glyph glyph-name="Ecircumflex" unicode="&#xca;" horiz-adv-x="585" 
d="M169 762l102 144h64l102 -144h-66l-68 72l-68 -72h-66zM81 700h437v-74h-353v-227h325v-74h-325v-251h356v-74h-440v700z" />
    <glyph glyph-name="Edieresis" unicode="&#xcb;" horiz-adv-x="585" 
d="M177 792v92h93v-92h-93zM336 792v92h92v-92h-92zM81 700h437v-74h-353v-227h325v-74h-325v-251h356v-74h-440v700z" />
    <glyph glyph-name="Igrave" unicode="&#xcc;" horiz-adv-x="246" 
d="M109 762l-108 145h107l67 -145h-66zM81 700h84v-700h-84v700z" />
    <glyph glyph-name="Iacute" unicode="&#xcd;" horiz-adv-x="246" 
d="M72 762l67 145h107l-108 -145h-66zM81 700h84v-700h-84v700z" />
    <glyph glyph-name="Icircumflex" unicode="&#xce;" horiz-adv-x="246" 
d="M-11 762l102 144h64l102 -144h-66l-68 72l-68 -72h-66zM81 700h84v-700h-84v700z" />
    <glyph glyph-name="Idieresis" unicode="&#xcf;" horiz-adv-x="246" 
d="M-3 792v92h93v-92h-93zM156 792v92h92v-92h-92zM81 700h84v-700h-84v700z" />
    <glyph glyph-name="Eth" unicode="&#xd0;" horiz-adv-x="714" 
d="M38 386h74v314h193q160 0 258 -93.5t98 -256.5t-98 -256.5t-258 -93.5h-193v314h-74v72zM302 75q125 0 199.5 70t74.5 205t-74.5 205t-199.5 70h-106v-239h154v-72h-154v-239h106z" />
    <glyph glyph-name="Ntilde" unicode="&#xd1;" horiz-adv-x="695" 
d="M429 765q-31 0 -55 10.5t-36 23t-28 23t-34 10.5q-13 0 -21 -8t-8 -20q0 -14 6 -24l-58 -12q-11 20 -11 45q0 38 26 58.5t62 20.5q32 0 56 -10.5t35.5 -23t27.5 -23t34 -10.5q29 0 29 28q0 12 -5 24l57 12q11 -19 11 -45q0 -38 -26 -58.5t-62 -20.5zM81 700h87l335 -523
q24 -40 30 -55v578h81v-700h-87l-335 524q-24 40 -30 55v-579h-81v700z" />
    <glyph glyph-name="Ograve" unicode="&#xd2;" horiz-adv-x="784" 
d="M378 762l-108 145h107l67 -145h-66zM731 350q0 -161 -97 -262.5t-242 -101.5t-242 101.5t-97 262.5t97 262.5t242 101.5t242 -101.5t97 -262.5zM392 61q111 0 183 79.5t72 209.5t-72 209.5t-183 79.5t-183 -79.5t-72 -209.5t72 -209.5t183 -79.5z" />
    <glyph glyph-name="Oacute" unicode="&#xd3;" horiz-adv-x="784" 
d="M341 762l67 145h107l-108 -145h-66zM731 350q0 -161 -97 -262.5t-242 -101.5t-242 101.5t-97 262.5t97 262.5t242 101.5t242 -101.5t97 -262.5zM392 61q111 0 183 79.5t72 209.5t-72 209.5t-183 79.5t-183 -79.5t-72 -209.5t72 -209.5t183 -79.5z" />
    <glyph glyph-name="Ocircumflex" unicode="&#xd4;" horiz-adv-x="784" 
d="M258 762l102 144h64l102 -144h-66l-68 72l-68 -72h-66zM731 350q0 -161 -97 -262.5t-242 -101.5t-242 101.5t-97 262.5t97 262.5t242 101.5t242 -101.5t97 -262.5zM392 61q111 0 183 79.5t72 209.5t-72 209.5t-183 79.5t-183 -79.5t-72 -209.5t72 -209.5t183 -79.5z" />
    <glyph glyph-name="Otilde" unicode="&#xd5;" horiz-adv-x="784" 
d="M470 765q-31 0 -55 10.5t-36 23t-28 23t-34 10.5q-13 0 -21 -8t-8 -20q0 -14 6 -24l-58 -12q-11 20 -11 45q0 38 26 58.5t62 20.5q32 0 56 -10.5t35.5 -23t27.5 -23t34 -10.5q29 0 29 28q0 12 -5 24l57 12q11 -19 11 -45q0 -38 -26 -58.5t-62 -20.5zM731 350
q0 -161 -97 -262.5t-242 -101.5t-242 101.5t-97 262.5t97 262.5t242 101.5t242 -101.5t97 -262.5zM392 61q111 0 183 79.5t72 209.5t-72 209.5t-183 79.5t-183 -79.5t-72 -209.5t72 -209.5t183 -79.5z" />
    <glyph glyph-name="Odieresis" unicode="&#xd6;" horiz-adv-x="784" 
d="M266 792v92h93v-92h-93zM425 792v92h92v-92h-92zM731 350q0 -161 -97 -262.5t-242 -101.5t-242 101.5t-97 262.5t97 262.5t242 101.5t242 -101.5t97 -262.5zM392 61q111 0 183 79.5t72 209.5t-72 209.5t-183 79.5t-183 -79.5t-72 -209.5t72 -209.5t183 -79.5z" />
    <glyph glyph-name="multiply" unicode="&#xd7;" horiz-adv-x="506" 
d="M126 193l-45 46l126 125l-126 127l45 46l127 -127l126 127l46 -46l-127 -127l127 -126l-46 -45l-126 126z" />
    <glyph glyph-name="Oslash" unicode="&#xd8;" horiz-adv-x="784" 
d="M591 651q65 -48 102.5 -126t37.5 -175q0 -161 -97 -262.5t-242 -101.5q-74 0 -135 27l-26 -50l-65 36l27 51q-66 47 -103 125t-37 175q0 161 97 262.5t242 101.5q74 0 135 -27l26 50l64 -36zM137 350q0 -148 93 -230l261 499q-46 20 -99 20q-111 0 -183 -79.5t-72 -209.5
zM392 61q111 0 183 79.5t72 209.5q0 148 -93 230l-261 -499q46 -20 99 -20z" />
    <glyph glyph-name="Ugrave" unicode="&#xd9;" horiz-adv-x="669" 
d="M320 762l-108 145h107l67 -145h-66zM598 245q0 -122 -72 -190.5t-191 -68.5t-191 68.5t-72 190.5v455h84v-450q0 -87 49 -138t130 -51q80 0 129.5 51t49.5 138v450h84v-455z" />
    <glyph glyph-name="Uacute" unicode="&#xda;" horiz-adv-x="669" 
d="M283 762l67 145h107l-108 -145h-66zM598 245q0 -122 -72 -190.5t-191 -68.5t-191 68.5t-72 190.5v455h84v-450q0 -87 49 -138t130 -51q80 0 129.5 51t49.5 138v450h84v-455z" />
    <glyph glyph-name="Ucircumflex" unicode="&#xdb;" horiz-adv-x="669" 
d="M201 762l102 144h64l102 -144h-66l-68 72l-68 -72h-66zM598 245q0 -122 -72 -190.5t-191 -68.5t-191 68.5t-72 190.5v455h84v-450q0 -87 49 -138t130 -51q80 0 129.5 51t49.5 138v450h84v-455z" />
    <glyph glyph-name="Udieresis" unicode="&#xdc;" horiz-adv-x="669" 
d="M209 792v92h93v-92h-93zM368 792v92h92v-92h-92zM598 245q0 -122 -72 -190.5t-191 -68.5t-191 68.5t-72 190.5v455h84v-450q0 -87 49 -138t130 -51q80 0 129.5 51t49.5 138v450h84v-455z" />
    <glyph glyph-name="Yacute" unicode="&#xdd;" horiz-adv-x="551" 
d="M224 762l67 145h107l-108 -145h-66zM234 0v286l-230 414h91l159 -295q13 -24 22 -48l22 48l158 295h91l-229 -414v-286h-84z" />
    <glyph glyph-name="Thorn" unicode="&#xde;" horiz-adv-x="673" 
d="M83 700h84v-131h209q113 0 179.5 -58.5t66.5 -160.5t-66.5 -160.5t-179.5 -58.5h-209v-131h-84v700zM167 205h207q81 0 122.5 38t41.5 107t-41.5 107t-122.5 38h-207v-290z" />
    <glyph glyph-name="germandbls" unicode="&#xdf;" horiz-adv-x="590" 
d="M354 -14q-83 0 -148 50l39 65q45 -45 103 -45q51 0 82.5 34.5t31.5 92.5q0 77 -54.5 120t-135.5 43h-24v71h25q65 0 104.5 33.5t39.5 90.5q0 47 -32.5 75t-85.5 28t-86 -33.5t-33 -100.5v-510h-81v433h-75v63h75v14q0 100 59 152t142 52q89 0 142.5 -46t53.5 -119
q0 -61 -33 -101t-86 -59q166 -52 166 -206q0 -84 -51 -140.5t-138 -56.5z" />
    <glyph glyph-name="agrave" unicode="&#xe0;" horiz-adv-x="525" 
d="M249 558l-108 145h107l67 -145h-66zM401 0q-14 44 -14 98q-20 -50 -68.5 -81t-103.5 -31q-75 0 -120.5 42.5t-45.5 109.5q0 69 47 108.5t122 50.5l168 26v25q0 48 -30.5 73t-86.5 25q-55 0 -86.5 -23.5t-31.5 -57.5q0 -8 2 -14l-71 -15q-6 14 -6 34q0 59 54 99.5
t139 40.5q95 0 146 -43t51 -121v-222q0 -72 15 -124h-80zM227 56q72 0 115.5 54.5t43.5 130.5v20l-152 -24q-105 -19 -105 -96q0 -38 27 -61.5t71 -23.5z" />
    <glyph glyph-name="aacute" unicode="&#xe1;" horiz-adv-x="525" 
d="M218 558l67 145h107l-108 -145h-66zM401 0q-14 44 -14 98q-20 -50 -68.5 -81t-103.5 -31q-75 0 -120.5 42.5t-45.5 109.5q0 69 47 108.5t122 50.5l168 26v25q0 48 -30.5 73t-86.5 25q-55 0 -86.5 -23.5t-31.5 -57.5q0 -8 2 -14l-71 -15q-6 14 -6 34q0 59 54 99.5
t139 40.5q95 0 146 -43t51 -121v-222q0 -72 15 -124h-80zM227 56q72 0 115.5 54.5t43.5 130.5v20l-152 -24q-105 -19 -105 -96q0 -38 27 -61.5t71 -23.5z" />
    <glyph glyph-name="acircumflex" unicode="&#xe2;" horiz-adv-x="525" 
d="M135 558l102 144h64l102 -144h-66l-68 72l-68 -72h-66zM401 0q-14 44 -14 98q-20 -50 -68.5 -81t-103.5 -31q-75 0 -120.5 42.5t-45.5 109.5q0 69 47 108.5t122 50.5l168 26v25q0 48 -30.5 73t-86.5 25q-55 0 -86.5 -23.5t-31.5 -57.5q0 -8 2 -14l-71 -15q-6 14 -6 34
q0 59 54 99.5t139 40.5q95 0 146 -43t51 -121v-222q0 -72 15 -124h-80zM227 56q72 0 115.5 54.5t43.5 130.5v20l-152 -24q-105 -19 -105 -96q0 -38 27 -61.5t71 -23.5z" />
    <glyph glyph-name="atilde" unicode="&#xe3;" horiz-adv-x="525" 
d="M347 561q-31 0 -55 10.5t-36 23t-28 23t-34 10.5q-13 0 -21 -8t-8 -20q0 -14 6 -24l-58 -12q-11 20 -11 45q0 38 26 58.5t62 20.5q32 0 56 -10.5t35.5 -23t27.5 -23t34 -10.5q29 0 29 28q0 12 -5 24l57 12q11 -19 11 -45q0 -38 -26 -58.5t-62 -20.5zM401 0q-14 44 -14 98
q-20 -50 -68.5 -81t-103.5 -31q-75 0 -120.5 42.5t-45.5 109.5q0 69 47 108.5t122 50.5l168 26v25q0 48 -30.5 73t-86.5 25q-55 0 -86.5 -23.5t-31.5 -57.5q0 -8 2 -14l-71 -15q-6 14 -6 34q0 59 54 99.5t139 40.5q95 0 146 -43t51 -121v-222q0 -72 15 -124h-80zM227 56
q72 0 115.5 54.5t43.5 130.5v20l-152 -24q-105 -19 -105 -96q0 -38 27 -61.5t71 -23.5z" />
    <glyph glyph-name="adieresis" unicode="&#xe4;" horiz-adv-x="525" 
d="M144 588v92h93v-92h-93zM303 588v92h92v-92h-92zM401 0q-14 44 -14 98q-20 -50 -68.5 -81t-103.5 -31q-75 0 -120.5 42.5t-45.5 109.5q0 69 47 108.5t122 50.5l168 26v25q0 48 -30.5 73t-86.5 25q-55 0 -86.5 -23.5t-31.5 -57.5q0 -8 2 -14l-71 -15q-6 14 -6 34
q0 59 54 99.5t139 40.5q95 0 146 -43t51 -121v-222q0 -72 15 -124h-80zM227 56q72 0 115.5 54.5t43.5 130.5v20l-152 -24q-105 -19 -105 -96q0 -38 27 -61.5t71 -23.5z" />
    <glyph glyph-name="aring" unicode="&#xe5;" horiz-adv-x="525" 
d="M270 540q-40 0 -68 27.5t-28 67.5t28 67.5t68 27.5t68 -27.5t28 -67.5t-28 -67.5t-68 -27.5zM270 588q20 0 33 13.5t13 33.5t-13 33.5t-33 13.5t-33 -13.5t-13 -33.5t13 -33.5t33 -13.5zM401 0q-14 44 -14 98q-20 -50 -68.5 -81t-103.5 -31q-75 0 -120.5 42.5
t-45.5 109.5q0 69 47 108.5t122 50.5l168 26v25q0 48 -30.5 73t-86.5 25q-55 0 -86.5 -23.5t-31.5 -57.5q0 -8 2 -14l-71 -15q-6 14 -6 34q0 59 54 99.5t139 40.5q95 0 146 -43t51 -121v-222q0 -72 15 -124h-80zM227 56q72 0 115.5 54.5t43.5 130.5v20l-152 -24
q-105 -19 -105 -96q0 -38 27 -61.5t71 -23.5z" />
    <glyph glyph-name="ae" unicode="&#xe6;" horiz-adv-x="919" 
d="M222 -14q-77 0 -125 42t-48 108q0 75 57.5 119t151.5 44h128v41q0 106 -115 106q-57 0 -87.5 -23t-30.5 -56q0 -7 2 -14l-69 -24q-7 16 -7 40q0 59 53 100t135 41q139 0 180 -92q73 92 192 92q108 0 173 -69t65 -179v-27h-409q4 -78 50.5 -129t119.5 -51q112 0 166 111
l59 -35q-69 -145 -228 -145q-68 0 -125 37t-88 97q-25 -63 -81.5 -98.5t-118.5 -35.5zM468 299h329q-4 69 -49 107.5t-110 38.5q-63 0 -110.5 -41.5t-59.5 -104.5zM229 56q71 0 114 52.5t43 122.5v4h-124q-67 0 -100 -27t-33 -70q0 -36 27.5 -59t72.5 -23z" />
    <glyph glyph-name="ccedilla" unicode="&#xe7;" horiz-adv-x="542" 
d="M294 60q53 0 88.5 22.5t64.5 66.5l61 -37q-71 -126 -215 -126h-10l-23 -43q19 13 46 13q33 0 54 -21.5t21 -55.5q0 -39 -26 -61t-65 -22q-34 0 -56.5 16t-29.5 44l49 13q7 -28 38 -28q16 0 26 9.5t10 26.5t-10.5 27.5t-27.5 10.5q-24 0 -48 -20l-31 29l25 68
q-88 19 -142 88.5t-54 167.5q0 114 74.5 188t179.5 74q154 0 215 -125l-65 -39q-51 90 -149 90q-74 0 -123.5 -51.5t-49.5 -136.5q0 -84 49 -136t124 -52z" />
    <glyph glyph-name="egrave" unicode="&#xe8;" horiz-adv-x="566" 
d="M266 558l-108 145h107l67 -145h-66zM118 235q4 -78 50.5 -129t119.5 -51q58 0 91.5 22.5t64.5 65.5l61 -34q-73 -123 -220 -123q-104 0 -175 74t-71 188t72 188t178 74q108 0 173 -69t65 -179v-27h-409zM288 445q-63 0 -110.5 -41t-59.5 -104h328q-4 68 -49 106.5
t-109 38.5z" />
    <glyph glyph-name="eacute" unicode="&#xe9;" horiz-adv-x="566" 
d="M235 558l67 145h107l-108 -145h-66zM118 235q4 -78 50.5 -129t119.5 -51q58 0 91.5 22.5t64.5 65.5l61 -34q-73 -123 -220 -123q-104 0 -175 74t-71 188t72 188t178 74q108 0 173 -69t65 -179v-27h-409zM288 445q-63 0 -110.5 -41t-59.5 -104h328q-4 68 -49 106.5
t-109 38.5z" />
    <glyph glyph-name="ecircumflex" unicode="&#xea;" horiz-adv-x="566" 
d="M153 558l102 144h64l102 -144h-66l-68 72l-68 -72h-66zM118 235q4 -78 50.5 -129t119.5 -51q58 0 91.5 22.5t64.5 65.5l61 -34q-73 -123 -220 -123q-104 0 -175 74t-71 188t72 188t178 74q108 0 173 -69t65 -179v-27h-409zM288 445q-63 0 -110.5 -41t-59.5 -104h328
q-4 68 -49 106.5t-109 38.5z" />
    <glyph glyph-name="edieresis" unicode="&#xeb;" horiz-adv-x="566" 
d="M161 588v92h93v-92h-93zM320 588v92h92v-92h-92zM118 235q4 -78 50.5 -129t119.5 -51q58 0 91.5 22.5t64.5 65.5l61 -34q-73 -123 -220 -123q-104 0 -175 74t-71 188t72 188t178 74q108 0 173 -69t65 -179v-27h-409zM288 445q-63 0 -110.5 -41t-59.5 -104h328
q-4 68 -49 106.5t-109 38.5z" />
    <glyph glyph-name="igrave" unicode="&#xec;" horiz-adv-x="223" 
d="M91 558l-108 145h107l67 -145h-66zM71 496h81v-496h-81v496z" />
    <glyph glyph-name="iacute" unicode="&#xed;" horiz-adv-x="223" 
d="M60 558l67 145h107l-108 -145h-66zM71 496h81v-496h-81v496z" />
    <glyph glyph-name="icircumflex" unicode="&#xee;" horiz-adv-x="223" 
d="M-22 558l102 144h64l102 -144h-66l-68 72l-68 -72h-66zM71 496h81v-496h-81v496z" />
    <glyph glyph-name="idieresis" unicode="&#xef;" horiz-adv-x="223" 
d="M-14 588v92h93v-92h-93zM145 588v92h92v-92h-92zM71 496h81v-496h-81v496z" />
    <glyph glyph-name="eth" unicode="&#xf0;" horiz-adv-x="579" 
d="M288 -14q-101 0 -171.5 64t-70.5 175q0 110 70 173.5t165 63.5q59 0 103 -23t67 -61q-22 98 -105 181l-126 -49l-21 59l93 36q-67 51 -135 80l37 60q103 -49 175 -110l99 38l23 -59l-72 -28q114 -125 114 -309q0 -143 -70 -217t-175 -74zM289 55q67 0 115 45.5t48 123.5
t-48 123.5t-115 45.5q-66 0 -114.5 -45.5t-48.5 -123.5t48.5 -123.5t114.5 -45.5z" />
    <glyph glyph-name="ntilde" unicode="&#xf1;" horiz-adv-x="567" 
d="M368 561q-31 0 -55 10.5t-36 23t-28 23t-34 10.5q-13 0 -21 -8t-8 -20q0 -14 6 -24l-58 -12q-11 20 -11 45q0 38 26 58.5t62 20.5q32 0 56 -10.5t35.5 -23t27.5 -23t34 -10.5q29 0 29 28q0 12 -5 24l57 12q11 -19 11 -45q0 -38 -26 -58.5t-62 -20.5zM497 0h-81v316
q0 58 -32.5 89.5t-87.5 31.5q-59 0 -102 -47.5t-43 -118.5v-271h-81v496h81v-88q27 47 73 74.5t99 27.5q76 0 125 -44.5t49 -128.5v-337z" />
    <glyph glyph-name="ograve" unicode="&#xf2;" horiz-adv-x="597" 
d="M278 558l-108 145h107l67 -145h-66zM558 248q0 -121 -76 -191.5t-184 -70.5q-107 0 -183 70.5t-76 191.5t76 191.5t183 70.5q108 0 184 -70.5t76 -191.5zM298 59q76 0 127.5 53t51.5 136t-51.5 136t-127.5 53q-75 0 -126.5 -53t-51.5 -136t51.5 -136t126.5 -53z" />
    <glyph glyph-name="oacute" unicode="&#xf3;" horiz-adv-x="597" 
d="M247 558l67 145h107l-108 -145h-66zM558 248q0 -121 -76 -191.5t-184 -70.5q-107 0 -183 70.5t-76 191.5t76 191.5t183 70.5q108 0 184 -70.5t76 -191.5zM298 59q76 0 127.5 53t51.5 136t-51.5 136t-127.5 53q-75 0 -126.5 -53t-51.5 -136t51.5 -136t126.5 -53z" />
    <glyph glyph-name="ocircumflex" unicode="&#xf4;" horiz-adv-x="597" 
d="M164 558l102 144h64l102 -144h-66l-68 72l-68 -72h-66zM558 248q0 -121 -76 -191.5t-184 -70.5q-107 0 -183 70.5t-76 191.5t76 191.5t183 70.5q108 0 184 -70.5t76 -191.5zM298 59q76 0 127.5 53t51.5 136t-51.5 136t-127.5 53q-75 0 -126.5 -53t-51.5 -136t51.5 -136
t126.5 -53z" />
    <glyph glyph-name="otilde" unicode="&#xf5;" horiz-adv-x="597" 
d="M376 561q-31 0 -55 10.5t-36 23t-28 23t-34 10.5q-13 0 -21 -8t-8 -20q0 -14 6 -24l-58 -12q-11 20 -11 45q0 38 26 58.5t62 20.5q32 0 56 -10.5t35.5 -23t27.5 -23t34 -10.5q29 0 29 28q0 12 -5 24l57 12q11 -19 11 -45q0 -38 -26 -58.5t-62 -20.5zM558 248
q0 -121 -76 -191.5t-184 -70.5q-107 0 -183 70.5t-76 191.5t76 191.5t183 70.5q108 0 184 -70.5t76 -191.5zM298 59q76 0 127.5 53t51.5 136t-51.5 136t-127.5 53q-75 0 -126.5 -53t-51.5 -136t51.5 -136t126.5 -53z" />
    <glyph glyph-name="odieresis" unicode="&#xf6;" horiz-adv-x="597" 
d="M173 588v92h93v-92h-93zM332 588v92h92v-92h-92zM558 248q0 -121 -76 -191.5t-184 -70.5q-107 0 -183 70.5t-76 191.5t76 191.5t183 70.5q108 0 184 -70.5t76 -191.5zM298 59q76 0 127.5 53t51.5 136t-51.5 136t-127.5 53q-75 0 -126.5 -53t-51.5 -136t51.5 -136
t126.5 -53z" />
    <glyph glyph-name="divide" unicode="&#xf7;" horiz-adv-x="516" 
d="M209 377v99h98v-99h-98zM47 207v65h422v-65h-422zM209 0v99h98v-99h-98z" />
    <glyph glyph-name="oslash" unicode="&#xf8;" horiz-adv-x="597" 
d="M461 458q97 -74 97 -210q0 -121 -76 -191.5t-184 -70.5q-52 0 -103 19l-23 -38l-59 34l22 38q-96 74 -96 209q0 121 76 191.5t183 70.5q52 0 103 -19l23 38l59 -34zM120 248q0 -87 56 -140l187 317q-30 12 -65 12q-75 0 -126.5 -53t-51.5 -136zM298 59q76 0 127.5 53
t51.5 136q0 87 -56 141l-188 -318q30 -12 65 -12z" />
    <glyph glyph-name="ugrave" unicode="&#xf9;" horiz-adv-x="567" 
d="M264 558l-108 145h107l67 -145h-66zM72 496h80v-314q0 -59 32 -91t87 -32q61 0 103 48.5t42 124.5v264h81v-496h-81v87q-24 -46 -68.5 -73.5t-97.5 -27.5q-77 0 -127.5 46.5t-50.5 139.5v324z" />
    <glyph glyph-name="uacute" unicode="&#xfa;" horiz-adv-x="567" 
d="M233 558l67 145h107l-108 -145h-66zM72 496h80v-314q0 -59 32 -91t87 -32q61 0 103 48.5t42 124.5v264h81v-496h-81v87q-24 -46 -68.5 -73.5t-97.5 -27.5q-77 0 -127.5 46.5t-50.5 139.5v324z" />
    <glyph glyph-name="ucircumflex" unicode="&#xfb;" horiz-adv-x="567" 
d="M150 558l102 144h64l102 -144h-66l-68 72l-68 -72h-66zM72 496h80v-314q0 -59 32 -91t87 -32q61 0 103 48.5t42 124.5v264h81v-496h-81v87q-24 -46 -68.5 -73.5t-97.5 -27.5q-77 0 -127.5 46.5t-50.5 139.5v324z" />
    <glyph glyph-name="udieresis" unicode="&#xfc;" horiz-adv-x="567" 
d="M159 588v92h93v-92h-93zM318 588v92h92v-92h-92zM72 496h80v-314q0 -59 32 -91t87 -32q61 0 103 48.5t42 124.5v264h81v-496h-81v87q-24 -46 -68.5 -73.5t-97.5 -27.5q-77 0 -127.5 46.5t-50.5 139.5v324z" />
    <glyph glyph-name="yacute" unicode="&#xfd;" horiz-adv-x="500" 
d="M199 558l67 145h107l-108 -145h-66zM75 -126q20 -10 39 -10q41 0 61 51l33 84l-203 497h91l155 -388l154 388h89l-248 -606q-21 -52 -52 -76t-78 -24q-31 0 -55 9z" />
    <glyph glyph-name="thorn" unicode="&#xfe;" horiz-adv-x="603" 
d="M72 700h80v-294q25 45 73.5 74.5t107.5 29.5q99 0 165 -74t66 -188t-66.5 -188t-168.5 -74q-121 0 -177 94v-284h-80v904zM314 437q-74 0 -121 -53.5t-47 -135.5t47 -135.5t121 -53.5t121 53t47 136t-47 136t-121 53z" />
    <glyph glyph-name="ydieresis" unicode="&#xff;" horiz-adv-x="500" 
d="M125 588v92h93v-92h-93zM284 588v92h92v-92h-92zM75 -126q20 -10 39 -10q41 0 61 51l33 84l-203 497h91l155 -388l154 388h89l-248 -606q-21 -52 -52 -76t-78 -24q-31 0 -55 9z" />
    <glyph glyph-name="Amacron" unicode="&#x100;" horiz-adv-x="658" 
d="M219 805v68h220v-68h-220zM6 0l280 700h86l280 -700h-89l-80 206h-308l-80 -206h-89zM203 278h252l-107 276q-11 25 -19 53q-8 -28 -19 -53z" />
    <glyph glyph-name="amacron" unicode="&#x101;" horiz-adv-x="525" 
d="M159 601v68h220v-68h-220zM401 0q-14 44 -14 98q-20 -50 -68.5 -81t-103.5 -31q-75 0 -120.5 42.5t-45.5 109.5q0 69 47 108.5t122 50.5l168 26v25q0 48 -30.5 73t-86.5 25q-55 0 -86.5 -23.5t-31.5 -57.5q0 -8 2 -14l-71 -15q-6 14 -6 34q0 59 54 99.5t139 40.5
q95 0 146 -43t51 -121v-222q0 -72 15 -124h-80zM227 56q72 0 115.5 54.5t43.5 130.5v20l-152 -24q-105 -19 -105 -96q0 -38 27 -61.5t71 -23.5z" />
    <glyph glyph-name="Abreve" unicode="&#x102;" horiz-adv-x="658" 
d="M329 772q-46 0 -74.5 29t-28.5 75h63q0 -20 11 -32.5t29 -12.5t28.5 12.5t10.5 32.5h63q0 -46 -28 -75t-74 -29zM6 0l280 700h86l280 -700h-89l-80 206h-308l-80 -206h-89zM203 278h252l-107 276q-11 25 -19 53q-8 -28 -19 -53z" />
    <glyph glyph-name="abreve" unicode="&#x103;" horiz-adv-x="525" 
d="M270 568q-46 0 -74.5 29t-28.5 75h63q0 -20 11 -32.5t29 -12.5t28.5 12.5t10.5 32.5h63q0 -46 -28 -75t-74 -29zM401 0q-14 44 -14 98q-20 -50 -68.5 -81t-103.5 -31q-75 0 -120.5 42.5t-45.5 109.5q0 69 47 108.5t122 50.5l168 26v25q0 48 -30.5 73t-86.5 25
q-55 0 -86.5 -23.5t-31.5 -57.5q0 -8 2 -14l-71 -15q-6 14 -6 34q0 59 54 99.5t139 40.5q95 0 146 -43t51 -121v-222q0 -72 15 -124h-80zM227 56q72 0 115.5 54.5t43.5 130.5v20l-152 -24q-105 -19 -105 -96q0 -38 27 -61.5t71 -23.5z" />
    <glyph glyph-name="Aogonek" unicode="&#x104;" horiz-adv-x="658" 
d="M649 -127l10 -65q-19 -6 -46 -6q-43 0 -73.5 24.5t-30.5 68.5q0 60 63 105h-9l-80 206h-308l-80 -206h-89l280 700h86l280 -700q-71 -37 -71 -85q0 -20 14 -32t35 -12q11 0 19 2zM203 278h252l-107 276q-11 25 -19 53q-8 -28 -19 -53z" />
    <glyph glyph-name="aogonek" unicode="&#x105;" horiz-adv-x="525" 
d="M478 -127l10 -65q-19 -6 -46 -6q-43 0 -73.5 24.5t-30.5 68.5q0 60 63 105q-14 44 -14 98q-20 -50 -68.5 -81t-103.5 -31q-75 0 -120.5 42.5t-45.5 109.5q0 69 47 108.5t122 50.5l168 26v25q0 48 -30.5 73t-86.5 25q-55 0 -86.5 -23.5t-31.5 -57.5q0 -8 2 -14l-71 -15
q-6 14 -6 34q0 59 54 99.5t139 40.5q95 0 146 -43t51 -121v-222q0 -72 15 -124q-71 -37 -71 -85q0 -20 14 -32t35 -12q11 0 19 2zM386 241v20l-152 -24q-105 -19 -105 -96q0 -38 27 -61.5t71 -23.5q72 0 115.5 54.5t43.5 130.5z" />
    <glyph glyph-name="Cacute" unicode="&#x106;" horiz-adv-x="747" 
d="M344 762l67 145h107l-108 -145h-66zM691 149q-53 -81 -122 -122t-176 -41q-147 0 -243.5 103.5t-96.5 260.5q0 155 101 259.5t244 104.5q100 0 174 -43t116 -117l-66 -45q-43 68 -97.5 99t-128.5 31q-107 0 -183 -82.5t-76 -206.5t73 -206.5t185 -82.5q145 0 230 130z
" />
    <glyph glyph-name="cacute" unicode="&#x107;" horiz-adv-x="542" 
d="M239 558l67 145h107l-108 -145h-66zM508 112q-71 -126 -215 -126q-110 0 -182 74t-72 188t74.5 188t179.5 74q154 0 215 -125l-65 -39q-51 90 -149 90q-74 0 -123.5 -51.5t-49.5 -136.5q0 -84 49 -136t124 -52q53 0 88.5 22.5t64.5 66.5z" />
    <glyph glyph-name="Ccircumflex" unicode="&#x108;" horiz-adv-x="747" 
d="M262 762l102 144h64l102 -144h-66l-68 72l-68 -72h-66zM691 149q-53 -81 -122 -122t-176 -41q-147 0 -243.5 103.5t-96.5 260.5q0 155 101 259.5t244 104.5q100 0 174 -43t116 -117l-66 -45q-43 68 -97.5 99t-128.5 31q-107 0 -183 -82.5t-76 -206.5t73 -206.5t185 -82.5
q145 0 230 130z" />
    <glyph glyph-name="ccircumflex" unicode="&#x109;" horiz-adv-x="542" 
d="M157 558l102 144h64l102 -144h-66l-68 72l-68 -72h-66zM508 112q-71 -126 -215 -126q-110 0 -182 74t-72 188t74.5 188t179.5 74q154 0 215 -125l-65 -39q-51 90 -149 90q-74 0 -123.5 -51.5t-49.5 -136.5q0 -84 49 -136t124 -52q53 0 88.5 22.5t64.5 66.5z" />
    <glyph glyph-name="Cdotaccent" unicode="&#x10a;" horiz-adv-x="747" 
d="M348 787v97h95v-97h-95zM691 149q-53 -81 -122 -122t-176 -41q-147 0 -243.5 103.5t-96.5 260.5q0 155 101 259.5t244 104.5q100 0 174 -43t116 -117l-66 -45q-43 68 -97.5 99t-128.5 31q-107 0 -183 -82.5t-76 -206.5t73 -206.5t185 -82.5q145 0 230 130z" />
    <glyph glyph-name="cdotaccent" unicode="&#x10b;" horiz-adv-x="542" 
d="M243 583v97h95v-97h-95zM508 112q-71 -126 -215 -126q-110 0 -182 74t-72 188t74.5 188t179.5 74q154 0 215 -125l-65 -39q-51 90 -149 90q-74 0 -123.5 -51.5t-49.5 -136.5q0 -84 49 -136t124 -52q53 0 88.5 22.5t64.5 66.5z" />
    <glyph glyph-name="Ccaron" unicode="&#x10c;" horiz-adv-x="747" 
d="M364 762l-102 144h66l68 -72l68 72h66l-102 -144h-64zM691 149q-53 -81 -122 -122t-176 -41q-147 0 -243.5 103.5t-96.5 260.5q0 155 101 259.5t244 104.5q100 0 174 -43t116 -117l-66 -45q-43 68 -97.5 99t-128.5 31q-107 0 -183 -82.5t-76 -206.5t73 -206.5t185 -82.5
q145 0 230 130z" />
    <glyph glyph-name="ccaron" unicode="&#x10d;" horiz-adv-x="542" 
d="M259 558l-102 144h66l68 -72l68 72h66l-102 -144h-64zM508 112q-71 -126 -215 -126q-110 0 -182 74t-72 188t74.5 188t179.5 74q154 0 215 -125l-65 -39q-51 90 -149 90q-74 0 -123.5 -51.5t-49.5 -136.5q0 -84 49 -136t124 -52q53 0 88.5 22.5t64.5 66.5z" />
    <glyph glyph-name="Dcaron" unicode="&#x10e;" horiz-adv-x="682" 
d="M218 762l-102 144h66l68 -72l68 72h66l-102 -144h-64zM81 700h192q160 0 258.5 -93.5t98.5 -256.5t-98.5 -256.5t-258.5 -93.5h-192v700zM270 75q126 0 200.5 70t74.5 205t-74.5 205t-200.5 70h-105v-550h105z" />
    <glyph glyph-name="dcaron" unicode="&#x10f;" horiz-adv-x="689" 
d="M531 0h-80v88q-22 -44 -68 -73t-104 -29q-104 0 -172 73.5t-68 188.5q0 114 69 188t168 74q59 0 104.5 -25.5t70.5 -72.5v288h80v-700zM625 512l-19 10l35 92h-37v86h85v-87zM289 59q74 0 121 53.5t47 135.5t-47 135.5t-121 53.5t-121 -53t-47 -136t47 -136t121 -53z" />
    <glyph glyph-name="Dcroat" unicode="&#x110;" horiz-adv-x="714" 
d="M38 386h74v314h193q160 0 258 -93.5t98 -256.5t-98 -256.5t-258 -93.5h-193v314h-74v72zM302 75q125 0 199.5 70t74.5 205t-74.5 205t-199.5 70h-106v-239h154v-72h-154v-239h106z" />
    <glyph glyph-name="dcroat" unicode="&#x111;" horiz-adv-x="601" 
d="M593 634v-64h-62v-570h-80v88q-22 -44 -68 -73t-104 -29q-104 0 -172 73.5t-68 188.5q0 114 69 188t168 74q59 0 104.5 -25.5t70.5 -72.5v158h-164v64h164v66h80v-66h62zM289 59q74 0 121 53.5t47 135.5t-47 135.5t-121 53.5t-121 -53t-47 -136t47 -136t121 -53z" />
    <glyph glyph-name="Emacron" unicode="&#x112;" horiz-adv-x="585" 
d="M193 805v68h220v-68h-220zM81 700h437v-74h-353v-227h325v-74h-325v-251h356v-74h-440v700z" />
    <glyph glyph-name="emacron" unicode="&#x113;" horiz-adv-x="566" 
d="M177 601v68h220v-68h-220zM118 235q4 -78 50.5 -129t119.5 -51q58 0 91.5 22.5t64.5 65.5l61 -34q-73 -123 -220 -123q-104 0 -175 74t-71 188t72 188t178 74q108 0 173 -69t65 -179v-27h-409zM288 445q-63 0 -110.5 -41t-59.5 -104h328q-4 68 -49 106.5t-109 38.5z" />
    <glyph glyph-name="Ebreve" unicode="&#x114;" horiz-adv-x="585" 
d="M303 772q-46 0 -74.5 29t-28.5 75h63q0 -20 11 -32.5t29 -12.5t28.5 12.5t10.5 32.5h63q0 -46 -28 -75t-74 -29zM81 700h437v-74h-353v-227h325v-74h-325v-251h356v-74h-440v700z" />
    <glyph glyph-name="ebreve" unicode="&#x115;" horiz-adv-x="566" 
d="M287 568q-46 0 -74.5 29t-28.5 75h63q0 -20 11 -32.5t29 -12.5t28.5 12.5t10.5 32.5h63q0 -46 -28 -75t-74 -29zM118 235q4 -78 50.5 -129t119.5 -51q58 0 91.5 22.5t64.5 65.5l61 -34q-73 -123 -220 -123q-104 0 -175 74t-71 188t72 188t178 74q108 0 173 -69t65 -179
v-27h-409zM288 445q-63 0 -110.5 -41t-59.5 -104h328q-4 68 -49 106.5t-109 38.5z" />
    <glyph glyph-name="Edotaccent" unicode="&#x116;" horiz-adv-x="585" 
d="M255 787v97h95v-97h-95zM81 700h437v-74h-353v-227h325v-74h-325v-251h356v-74h-440v700z" />
    <glyph glyph-name="edotaccent" unicode="&#x117;" horiz-adv-x="566" 
d="M239 583v97h95v-97h-95zM118 235q4 -78 50.5 -129t119.5 -51q58 0 91.5 22.5t64.5 65.5l61 -34q-73 -123 -220 -123q-104 0 -175 74t-71 188t72 188t178 74q108 0 173 -69t65 -179v-27h-409zM288 445q-63 0 -110.5 -41t-59.5 -104h328q-4 68 -49 106.5t-109 38.5z" />
    <glyph glyph-name="Eogonek" unicode="&#x118;" horiz-adv-x="585" 
d="M518 -127l10 -65q-20 -6 -46 -6q-43 0 -73.5 24.5t-30.5 68.5q0 60 63 105h-360v700h437v-74h-353v-227h325v-74h-325v-251h356v-74q-71 -37 -71 -85q0 -20 14 -32t35 -12q11 0 19 2z" />
    <glyph glyph-name="eogonek" unicode="&#x119;" horiz-adv-x="566" 
d="M527 262v-27h-409q4 -78 50.5 -129t119.5 -51q58 0 91.5 22.5t64.5 65.5l61 -34q-49 -84 -132 -110q-69 -37 -69 -84q0 -20 14 -32t35 -12q11 0 19 2l10 -65q-20 -6 -46 -6q-43 0 -73.5 24.5t-30.5 68.5q0 49 45 91q-101 3 -169.5 76.5t-68.5 185.5q0 114 72 188t178 74
q108 0 173 -69t65 -179zM118 300h328q-4 68 -49 106.5t-109 38.5q-63 0 -110.5 -41t-59.5 -104z" />
    <glyph glyph-name="Ecaron" unicode="&#x11a;" horiz-adv-x="585" 
d="M271 762l-102 144h66l68 -72l68 72h66l-102 -144h-64zM81 700h437v-74h-353v-227h325v-74h-325v-251h356v-74h-440v700z" />
    <glyph glyph-name="ecaron" unicode="&#x11b;" horiz-adv-x="566" 
d="M255 558l-102 144h66l68 -72l68 72h66l-102 -144h-64zM118 235q4 -78 50.5 -129t119.5 -51q58 0 91.5 22.5t64.5 65.5l61 -34q-73 -123 -220 -123q-104 0 -175 74t-71 188t72 188t178 74q108 0 173 -69t65 -179v-27h-409zM288 445q-63 0 -110.5 -41t-59.5 -104h328
q-4 68 -49 106.5t-109 38.5z" />
    <glyph glyph-name="Gcircumflex" unicode="&#x11c;" horiz-adv-x="761" 
d="M264 762l102 144h64l102 -144h-66l-68 72l-68 -72h-66zM613 121q-73 -135 -225 -135q-147 0 -241 103.5t-94 260.5q0 154 101 259t244 105q94 0 167 -39t115 -109l-65 -43q-75 118 -219 118q-105 0 -182 -83t-77 -208q0 -127 70.5 -208t182.5 -81q93 0 151.5 62.5
t68.5 156.5h-246v71h330v-351h-57z" />
    <glyph glyph-name="gcircumflex" unicode="&#x11d;" horiz-adv-x="584" 
d="M147 558l102 144h64l102 -144h-66l-68 72l-68 -72h-66zM150 -52q-2 -12 -2 -22q0 -34 36.5 -55.5t97.5 -21.5q157 0 157 180v70q-56 -91 -167 -91q-100 0 -166 68.5t-66 182.5q0 115 67.5 183t164.5 68q114 0 167 -85v71h81v-463q0 -118 -63 -184.5t-175 -66.5
q-105 0 -160 41t-55 105q0 12 4 30zM282 440q-73 0 -117.5 -49t-44.5 -132t44.5 -132t117.5 -49t118 49t45 132t-45 132t-118 49z" />
    <glyph glyph-name="Gbreve" unicode="&#x11e;" horiz-adv-x="761" 
d="M398 772q-46 0 -74.5 29t-28.5 75h63q0 -20 11 -32.5t29 -12.5t28.5 12.5t10.5 32.5h63q0 -46 -28 -75t-74 -29zM613 121q-73 -135 -225 -135q-147 0 -241 103.5t-94 260.5q0 154 101 259t244 105q94 0 167 -39t115 -109l-65 -43q-75 118 -219 118q-105 0 -182 -83
t-77 -208q0 -127 70.5 -208t182.5 -81q93 0 151.5 62.5t68.5 156.5h-246v71h330v-351h-57z" />
    <glyph glyph-name="gbreve" unicode="&#x11f;" horiz-adv-x="584" 
d="M282 568q-46 0 -74.5 29t-28.5 75h63q0 -20 11 -32.5t29 -12.5t28.5 12.5t10.5 32.5h63q0 -46 -28 -75t-74 -29zM150 -52q-2 -12 -2 -22q0 -34 36.5 -55.5t97.5 -21.5q157 0 157 180v70q-56 -91 -167 -91q-100 0 -166 68.5t-66 182.5q0 115 67.5 183t164.5 68
q114 0 167 -85v71h81v-463q0 -118 -63 -184.5t-175 -66.5q-105 0 -160 41t-55 105q0 12 4 30zM282 440q-73 0 -117.5 -49t-44.5 -132t44.5 -132t117.5 -49t118 49t45 132t-45 132t-118 49z" />
    <glyph glyph-name="Gdotaccent" unicode="&#x120;" horiz-adv-x="761" 
d="M350 787v97h95v-97h-95zM613 121q-73 -135 -225 -135q-147 0 -241 103.5t-94 260.5q0 154 101 259t244 105q94 0 167 -39t115 -109l-65 -43q-75 118 -219 118q-105 0 -182 -83t-77 -208q0 -127 70.5 -208t182.5 -81q93 0 151.5 62.5t68.5 156.5h-246v71h330v-351h-57z
" />
    <glyph glyph-name="gdotaccent" unicode="&#x121;" horiz-adv-x="584" 
d="M234 583v97h95v-97h-95zM150 -52q-2 -12 -2 -22q0 -34 36.5 -55.5t97.5 -21.5q157 0 157 180v70q-56 -91 -167 -91q-100 0 -166 68.5t-66 182.5q0 115 67.5 183t164.5 68q114 0 167 -85v71h81v-463q0 -118 -63 -184.5t-175 -66.5q-105 0 -160 41t-55 105q0 12 4 30z
M282 440q-73 0 -117.5 -49t-44.5 -132t44.5 -132t117.5 -49t118 49t45 132t-45 132t-118 49z" />
    <glyph glyph-name="uni0122" unicode="&#x122;" horiz-adv-x="761" 
d="M613 121q-73 -135 -225 -135q-147 0 -241 103.5t-94 260.5q0 154 101 259t244 105q94 0 167 -39t115 -109l-65 -43q-75 118 -219 118q-105 0 -182 -83t-77 -208q0 -127 70.5 -208t182.5 -81q93 0 151.5 62.5t68.5 156.5h-246v71h330v-351h-57zM340 -60h95v-95l-72 -120
l-20 7l32 113h-35v95z" />
    <glyph glyph-name="uni0123" unicode="&#x123;" horiz-adv-x="584" 
d="M224 563v96l95 122l20 -15l-59 -107h39v-96h-95zM150 -52q-2 -12 -2 -22q0 -34 36.5 -55.5t97.5 -21.5q157 0 157 180v70q-56 -91 -167 -91q-100 0 -166 68.5t-66 182.5q0 115 67.5 183t164.5 68q114 0 167 -85v71h81v-463q0 -118 -63 -184.5t-175 -66.5q-105 0 -160 41
t-55 105q0 12 4 30zM282 440q-73 0 -117.5 -49t-44.5 -132t44.5 -132t117.5 -49t118 49t45 132t-45 132t-118 49z" />
    <glyph glyph-name="Hcircumflex" unicode="&#x124;" horiz-adv-x="685" 
d="M209 762l102 144h64l102 -144h-66l-68 72l-68 -72h-66zM81 700h84v-305h355v305h84v-700h-84v319h-355v-319h-84v700z" />
    <glyph glyph-name="hcircumflex" unicode="&#x125;" horiz-adv-x="573" 
d="M53 762l102 144h64l102 -144h-66l-68 72l-68 -72h-66zM503 0h-80v316q0 58 -32.5 89.5t-88.5 31.5q-60 0 -105.5 -48.5t-45.5 -121.5v-267h-81v700h81v-295q27 49 74 77t104 28q81 0 127.5 -46t46.5 -128v-336z" />
    <glyph glyph-name="Hbar" unicode="&#x126;" horiz-adv-x="685" 
d="M699 564v-66h-95v-498h-84v319h-355v-319h-84v498h-95v66h95v136h84v-136h355v136h84v-136h95zM520 395v103h-355v-103h355z" />
    <glyph glyph-name="hbar" unicode="&#x127;" horiz-adv-x="573" 
d="M329 510q81 0 127.5 -46t46.5 -128v-336h-80v316q0 58 -32.5 89.5t-88.5 31.5q-60 0 -105.5 -48.5t-45.5 -121.5v-267h-81v570h-62v64h62v66h81v-66h163v-64h-163v-165q27 49 74 77t104 28z" />
    <glyph glyph-name="Itilde" unicode="&#x128;" horiz-adv-x="246" 
d="M201 765q-31 0 -55 10.5t-36 23t-28 23t-34 10.5q-13 0 -21 -8t-8 -20q0 -14 6 -24l-58 -12q-11 20 -11 45q0 38 26 58.5t62 20.5q32 0 56 -10.5t35.5 -23t27.5 -23t34 -10.5q29 0 29 28q0 12 -5 24l57 12q11 -19 11 -45q0 -38 -26 -58.5t-62 -20.5zM81 700h84v-700h-84
v700z" />
    <glyph glyph-name="itilde" unicode="&#x129;" horiz-adv-x="223" 
d="M190 561q-31 0 -55 10.5t-36 23t-28 23t-34 10.5q-13 0 -21 -8t-8 -20q0 -14 6 -24l-58 -12q-11 20 -11 45q0 38 26 58.5t62 20.5q32 0 56 -10.5t35.5 -23t27.5 -23t34 -10.5q29 0 29 28q0 12 -5 24l57 12q11 -19 11 -45q0 -38 -26 -58.5t-62 -20.5zM71 496h81v-496h-81
v496z" />
    <glyph glyph-name="Imacron" unicode="&#x12a;" horiz-adv-x="246" 
d="M13 805v68h220v-68h-220zM81 700h84v-700h-84v700z" />
    <glyph glyph-name="imacron" unicode="&#x12b;" horiz-adv-x="223" 
d="M2 601v68h220v-68h-220zM71 496h81v-496h-81v496z" />
    <glyph glyph-name="Ibreve" unicode="&#x12c;" horiz-adv-x="246" 
d="M123 772q-46 0 -74.5 29t-28.5 75h63q0 -20 11 -32.5t29 -12.5t28.5 12.5t10.5 32.5h63q0 -46 -28 -75t-74 -29zM81 700h84v-700h-84v700z" />
    <glyph glyph-name="ibreve" unicode="&#x12d;" horiz-adv-x="223" 
d="M112 568q-46 0 -74.5 29t-28.5 75h63q0 -20 11 -32.5t29 -12.5t28.5 12.5t10.5 32.5h63q0 -46 -28 -75t-74 -29zM71 496h81v-496h-81v496z" />
    <glyph glyph-name="Iogonek" unicode="&#x12e;" horiz-adv-x="246" 
d="M162 -127l10 -65q-19 -6 -46 -6q-43 0 -73.5 24.5t-30.5 68.5q0 60 63 105h-4v700h84v-700q-71 -37 -71 -85q0 -20 14 -32t35 -12q11 0 19 2z" />
    <glyph glyph-name="iogonek" unicode="&#x12f;" horiz-adv-x="223" 
d="M64 583v97h96v-97h-96zM113 -198q-43 0 -73.5 24.5t-30.5 68.5q0 63 67 108h-4v493h80v-496q-71 -37 -71 -85q0 -20 14 -32t35 -12q11 0 19 2l10 -65q-19 -6 -46 -6z" />
    <glyph glyph-name="Idotaccent" unicode="&#x130;" horiz-adv-x="246" 
d="M75 787v97h95v-97h-95zM81 700h84v-700h-84v700z" />
    <glyph glyph-name="dotlessi" unicode="&#x131;" horiz-adv-x="223" 
d="M71 496h81v-496h-81v496z" />
    <glyph glyph-name="IJ" unicode="&#x132;" horiz-adv-x="759" 
d="M81 700h84v-700h-84v700zM696 201q0 -98 -57.5 -156.5t-153.5 -58.5q-95 0 -152.5 56.5t-57.5 154.5l84 -5q0 -63 35.5 -97t90.5 -34q59 0 93 36.5t34 103.5v499h84v-499z" />
    <glyph glyph-name="ij" unicode="&#x133;" horiz-adv-x="447" 
d="M64 583v97h95v-97h-95zM288 680h95v-97h-95v97zM71 496h81v-496h-81v496zM198 -130q19 -8 40 -8q57 0 57 70v564h81v-560q0 -68 -31 -107.5t-95 -39.5q-34 0 -63 9z" />
    <glyph glyph-name="Jcircumflex" unicode="&#x134;" horiz-adv-x="532" 
d="M294 762l102 144h64l102 -144h-66l-68 72l-68 -72h-66zM469 201q0 -98 -57.5 -156.5t-153.5 -58.5q-95 0 -152.5 56.5t-57.5 154.5l84 -5q0 -63 35.5 -97t90.5 -34q59 0 93 36.5t34 103.5v499h84v-499z" />
    <glyph glyph-name="jcircumflex" unicode="&#x135;" horiz-adv-x="224" 
d="M-22 558l102 144h64l102 -144h-66l-68 72l-68 -72h-66zM-25 -130q19 -8 40 -8q57 0 57 70v564h81v-560q0 -68 -31 -107.5t-95 -39.5q-34 0 -63 9z" />
    <glyph glyph-name="uni0136" unicode="&#x136;" horiz-adv-x="613" 
d="M81 0v700h84v-319l65 71l236 248h105l-243 -257l264 -443h-98l-227 379l-102 -107v-272h-84zM271 -60h95v-95l-72 -120l-20 7l32 113h-35v95z" />
    <glyph glyph-name="uni0137" unicode="&#x137;" horiz-adv-x="502" 
d="M72 0v700h80v-391l194 187h102l-178 -172l208 -324h-92l-172 268l-62 -60v-208h-80zM207 -60h95v-95l-72 -120l-20 7l32 113h-35v95z" />
    <glyph glyph-name="kgreenlandic" unicode="&#x138;" horiz-adv-x="502" 
d="M72 0v496h80v-213l191 213h100l-178 -194l208 -302h-93l-170 242l-58 -65v-177h-80z" />
    <glyph glyph-name="Lacute" unicode="&#x139;" horiz-adv-x="567" 
d="M88 762l67 145h107l-108 -145h-66zM81 0v700h84v-625h355v-75h-439z" />
    <glyph glyph-name="lacute" unicode="&#x13a;" horiz-adv-x="221" 
d="M59 762l67 145h107l-108 -145h-66zM70 700h81v-700h-81v700z" />
    <glyph glyph-name="uni013B" unicode="&#x13b;" horiz-adv-x="567" 
d="M81 0v700h84v-625h355v-75h-439zM252 -60h95v-95l-72 -120l-20 7l32 113h-35v95z" />
    <glyph glyph-name="uni013C" unicode="&#x13c;" horiz-adv-x="221" 
d="M70 700h81v-700h-81v700zM63 -60h95v-95l-72 -120l-20 7l32 113h-35v95z" />
    <glyph glyph-name="Lcaron" unicode="&#x13d;" horiz-adv-x="567" 
d="M81 0v700h84v-625h355v-75h-439zM456 512l-19 10l35 92h-37v86h85v-87z" />
    <glyph glyph-name="lcaron" unicode="&#x13e;" horiz-adv-x="309" 
d="M70 700h81v-700h-81v700zM245 512l-19 10l35 92h-37v86h85v-87z" />
    <glyph glyph-name="Ldot" unicode="&#x13f;" horiz-adv-x="569" 
d="M81 0v700h84v-625h355v-75h-439zM365 300v100h98v-100h-98z" />
    <glyph glyph-name="ldot" unicode="&#x140;" horiz-adv-x="325" 
d="M70 700h81v-700h-81v700zM227 301v99h98v-99h-98z" />
    <glyph glyph-name="Lslash" unicode="&#x141;" horiz-adv-x="567" 
d="M165 75h355v-75h-439v211l-82 -52v84l82 52v405h84v-351l161 102v-83l-161 -103v-190z" />
    <glyph glyph-name="lslash" unicode="&#x142;" horiz-adv-x="221" 
d="M222 458v-77l-71 -44v-337h-81v286l-71 -44v76l71 45v337h81v-287z" />
    <glyph glyph-name="Nacute" unicode="&#x143;" horiz-adv-x="695" 
d="M300 762l67 145h107l-108 -145h-66zM81 700h87l335 -523q24 -40 30 -55v578h81v-700h-87l-335 524q-24 40 -30 55v-579h-81v700z" />
    <glyph glyph-name="nacute" unicode="&#x144;" horiz-adv-x="567" 
d="M238 558l67 145h107l-108 -145h-66zM497 0h-81v316q0 58 -32.5 89.5t-87.5 31.5q-59 0 -102 -47.5t-43 -118.5v-271h-81v496h81v-88q27 47 73 74.5t99 27.5q76 0 125 -44.5t49 -128.5v-337z" />
    <glyph glyph-name="uni0145" unicode="&#x145;" horiz-adv-x="695" 
d="M81 700h87l335 -523q24 -40 30 -55v578h81v-700h-87l-335 524q-24 40 -30 55v-579h-81v700zM303 -60h95v-95l-72 -120l-20 7l32 113h-35v95z" />
    <glyph glyph-name="uni0146" unicode="&#x146;" horiz-adv-x="567" 
d="M497 0h-81v316q0 58 -32.5 89.5t-87.5 31.5q-59 0 -102 -47.5t-43 -118.5v-271h-81v496h81v-88q27 47 73 74.5t99 27.5q76 0 125 -44.5t49 -128.5v-337zM236 -60h95v-95l-72 -120l-20 7l32 113h-35v95z" />
    <glyph glyph-name="Ncaron" unicode="&#x147;" horiz-adv-x="695" 
d="M319 762l-102 144h66l68 -72l68 72h66l-102 -144h-64zM81 700h87l335 -523q24 -40 30 -55v578h81v-700h-87l-335 524q-24 40 -30 55v-579h-81v700z" />
    <glyph glyph-name="ncaron" unicode="&#x148;" horiz-adv-x="567" 
d="M258 558l-102 144h66l68 -72l68 72h66l-102 -144h-64zM497 0h-81v316q0 58 -32.5 89.5t-87.5 31.5q-59 0 -102 -47.5t-43 -118.5v-271h-81v496h81v-88q27 47 73 74.5t99 27.5q76 0 125 -44.5t49 -128.5v-337z" />
    <glyph glyph-name="napostrophe" unicode="&#x149;" horiz-adv-x="641" 
d="M114 660h2l17 -27l-70 -66l-11 45l34 30l-20 13l40 4l16 14zM394 510q76 0 125 -44.5t49 -128.5v-337h-81v316q0 58 -32.5 89.5t-87.5 31.5q-59 0 -102 -47.5t-43 -118.5v-271h-81v496h81v-88q27 47 73 74.5t99 27.5z" />
    <glyph glyph-name="Eng" unicode="&#x14a;" horiz-adv-x="699" 
d="M442 -218q-47 0 -89 16l30 73q25 -14 54 -14q96 0 96 120v23l-339 524q-24 40 -30 55v-579h-81v700h87l335 -516q24 -40 30 -55v571h81v-719q0 -92 -45 -145.5t-129 -53.5z" />
    <glyph glyph-name="eng" unicode="&#x14b;" horiz-adv-x="570" 
d="M372 -211q-33 0 -62 9l11 72q19 -8 40 -8q57 0 57 70v384q0 57 -33 89t-88 32q-58 0 -101.5 -48t-43.5 -118v-271h-80v496h80v-88q28 48 73.5 75t98.5 27q76 0 125 -44.5t49 -128.5v-401q0 -68 -30.5 -107.5t-95.5 -39.5z" />
    <glyph glyph-name="Omacron" unicode="&#x14c;" horiz-adv-x="784" 
d="M282 805v68h220v-68h-220zM731 350q0 -161 -97 -262.5t-242 -101.5t-242 101.5t-97 262.5t97 262.5t242 101.5t242 -101.5t97 -262.5zM392 61q111 0 183 79.5t72 209.5t-72 209.5t-183 79.5t-183 -79.5t-72 -209.5t72 -209.5t183 -79.5z" />
    <glyph glyph-name="omacron" unicode="&#x14d;" horiz-adv-x="597" 
d="M188 601v68h220v-68h-220zM558 248q0 -121 -76 -191.5t-184 -70.5q-107 0 -183 70.5t-76 191.5t76 191.5t183 70.5q108 0 184 -70.5t76 -191.5zM298 59q76 0 127.5 53t51.5 136t-51.5 136t-127.5 53q-75 0 -126.5 -53t-51.5 -136t51.5 -136t126.5 -53z" />
    <glyph glyph-name="Obreve" unicode="&#x14e;" horiz-adv-x="784" 
d="M392 772q-46 0 -74.5 29t-28.5 75h63q0 -20 11 -32.5t29 -12.5t28.5 12.5t10.5 32.5h63q0 -46 -28 -75t-74 -29zM731 350q0 -161 -97 -262.5t-242 -101.5t-242 101.5t-97 262.5t97 262.5t242 101.5t242 -101.5t97 -262.5zM392 61q111 0 183 79.5t72 209.5t-72 209.5
t-183 79.5t-183 -79.5t-72 -209.5t72 -209.5t183 -79.5z" />
    <glyph glyph-name="obreve" unicode="&#x14f;" horiz-adv-x="597" 
d="M299 568q-46 0 -74.5 29t-28.5 75h63q0 -20 11 -32.5t29 -12.5t28.5 12.5t10.5 32.5h63q0 -46 -28 -75t-74 -29zM558 248q0 -121 -76 -191.5t-184 -70.5q-107 0 -183 70.5t-76 191.5t76 191.5t183 70.5q108 0 184 -70.5t76 -191.5zM298 59q76 0 127.5 53t51.5 136
t-51.5 136t-127.5 53q-75 0 -126.5 -53t-51.5 -136t51.5 -136t126.5 -53z" />
    <glyph glyph-name="Ohungarumlaut" unicode="&#x150;" horiz-adv-x="784" 
d="M259 762l67 145h107l-108 -145h-66zM421 762l66 145h107l-108 -145h-65zM731 350q0 -161 -97 -262.5t-242 -101.5t-242 101.5t-97 262.5t97 262.5t242 101.5t242 -101.5t97 -262.5zM392 61q111 0 183 79.5t72 209.5t-72 209.5t-183 79.5t-183 -79.5t-72 -209.5t72 -209.5
t183 -79.5z" />
    <glyph glyph-name="ohungarumlaut" unicode="&#x151;" horiz-adv-x="597" 
d="M165 558l67 145h107l-108 -145h-66zM327 558l66 145h107l-108 -145h-65zM558 248q0 -121 -76 -191.5t-184 -70.5q-107 0 -183 70.5t-76 191.5t76 191.5t183 70.5q108 0 184 -70.5t76 -191.5zM298 59q76 0 127.5 53t51.5 136t-51.5 136t-127.5 53q-75 0 -126.5 -53
t-51.5 -136t51.5 -136t126.5 -53z" />
    <glyph glyph-name="OE" unicode="&#x152;" horiz-adv-x="1151" 
d="M392 -14q-145 0 -242 101.5t-97 262.5t97 262.5t242 101.5q176 0 255 -134v120h437v-74h-353v-227h325v-74h-325v-251h356v-74h-440v129q-89 -143 -255 -143zM392 61q111 0 183 80.5t72 208.5q0 130 -72 209.5t-183 79.5t-183 -79.5t-72 -209.5t72 -209.5t183 -79.5z" />
    <glyph glyph-name="oe" unicode="&#x153;" horiz-adv-x="1009" 
d="M299 -14q-107 0 -183 70.5t-76 191.5t76 191.5t183 70.5q68 0 126 -30.5t93 -86.5q34 54 89 85.5t121 31.5q108 0 173 -69t65 -179v-27h-410q5 -78 51.5 -129t119.5 -51q112 0 166 111l59 -35q-69 -145 -228 -145q-65 0 -118.5 31t-86.5 86q-35 -56 -93.5 -86.5
t-126.5 -30.5zM556 299h330q-4 69 -49 107.5t-110 38.5q-63 0 -111 -41.5t-60 -104.5zM299 59q76 0 127.5 53t51.5 136t-51.5 136t-127.5 53q-75 0 -126.5 -53t-51.5 -136t51.5 -136t126.5 -53z" />
    <glyph glyph-name="Racute" unicode="&#x154;" horiz-adv-x="630" 
d="M257 762l67 145h107l-108 -145h-66zM325 303h-160v-303h-84v700h278q104 0 164.5 -54.5t60.5 -140.5q0 -77 -44 -127.5t-124 -68.5l174 -309h-93zM165 376h184q151 0 151 125q0 126 -151 126h-184v-251z" />
    <glyph glyph-name="racute" unicode="&#x155;" horiz-adv-x="349" 
d="M150 558l67 145h107l-108 -145h-66zM320 432q-17 5 -38 5q-55 0 -93 -51.5t-38 -123.5v-262h-81v496h81v-89q19 45 56.5 74t84.5 29q24 0 42 -5z" />
    <glyph glyph-name="uni0156" unicode="&#x156;" horiz-adv-x="630" 
d="M325 303h-160v-303h-84v700h278q104 0 164.5 -54.5t60.5 -140.5q0 -77 -44 -127.5t-124 -68.5l174 -309h-93zM165 376h184q151 0 151 125q0 126 -151 126h-184v-251zM271 -60h95v-95l-72 -120l-20 7l32 113h-35v95z" />
    <glyph glyph-name="uni0157" unicode="&#x157;" horiz-adv-x="349" 
d="M320 432q-17 5 -38 5q-55 0 -93 -51.5t-38 -123.5v-262h-81v496h81v-89q19 45 56.5 74t84.5 29q24 0 42 -5zM63 -60h95v-95l-72 -120l-20 7l32 113h-35v95z" />
    <glyph glyph-name="Rcaron" unicode="&#x158;" horiz-adv-x="630" 
d="M276 762l-102 144h66l68 -72l68 72h66l-102 -144h-64zM325 303h-160v-303h-84v700h278q104 0 164.5 -54.5t60.5 -140.5q0 -77 -44 -127.5t-124 -68.5l174 -309h-93zM165 376h184q151 0 151 125q0 126 -151 126h-184v-251z" />
    <glyph glyph-name="rcaron" unicode="&#x159;" horiz-adv-x="349" 
d="M170 558l-102 144h66l68 -72l68 72h66l-102 -144h-64zM320 432q-17 5 -38 5q-55 0 -93 -51.5t-38 -123.5v-262h-81v496h81v-89q19 45 56.5 74t84.5 29q24 0 42 -5z" />
    <glyph glyph-name="Sacute" unicode="&#x15a;" horiz-adv-x="644" 
d="M265 762l67 145h107l-108 -145h-66zM164 532q0 -53 48 -84.5t145 -50.5q227 -44 227 -201q0 -90 -71 -150.5t-184 -59.5q-108 1 -180.5 52.5t-98.5 128.5l74 33q24 -63 75 -102t129 -39t125 38.5t47 92.5q0 58 -47.5 91t-140.5 50q-229 42 -229 200q0 81 65.5 132
t167.5 51q180 0 252 -145l-68 -40q-62 112 -185 112q-66 0 -108.5 -29t-42.5 -80z" />
    <glyph glyph-name="sacute" unicode="&#x15b;" horiz-adv-x="482" 
d="M192 558l67 145h107l-108 -145h-66zM146 377q0 -61 131 -86q81 -16 122.5 -51t41.5 -96q0 -65 -49.5 -111.5t-136.5 -46.5q-80 0 -132.5 33t-76.5 85l67 42q44 -91 143 -91q50 0 79 23t29 62q0 36 -30 57t-94 33q-167 30 -167 147q0 60 49 96.5t121 36.5q127 0 181 -95
l-57 -40q-39 69 -123 69q-42 0 -70 -18t-28 -49z" />
    <glyph glyph-name="Scircumflex" unicode="&#x15c;" horiz-adv-x="644" 
d="M183 762l102 144h64l102 -144h-66l-68 72l-68 -72h-66zM164 532q0 -53 48 -84.5t145 -50.5q227 -44 227 -201q0 -90 -71 -150.5t-184 -59.5q-108 1 -180.5 52.5t-98.5 128.5l74 33q24 -63 75 -102t129 -39t125 38.5t47 92.5q0 58 -47.5 91t-140.5 50q-229 42 -229 200
q0 81 65.5 132t167.5 51q180 0 252 -145l-68 -40q-62 112 -185 112q-66 0 -108.5 -29t-42.5 -80z" />
    <glyph glyph-name="scircumflex" unicode="&#x15d;" horiz-adv-x="482" 
d="M110 558l102 144h64l102 -144h-66l-68 72l-68 -72h-66zM146 377q0 -61 131 -86q81 -16 122.5 -51t41.5 -96q0 -65 -49.5 -111.5t-136.5 -46.5q-80 0 -132.5 33t-76.5 85l67 42q44 -91 143 -91q50 0 79 23t29 62q0 36 -30 57t-94 33q-167 30 -167 147q0 60 49 96.5
t121 36.5q127 0 181 -95l-57 -40q-39 69 -123 69q-42 0 -70 -18t-28 -49z" />
    <glyph glyph-name="Scedilla" unicode="&#x15e;" horiz-adv-x="644" 
d="M329 -14h-8l-24 -44q19 13 46 13q33 0 54 -21t21 -56q0 -39 -26 -61t-65 -22q-34 0 -56.5 16t-29.5 45l49 12q7 -27 38 -27q15 0 25.5 9.5t10.5 25.5q0 17 -10.5 27.5t-27.5 10.5q-26 0 -48 -19l-31 29l25 67q-85 13 -142.5 61.5t-79.5 114.5l74 33q24 -63 75 -102
t129 -39t125 38.5t47 92.5q0 58 -47.5 91t-140.5 50q-229 42 -229 200q0 81 65.5 132t167.5 51q180 0 252 -145l-68 -40q-62 112 -185 112q-66 0 -108.5 -29t-42.5 -80q0 -53 48 -84.5t145 -50.5q227 -44 227 -201q0 -90 -71 -150.5t-184 -59.5z" />
    <glyph glyph-name="scedilla" unicode="&#x15f;" horiz-adv-x="482" 
d="M255 -14h-9l-23 -43q19 13 46 13q33 0 54 -21.5t21 -55.5q0 -39 -26 -61t-65 -22q-34 0 -56.5 16t-29.5 44l49 13q7 -28 38 -28q16 0 26 9.5t10 26.5t-10.5 27.5t-27.5 10.5q-24 0 -48 -20l-31 29l25 67q-108 20 -152 113l67 42q44 -91 143 -91q50 0 79 23t29 62
q0 36 -30 57t-94 33q-167 30 -167 147q0 60 49 96.5t121 36.5q127 0 181 -95l-57 -40q-39 69 -123 69q-42 0 -70 -18t-28 -49q0 -61 131 -86q81 -16 122.5 -51t41.5 -96q0 -65 -49.5 -111.5t-136.5 -46.5z" />
    <glyph glyph-name="Scaron" unicode="&#x160;" horiz-adv-x="644" 
d="M285 762l-102 144h66l68 -72l68 72h66l-102 -144h-64zM164 532q0 -53 48 -84.5t145 -50.5q227 -44 227 -201q0 -90 -71 -150.5t-184 -59.5q-108 1 -180.5 52.5t-98.5 128.5l74 33q24 -63 75 -102t129 -39t125 38.5t47 92.5q0 58 -47.5 91t-140.5 50q-229 42 -229 200
q0 81 65.5 132t167.5 51q180 0 252 -145l-68 -40q-62 112 -185 112q-66 0 -108.5 -29t-42.5 -80z" />
    <glyph glyph-name="scaron" unicode="&#x161;" horiz-adv-x="482" 
d="M212 558l-102 144h66l68 -72l68 72h66l-102 -144h-64zM146 377q0 -61 131 -86q81 -16 122.5 -51t41.5 -96q0 -65 -49.5 -111.5t-136.5 -46.5q-80 0 -132.5 33t-76.5 85l67 42q44 -91 143 -91q50 0 79 23t29 62q0 36 -30 57t-94 33q-167 30 -167 147q0 60 49 96.5
t121 36.5q127 0 181 -95l-57 -40q-39 69 -123 69q-42 0 -70 -18t-28 -49z" />
    <glyph glyph-name="uni0162" unicode="&#x162;" horiz-adv-x="553" 
d="M319 0h-17l-30 -57q19 13 46 13q33 0 54 -21.5t21 -55.5q0 -39 -26 -61t-65 -22q-34 0 -56.5 16t-29.5 44l49 13q7 -28 38 -28q16 0 26 9.5t10 26.5t-10.5 27.5t-27.5 10.5q-24 0 -48 -20l-31 29l28 76h-15v625h-217v75h517v-75h-216v-625z" />
    <glyph glyph-name="uni0163" unicode="&#x163;" horiz-adv-x="344" 
d="M309 433h-119v-300q0 -76 69 -76q18 0 38 6l8 -67q-30 -10 -64 -10q-15 0 -32 3l-24 -46q19 13 46 13q33 0 54 -21.5t21 -55.5q0 -39 -26 -61t-65 -22q-34 0 -56.5 16t-29.5 44l49 13q7 -28 38 -28q16 0 26 9.5t10 26.5t-10.5 27.5t-27.5 10.5q-24 0 -48 -20l-31 29
l30 81q-55 35 -55 122v306h-84v63h84v134h80v-134h119v-63z" />
    <glyph glyph-name="Tcaron" unicode="&#x164;" horiz-adv-x="553" 
d="M245 762l-102 144h66l68 -72l68 72h66l-102 -144h-64zM235 0v625h-217v75h517v-75h-216v-625h-84z" />
    <glyph glyph-name="tcaron" unicode="&#x165;" horiz-adv-x="344" 
d="M282 555l-19 10l35 92h-37v86h85v-87zM26 496h84v134h80v-134h119v-63h-119v-300q0 -76 69 -76q18 0 38 6l8 -67q-30 -10 -64 -10q-58 0 -94.5 34.5t-36.5 106.5v306h-84v63z" />
    <glyph glyph-name="Tbar" unicode="&#x166;" horiz-adv-x="553" 
d="M18 700h517v-75h-216v-201h147v-66h-147v-358h-84v358h-148v66h148v201h-217v75z" />
    <glyph glyph-name="tbar" unicode="&#x167;" horiz-adv-x="347" 
d="M27 496h84v134h81v-134h118v-63h-118v-142h105v-60h-105v-98q0 -76 68 -76q19 0 39 6l7 -67q-28 -10 -64 -10q-58 0 -94.5 34.5t-36.5 106.5v104h-68v60h68v142h-84v63z" />
    <glyph glyph-name="Utilde" unicode="&#x168;" horiz-adv-x="669" 
d="M413 765q-31 0 -55 10.5t-36 23t-28 23t-34 10.5q-13 0 -21 -8t-8 -20q0 -14 6 -24l-58 -12q-11 20 -11 45q0 38 26 58.5t62 20.5q32 0 56 -10.5t35.5 -23t27.5 -23t34 -10.5q29 0 29 28q0 12 -5 24l57 12q11 -19 11 -45q0 -38 -26 -58.5t-62 -20.5zM598 245
q0 -122 -72 -190.5t-191 -68.5t-191 68.5t-72 190.5v455h84v-450q0 -87 49 -138t130 -51q80 0 129.5 51t49.5 138v450h84v-455z" />
    <glyph glyph-name="utilde" unicode="&#x169;" horiz-adv-x="567" 
d="M362 561q-31 0 -55 10.5t-36 23t-28 23t-34 10.5q-13 0 -21 -8t-8 -20q0 -14 6 -24l-58 -12q-11 20 -11 45q0 38 26 58.5t62 20.5q32 0 56 -10.5t35.5 -23t27.5 -23t34 -10.5q29 0 29 28q0 12 -5 24l57 12q11 -19 11 -45q0 -38 -26 -58.5t-62 -20.5zM72 496h80v-314
q0 -59 32 -91t87 -32q61 0 103 48.5t42 124.5v264h81v-496h-81v87q-24 -46 -68.5 -73.5t-97.5 -27.5q-77 0 -127.5 46.5t-50.5 139.5v324z" />
    <glyph glyph-name="Umacron" unicode="&#x16a;" horiz-adv-x="669" 
d="M225 805v68h220v-68h-220zM598 245q0 -122 -72 -190.5t-191 -68.5t-191 68.5t-72 190.5v455h84v-450q0 -87 49 -138t130 -51q80 0 129.5 51t49.5 138v450h84v-455z" />
    <glyph glyph-name="umacron" unicode="&#x16b;" horiz-adv-x="567" 
d="M174 601v68h220v-68h-220zM72 496h80v-314q0 -59 32 -91t87 -32q61 0 103 48.5t42 124.5v264h81v-496h-81v87q-24 -46 -68.5 -73.5t-97.5 -27.5q-77 0 -127.5 46.5t-50.5 139.5v324z" />
    <glyph glyph-name="Ubreve" unicode="&#x16c;" horiz-adv-x="669" 
d="M335 772q-46 0 -74.5 29t-28.5 75h63q0 -20 11 -32.5t29 -12.5t28.5 12.5t10.5 32.5h63q0 -46 -28 -75t-74 -29zM598 245q0 -122 -72 -190.5t-191 -68.5t-191 68.5t-72 190.5v455h84v-450q0 -87 49 -138t130 -51q80 0 129.5 51t49.5 138v450h84v-455z" />
    <glyph glyph-name="ubreve" unicode="&#x16d;" horiz-adv-x="567" 
d="M285 568q-46 0 -74.5 29t-28.5 75h63q0 -20 11 -32.5t29 -12.5t28.5 12.5t10.5 32.5h63q0 -46 -28 -75t-74 -29zM72 496h80v-314q0 -59 32 -91t87 -32q61 0 103 48.5t42 124.5v264h81v-496h-81v87q-24 -46 -68.5 -73.5t-97.5 -27.5q-77 0 -127.5 46.5t-50.5 139.5v324z
" />
    <glyph glyph-name="Uring" unicode="&#x16e;" horiz-adv-x="669" 
d="M335 744q-40 0 -68 27.5t-28 67.5t28 67.5t68 27.5t68 -27.5t28 -67.5t-28 -67.5t-68 -27.5zM335 792q20 0 33 13.5t13 33.5t-13 33.5t-33 13.5t-33 -13.5t-13 -33.5t13 -33.5t33 -13.5zM598 245q0 -122 -72 -190.5t-191 -68.5t-191 68.5t-72 190.5v455h84v-450
q0 -87 49 -138t130 -51q80 0 129.5 51t49.5 138v450h84v-455z" />
    <glyph glyph-name="uring" unicode="&#x16f;" horiz-adv-x="567" 
d="M285 540q-40 0 -68 27.5t-28 67.5t28 67.5t68 27.5t68 -27.5t28 -67.5t-28 -67.5t-68 -27.5zM285 588q20 0 33 13.5t13 33.5t-13 33.5t-33 13.5t-33 -13.5t-13 -33.5t13 -33.5t33 -13.5zM72 496h80v-314q0 -59 32 -91t87 -32q61 0 103 48.5t42 124.5v264h81v-496h-81v87
q-24 -46 -68.5 -73.5t-97.5 -27.5q-77 0 -127.5 46.5t-50.5 139.5v324z" />
    <glyph glyph-name="Uhungarumlaut" unicode="&#x170;" horiz-adv-x="669" 
d="M201 762l67 145h107l-108 -145h-66zM363 762l66 145h107l-108 -145h-65zM598 245q0 -122 -72 -190.5t-191 -68.5t-191 68.5t-72 190.5v455h84v-450q0 -87 49 -138t130 -51q80 0 129.5 51t49.5 138v450h84v-455z" />
    <glyph glyph-name="uhungarumlaut" unicode="&#x171;" horiz-adv-x="567" 
d="M151 558l67 145h107l-108 -145h-66zM313 558l66 145h107l-108 -145h-65zM72 496h80v-314q0 -59 32 -91t87 -32q61 0 103 48.5t42 124.5v264h81v-496h-81v87q-24 -46 -68.5 -73.5t-97.5 -27.5q-77 0 -127.5 46.5t-50.5 139.5v324z" />
    <glyph glyph-name="Uogonek" unicode="&#x172;" horiz-adv-x="669" 
d="M514 700h84v-455q0 -95 -44.5 -158t-122.5 -87q-70 -37 -70 -85q0 -20 14 -32t35 -12q11 0 19 2l10 -65q-19 -6 -46 -6q-43 0 -73.5 24.5t-30.5 68.5q0 49 45 91q-119 0 -190.5 68.5t-71.5 190.5v455h84v-450q0 -87 49 -138t130 -51q80 0 129.5 51t49.5 138v450z" />
    <glyph glyph-name="uogonek" unicode="&#x173;" horiz-adv-x="567" 
d="M494 -127l10 -65q-19 -6 -46 -6q-43 0 -73.5 24.5t-30.5 68.5q0 60 63 105h-1v87q-24 -46 -68.5 -73.5t-97.5 -27.5q-77 0 -127.5 46.5t-50.5 139.5v324h80v-314q0 -59 32 -91t87 -32q61 0 103 48.5t42 124.5v264h81v-496q-71 -37 -71 -85q0 -20 14 -32t35 -12q11 0 19 2
z" />
    <glyph glyph-name="Wcircumflex" unicode="&#x174;" horiz-adv-x="895" 
d="M314 762l102 144h64l102 -144h-66l-68 72l-68 -72h-66zM203 0l-198 700h85l140 -521q14 -52 19 -77l17 78l136 520h91l136 -520q13 -53 18 -78l18 77l140 521h85l-197 -700h-90l-155 593l-155 -593h-90z" />
    <glyph glyph-name="wcircumflex" unicode="&#x175;" horiz-adv-x="689" 
d="M210 558l102 144h64l102 -144h-66l-68 72l-68 -72h-66zM496 95l107 401h79l-142 -496h-85l-111 404l-110 -404h-85l-142 496h79l107 -401l109 401h84z" />
    <glyph glyph-name="Ycircumflex" unicode="&#x176;" horiz-adv-x="551" 
d="M142 762l102 144h64l102 -144h-66l-68 72l-68 -72h-66zM234 0v286l-230 414h91l159 -295q13 -24 22 -48l22 48l158 295h91l-229 -414v-286h-84z" />
    <glyph glyph-name="ycircumflex" unicode="&#x177;" horiz-adv-x="500" 
d="M116 558l102 144h64l102 -144h-66l-68 72l-68 -72h-66zM75 -126q20 -10 39 -10q41 0 61 51l33 84l-203 497h91l155 -388l154 388h89l-248 -606q-21 -52 -52 -76t-78 -24q-31 0 -55 9z" />
    <glyph glyph-name="Ydieresis" unicode="&#x178;" horiz-adv-x="551" 
d="M150 792v92h93v-92h-93zM309 792v92h92v-92h-92zM234 0v286l-230 414h91l159 -295q13 -24 22 -48l22 48l158 295h91l-229 -414v-286h-84z" />
    <glyph glyph-name="Zacute" unicode="&#x179;" horiz-adv-x="593" 
d="M246 762l67 145h107l-108 -145h-66zM53 700h480v-77l-395 -546h412v-77h-510v75l399 548h-386v77z" />
    <glyph glyph-name="zacute" unicode="&#x17a;" horiz-adv-x="481" 
d="M183 558l67 145h107l-108 -145h-66zM441 67v-67h-400v67l294 362h-285v67h376v-67l-295 -362h310z" />
    <glyph glyph-name="Zdotaccent" unicode="&#x17b;" horiz-adv-x="593" 
d="M249 787v97h95v-97h-95zM53 700h480v-77l-395 -546h412v-77h-510v75l399 548h-386v77z" />
    <glyph glyph-name="zdotaccent" unicode="&#x17c;" horiz-adv-x="481" 
d="M187 583v97h95v-97h-95zM441 67v-67h-400v67l294 362h-285v67h376v-67l-295 -362h310z" />
    <glyph glyph-name="Zcaron" unicode="&#x17d;" horiz-adv-x="593" 
d="M265 762l-102 144h66l68 -72l68 72h66l-102 -144h-64zM53 700h480v-77l-395 -546h412v-77h-510v75l399 548h-386v77z" />
    <glyph glyph-name="zcaron" unicode="&#x17e;" horiz-adv-x="481" 
d="M203 558l-102 144h66l68 -72l68 72h66l-102 -144h-64zM441 67v-67h-400v67l294 362h-285v67h376v-67l-295 -362h310z" />
    <glyph glyph-name="longs" unicode="&#x17f;" horiz-adv-x="317" 
d="M22 496h76v92q0 76 40 119t114 43q27 0 52 -10l-13 -69q-18 7 -39 7q-32 0 -52.5 -21.5t-20.5 -64.5v-592h-81v434h-76v62z" />
    <glyph glyph-name="florin" unicode="&#x192;" horiz-adv-x="320" 
d="M47 -218q-31 0 -53 8l15 72q18 -8 34 -8q58 0 58 71v509h-76v62h76v92q0 76 40 119t114 43q27 0 52 -10l-13 -69q-18 7 -39 7q-32 0 -52.5 -21.5t-20.5 -64.5v-96h117v-62h-117v-503q0 -149 -135 -149z" />
    <glyph glyph-name="uni01B5" unicode="&#x1b5;" horiz-adv-x="593" 
d="M53 700h480v-77l-170 -236h155v-66h-204l-176 -244h412v-77h-510v75l178 246h-152v66h202l171 236h-386v77z" />
    <glyph glyph-name="uni01B6" unicode="&#x1b6;" horiz-adv-x="481" 
d="M41 0v67l128 160h-96v64h150l112 138h-285v67h376v-67l-112 -138h94v-64h-148l-129 -160h310v-67h-400z" />
    <glyph glyph-name="Aringacute" unicode="&#x1fa;" horiz-adv-x="658" 
d="M384 669l268 -669h-89l-80 206h-308l-80 -206h-89l268 669q-41 28 -41 78q0 35 22.5 61.5t56.5 32.5l45 97h107l-83 -111q44 -28 44 -80q0 -50 -41 -78zM329 793q-19 0 -32 -13t-13 -33t13 -33.5t32 -13.5q20 0 33 13.5t13 33.5t-13 33t-33 13zM203 278h252l-107 276
q-11 25 -19 53q-8 -28 -19 -53z" />
    <glyph glyph-name="aringacute" unicode="&#x1fb;" horiz-adv-x="525" 
d="M231 762l67 145h107l-108 -145h-66zM270 540q-40 0 -68 27.5t-28 67.5t28 67.5t68 27.5t68 -27.5t28 -67.5t-28 -67.5t-68 -27.5zM270 588q20 0 33 13.5t13 33.5t-13 33.5t-33 13.5t-33 -13.5t-13 -33.5t13 -33.5t33 -13.5zM401 0q-14 44 -14 98q-20 -50 -68.5 -81
t-103.5 -31q-75 0 -120.5 42.5t-45.5 109.5q0 69 47 108.5t122 50.5l168 26v25q0 48 -30.5 73t-86.5 25q-55 0 -86.5 -23.5t-31.5 -57.5q0 -8 2 -14l-71 -15q-6 14 -6 34q0 59 54 99.5t139 40.5q95 0 146 -43t51 -121v-222q0 -72 15 -124h-80zM227 56q72 0 115.5 54.5
t43.5 130.5v20l-152 -24q-105 -19 -105 -96q0 -38 27 -61.5t71 -23.5z" />
    <glyph glyph-name="AEacute" unicode="&#x1fc;" horiz-adv-x="934" 
d="M525 762l67 145h107l-108 -145h-66zM430 206h-245l-91 -206h-88l313 700h548v-74h-353v-227h325v-74h-325v-251h356v-74h-440v206zM217 278h213v348h-59z" />
    <glyph glyph-name="aeacute" unicode="&#x1fd;" horiz-adv-x="919" 
d="M408 558l67 145h107l-108 -145h-66zM222 -14q-77 0 -125 42t-48 108q0 75 57.5 119t151.5 44h128v41q0 106 -115 106q-57 0 -87.5 -23t-30.5 -56q0 -7 2 -14l-69 -24q-7 16 -7 40q0 59 53 100t135 41q139 0 180 -92q73 92 192 92q108 0 173 -69t65 -179v-27h-409
q4 -78 50.5 -129t119.5 -51q112 0 166 111l59 -35q-69 -145 -228 -145q-68 0 -125 37t-88 97q-25 -63 -81.5 -98.5t-118.5 -35.5zM468 299h329q-4 69 -49 107.5t-110 38.5q-63 0 -110.5 -41.5t-59.5 -104.5zM229 56q71 0 114 52.5t43 122.5v4h-124q-67 0 -100 -27t-33 -70
q0 -36 27.5 -59t72.5 -23z" />
    <glyph glyph-name="uni0218" unicode="&#x218;" horiz-adv-x="644" 
d="M164 532q0 -53 48 -84.5t145 -50.5q227 -44 227 -201q0 -90 -71 -150.5t-184 -59.5q-108 1 -180.5 52.5t-98.5 128.5l74 33q24 -63 75 -102t129 -39t125 38.5t47 92.5q0 58 -47.5 91t-140.5 50q-229 42 -229 200q0 81 65.5 132t167.5 51q180 0 252 -145l-68 -40
q-62 112 -185 112q-66 0 -108.5 -29t-42.5 -80zM281 -60h95v-95l-72 -120l-20 7l32 113h-35v95z" />
    <glyph glyph-name="uni0219" unicode="&#x219;" horiz-adv-x="482" 
d="M146 377q0 -61 131 -86q81 -16 122.5 -51t41.5 -96q0 -65 -49.5 -111.5t-136.5 -46.5q-80 0 -132.5 33t-76.5 85l67 42q44 -91 143 -91q50 0 79 23t29 62q0 36 -30 57t-94 33q-167 30 -167 147q0 60 49 96.5t121 36.5q127 0 181 -95l-57 -40q-39 69 -123 69
q-42 0 -70 -18t-28 -49zM209 -60h95v-95l-72 -120l-20 7l32 113h-35v95z" />
    <glyph glyph-name="uni021A" unicode="&#x21a;" horiz-adv-x="553" 
d="M235 0v625h-217v75h517v-75h-216v-625h-84zM229 -60h95v-95l-72 -120l-20 7l32 113h-35v95z" />
    <glyph glyph-name="uni021B" unicode="&#x21b;" horiz-adv-x="344" 
d="M26 496h84v134h80v-134h119v-63h-119v-300q0 -76 69 -76q18 0 38 6l8 -67q-30 -10 -64 -10q-58 0 -94.5 34.5t-36.5 106.5v306h-84v63zM171 -60h95v-95l-72 -120l-20 7l32 113h-35v95z" />
    <glyph glyph-name="uni0237" unicode="&#x237;" horiz-adv-x="224" 
d="M-25 -130q19 -8 40 -8q57 0 57 70v564h81v-560q0 -68 -31 -107.5t-95 -39.5q-34 0 -63 9z" />
    <glyph glyph-name="uni02BC" unicode="&#x2bc;" horiz-adv-x="193" 
d="M52 473l-20 14l61 114h-40v99h98v-99z" />
    <glyph glyph-name="circumflex" unicode="&#x2c6;" horiz-adv-x="372" 
d="M52 558l102 144h64l102 -144h-66l-68 72l-68 -72h-66z" />
    <glyph glyph-name="caron" unicode="&#x2c7;" horiz-adv-x="372" 
d="M154 558l-102 144h66l68 -72l68 72h66l-102 -144h-64z" />
    <glyph glyph-name="uni02C9" unicode="&#x2c9;" horiz-adv-x="311" 
d="M45 601v68h220v-68h-220z" />
    <glyph glyph-name="breve" unicode="&#x2d8;" horiz-adv-x="281" 
d="M140 568q-46 0 -74 29t-28 75h63q0 -20 10.5 -32.5t28.5 -12.5t29 12.5t11 32.5h63q0 -46 -28.5 -75t-74.5 -29z" />
    <glyph glyph-name="dotaccent" unicode="&#x2d9;" horiz-adv-x="223" 
d="M64 583v97h95v-97h-95z" />
    <glyph glyph-name="ring" unicode="&#x2da;" horiz-adv-x="286" 
d="M143 540q-40 0 -68 27.5t-28 67.5t28 67.5t68 27.5t68 -27.5t28 -67.5t-28 -67.5t-68 -27.5zM143 588q20 0 33 13.5t13 33.5t-13 33.5t-33 13.5t-33 -13.5t-13 -33.5t13 -33.5t33 -13.5z" />
    <glyph glyph-name="ogonek" unicode="&#x2db;" horiz-adv-x="207" 
d="M136 -198q-43 0 -73.5 24.5t-30.5 68.5q0 68 77 114l66 -9q-71 -37 -71 -85q0 -20 14 -32t35 -12q11 0 19 2l10 -65q-20 -6 -46 -6z" />
    <glyph glyph-name="tilde" unicode="&#x2dc;" horiz-adv-x="465" 
d="M311 561q-31 0 -55 10.5t-36 23t-28 23t-34 10.5q-13 0 -21 -8t-8 -20q0 -14 6 -24l-58 -12q-11 20 -11 45q0 38 26 58.5t62 20.5q32 0 56 -10.5t35.5 -23t27.5 -23t34 -10.5q29 0 29 28q0 12 -5 24l57 12q11 -19 11 -45q0 -38 -26 -58.5t-62 -20.5z" />
    <glyph glyph-name="hungarumlaut" unicode="&#x2dd;" horiz-adv-x="456" 
d="M60 558l67 145h107l-108 -145h-66zM222 558l67 145h107l-108 -145h-66z" />
    <glyph glyph-name="gravecomb" unicode="&#x300;" 
d="M-66 558l-108 145h107l67 -145h-66z" />
    <glyph glyph-name="acutecomb" unicode="&#x301;" 
d="M-174 558l67 145h107l-108 -145h-66z" />
    <glyph glyph-name="uni0302" unicode="&#x302;" 
d="M-268 558l102 144h64l102 -144h-66l-68 72l-68 -72h-66z" />
    <glyph glyph-name="tildecomb" unicode="&#x303;" 
d="M-88 561q-31 0 -55 10.5t-36 23t-28 23t-34 10.5q-13 0 -21 -8t-8 -20q0 -14 6 -24l-58 -12q-11 20 -11 45q0 38 26 58.5t62 20.5q32 0 56 -10.5t35.5 -23t27.5 -23t34 -10.5q29 0 29 28q0 12 -5 24l57 12q11 -19 11 -45q0 -38 -26 -58.5t-62 -20.5z" />
    <glyph glyph-name="uni0304" unicode="&#x304;" 
d="M-220 601v68h220v-68h-220z" />
    <glyph glyph-name="uni0306" unicode="&#x306;" 
d="M-102 568q-46 0 -74.5 29t-28.5 75h63q0 -20 11 -32.5t29 -12.5t28.5 12.5t10.5 32.5h63q0 -46 -28 -75t-74 -29z" />
    <glyph glyph-name="uni0307" unicode="&#x307;" 
d="M-95 583v97h95v-97h-95z" />
    <glyph glyph-name="uni0308" unicode="&#x308;" 
d="M-251 588v92h93v-92h-93zM-92 588v92h92v-92h-92z" />
    <glyph glyph-name="uni030A" unicode="&#x30a;" 
d="M-96 540q-40 0 -68 27.5t-28 67.5t28 67.5t68 27.5t68 -27.5t28 -67.5t-28 -67.5t-68 -27.5zM-96 588q20 0 33 13.5t13 33.5t-13 33.5t-33 13.5t-33 -13.5t-13 -33.5t13 -33.5t33 -13.5z" />
    <glyph glyph-name="uni030B" unicode="&#x30b;" 
d="M-335 558l67 145h107l-108 -145h-66zM-173 558l66 145h107l-108 -145h-65z" />
    <glyph glyph-name="uni030C" unicode="&#x30c;" 
d="M-166 558l-102 144h66l68 -72l68 72h66l-102 -144h-64z" />
    <glyph glyph-name="uni0312" unicode="&#x312;" 
d="M-115 563v96l95 122l20 -15l-59 -107h39v-96h-95z" />
    <glyph glyph-name="uni0326" unicode="&#x326;" 
d="M-95 -60h95v-95l-72 -120l-20 7l32 113h-35v95z" />
    <glyph glyph-name="uni0327" unicode="&#x327;" 
d="M-91 -204q-34 0 -56.5 16t-29.5 44l49 13q7 -28 38 -28q16 0 26 9.5t10 26.5t-10.5 27.5t-27.5 10.5q-24 0 -48 -20l-31 29l34 92h55l-39 -73q19 13 46 13q33 0 54 -21.5t21 -55.5q0 -39 -26 -61t-65 -22z" />
    <glyph glyph-name="uni0328" unicode="&#x328;" 
d="M-46 -198q-43 0 -73.5 24.5t-30.5 68.5q0 68 77 114l66 -9q-71 -37 -71 -85q0 -20 14 -32t35 -12q11 0 19 2l10 -65q-20 -6 -46 -6z" />
    <glyph glyph-name="uni0335" unicode="&#x335;" 
d="M-306 321v64h306v-64h-306z" />
    <glyph glyph-name="uni0336" unicode="&#x336;" 
d="M-713 498v66h713v-66h-713z" />
    <glyph glyph-name="uni0337" unicode="&#x337;" 
d="M-223 167v76l223 140v-77z" />
    <glyph glyph-name="uni0338" unicode="&#x338;" 
d="M-311 -33l-59 34l311 528l59 -34z" />
    <glyph glyph-name="uni0374" unicode="&#x374;" horiz-adv-x="267" 
d="M57 456l57 247h96l-97 -247h-56z" />
    <glyph glyph-name="uni0375" unicode="&#x375;" horiz-adv-x="267" 
d="M56 -117l97 247h57l-57 -247h-97z" />
    <glyph glyph-name="uni037A" unicode="&#x37a;" horiz-adv-x="203" 
d="M140 -198q-47 0 -73 26t-26 77v75h70v-62q0 -51 45 -51q12 0 23 3v-63q-18 -5 -39 -5z" />
    <glyph glyph-name="uni037E" unicode="&#x37e;" horiz-adv-x="189" 
d="M45 377v99h98v-99h-98zM68 -130l-21 8l33 122h-35v99h98v-99z" />
    <glyph glyph-name="tonos" unicode="&#x384;" horiz-adv-x="272" 
d="M62 555l44 145h104l-85 -145h-63z" />
    <glyph glyph-name="dieresistonos" unicode="&#x385;" horiz-adv-x="418" 
d="M136 558l44 145h104l-85 -145h-63zM19 588v92h93v-92h-93zM306 588v92h93v-92h-93z" />
    <glyph glyph-name="Alphatonos" unicode="&#x386;" horiz-adv-x="658" 
d="M6 0l280 700h86l280 -700h-89l-80 206h-308l-80 -206h-89zM53 555l44 145h104l-85 -145h-63zM203 278h252l-107 276q-11 25 -19 53q-8 -28 -19 -53z" />
    <glyph glyph-name="anoteleia" unicode="&#x387;" horiz-adv-x="189" 
d="M45 307v99h98v-99h-98z" />
    <glyph glyph-name="Epsilontonos" unicode="&#x388;" horiz-adv-x="585" 
d="M-94 555l44 145h104l-85 -145h-63zM81 700h437v-74h-353v-227h325v-74h-325v-251h356v-74h-440v700z" />
    <glyph glyph-name="Etatonos" unicode="&#x389;" horiz-adv-x="685" 
d="M-94 555l44 145h104l-85 -145h-63zM81 700h84v-305h355v305h84v-700h-84v319h-355v-319h-84v700z" />
    <glyph glyph-name="Iotatonos" unicode="&#x38a;" horiz-adv-x="246" 
d="M-94 555l44 145h104l-85 -145h-63zM81 700h84v-700h-84v700z" />
    <glyph glyph-name="Omicrontonos" unicode="&#x38c;" horiz-adv-x="784" 
d="M731 350q0 -161 -97 -262.5t-242 -101.5t-242 101.5t-97 262.5t97 262.5t242 101.5t242 -101.5t97 -262.5zM-28 555l44 145h104l-85 -145h-63zM392 61q111 0 183 79.5t72 209.5t-72 209.5t-183 79.5t-183 -79.5t-72 -209.5t72 -209.5t183 -79.5z" />
    <glyph glyph-name="Upsilontonos" unicode="&#x38e;" horiz-adv-x="551" 
d="M-159 555l44 145h104l-85 -145h-63zM234 0v286l-230 414h91l159 -295q13 -24 22 -48l22 48l158 295h91l-229 -414v-286h-84z" />
    <glyph glyph-name="Omegatonos" unicode="&#x38f;" horiz-adv-x="781" 
d="M74 0v71h159q-76 49 -128 130t-52 182q0 144 96.5 237.5t241.5 93.5t241.5 -93.5t96.5 -237.5q0 -100 -52 -181.5t-128 -130.5h158v-71h-256v82q77 41 135.5 117.5t58.5 179.5q0 113 -70.5 186.5t-183.5 73.5t-183.5 -73.5t-70.5 -186.5q0 -103 58.5 -179.5t135.5 -117.5
v-82h-257zM-28 555l44 145h104l-85 -145h-63z" />
    <glyph glyph-name="iotadieresistonos" unicode="&#x390;" horiz-adv-x="284" 
d="M39 558l44 145h104l-85 -145h-63zM-78 588v92h93v-92h-93zM209 588v92h93v-92h-93zM202 -14q-130 0 -130 137v373h80v-367q0 -37 15.5 -54.5t49.5 -17.5q19 0 33 5l7 -67q-27 -9 -55 -9z" />
    <glyph glyph-name="Alpha" unicode="&#x391;" horiz-adv-x="658" 
d="M6 0l280 700h86l280 -700h-89l-80 206h-308l-80 -206h-89zM203 278h252l-107 276q-11 25 -19 53q-8 -28 -19 -53z" />
    <glyph glyph-name="Beta" unicode="&#x392;" horiz-adv-x="635" 
d="M81 700h255q101 0 160.5 -46.5t59.5 -119.5q0 -59 -34 -100t-82 -59q142 -44 142 -173q0 -91 -70 -146.5t-172 -55.5h-259v700zM165 408h167q65 0 103 26.5t38 82.5t-38 83t-103 27h-167v-219zM165 74h164q77 0 123 32.5t46 97.5q0 66 -46 98.5t-123 32.5h-164v-261z" />
    <glyph glyph-name="Gamma" unicode="&#x393;" horiz-adv-x="547" 
d="M81 0v700h448v-74h-364v-626h-84z" />
    <glyph glyph-name="uni0394" unicode="&#x394;" horiz-adv-x="658" 
d="M6 0l280 700h86l280 -700h-646zM120 73h418l-200 510q-5 11 -9 25l-9 -25z" />
    <glyph glyph-name="Epsilon" unicode="&#x395;" horiz-adv-x="585" 
d="M81 700h437v-74h-353v-227h325v-74h-325v-251h356v-74h-440v700z" />
    <glyph glyph-name="Zeta" unicode="&#x396;" horiz-adv-x="593" 
d="M53 700h480v-77l-395 -546h412v-77h-510v75l399 548h-386v77z" />
    <glyph glyph-name="Eta" unicode="&#x397;" horiz-adv-x="685" 
d="M81 700h84v-305h355v305h84v-700h-84v319h-355v-319h-84v700z" />
    <glyph glyph-name="Theta" unicode="&#x398;" horiz-adv-x="685" 
d="M343 -14q-131 0 -210.5 102t-79.5 262t79.5 262t210.5 102q130 0 210 -102.5t80 -261.5t-80 -261.5t-210 -102.5zM137 386h411q-8 117 -62 185.5t-143 68.5t-143.5 -68.5t-62.5 -185.5zM343 60q89 0 143 68.5t62 185.5h-411q8 -117 62.5 -185.5t143.5 -68.5z" />
    <glyph glyph-name="Iota" unicode="&#x399;" horiz-adv-x="246" 
d="M81 700h84v-700h-84v700z" />
    <glyph glyph-name="Kappa" unicode="&#x39a;" horiz-adv-x="613" 
d="M81 0v700h84v-319l65 71l236 248h105l-243 -257l264 -443h-98l-227 379l-102 -107v-272h-84z" />
    <glyph glyph-name="Lambda" unicode="&#x39b;" horiz-adv-x="623" 
d="M6 0l260 700h91l260 -700h-89l-190 527q-15 46 -26 83l-26 -83l-191 -527h-89z" />
    <glyph glyph-name="Mu" unicode="&#x39c;" horiz-adv-x="849" 
d="M81 700h92l251 -621l252 621h92v-700h-82v539l-35 -99l-183 -440h-87l-183 439q-30 82 -36 100v-539h-81v700z" />
    <glyph glyph-name="Nu" unicode="&#x39d;" horiz-adv-x="695" 
d="M81 700h87l335 -523q24 -40 30 -55v578h81v-700h-87l-335 524q-24 40 -30 55v-579h-81v700z" />
    <glyph glyph-name="Xi" unicode="&#x39e;" horiz-adv-x="573" 
d="M67 626v74h439v-74h-439zM95 325v74h383v-74h-383zM64 0v74h445v-74h-445z" />
    <glyph glyph-name="Omicron" unicode="&#x39f;" horiz-adv-x="784" 
d="M731 350q0 -161 -97 -262.5t-242 -101.5t-242 101.5t-97 262.5t97 262.5t242 101.5t242 -101.5t97 -262.5zM392 61q111 0 183 79.5t72 209.5t-72 209.5t-183 79.5t-183 -79.5t-72 -209.5t72 -209.5t183 -79.5z" />
    <glyph glyph-name="Pi" unicode="&#x3a0;" horiz-adv-x="670" 
d="M81 0v700h508v-700h-84v625h-340v-625h-84z" />
    <glyph glyph-name="Rho" unicode="&#x3a1;" horiz-adv-x="670" 
d="M81 0v700h293q113 0 179.5 -58.5t66.5 -160.5t-66.5 -161t-179.5 -59h-209v-261h-84zM165 335h207q81 0 122.5 38t41.5 108q0 69 -41.5 107t-122.5 38h-207v-291z" />
    <glyph glyph-name="Sigma" unicode="&#x3a3;" horiz-adv-x="581" 
d="M45 0v75l222 275l-214 275v75h476v-75h-379l210 -275l-221 -275h402v-75h-496z" />
    <glyph glyph-name="Tau" unicode="&#x3a4;" horiz-adv-x="553" 
d="M235 0v625h-217v75h517v-75h-216v-625h-84z" />
    <glyph glyph-name="Upsilon" unicode="&#x3a5;" horiz-adv-x="551" 
d="M234 0v286l-230 414h91l159 -295q13 -24 22 -48l22 48l158 295h91l-229 -414v-286h-84z" />
    <glyph glyph-name="Phi" unicode="&#x3a6;" horiz-adv-x="801" 
d="M358 -13v88h-15q-124 0 -210.5 75t-86.5 200t86.5 200t210.5 75h15v88h85v-88h15q124 0 210 -75t86 -200t-86 -200t-210 -75h-15v-88h-85zM337 149h21v402h-21q-90 0 -149.5 -54t-59.5 -147t59.5 -147t149.5 -54zM443 149h21q90 0 149 54t59 147t-59 147t-149 54h-21
v-402z" />
    <glyph glyph-name="Chi" unicode="&#x3a7;" horiz-adv-x="572" 
d="M285 441l162 259h89l-203 -319l235 -381h-92l-191 311l-189 -311h-93l236 376l-203 324h93z" />
    <glyph glyph-name="Psi" unicode="&#x3a8;" horiz-adv-x="737" 
d="M326 0v173q-125 0 -190.5 68.5t-65.5 191.5v267h84v-263q0 -88 43.5 -139t128.5 -51v453h84v-453q85 0 129 51t44 139v263h84v-267q0 -123 -66 -191.5t-191 -68.5v-173h-84z" />
    <glyph glyph-name="uni03A9" unicode="&#x3a9;" horiz-adv-x="781" 
d="M74 0v71h159q-76 49 -128 130t-52 182q0 144 96.5 237.5t241.5 93.5t241.5 -93.5t96.5 -237.5q0 -100 -52 -181.5t-128 -130.5h158v-71h-256v82q77 41 135.5 117.5t58.5 179.5q0 113 -70.5 186.5t-183.5 73.5t-183.5 -73.5t-70.5 -186.5q0 -103 58.5 -179.5t135.5 -117.5
v-82h-257z" />
    <glyph glyph-name="Iotadieresis" unicode="&#x3aa;" horiz-adv-x="246" 
d="M-3 792v92h93v-92h-93zM156 792v92h92v-92h-92zM81 700h84v-700h-84v700z" />
    <glyph glyph-name="Upsilondieresis" unicode="&#x3ab;" horiz-adv-x="551" 
d="M150 792v92h93v-92h-93zM309 792v92h92v-92h-92zM234 0v286l-230 414h91l159 -295q13 -24 22 -48l22 48l158 295h91l-229 -414v-286h-84z" />
    <glyph glyph-name="alphatonos" unicode="&#x3ac;" horiz-adv-x="650" 
d="M281 555l44 145h104l-85 -145h-63zM278 -14q-102 0 -170 73.5t-68 188.5t67.5 188.5t166.5 73.5q68 0 120 -34.5t75 -94.5l21 115h79l-58 -295q8 -145 74 -145q15 0 30 8l14 -68q-27 -10 -53 -10q-89 0 -118 104q-59 -104 -180 -104zM282 59q70 0 114 51t44 138
q0 82 -45 135.5t-114 53.5t-114 -52.5t-45 -136.5q0 -83 46 -136t114 -53z" />
    <glyph glyph-name="epsilontonos" unicode="&#x3ad;" horiz-adv-x="468" 
d="M202 555l44 145h104l-85 -145h-63zM237 -14q-92 0 -141 46t-49 109q0 49 30 81.5t69 43.5q-86 35 -86 113q0 55 46.5 93t127.5 38t127 -35.5t46 -93.5q0 -27 -12 -49l-64 24q4 9 4 21q0 31 -29.5 50.5t-72.5 19.5t-70 -20t-27 -52q0 -38 29 -59.5t88 -21.5v-62
q-57 0 -92 -22t-35 -65q0 -41 29.5 -67t81.5 -26q46 0 77 22t31 60q0 19 -5 32l70 23q12 -21 12 -53q0 -67 -50 -108.5t-135 -41.5z" />
    <glyph glyph-name="etatonos" unicode="&#x3ae;" horiz-adv-x="570" 
d="M260 555l44 145h104l-85 -145h-63zM418 -204v520q0 57 -33 89t-88 32q-58 0 -101.5 -48t-43.5 -118v-271h-80v496h80v-88q28 47 73.5 74.5t98.5 27.5q76 0 125 -44t49 -129v-541h-80z" />
    <glyph glyph-name="iotatonos" unicode="&#x3af;" horiz-adv-x="284" 
d="M80 555l44 145h104l-85 -145h-63zM202 -14q-130 0 -130 137v373h80v-367q0 -37 15.5 -54.5t49.5 -17.5q19 0 33 5l7 -67q-27 -9 -55 -9z" />
    <glyph glyph-name="upsilondieresistonos" unicode="&#x3b0;" horiz-adv-x="559" 
d="M207 558l44 145h104l-85 -145h-63zM90 588v92h93v-92h-93zM377 588v92h93v-92h-93zM280 -14q-92 0 -150 52.5t-58 151.5v306h80v-312q0 -58 34 -91.5t94 -33.5t93.5 33.5t33.5 91.5v312h81v-306q0 -99 -58.5 -151.5t-149.5 -52.5z" />
    <glyph glyph-name="alpha" unicode="&#x3b1;" horiz-adv-x="650" 
d="M278 -14q-102 0 -170 73.5t-68 188.5t67.5 188.5t166.5 73.5q68 0 120 -34.5t75 -94.5l21 115h79l-58 -295q8 -145 74 -145q15 0 30 8l14 -68q-27 -10 -53 -10q-89 0 -118 104q-59 -104 -180 -104zM282 59q70 0 114 51t44 138q0 82 -45 135.5t-114 53.5t-114 -52.5
t-45 -136.5q0 -83 46 -136t114 -53z" />
    <glyph glyph-name="beta" unicode="&#x3b2;" horiz-adv-x="557" 
d="M72 -204v706q0 105 58 158.5t141 53.5q89 0 141 -47.5t52 -119.5q0 -106 -115 -158q70 -21 116 -70t46 -120q0 -95 -59 -154t-146 -59q-50 0 -92.5 21t-61.5 55v-266h-80zM293 55q59 0 98 38t39 104q0 72 -54 111t-127 39h-24v69h23q59 0 98 34t39 87q0 48 -31.5 77.5
t-81.5 29.5q-49 0 -84.5 -35t-35.5 -98v-304q0 -70 41 -111t100 -41z" />
    <glyph glyph-name="gamma" unicode="&#x3b3;" horiz-adv-x="507" 
d="M211 -204v216l-196 484h89l149 -390l149 390h89l-195 -484v-216h-85z" />
    <glyph glyph-name="delta" unicode="&#x3b4;" horiz-adv-x="568" 
d="M284 -14q-100 0 -169 63t-69 175q0 93 64 161t161 71q16 0 31 -5l-211 184v65h335v-65h-235l218 -192q55 -49 84 -97t29 -122q0 -105 -70.5 -171.5t-167.5 -66.5zM284 54q70 0 116.5 47.5t46.5 122.5t-47 122.5t-116 47.5t-116.5 -48t-47.5 -122q0 -75 46.5 -122.5
t117.5 -47.5z" />
    <glyph glyph-name="epsilon" unicode="&#x3b5;" horiz-adv-x="468" 
d="M237 -14q-92 0 -141 46t-49 109q0 49 30 81.5t69 43.5q-86 35 -86 113q0 55 46.5 93t127.5 38t127 -35.5t46 -93.5q0 -27 -12 -49l-64 24q4 9 4 21q0 31 -29.5 50.5t-72.5 19.5t-70 -20t-27 -52q0 -38 29 -59.5t88 -21.5v-62q-57 0 -92 -22t-35 -65q0 -41 29.5 -67
t81.5 -26q46 0 77 22t31 60q0 19 -5 32l70 23q12 -21 12 -53q0 -67 -50 -108.5t-135 -41.5z" />
    <glyph glyph-name="zeta" unicode="&#x3b6;" horiz-adv-x="474" 
d="M411 -113l-55 43q15 17 15 33q0 37 -55 37q-270 0 -270 239q0 216 252 395h-246v66h340v-66q-120 -70 -192 -174t-72 -203q0 -89 48.5 -135.5t140.5 -46.5q64 -1 99.5 -26.5t35.5 -74.5q0 -42 -41 -87z" />
    <glyph glyph-name="eta" unicode="&#x3b7;" horiz-adv-x="570" 
d="M418 -204v520q0 57 -33 89t-88 32q-58 0 -101.5 -48t-43.5 -118v-271h-80v496h80v-88q28 47 73.5 74.5t98.5 27.5q76 0 125 -44t49 -129v-541h-80z" />
    <glyph glyph-name="theta" unicode="&#x3b8;" horiz-adv-x="621" 
d="M311 -14q-121 0 -193 97t-72 267q0 169 73 266.5t192 97.5q118 0 191 -97.5t73 -266.5q0 -170 -71.5 -267t-192.5 -97zM129 386h363q-7 124 -55.5 189.5t-125.5 65.5t-126 -65.5t-56 -189.5zM311 59q77 0 125.5 65.5t55.5 189.5h-363q7 -124 56 -189.5t126 -65.5z" />
    <glyph glyph-name="iota" unicode="&#x3b9;" horiz-adv-x="284" 
d="M202 -14q-130 0 -130 137v373h80v-367q0 -37 15.5 -54.5t49.5 -17.5q19 0 33 5l7 -67q-27 -9 -55 -9z" />
    <glyph glyph-name="kappa" unicode="&#x3ba;" horiz-adv-x="502" 
d="M72 0v496h80v-213l191 213h100l-178 -194l208 -302h-93l-170 242l-58 -65v-177h-80z" />
    <glyph glyph-name="lambda" unicode="&#x3bb;" horiz-adv-x="501" 
d="M6 0l202 499l-32 82q-21 52 -62 52q-17 0 -39 -10l-13 74q27 10 55 10q90 0 130 -100l248 -607h-90l-154 389l-154 -389h-91z" />
    <glyph glyph-name="uni03BC" unicode="&#x3bc;" horiz-adv-x="569" 
d="M72 -204v700h80v-314q0 -59 32 -91t87 -32q61 0 103 48.5t42 124.5v264h81v-496h-81v87q-24 -46 -68.5 -73.5t-97.5 -27.5q-59 0 -100 28q2 -36 2 -63v-155h-80z" />
    <glyph glyph-name="nu" unicode="&#x3bd;" horiz-adv-x="494" 
d="M287 0h-80l-199 496h86l153 -400l153 400h86z" />
    <glyph glyph-name="xi" unicode="&#x3be;" horiz-adv-x="512" 
d="M409 -117l-55 44q14 19 14 35q0 33 -54 33q-121 0 -193.5 53t-72.5 154q0 68 41 114.5t98 67.5q-51 21 -81.5 62.5t-30.5 92.5q0 76 57.5 125.5t149.5 49.5t144 -42t52 -110q0 -28 -10 -56l-74 14q6 18 6 34q0 43 -31.5 66t-86.5 23q-58 0 -92.5 -30t-34.5 -80
q0 -51 42.5 -87.5t123.5 -36.5v-67q-84 0 -136.5 -34.5t-52.5 -101.5q0 -64 49.5 -100.5t146.5 -36.5q126 0 126 -90q0 -51 -45 -96z" />
    <glyph glyph-name="omicron" unicode="&#x3bf;" horiz-adv-x="597" 
d="M558 248q0 -121 -76 -191.5t-184 -70.5q-107 0 -183 70.5t-76 191.5t76 191.5t183 70.5q108 0 184 -70.5t76 -191.5zM298 59q76 0 127.5 53t51.5 136t-51.5 136t-127.5 53q-75 0 -126.5 -53t-51.5 -136t51.5 -136t126.5 -53z" />
    <glyph glyph-name="pi" unicode="&#x3c0;" horiz-adv-x="646" 
d="M548 -14q-57 0 -89.5 34.5t-32.5 100.5v313h-212v-434h-80v434h-106v62h584v-62h-105v-306q0 -71 62 -71q16 0 34 5l7 -67q-26 -9 -62 -9z" />
    <glyph glyph-name="rho" unicode="&#x3c1;" horiz-adv-x="604" 
d="M72 -204v451q0 119 69.5 191t174.5 72q113 0 180.5 -71t67.5 -191q0 -119 -66.5 -190.5t-170.5 -71.5q-56 0 -103 24.5t-72 66.5v-281h-80zM315 59q74 0 120.5 53t46.5 136t-46.5 136t-120.5 53q-71 0 -117 -54t-46 -135q0 -82 45.5 -135.5t117.5 -53.5z" />
    <glyph glyph-name="uni03C2" unicode="&#x3c2;" horiz-adv-x="545" 
d="M369 -147l-50 48q28 25 28 45q0 34 -57 40q-107 12 -178.5 82t-71.5 182t74.5 186t179.5 74q79 0 134 -36t81 -100l-62 -41q-47 103 -153 103q-74 0 -123 -51t-49 -134q0 -82 50 -131t133 -63q69 -13 98.5 -37t29.5 -68q0 -51 -64 -99z" />
    <glyph glyph-name="sigma" unicode="&#x3c3;" horiz-adv-x="624" 
d="M299 -14q-107 0 -183 70.5t-76 191.5q0 122 76.5 192t186.5 70h292v-65h-138q42 -26 72 -79.5t30 -117.5q0 -121 -76 -191.5t-184 -70.5zM299 59q76 0 127.5 53t51.5 136t-51.5 136t-127.5 53q-75 0 -126.5 -53t-51.5 -136t51.5 -136t126.5 -53z" />
    <glyph glyph-name="tau" unicode="&#x3c4;" horiz-adv-x="424" 
d="M293 -14q-59 0 -95 34.5t-36 106.5v307h-142v62h371v-62h-149v-301q0 -76 69 -76q19 0 39 6l7 -67q-30 -10 -64 -10z" />
    <glyph glyph-name="upsilon" unicode="&#x3c5;" horiz-adv-x="559" 
d="M280 -14q-92 0 -150 52.5t-58 151.5v306h80v-312q0 -58 34 -91.5t94 -33.5t93.5 33.5t33.5 91.5v312h81v-306q0 -99 -58.5 -151.5t-149.5 -52.5z" />
    <glyph glyph-name="phi" unicode="&#x3c6;" horiz-adv-x="700" 
d="M310 -204v204h-17q-103 0 -178 68t-75 180q0 114 73 181t187 67h100q114 0 187 -67t73 -181q0 -112 -75 -180t-178 -68h-17v-204h-80zM298 71h12v354h-11q-75 0 -126 -45.5t-51 -131.5t50.5 -131.5t125.5 -45.5zM390 71h12q75 0 125.5 45.5t50.5 131.5t-51 131.5
t-126 45.5h-11v-354z" />
    <glyph glyph-name="chi" unicode="&#x3c7;" horiz-adv-x="528" 
d="M477 -211q-42 0 -67 20t-46 67l-91 203l-140 -283h-88l190 370l-105 234q-13 29 -37 29q-21 0 -40 -16l-28 58q32 32 78 32q66 0 94 -64l83 -182l115 239h85l-162 -327l118 -260q20 -46 54 -46q17 0 35 11l19 -67q-29 -18 -67 -18z" />
    <glyph glyph-name="psi" unicode="&#x3c8;" horiz-adv-x="657" 
d="M289 -204v190q-96 0 -156.5 58.5t-60.5 156.5v295h78v-295q0 -64 37 -104t102 -40v439h78v-439q65 0 102.5 40t37.5 104v295h78v-295q0 -98 -61 -156.5t-157 -58.5v-190h-78z" />
    <glyph glyph-name="omega" unicode="&#x3c9;" horiz-adv-x="787" 
d="M247 -14q-90 0 -136.5 66.5t-46.5 175.5q0 161 78 282l71 -35q-34 -64 -51 -120t-17 -137q0 -75 27.5 -118.5t78.5 -43.5q48 0 76 38t28 100v150h78v-150q0 -62 27.5 -100t75.5 -38q51 0 79 43.5t28 118.5q0 81 -17 137.5t-52 119.5l71 35q78 -121 78 -282
q0 -110 -46 -176t-137 -66q-108 0 -146 115q-39 -115 -147 -115z" />
    <glyph glyph-name="iotadieresis" unicode="&#x3ca;" horiz-adv-x="284" 
d="M-14 588v92h93v-92h-93zM145 588v92h92v-92h-92zM202 -14q-130 0 -130 137v373h80v-367q0 -37 15.5 -54.5t49.5 -17.5q19 0 33 5l7 -67q-27 -9 -55 -9z" />
    <glyph glyph-name="upsilondieresis" unicode="&#x3cb;" horiz-adv-x="559" 
d="M154 588v92h93v-92h-93zM313 588v92h92v-92h-92zM280 -14q-92 0 -150 52.5t-58 151.5v306h80v-312q0 -58 34 -91.5t94 -33.5t93.5 33.5t33.5 91.5v312h81v-306q0 -99 -58.5 -151.5t-149.5 -52.5z" />
    <glyph glyph-name="omicrontonos" unicode="&#x3cc;" horiz-adv-x="597" 
d="M247 558l67 145h107l-108 -145h-66zM558 248q0 -121 -76 -191.5t-184 -70.5q-107 0 -183 70.5t-76 191.5t76 191.5t183 70.5q108 0 184 -70.5t76 -191.5zM298 59q76 0 127.5 53t51.5 136t-51.5 136t-127.5 53q-75 0 -126.5 -53t-51.5 -136t51.5 -136t126.5 -53z" />
    <glyph glyph-name="upsilontonos" unicode="&#x3cd;" horiz-adv-x="559" 
d="M248 555l44 145h104l-85 -145h-63zM280 -14q-92 0 -150 52.5t-58 151.5v306h80v-312q0 -58 34 -91.5t94 -33.5t93.5 33.5t33.5 91.5v312h81v-306q0 -99 -58.5 -151.5t-149.5 -52.5z" />
    <glyph glyph-name="omegatonos" unicode="&#x3ce;" horiz-adv-x="787" 
d="M362 555l44 145h104l-85 -145h-63zM247 -14q-90 0 -136.5 66.5t-46.5 175.5q0 161 78 282l71 -35q-34 -64 -51 -120t-17 -137q0 -75 27.5 -118.5t78.5 -43.5q48 0 76 38t28 100v150h78v-150q0 -62 27.5 -100t75.5 -38q51 0 79 43.5t28 118.5q0 81 -17 137.5t-52 119.5
l71 35q78 -121 78 -282q0 -110 -46 -176t-137 -66q-108 0 -146 115q-39 -115 -147 -115z" />
    <glyph glyph-name="uni0400" unicode="&#x400;" horiz-adv-x="585" 
d="M289 762l-108 145h107l67 -145h-66zM81 700h437v-74h-353v-227h325v-74h-325v-251h356v-74h-440v700z" />
    <glyph glyph-name="uni0401" unicode="&#x401;" horiz-adv-x="585" 
d="M177 792v92h93v-92h-93zM336 792v92h92v-92h-92zM81 700h437v-74h-353v-227h325v-74h-325v-251h356v-74h-440v700z" />
    <glyph glyph-name="uni0402" unicode="&#x402;" horiz-adv-x="746" 
d="M482 416q100 0 162.5 -54t62.5 -151q0 -101 -61 -159.5t-151 -58.5q-37 0 -62 7v73q24 -7 61 -7q55 0 92 36t37 105q0 68 -41 101.5t-103 33.5q-88 0 -170 -41v-301h-84v625h-207v75h517v-75h-226v-248q86 39 173 39z" />
    <glyph glyph-name="uni0403" unicode="&#x403;" horiz-adv-x="547" 
d="M273 762l67 145h107l-108 -145h-66zM81 0v700h448v-74h-364v-626h-84z" />
    <glyph glyph-name="uni0404" unicode="&#x404;" horiz-adv-x="747" 
d="M393 -14q-147 0 -243.5 103.5t-96.5 260.5q0 155 101 259.5t244 104.5q100 0 174 -43t116 -117l-66 -45q-43 68 -97.5 99t-128.5 31q-96 0 -168.5 -68.5t-86.5 -175.5h332v-76h-334q10 -113 80.5 -185.5t175.5 -72.5q145 0 230 130l66 -42q-53 -81 -122 -122t-176 -41z
" />
    <glyph glyph-name="uni0405" unicode="&#x405;" horiz-adv-x="644" 
d="M164 532q0 -53 48 -84.5t145 -50.5q227 -44 227 -201q0 -90 -71 -150.5t-184 -59.5q-108 1 -180.5 52.5t-98.5 128.5l74 33q24 -63 75 -102t129 -39t125 38.5t47 92.5q0 58 -47.5 91t-140.5 50q-229 42 -229 200q0 81 65.5 132t167.5 51q180 0 252 -145l-68 -40
q-62 112 -185 112q-66 0 -108.5 -29t-42.5 -80z" />
    <glyph glyph-name="uni0406" unicode="&#x406;" horiz-adv-x="246" 
d="M81 700h84v-700h-84v700z" />
    <glyph glyph-name="uni0407" unicode="&#x407;" horiz-adv-x="246" 
d="M-3 792v92h93v-92h-93zM156 792v92h92v-92h-92zM81 700h84v-700h-84v700z" />
    <glyph glyph-name="uni0408" unicode="&#x408;" horiz-adv-x="532" 
d="M469 201q0 -98 -57.5 -156.5t-153.5 -58.5q-95 0 -152.5 56.5t-57.5 154.5l84 -5q0 -63 35.5 -97t90.5 -34q59 0 93 36.5t34 103.5v499h84v-499z" />
    <glyph glyph-name="uni0409" unicode="&#x409;" horiz-adv-x="1075" 
d="M82 -7q-12 0 -24 1.5t-18 3.5l-7 2v78q20 -8 41 -8q32 0 49.5 28.5t23.5 111.5q8 118 17 325l8 165h426v-264h182q112 0 178.5 -56.5t66.5 -161.5t-66.5 -161.5t-178.5 -56.5h-266v626h-268l-4 -95q-14 -289 -17 -332q-7 -113 -42 -159.5t-101 -46.5zM598 74h171
q172 0 172 144q0 75 -46 110t-126 35h-171v-289z" />
    <glyph glyph-name="uni040A" unicode="&#x40a;" horiz-adv-x="1052" 
d="M81 0v700h84v-285h342v285h84v-285h170q110 0 175.5 -53.5t65.5 -154.5q0 -102 -65.5 -154.5t-175.5 -52.5h-254v340h-342v-340h-84zM591 74h158q169 0 169 133t-169 133h-158v-266z" />
    <glyph glyph-name="uni040B" unicode="&#x40b;" horiz-adv-x="778" 
d="M484 416q101 0 162.5 -55t61.5 -157v-204h-84v194q0 75 -42.5 111.5t-105.5 36.5q-85 0 -167 -41v-301h-84v625h-207v75h517v-75h-226v-248q82 39 175 39z" />
    <glyph glyph-name="uni040C" unicode="&#x40c;" horiz-adv-x="591" 
d="M428 907l-108 -145h-66l67 145h107zM245 360l325 -360h-108l-235 261l-62 69v-330h-84v700h84v-316q8 9 18 20.5t24 27t23 25.5l218 243h110z" />
    <glyph glyph-name="uni040D" unicode="&#x40d;" horiz-adv-x="692" 
d="M332 762l-108 145h107l67 -145h-66zM81 0v700h81v-586l30 55l332 531h87v-700h-81v587l-30 -55l-332 -532h-87z" />
    <glyph glyph-name="uni040E" unicode="&#x40e;" horiz-adv-x="570" 
d="M299 772q-46 0 -74.5 29t-28.5 75h63q0 -20 11 -32.5t29 -12.5t28.5 12.5t10.5 32.5h63q0 -46 -28 -75t-74 -29zM470 700h90l-236 -562q-38 -90 -77 -121t-92 -31q-44 0 -74 15v84q36 -18 72 -18q31 0 51.5 18t44.5 77l10 25l-248 513h93l197 -412z" />
    <glyph glyph-name="uni040F" unicode="&#x40f;" horiz-adv-x="670" 
d="M295 -126v126h-214v700h84v-625h340v625h84v-700h-215v-126h-79z" />
    <glyph glyph-name="uni0410" unicode="&#x410;" horiz-adv-x="658" 
d="M6 0l280 700h86l280 -700h-89l-80 206h-308l-80 -206h-89zM203 278h252l-107 276q-11 25 -19 53q-8 -28 -19 -53z" />
    <glyph glyph-name="uni0411" unicode="&#x411;" horiz-adv-x="635" 
d="M81 0v700h446v-73h-362v-210h180q106 0 171.5 -56t65.5 -153t-65.5 -152.5t-171.5 -55.5h-264zM165 74h168q76 0 120.5 33t44.5 102t-44.5 101.5t-120.5 32.5h-168v-269z" />
    <glyph glyph-name="uni0412" unicode="&#x412;" horiz-adv-x="635" 
d="M81 700h255q101 0 160.5 -46.5t59.5 -119.5q0 -59 -34 -100t-82 -59q142 -44 142 -173q0 -91 -70 -146.5t-172 -55.5h-259v700zM165 408h167q65 0 103 26.5t38 82.5t-38 83t-103 27h-167v-219zM165 74h164q77 0 123 32.5t46 97.5q0 66 -46 98.5t-123 32.5h-164v-261z" />
    <glyph glyph-name="uni0413" unicode="&#x413;" horiz-adv-x="547" 
d="M81 0v700h448v-74h-364v-626h-84z" />
    <glyph glyph-name="uni0414" unicode="&#x414;" horiz-adv-x="688" 
d="M15 -126v201h56q33 62 47 122t19 153l19 350h420v-625h86v-201h-79v126h-489v-126h-79zM158 75h334v551h-259l-15 -284q-5 -94 -18 -151.5t-42 -115.5z" />
    <glyph glyph-name="uni0415" unicode="&#x415;" horiz-adv-x="585" 
d="M81 700h437v-74h-353v-227h325v-74h-325v-251h356v-74h-440v700z" />
    <glyph glyph-name="uni0416" unicode="&#x416;" horiz-adv-x="950" 
d="M598 360l331 -360h-109l-241 261q-22 23 -62 69v-330h-84v330q-40 -46 -62 -69l-241 -261h-109l331 360l-318 340h109l225 -243q37 -39 65 -73v316h84v-316q28 34 65 73l225 243h109z" />
    <glyph glyph-name="uni0417" unicode="&#x417;" horiz-adv-x="628" 
d="M443 377q63 -21 97.5 -66t34.5 -108q0 -98 -71.5 -157.5t-187.5 -59.5q-109 0 -177 53.5t-85 139.5l78 28q9 -61 58.5 -103.5t125.5 -42.5q79 0 127 37t48 103q0 64 -47.5 97.5t-126.5 33.5h-67v74h68q68 0 106.5 33t38.5 89q0 52 -38 81.5t-105 29.5q-140 0 -167 -118
l-77 17q17 79 78.5 127.5t165.5 48.5q107 0 165.5 -50.5t58.5 -129.5q0 -113 -101 -157z" />
    <glyph glyph-name="uni0418" unicode="&#x418;" horiz-adv-x="692" 
d="M81 0v700h81v-586l30 55l332 531h87v-700h-81v587l-30 -55l-332 -532h-87z" />
    <glyph glyph-name="uni0419" unicode="&#x419;" horiz-adv-x="692" 
d="M347 772q-46 0 -74.5 29t-28.5 75h63q0 -20 11 -32.5t29 -12.5t28.5 12.5t10.5 32.5h63q0 -46 -28 -75t-74 -29zM81 0v700h81v-586l30 55l332 531h87v-700h-81v587l-30 -55l-332 -532h-87z" />
    <glyph glyph-name="uni041A" unicode="&#x41a;" horiz-adv-x="591" 
d="M245 360l325 -360h-108l-235 261l-62 69v-330h-84v700h84v-316q8 9 18 20.5t24 27t23 25.5l218 243h110z" />
    <glyph glyph-name="uni041B" unicode="&#x41b;" horiz-adv-x="700" 
d="M82 -7q-12 0 -24 1.5t-18 3.5l-7 2v78q20 -8 41 -8q32 0 49.5 28.5t23.5 111.5q8 118 17 325l8 165h447v-700h-84v626h-289l-4 -95q-14 -289 -17 -332q-8 -113 -42.5 -159.5t-100.5 -46.5z" />
    <glyph glyph-name="uni041C" unicode="&#x41c;" horiz-adv-x="849" 
d="M81 700h92l251 -621l252 621h92v-700h-82v539l-35 -99l-183 -440h-87l-183 439q-30 82 -36 100v-539h-81v700z" />
    <glyph glyph-name="uni041D" unicode="&#x41d;" horiz-adv-x="685" 
d="M81 700h84v-305h355v305h84v-700h-84v319h-355v-319h-84v700z" />
    <glyph glyph-name="uni041E" unicode="&#x41e;" horiz-adv-x="784" 
d="M731 350q0 -161 -97 -262.5t-242 -101.5t-242 101.5t-97 262.5t97 262.5t242 101.5t242 -101.5t97 -262.5zM392 61q111 0 183 79.5t72 209.5t-72 209.5t-183 79.5t-183 -79.5t-72 -209.5t72 -209.5t183 -79.5z" />
    <glyph glyph-name="uni041F" unicode="&#x41f;" horiz-adv-x="670" 
d="M81 0v700h508v-700h-84v625h-340v-625h-84z" />
    <glyph glyph-name="uni0420" unicode="&#x420;" horiz-adv-x="670" 
d="M81 0v700h293q113 0 179.5 -58.5t66.5 -160.5t-66.5 -161t-179.5 -59h-209v-261h-84zM165 335h207q81 0 122.5 38t41.5 108q0 69 -41.5 107t-122.5 38h-207v-291z" />
    <glyph glyph-name="uni0421" unicode="&#x421;" horiz-adv-x="747" 
d="M691 149q-53 -81 -122 -122t-176 -41q-147 0 -243.5 103.5t-96.5 260.5q0 155 101 259.5t244 104.5q100 0 174 -43t116 -117l-66 -45q-43 68 -97.5 99t-128.5 31q-107 0 -183 -82.5t-76 -206.5t73 -206.5t185 -82.5q145 0 230 130z" />
    <glyph glyph-name="uni0422" unicode="&#x422;" horiz-adv-x="553" 
d="M235 0v625h-217v75h517v-75h-216v-625h-84z" />
    <glyph glyph-name="uni0423" unicode="&#x423;" horiz-adv-x="570" 
d="M470 700h90l-236 -562q-38 -90 -77 -121t-92 -31q-44 0 -74 15v84q36 -18 72 -18q31 0 51.5 18t44.5 77l10 25l-248 513h93l197 -412z" />
    <glyph glyph-name="uni0424" unicode="&#x424;" horiz-adv-x="801" 
d="M358 -13v88h-15q-124 0 -210.5 75t-86.5 200t86.5 200t210.5 75h15v88h85v-88h15q124 0 210 -75t86 -200t-86 -200t-210 -75h-15v-88h-85zM337 149h21v402h-21q-90 0 -149.5 -54t-59.5 -147t59.5 -147t149.5 -54zM443 149h21q90 0 149 54t59 147t-59 147t-149 54h-21
v-402z" />
    <glyph glyph-name="uni0425" unicode="&#x425;" horiz-adv-x="572" 
d="M285 441l162 259h89l-203 -319l235 -381h-92l-191 311l-189 -311h-93l236 376l-203 324h93z" />
    <glyph glyph-name="uni0426" unicode="&#x426;" horiz-adv-x="705" 
d="M596 -126v126h-515v700h84v-625h340v625h84v-625h86v-201h-79z" />
    <glyph glyph-name="uni0427" unicode="&#x427;" horiz-adv-x="657" 
d="M492 0v290q-70 -31 -171 -31q-113 0 -181.5 62.5t-68.5 173.5v205h84v-201q0 -77 44.5 -121.5t122.5 -44.5q103 0 170 33v334h84v-700h-84z" />
    <glyph glyph-name="uni0428" unicode="&#x428;" horiz-adv-x="917" 
d="M81 0v700h83v-625h252v625h84v-625h252v625h84v-700h-755z" />
    <glyph glyph-name="uni0429" unicode="&#x429;" horiz-adv-x="952" 
d="M843 -126v126h-762v700h83v-625h252v625h84v-625h252v625h84v-625h86v-201h-79z" />
    <glyph glyph-name="uni042A" unicode="&#x42a;" horiz-adv-x="741" 
d="M173 0v627h-155v73h239v-264h189q112 0 178.5 -56.5t66.5 -161.5t-66.5 -161.5t-178.5 -56.5h-273zM257 74h178q172 0 172 144q0 75 -46 110t-126 35h-178v-289z" />
    <glyph glyph-name="uni042B" unicode="&#x42b;" horiz-adv-x="866" 
d="M81 0v700h84v-264h189q111 0 178 -56.5t67 -161.5t-67 -161.5t-178 -56.5h-273zM701 700h84v-700h-84v700zM165 74h178q80 0 126 35t46 109q0 75 -46 110t-126 35h-178v-289z" />
    <glyph glyph-name="uni042C" unicode="&#x42c;" horiz-adv-x="648" 
d="M81 0v700h84v-264h189q111 0 178 -56.5t67 -161.5t-67 -161.5t-178 -56.5h-273zM165 74h178q80 0 126 35t46 109q0 75 -46 110t-126 35h-178v-289z" />
    <glyph glyph-name="uni042D" unicode="&#x42d;" horiz-adv-x="747" 
d="M354 -14q-108 0 -176.5 41t-122.5 122l67 42q85 -130 230 -130q104 0 174.5 72.5t81.5 185.5h-334v76h331q-13 107 -85 175.5t-169 68.5q-75 0 -129.5 -31t-96.5 -99l-66 45q42 74 115.5 117t174.5 43q143 0 244 -104.5t101 -259.5q0 -157 -96.5 -260.5t-243.5 -103.5z
" />
    <glyph glyph-name="uni042E" unicode="&#x42e;" horiz-adv-x="965" 
d="M591 -14q-133 0 -220 89t-98 237h-108v-312h-84v700h84v-312h108q11 148 98 237t220 89q140 0 231 -101t91 -263t-91 -263t-231 -101zM591 61q104 0 170.5 78.5t66.5 210.5t-66 210.5t-171 78.5q-104 0 -170 -78.5t-66 -210.5t66 -210.5t170 -78.5z" />
    <glyph glyph-name="uni042F" unicode="&#x42f;" horiz-adv-x="630" 
d="M274 700h275v-700h-84v296h-162l-176 -296h-91l180 304q-82 16 -124.5 67.5t-42.5 129.5q0 88 60.5 143.5t164.5 55.5zM465 369v258h-181q-151 0 -151 -129t151 -129h181z" />
    <glyph glyph-name="uni0430" unicode="&#x430;" horiz-adv-x="525" 
d="M401 0q-14 44 -14 98q-20 -50 -68.5 -81t-103.5 -31q-75 0 -120.5 42.5t-45.5 109.5q0 69 47 108.5t122 50.5l168 26v25q0 48 -30.5 73t-86.5 25q-55 0 -86.5 -23.5t-31.5 -57.5q0 -8 2 -14l-71 -15q-6 14 -6 34q0 59 54 99.5t139 40.5q95 0 146 -43t51 -121v-222
q0 -72 15 -124h-80zM227 56q72 0 115.5 54.5t43.5 130.5v20l-152 -24q-105 -19 -105 -96q0 -38 27 -61.5t71 -23.5z" />
    <glyph glyph-name="uni0431" unicode="&#x431;" horiz-adv-x="589" 
d="M300 -14q-122 0 -188 87t-66 235q0 140 52 234q67 125 251 141q81 4 108 35l47 -47q-22 -29 -58.5 -42t-103.5 -18q-103 -9 -160 -68.5t-70 -185.5q28 57 80 89.5t123 32.5q100 0 164 -68.5t64 -176.5q0 -109 -68.5 -178.5t-174.5 -69.5zM300 56q71 0 118 50t47 127
t-47 126.5t-118 49.5t-117.5 -49.5t-46.5 -126.5q0 -78 46.5 -127.5t117.5 -49.5z" />
    <glyph glyph-name="uni0432" unicode="&#x432;" horiz-adv-x="516" 
d="M70 0v496h218q73 0 115 -35.5t42 -88.5q0 -77 -74 -111q41 -12 67 -43t26 -77q0 -61 -48 -101t-125 -40h-221zM150 290h136q38 0 60 18t22 52q0 35 -21.5 53t-57.5 18h-139v-141zM150 65h144q42 0 66 21.5t24 59.5q0 37 -24 58.5t-66 21.5h-144v-161z" />
    <glyph glyph-name="uni0433" unicode="&#x433;" horiz-adv-x="412" 
d="M70 0v496h306v-71h-225v-425h-81z" />
    <glyph glyph-name="uni0434" unicode="&#x434;" horiz-adv-x="561" 
d="M13 -116v187h47q36 65 43 197l13 228h357v-425h71v-187h-74v116h-383v-116h-74zM137 71h255v354h-208l-9 -159q-6 -129 -38 -195z" />
    <glyph glyph-name="uni0435" unicode="&#x435;" horiz-adv-x="566" 
d="M118 235q4 -78 50.5 -129t119.5 -51q58 0 91.5 22.5t64.5 65.5l61 -34q-73 -123 -220 -123q-104 0 -175 74t-71 188t72 188t178 74q108 0 173 -69t65 -179v-27h-409zM288 445q-63 0 -110.5 -41t-59.5 -104h328q-4 68 -49 106.5t-109 38.5z" />
    <glyph glyph-name="uni0436" unicode="&#x436;" horiz-adv-x="699" 
d="M679 0h-98l-191 230v-230h-81v229l-191 -229h-98l218 262l-211 234h104l178 -204v204h81v-206l178 206h104l-211 -234z" />
    <glyph glyph-name="uni0437" unicode="&#x437;" horiz-adv-x="493" 
d="M341 262q102 -29 102 -119q0 -66 -52.5 -111.5t-147.5 -45.5q-89 0 -141 41.5t-52 108.5q0 28 10 51l69 -22q-4 -14 -4 -29q0 -40 34 -62t84 -22q56 0 88.5 26t32.5 66q0 39 -30 60.5t-86 21.5h-42v67h41q49 0 74 21.5t25 56.5q0 34 -26 53.5t-75 19.5q-50 0 -78 -19
t-28 -47q0 -21 3 -24l-68 -24q-8 24 -8 46q0 59 48.5 96.5t130.5 37.5q87 0 133 -37.5t46 -96.5q0 -80 -83 -114z" />
    <glyph glyph-name="uni0438" unicode="&#x438;" horiz-adv-x="565" 
d="M70 0v496h79v-390l257 390h89v-496h-79v390l-257 -390h-89z" />
    <glyph glyph-name="uni0439" unicode="&#x439;" horiz-adv-x="565" 
d="M283 568q-46 0 -74.5 29t-28.5 75h63q0 -20 11 -32.5t29 -12.5t28.5 12.5t10.5 32.5h63q0 -46 -28 -75t-74 -29zM70 0v496h79v-390l257 390h89v-496h-79v390l-257 -390h-89z" />
    <glyph glyph-name="uni043A" unicode="&#x43a;" horiz-adv-x="482" 
d="M462 0h-101l-210 231v-231h-81v496h81v-205l199 205h101l-228 -235z" />
    <glyph glyph-name="uni043B" unicode="&#x43b;" horiz-adv-x="544" 
d="M57 -7q-8 0 -17.5 1.5t-14.5 3.5l-5 2v72q14 -7 34 -7q27 0 39 24t16 99l18 308h347v-496h-81v425h-196l-13 -242q-6 -106 -33.5 -148t-93.5 -42z" />
    <glyph glyph-name="uni043C" unicode="&#x43c;" horiz-adv-x="681" 
d="M70 0v496h116l155 -407l155 407h115v-496h-78v389l-155 -389h-75l-154 390v-390h-79z" />
    <glyph glyph-name="uni043D" unicode="&#x43d;" horiz-adv-x="557" 
d="M70 0v496h81v-201h255v201h81v-496h-81v225h-255v-225h-81z" />
    <glyph glyph-name="uni043E" unicode="&#x43e;" horiz-adv-x="597" 
d="M558 248q0 -121 -76 -191.5t-184 -70.5q-107 0 -183 70.5t-76 191.5t76 191.5t183 70.5q108 0 184 -70.5t76 -191.5zM298 59q76 0 127.5 53t51.5 136t-51.5 136t-127.5 53q-75 0 -126.5 -53t-51.5 -136t51.5 -136t126.5 -53z" />
    <glyph glyph-name="uni043F" unicode="&#x43f;" horiz-adv-x="549" 
d="M70 0v496h409v-496h-80v425h-248v-425h-81z" />
    <glyph glyph-name="uni0440" unicode="&#x440;" horiz-adv-x="603" 
d="M72 496h80v-90q25 45 73 74.5t107 29.5q100 0 166 -73.5t66 -188.5q0 -114 -66.5 -188t-169.5 -74q-57 0 -103.5 25t-72.5 69v-284h-80v700zM314 437q-74 0 -121 -53.5t-47 -135.5t47 -135.5t121 -53.5t121 53t47 136t-47 136t-121 53z" />
    <glyph glyph-name="uni0441" unicode="&#x441;" horiz-adv-x="542" 
d="M508 112q-71 -126 -215 -126q-110 0 -182 74t-72 188t74.5 188t179.5 74q154 0 215 -125l-65 -39q-51 90 -149 90q-74 0 -123.5 -51.5t-49.5 -136.5q0 -84 49 -136t124 -52q53 0 88.5 22.5t64.5 66.5z" />
    <glyph glyph-name="uni0442" unicode="&#x442;" horiz-adv-x="463" 
d="M191 0v425h-162v71h406v-71h-163v-425h-81z" />
    <glyph glyph-name="uni0443" unicode="&#x443;" horiz-adv-x="500" 
d="M115 -210q-46 0 -78 16v79q47 -21 77 -21q41 0 61 51l33 84l-203 497h91l155 -388l154 388h89l-248 -606q-21 -53 -52 -76.5t-79 -23.5z" />
    <glyph glyph-name="uni0444" unicode="&#x444;" horiz-adv-x="678" 
d="M639 248q0 -108 -72 -178.5t-188 -81.5v-192h-80v192q-116 11 -188 81.5t-72 178.5t72 178.5t188 81.5v192h80v-192q116 -11 188 -81.5t72 -178.5zM120 248q0 -79 47.5 -128t131.5 -59v374q-84 -10 -131.5 -59t-47.5 -128zM379 61q84 10 131.5 59t47.5 128t-47.5 128
t-131.5 59v-374z" />
    <glyph glyph-name="uni0445" unicode="&#x445;" horiz-adv-x="447" 
d="M224 328l107 168h91l-151 -228l175 -268h-90l-132 203l-131 -203h-94l181 264l-153 232h92z" />
    <glyph glyph-name="uni0446" unicode="&#x446;" horiz-adv-x="567" 
d="M477 -116v116h-407v496h81v-425h248v425h80v-425h72v-187h-74z" />
    <glyph glyph-name="uni0447" unicode="&#x447;" horiz-adv-x="533" 
d="M385 0v203q-79 -31 -143 -31q-81 0 -130 49.5t-49 147.5v127h78v-128q0 -126 115 -126q63 0 129 31v223h78v-496h-78z" />
    <glyph glyph-name="uni0448" unicode="&#x448;" horiz-adv-x="770" 
d="M70 0v496h81v-425h194v425h80v-425h194v425h81v-496h-630z" />
    <glyph glyph-name="uni0449" unicode="&#x449;" horiz-adv-x="788" 
d="M698 -116v116h-628v496h81v-425h194v425h80v-425h194v425h81v-425h71v-187h-73z" />
    <glyph glyph-name="uni044A" unicode="&#x44a;" horiz-adv-x="574" 
d="M150 0v431h-133v65h213v-178h128q84 0 131.5 -42t47.5 -116t-47.5 -117t-131.5 -43h-208zM230 65h131q45 0 71 25.5t26 69.5q0 43 -26 68.5t-71 25.5h-131v-189z" />
    <glyph glyph-name="uni044B" unicode="&#x44b;" horiz-adv-x="690" 
d="M70 0v496h81v-178h128q84 0 131.5 -42t47.5 -116t-47.5 -117t-131.5 -43h-209zM540 496h80v-496h-80v496zM151 65h130q45 0 71 25.5t26 69.5q0 43 -26 68.5t-71 25.5h-130v-189z" />
    <glyph glyph-name="uni044C" unicode="&#x44c;" horiz-adv-x="494" 
d="M70 0v496h81v-178h128q84 0 131.5 -42t47.5 -116t-47.5 -117t-131.5 -43h-209zM151 65h130q45 0 71 25.5t26 69.5q0 43 -26 68.5t-71 25.5h-130v-189z" />
    <glyph glyph-name="uni044D" unicode="&#x44d;" horiz-adv-x="534" 
d="M256 -14q-156 0 -224 133l62 40q56 -102 162 -102q67 0 107.5 41t49.5 117h-222v67h222q-10 74 -53 115.5t-109 41.5q-100 0 -147 -87l-62 37q62 121 210 121q109 0 176 -73t67 -189t-67 -189t-172 -73z" />
    <glyph glyph-name="uni044E" unicode="&#x44e;" horiz-adv-x="749" 
d="M468 -14q-94 0 -162.5 60.5t-79.5 166.5h-77v-213h-79v496h79v-213h77q11 106 79.5 166.5t162.5 60.5q102 0 172.5 -70t70.5 -192t-70.5 -192t-172.5 -70zM468 59q70 0 115.5 53t45.5 136t-45.5 136t-115.5 53t-116 -53t-46 -136t46 -136t116 -53z" />
    <glyph glyph-name="uni044F" unicode="&#x44f;" horiz-adv-x="496" 
d="M219 496h207v-496h-79v192h-96l-121 -192h-87l127 202q-54 12 -84.5 48t-30.5 94q0 68 44 110t120 42zM347 259v170h-129q-38 0 -62.5 -22t-24.5 -63t25 -63t66 -22h125z" />
    <glyph glyph-name="uni0450" unicode="&#x450;" horiz-adv-x="566" 
d="M266 558l-108 145h107l67 -145h-66zM118 235q4 -78 50.5 -129t119.5 -51q58 0 91.5 22.5t64.5 65.5l61 -34q-73 -123 -220 -123q-104 0 -175 74t-71 188t72 188t178 74q108 0 173 -69t65 -179v-27h-409zM288 445q-63 0 -110.5 -41t-59.5 -104h328q-4 68 -49 106.5
t-109 38.5z" />
    <glyph glyph-name="uni0451" unicode="&#x451;" horiz-adv-x="566" 
d="M161 588v92h93v-92h-93zM320 588v92h92v-92h-92zM118 235q4 -78 50.5 -129t119.5 -51q58 0 91.5 22.5t64.5 65.5l61 -34q-73 -123 -220 -123q-104 0 -175 74t-71 188t72 188t178 74q108 0 173 -69t65 -179v-27h-409zM288 445q-63 0 -110.5 -41t-59.5 -104h328
q-4 68 -49 106.5t-109 38.5z" />
    <glyph glyph-name="uni0452" unicode="&#x452;" horiz-adv-x="578" 
d="M380 -211q-35 0 -58 9v73q26 -9 47 -9q57 0 57 70v384q0 58 -32.5 89.5t-88.5 31.5q-60 0 -105.5 -48.5t-45.5 -121.5v-267h-81v571h-63v64h63v65h81v-65h162v-64h-162v-166q27 49 74 77t104 28q81 0 127.5 -46t46.5 -128v-400q0 -68 -30.5 -107.5t-95.5 -39.5z" />
    <glyph glyph-name="uni0453" unicode="&#x453;" horiz-adv-x="412" 
d="M185 558l67 145h107l-108 -145h-66zM70 0v496h306v-71h-225v-425h-81z" />
    <glyph glyph-name="uni0454" unicode="&#x454;" horiz-adv-x="530" 
d="M279 -14q-106 0 -173 73t-67 189t69.5 189t176.5 73q153 0 210 -120l-61 -39q-42 88 -149 88q-66 0 -110.5 -42t-53.5 -115h224v-67h-224q7 -74 50.5 -116t109.5 -42q57 0 92 23t61 69l61 -38q-67 -125 -216 -125z" />
    <glyph glyph-name="uni0455" unicode="&#x455;" horiz-adv-x="482" 
d="M146 377q0 -61 131 -86q81 -16 122.5 -51t41.5 -96q0 -65 -49.5 -111.5t-136.5 -46.5q-80 0 -132.5 33t-76.5 85l67 42q44 -91 143 -91q50 0 79 23t29 62q0 36 -30 57t-94 33q-167 30 -167 147q0 60 49 96.5t121 36.5q127 0 181 -95l-57 -40q-39 69 -123 69
q-42 0 -70 -18t-28 -49z" />
    <glyph glyph-name="uni0456" unicode="&#x456;" horiz-adv-x="223" 
d="M64 583v97h95v-97h-95zM71 496h81v-496h-81v496z" />
    <glyph glyph-name="uni0457" unicode="&#x457;" horiz-adv-x="223" 
d="M2 583v97h87v-97h-87zM133 583v97h88v-97h-88zM71 496h81v-496h-81v496z" />
    <glyph glyph-name="uni0458" unicode="&#x458;" horiz-adv-x="224" 
d="M65 680h95v-97h-95v97zM-25 -130q19 -8 40 -8q57 0 57 70v564h81v-560q0 -68 -31 -107.5t-95 -39.5q-34 0 -63 9z" />
    <glyph glyph-name="uni0459" unicode="&#x459;" horiz-adv-x="801" 
d="M57 -7q-21 0 -37 7v72q14 -7 34 -7q27 0 39 24t16 99l18 308h330v-178h128q84 0 131.5 -42t47.5 -116t-47.5 -117t-131.5 -43h-208v425h-180l-13 -242q-6 -106 -33.5 -148t-93.5 -42zM457 65h131q45 0 71 25.5t26 69.5q0 43 -26 68.5t-71 25.5h-131v-189z" />
    <glyph glyph-name="uni045A" unicode="&#x45a;" horiz-adv-x="800" 
d="M70 0v496h79v-192h238v192h78v-192h130q78 0 123 -41t45 -111t-45 -111t-123 -41h-208v234h-238v-234h-79zM465 65h129q42 0 66 23t24 63t-24 62.5t-66 22.5h-129v-171z" />
    <glyph glyph-name="uni045B" unicode="&#x45b;" horiz-adv-x="573" 
d="M329 510q81 0 127.5 -46t46.5 -128v-336h-80v316q0 58 -32.5 89.5t-88.5 31.5q-60 0 -105.5 -48.5t-45.5 -121.5v-267h-81v570h-62v64h62v66h81v-66h163v-64h-163v-165q27 49 74 77t104 28z" />
    <glyph glyph-name="uni045C" unicode="&#x45c;" horiz-adv-x="482" 
d="M372 703l-108 -145h-66l67 145h107zM462 0h-101l-210 231v-231h-81v496h81v-205l199 205h101l-228 -235z" />
    <glyph glyph-name="uni045D" unicode="&#x45d;" horiz-adv-x="565" 
d="M262 558l-108 145h107l67 -145h-66zM70 0v496h79v-390l257 390h89v-496h-79v390l-257 -390h-89z" />
    <glyph glyph-name="uni045E" unicode="&#x45e;" horiz-adv-x="500" 
d="M251 568q-46 0 -74.5 29t-28.5 75h63q0 -20 11 -32.5t29 -12.5t28.5 12.5t10.5 32.5h63q0 -46 -28 -75t-74 -29zM115 -210q-46 0 -78 16v79q47 -21 77 -21q41 0 61 51l33 84l-203 497h91l155 -388l154 388h89l-248 -606q-21 -53 -52 -76.5t-79 -23.5z" />
    <glyph glyph-name="uni045F" unicode="&#x45f;" horiz-adv-x="549" 
d="M238 -116v116h-168v496h81v-425h248v425h80v-496h-167v-116h-74z" />
    <glyph glyph-name="uni0462" unicode="&#x462;" horiz-adv-x="724" 
d="M429 416q112 0 178.5 -53.5t66.5 -154.5q0 -102 -66 -155t-179 -53h-273v530h-136v72h136v98h84v-98h232v-72h-232v-114h189zM418 74q172 0 172 134q0 135 -172 135h-178v-269h178z" />
    <glyph glyph-name="uni0463" unicode="&#x463;" horiz-adv-x="539" 
d="M323 315q84 0 131.5 -41.5t47.5 -115.5t-47.5 -116t-131.5 -42h-207v431h-97v65h97v204h79v-204h158v-65h-158v-116h128zM325 65q45 0 71.5 25.5t26.5 67.5q0 43 -26 68t-72 25h-130v-186h130z" />
    <glyph glyph-name="uni0472" unicode="&#x472;" horiz-adv-x="784" 
d="M392 714q145 0 242 -101.5t97 -262.5t-97 -262.5t-242 -101.5t-242 101.5t-97 262.5t97 262.5t242 101.5zM392 639q-101 0 -171 -67.5t-82 -179.5q55 31 119 31q51 0 98.5 -18.5t89.5 -36.5t80 -18q65 0 120 32q-10 117 -80 187t-174 70zM392 61q101 0 170.5 67t82.5 179
q-56 -30 -119 -30q-64 0 -144.5 36.5t-123.5 36.5q-65 0 -120 -32q10 -117 80 -187t174 -70z" />
    <glyph glyph-name="uni0473" unicode="&#x473;" horiz-adv-x="597" 
d="M298 510q108 0 184 -70.5t76 -191.5t-76 -191.5t-184 -70.5q-107 0 -183 70.5t-76 191.5t76 191.5t183 70.5zM298 437q-68 0 -117.5 -44.5t-58.5 -115.5q48 29 94 29q37 0 89 -24t79 -24q44 0 90 27q-11 69 -60 110.5t-116 41.5zM298 59q69 0 118.5 44.5t58.5 115.5
q-48 -29 -94 -29q-36 0 -88.5 24t-80.5 24q-43 0 -89 -27q11 -68 59.5 -110t115.5 -42z" />
    <glyph glyph-name="uni0474" unicode="&#x474;" horiz-adv-x="736" 
d="M262 0l-260 700h88l192 -530q15 -44 26 -81l26 81l164 453q34 91 118 91q73 0 103 -56l-54 -51q-18 30 -45 30q-30 0 -44 -39l-223 -598h-91z" />
    <glyph glyph-name="uni0475" unicode="&#x475;" horiz-adv-x="597" 
d="M207 0l-199 496h86l153 -400l127 333q32 81 114 81q68 0 98 -55l-51 -47q-17 33 -45 33q-26 0 -42 -39l-161 -402h-80z" />
    <glyph glyph-name="uni0490" unicode="&#x490;" horiz-adv-x="547" 
d="M450 826h79v-200h-364v-626h-84v700h369v126z" />
    <glyph glyph-name="uni0491" unicode="&#x491;" horiz-adv-x="412" 
d="M302 612h74v-187h-225v-425h-81v496h232v116z" />
    <glyph glyph-name="Wgrave" unicode="&#x1e80;" horiz-adv-x="895" 
d="M433 762l-108 145h107l67 -145h-66zM203 0l-198 700h85l140 -521q14 -52 19 -77l17 78l136 520h91l136 -520q13 -53 18 -78l18 77l140 521h85l-197 -700h-90l-155 593l-155 -593h-90z" />
    <glyph glyph-name="wgrave" unicode="&#x1e81;" horiz-adv-x="689" 
d="M324 558l-108 145h107l67 -145h-66zM496 95l107 401h79l-142 -496h-85l-111 404l-110 -404h-85l-142 496h79l107 -401l109 401h84z" />
    <glyph glyph-name="Wacute" unicode="&#x1e82;" horiz-adv-x="895" 
d="M396 762l67 145h107l-108 -145h-66zM203 0l-198 700h85l140 -521q14 -52 19 -77l17 78l136 520h91l136 -520q13 -53 18 -78l18 77l140 521h85l-197 -700h-90l-155 593l-155 -593h-90z" />
    <glyph glyph-name="wacute" unicode="&#x1e83;" horiz-adv-x="689" 
d="M293 558l67 145h107l-108 -145h-66zM496 95l107 401h79l-142 -496h-85l-111 404l-110 -404h-85l-142 496h79l107 -401l109 401h84z" />
    <glyph glyph-name="Wdieresis" unicode="&#x1e84;" horiz-adv-x="895" 
d="M322 792v92h93v-92h-93zM481 792v92h92v-92h-92zM203 0l-198 700h85l140 -521q14 -52 19 -77l17 78l136 520h91l136 -520q13 -53 18 -78l18 77l140 521h85l-197 -700h-90l-155 593l-155 -593h-90z" />
    <glyph glyph-name="wdieresis" unicode="&#x1e85;" horiz-adv-x="689" 
d="M219 588v92h93v-92h-93zM378 588v92h92v-92h-92zM496 95l107 401h79l-142 -496h-85l-111 404l-110 -404h-85l-142 496h79l107 -401l109 401h84z" />
    <glyph glyph-name="uni1E9E" unicode="&#x1e9e;" horiz-adv-x="656" 
d="M392 -14q-121 0 -179 98l60 55q45 -78 120 -78q58 0 92.5 39t34.5 105q0 82 -58.5 123.5t-160.5 41.5v67l138 189h-143q-131 0 -131 -137v-489h-84v489q0 102 55 156.5t160 54.5h229v-74l-139 -190q96 -12 156.5 -70.5t60.5 -160.5q0 -96 -59.5 -157.5t-151.5 -61.5z" />
    <glyph glyph-name="Ygrave" unicode="&#x1ef2;" horiz-adv-x="551" 
d="M261 762l-108 145h107l67 -145h-66zM234 0v286l-230 414h91l159 -295q13 -24 22 -48l22 48l158 295h91l-229 -414v-286h-84z" />
    <glyph glyph-name="ygrave" unicode="&#x1ef3;" horiz-adv-x="500" 
d="M230 558l-108 145h107l67 -145h-66zM75 -126q20 -10 39 -10q41 0 61 51l33 84l-203 497h91l155 -388l154 388h89l-248 -606q-21 -52 -52 -76t-78 -24q-31 0 -55 9z" />
    <glyph glyph-name="endash" unicode="&#x2013;" horiz-adv-x="527" 
d="M45 279v64h437v-64h-437z" />
    <glyph glyph-name="emdash" unicode="&#x2014;" horiz-adv-x="796" 
d="M45 279v64h706v-64h-706z" />
    <glyph glyph-name="quoteleft" unicode="&#x2018;" horiz-adv-x="193" 
d="M42 480v99l99 128l20 -15l-60 -113h39v-99h-98z" />
    <glyph glyph-name="quoteright" unicode="&#x2019;" horiz-adv-x="193" 
d="M52 473l-20 14l61 114h-40v99h98v-99z" />
    <glyph glyph-name="quotesinglbase" unicode="&#x201a;" horiz-adv-x="193" 
d="M52 -128l-20 15l61 113h-40v99h98v-99z" />
    <glyph glyph-name="quotedblleft" unicode="&#x201c;" horiz-adv-x="325" 
d="M42 480v99l99 128l20 -15l-60 -113h39v-99h-98zM174 480v99l99 128l20 -15l-60 -113h39v-99h-98z" />
    <glyph glyph-name="quotedblright" unicode="&#x201d;" horiz-adv-x="325" 
d="M52 473l-20 14l61 114h-40v99h98v-99zM184 473l-20 14l61 114h-40v99h98v-99z" />
    <glyph glyph-name="quotedblbase" unicode="&#x201e;" horiz-adv-x="325" 
d="M52 -128l-20 15l61 113h-40v99h98v-99zM184 -128l-20 15l61 113h-40v99h98v-99z" />
    <glyph glyph-name="dagger" unicode="&#x2020;" horiz-adv-x="451" 
d="M185 -110v537h-140v69h140v244h80v-244h140v-69h-140v-537h-80z" />
    <glyph glyph-name="daggerdbl" unicode="&#x2021;" horiz-adv-x="451" 
d="M185 -110v244h-140v69h140v224h-140v69h140v244h80v-244h140v-69h-140v-224h140v-69h-140v-244h-80z" />
    <glyph glyph-name="bullet" unicode="&#x2022;" horiz-adv-x="283" 
d="M142 182q-38 0 -65.5 27.5t-27.5 65.5t27.5 65.5t65.5 27.5t65 -27.5t27 -65.5t-27 -65.5t-65 -27.5z" />
    <glyph glyph-name="ellipsis" unicode="&#x2026;" horiz-adv-x="565" 
d="M45 0v99h98v-99h-98zM233 0v99h98v-99h-98zM421 0v99h98v-99h-98z" />
    <glyph glyph-name="perthousand" unicode="&#x2030;" horiz-adv-x="1155" 
d="M220 364q-75 0 -123 50.5t-48 124.5t48 124.5t123 50.5q74 0 122 -50.5t48 -124.5t-48 -124.5t-122 -50.5zM249 0l-52 35l435 665l51 -35zM220 426q46 0 75 31.5t29 81.5t-29 81.5t-75 31.5t-75 -31.5t-29 -81.5t29 -81.5t75 -31.5zM661 -14q-75 0 -123 50.5t-48 124.5
t48 124.5t123 50.5q88 0 137 -69q49 69 137 69q75 0 123 -50.5t48 -124.5t-48 -124.5t-123 -50.5q-88 0 -137 69q-49 -69 -137 -69zM661 48q46 0 75 31.5t29 81.5t-29 81.5t-75 31.5t-75 -31.5t-29 -81.5t29 -81.5t75 -31.5zM935 48q46 0 75 31.5t29 81.5t-29 81.5t-75 31.5
t-75 -31.5t-29 -81.5t29 -81.5t75 -31.5z" />
    <glyph glyph-name="guilsinglleft" unicode="&#x2039;" horiz-adv-x="330" 
d="M202 75l-157 200l157 201h94l-156 -201l156 -200h-94z" />
    <glyph glyph-name="guilsinglright" unicode="&#x203a;" horiz-adv-x="330" 
d="M34 75l156 200l-156 201h94l157 -201l-157 -200h-94z" />
    <glyph glyph-name="fraction" unicode="&#x2044;" horiz-adv-x="524" 
d="M70 0l-51 35l434 665l52 -35z" />
    <glyph glyph-name="uni2070" unicode="&#x2070;" horiz-adv-x="383" 
d="M191 343q-67 0 -110 50.5t-43 131.5t43 131.5t110 50.5t110.5 -50.5t43.5 -131.5t-43.5 -131.5t-110.5 -50.5zM191 399q41 0 67 34t26 92t-26 92t-67 34t-66.5 -34t-25.5 -92t25.5 -92t66.5 -34z" />
    <glyph glyph-name="uni2074" unicode="&#x2074;" horiz-adv-x="372" 
d="M221 350v66h-167v51l167 233h61v-233h39v-51h-39v-66h-61zM113 467h108v147z" />
    <glyph glyph-name="uni2075" unicode="&#x2075;" horiz-adv-x="350" 
d="M180 343q-56 0 -90.5 29t-34.5 69q0 16 4 27l56 -10q-2 -6 -2 -15q0 -23 18.5 -36.5t51.5 -13.5q32 0 51 19.5t19 54.5q0 34 -18.5 54t-52.5 20q-50 0 -75 -45l-47 15l18 189h215v-50h-170l-12 -101q29 40 83 40t86 -34t32 -87q0 -55 -36.5 -90t-95.5 -35z" />
    <glyph glyph-name="uni2076" unicode="&#x2076;" horiz-adv-x="352" 
d="M185 343q-59 0 -95.5 43.5t-36.5 118.5q0 79 28 127q36 75 114 75q47 0 77 -23t30 -60q0 -15 -5 -30l-53 10q4 10 4 18q0 17 -15 27t-38 10q-39 0 -61 -35.5t-24 -90.5q29 45 87 45q50 0 82.5 -32t32.5 -84t-36 -85.5t-91 -33.5zM185 392q30 0 50 19t20 50t-20 49.5
t-50 18.5t-49.5 -18.5t-19.5 -49.5t20 -50t49 -19z" />
    <glyph glyph-name="uni2077" unicode="&#x2077;" horiz-adv-x="307" 
d="M74 350l141 300h-166v50h227v-47l-142 -303h-60z" />
    <glyph glyph-name="uni2078" unicode="&#x2078;" horiz-adv-x="334" 
d="M167 343q-54 0 -89.5 30t-35.5 77q0 60 58 88q-46 28 -46 76q0 40 31.5 66.5t81.5 26.5t81.5 -26.5t31.5 -66.5q0 -48 -46 -76q58 -28 58 -88q0 -47 -35.5 -77t-89.5 -30zM167 558q25 0 40 14.5t15 37.5t-15.5 37t-39.5 14t-39.5 -14t-15.5 -37t15 -37.5t40 -14.5z
M167 391q27 0 45 16.5t18 44.5q0 29 -18 45t-45 16t-45 -16t-18 -45q0 -28 18 -44.5t45 -16.5z" />
    <glyph glyph-name="uni2079" unicode="&#x2079;" horiz-adv-x="336" 
d="M164 343q-46 0 -76.5 23t-30.5 60q0 18 6 30l52 -10q-4 -10 -4 -18q0 -17 15 -27t39 -10q39 0 60.5 34.5t24.5 91.5q-27 -45 -86 -45q-50 0 -83.5 32t-33.5 84t36 85.5t91 33.5q61 0 97 -42t36 -120q0 -77 -28 -127q-37 -75 -115 -75zM174 519q30 0 49.5 19t19.5 51
t-19.5 50.5t-49.5 18.5t-50 -19t-20 -50q0 -32 20 -51t50 -19z" />
    <glyph glyph-name="uni2080" unicode="&#x2080;" horiz-adv-x="383" 
d="M191 -211q-67 0 -110 50.5t-43 131.5t43 131.5t110 50.5t110.5 -50.5t43.5 -131.5t-43.5 -131.5t-110.5 -50.5zM191 -155q41 0 67 34t26 92t-26 92t-67 34t-66.5 -34t-25.5 -92t25.5 -92t66.5 -34z" />
    <glyph glyph-name="uni2081" unicode="&#x2081;" horiz-adv-x="244" 
d="M118 -204v273q-21 -24 -75 -24v58q59 0 79 43h56v-350h-60z" />
    <glyph glyph-name="uni2082" unicode="&#x2082;" horiz-adv-x="336" 
d="M59 -204v42l131 126q44 44 44 86q0 22 -15.5 36.5t-42.5 14.5t-43.5 -15.5t-16.5 -40.5q0 -14 4 -23l-54 -8q-6 15 -6 36q0 41 32 72t84 31q54 0 85.5 -28t31.5 -72q0 -35 -14.5 -61.5t-49.5 -61.5l-82 -80h150v-54h-238z" />
    <glyph glyph-name="uni2083" unicode="&#x2083;" horiz-adv-x="339" 
d="M173 -211q-56 0 -90 30.5t-34 71.5q0 16 6 32l55 -12q-3 -7 -3 -18q0 -24 19 -38t48 -14q30 0 47.5 15.5t17.5 44.5t-25.5 44t-67.5 15v46q76 0 76 55q0 19 -14.5 30.5t-38.5 11.5t-40 -12.5t-16 -33.5q0 -7 2 -17l-52 -6q-5 13 -5 27q0 38 31 65t80 27q52 0 82 -24.5
t30 -61.5q0 -52 -52 -78q29 -10 48.5 -33t19.5 -56q0 -51 -34.5 -81t-89.5 -30z" />
    <glyph glyph-name="uni2084" unicode="&#x2084;" horiz-adv-x="372" 
d="M221 -204v66h-167v51l167 233h61v-233h39v-51h-39v-66h-61zM113 -87h108v147z" />
    <glyph glyph-name="uni2085" unicode="&#x2085;" horiz-adv-x="350" 
d="M180 -211q-56 0 -90.5 29t-34.5 69q0 16 4 27l56 -10q-2 -6 -2 -15q0 -23 18.5 -36.5t51.5 -13.5q32 0 51 19.5t19 54.5q0 34 -18.5 54t-52.5 20q-50 0 -75 -45l-47 15l18 189h215v-50h-170l-12 -101q29 40 83 40t86 -34t32 -87q0 -55 -36.5 -90t-95.5 -35z" />
    <glyph glyph-name="uni2086" unicode="&#x2086;" horiz-adv-x="352" 
d="M185 -211q-59 0 -95.5 43.5t-36.5 118.5q0 79 28 127q36 75 114 75q47 0 77 -23t30 -60q0 -15 -5 -30l-53 10q4 10 4 18q0 17 -15 27t-38 10q-39 0 -61 -35.5t-24 -90.5q29 45 87 45q50 0 82.5 -32t32.5 -84t-36 -85.5t-91 -33.5zM185 -162q30 0 50 19t20 50t-20 49.5
t-50 18.5t-49.5 -18.5t-19.5 -49.5t20 -50t49 -19z" />
    <glyph glyph-name="uni2087" unicode="&#x2087;" horiz-adv-x="307" 
d="M74 -204l141 300h-166v50h227v-47l-142 -303h-60z" />
    <glyph glyph-name="uni2088" unicode="&#x2088;" horiz-adv-x="334" 
d="M167 -211q-54 0 -89.5 30t-35.5 77q0 60 58 88q-46 28 -46 76q0 40 31.5 66.5t81.5 26.5t81.5 -26.5t31.5 -66.5q0 -48 -46 -76q58 -28 58 -88q0 -47 -35.5 -77t-89.5 -30zM167 4q25 0 40 14.5t15 37.5t-15.5 37t-39.5 14t-39.5 -14t-15.5 -37t15 -37.5t40 -14.5z
M167 -163q27 0 45 16.5t18 44.5q0 29 -18 45t-45 16t-45 -16t-18 -45q0 -28 18 -44.5t45 -16.5z" />
    <glyph glyph-name="uni2089" unicode="&#x2089;" horiz-adv-x="336" 
d="M164 -211q-46 0 -76.5 23t-30.5 60q0 18 6 30l52 -10q-4 -10 -4 -18q0 -17 15 -27t39 -10q39 0 60.5 34.5t24.5 91.5q-27 -45 -86 -45q-50 0 -83.5 32t-33.5 84t36 85.5t91 33.5q61 0 97 -42t36 -120q0 -77 -28 -127q-37 -75 -115 -75zM174 -35q30 0 49.5 19t19.5 51
t-19.5 50.5t-49.5 18.5t-50 -19t-20 -50q0 -32 20 -51t50 -19z" />
    <glyph glyph-name="Euro" unicode="&#x20ac;" horiz-adv-x="753" 
d="M423 -14q-115 0 -195 70.5t-106 187.5h-82l28 62h43q-2 28 -2 44q0 22 3 44h-72l28 62h54q29 116 112 187t194 71q107 0 176 -51t96 -140l-73 -31q-46 147 -201 147q-80 0 -137.5 -49.5t-82.5 -133.5h292l-28 -62h-275q-2 -15 -2 -44q0 -30 1 -44h304l-28 -62h-264
q23 -84 80 -133.5t138 -49.5q149 0 203 162l71 -26q-32 -101 -101 -156t-174 -55z" />
    <glyph glyph-name="uni20B4" unicode="&#x20b4;" horiz-adv-x="600" 
d="M23 381v63h377q47 36 47 88q0 51 -38 80t-97 29q-124 0 -171 -129l-67 39q26 78 88 120.5t150 42.5q94 0 155 -49t61 -125q0 -63 -42 -96h92v-63h-555zM299 -14q-107 0 -173 54t-66 139q0 41 16 70h-53v63h555v-63h-419q-15 -25 -15 -59q0 -54 42.5 -92.5t112.5 -38.5
q75 0 115 34t55 96l81 -19q-21 -84 -83 -134t-168 -50z" />
    <glyph glyph-name="uni20BA" unicode="&#x20ba;" horiz-adv-x="531" 
d="M406 293h78v-19q0 -124 -83 -199t-221 -75h-84v217l-76 -36v78l76 36v92l-76 -36v79l76 36v234h84v-194l125 60v-79l-125 -60v-92l125 60v-78l-125 -60v-182q107 0 166.5 54.5t59.5 144.5v19z" />
    <glyph glyph-name="uni20BD" unicode="&#x20bd;" horiz-adv-x="610" 
d="M175 261v-91h274v-70h-274v-100h-84v100h-79v70h79v91h-79v74h79v365h223q113 0 179.5 -58.5t66.5 -160.5t-66.5 -161t-179.5 -59h-139zM175 626v-291h137q81 0 122.5 38t41.5 108q0 69 -41.5 107t-122.5 38h-137z" />
    <glyph glyph-name="uni2113" unicode="&#x2113;" horiz-adv-x="550" 
d="M243 55q72 0 140 129l55 -36q-81 -162 -208 -162q-61 0 -97.5 42.5t-41.5 129.5q-24 -7 -66 -16v77q35 6 66 15q9 222 97.5 351t200.5 129q67 0 99 -40t32 -111q0 -124 -94 -223.5t-262 -158.5q4 -126 79 -126zM378 646q-72 0 -136 -113.5t-76 -275.5q134 48 206 126
t72 174q0 89 -66 89z" />
    <glyph glyph-name="uni2116" unicode="&#x2116;" horiz-adv-x="1111" 
d="M890 337q-75 0 -129 50.5t-54 137.5t53.5 138t129.5 51t129.5 -51t53.5 -138t-54 -137.5t-129 -50.5zM81 700h87l335 -523q24 -40 30 -55v578h81v-700h-87l-335 524q-24 40 -30 55v-579h-81v700zM890 409q43 0 72 32.5t29 83.5t-29 83.5t-72 32.5q-44 0 -73 -32.5
t-29 -83.5t29 -83.5t73 -32.5zM735 209v64h309v-64h-309z" />
    <glyph glyph-name="uni2117" unicode="&#x2117;" horiz-adv-x="841" 
d="M421 -14q-150 0 -257 106.5t-107 257.5t107 257.5t257 106.5t257 -106.5t107 -257.5t-107 -257.5t-257 -106.5zM421 45q126 0 214 89t88 216t-88 216t-214 89q-127 0 -215 -89t-88 -216t88 -216t215 -89zM282 151v398h176q62 0 96.5 -32.5t34.5 -85.5q0 -52 -34.5 -84
t-96.5 -32h-116v-164h-60zM342 365h114q36 0 55 17.5t19 48.5q0 66 -74 66h-114v-132z" />
    <glyph glyph-name="uni2120" unicode="&#x2120;" horiz-adv-x="869" 
d="M202 293q-130 0 -162 123l49 23q25 -95 112 -95q41 0 66.5 19.5t25.5 48.5q0 30 -25 47t-77 26q-131 24 -131 115q0 48 36 78t96 30q116 0 150 -99l-44 -26q-28 76 -105 76q-36 0 -59 -16t-23 -41q0 -30 26.5 -46t83.5 -27q128 -26 128 -113q0 -53 -40.5 -88t-106.5 -35z
M414 300v400h61l141 -339l142 339h60v-400h-55v284l-118 -284h-57l-118 284v-284h-56z" />
    <glyph glyph-name="trademark" unicode="&#x2122;" horiz-adv-x="847" 
d="M158 300v349h-122v51h303v-51h-122v-349h-59zM392 300v400h61l141 -339l142 339h60v-400h-55v284l-118 -284h-57l-118 284v-284h-56z" />
    <glyph glyph-name="uni2126" unicode="&#x2126;" horiz-adv-x="781" 
d="M74 0v71h159q-76 49 -128 130t-52 182q0 144 96.5 237.5t241.5 93.5t241.5 -93.5t96.5 -237.5q0 -100 -52 -181.5t-128 -130.5h158v-71h-256v82q77 41 135.5 117.5t58.5 179.5q0 113 -70.5 186.5t-183.5 73.5t-183.5 -73.5t-70.5 -186.5q0 -103 58.5 -179.5t135.5 -117.5
v-82h-257z" />
    <glyph glyph-name="estimated" unicode="&#x212e;" horiz-adv-x="848" 
d="M424 32q95 0 172.5 51t115.5 135h51q-40 -103 -132.5 -167.5t-206.5 -64.5q-150 0 -257 106.5t-107 257.5t107 257.5t257 106.5t257 -106.5t107 -257.5h-596v-217q93 -101 232 -101zM424 668q-139 0 -232 -101v-171h464v171q-93 101 -232 101z" />
    <glyph glyph-name="uni2153" unicode="&#x2153;" horiz-adv-x="759" 
d="M118 350v273q-21 -24 -75 -24v58q59 0 79 43h56v-350h-60zM174 0l-52 35l435 665l51 -35zM593 -7q-56 0 -90 30.5t-34 71.5q0 16 6 32l55 -12q-3 -7 -3 -18q0 -24 19 -38t48 -14q30 0 47.5 15.5t17.5 44.5t-25.5 44t-67.5 15v46q76 0 76 55q0 19 -14.5 30.5t-38.5 11.5
t-40 -12.5t-16 -33.5q0 -7 2 -17l-52 -6q-5 13 -5 27q0 38 31 65t80 27q52 0 82 -24.5t30 -61.5q0 -52 -52 -78q29 -10 48.5 -33t19.5 -56q0 -51 -34.5 -81t-89.5 -30z" />
    <glyph glyph-name="uni2154" unicode="&#x2154;" horiz-adv-x="833" 
d="M59 350v42l131 126q44 44 44 86q0 22 -15.5 36.5t-42.5 14.5t-43.5 -15.5t-16.5 -40.5q0 -14 4 -23l-54 -8q-6 15 -6 36q0 41 32 72t84 31q54 0 85.5 -28t31.5 -72q0 -35 -14.5 -61.5t-49.5 -61.5l-82 -80h150v-54h-238zM249 0l-51 35l434 665l52 -35zM667 -7
q-56 0 -90 30.5t-34 71.5q0 16 6 32l55 -12q-3 -7 -3 -18q0 -24 19 -38t48 -14q30 0 47.5 15.5t17.5 44.5t-25.5 44t-67.5 15v46q76 0 76 55q0 19 -14.5 30.5t-38.5 11.5t-40 -12.5t-16 -33.5q0 -7 2 -17l-52 -6q-5 13 -5 27q0 38 31 65t80 27q52 0 82 -24.5t30 -61.5
q0 -52 -52 -78q29 -10 48.5 -33t19.5 -56q0 -51 -34.5 -81t-89.5 -30z" />
    <glyph glyph-name="oneeighth" unicode="&#x215b;" horiz-adv-x="760" 
d="M118 350v273q-21 -24 -75 -24v58q59 0 79 43h56v-350h-60zM174 0l-51 35l434 665l51 -35zM593 -7q-54 0 -89.5 30t-35.5 77q0 60 58 88q-46 28 -46 76q0 40 31.5 66.5t81.5 26.5t81.5 -26.5t31.5 -66.5q0 -48 -46 -76q57 -28 57 -88q0 -47 -35 -77t-89 -30zM593 208
q24 0 39.5 14.5t15.5 37.5t-15.5 37t-39.5 14t-39.5 -13.5t-15.5 -37.5q0 -23 15 -37.5t40 -14.5zM593 41q27 0 44.5 16.5t17.5 44.5q0 29 -17.5 45t-44.5 16t-45 -16t-18 -45q0 -28 17.5 -44.5t45.5 -16.5z" />
    <glyph glyph-name="threeeighths" unicode="&#x215c;" horiz-adv-x="813" 
d="M173 343q-56 0 -90 30.5t-34 71.5q0 16 6 32l55 -12q-3 -7 -3 -18q0 -24 19 -38t48 -14q30 0 47.5 15.5t17.5 44.5t-25.5 44t-67.5 15v46q76 0 76 55q0 19 -14.5 30.5t-38.5 11.5t-40 -12.5t-16 -33.5q0 -7 2 -17l-52 -6q-5 13 -5 27q0 38 31 65t80 27q52 0 82 -24.5
t30 -61.5q0 -52 -52 -78q29 -10 48.5 -33t19.5 -56q0 -51 -34.5 -81t-89.5 -30zM228 0l-52 35l435 665l51 -35zM646 -7q-54 0 -89 30t-35 77q0 60 57 88q-46 28 -46 76q0 40 31.5 66.5t81.5 26.5t81.5 -26.5t31.5 -66.5q0 -48 -46 -76q58 -28 58 -88q0 -47 -35.5 -77
t-89.5 -30zM646 208q25 0 40 14.5t15 37.5q0 24 -15.5 37.5t-39.5 13.5t-39.5 -14t-15.5 -37t15.5 -37.5t39.5 -14.5zM646 41q28 0 45.5 16.5t17.5 44.5q0 29 -18 45t-45 16t-44.5 -16t-17.5 -45q0 -28 17.5 -44.5t44.5 -16.5z" />
    <glyph glyph-name="fiveeighths" unicode="&#x215d;" horiz-adv-x="813" 
d="M180 343q-56 0 -90.5 29t-34.5 69q0 16 4 27l56 -10q-2 -6 -2 -15q0 -23 18.5 -36.5t51.5 -13.5q32 0 51 19.5t19 54.5q0 34 -18.5 54t-52.5 20q-50 0 -75 -45l-47 15l18 189h215v-50h-170l-12 -101q29 40 83 40t86 -34t32 -87q0 -55 -36.5 -90t-95.5 -35zM228 0l-52 35
l435 665l51 -35zM646 -7q-54 0 -89 30t-35 77q0 60 57 88q-46 28 -46 76q0 40 31.5 66.5t81.5 26.5t81.5 -26.5t31.5 -66.5q0 -48 -46 -76q58 -28 58 -88q0 -47 -35.5 -77t-89.5 -30zM646 208q25 0 40 14.5t15 37.5q0 24 -15.5 37.5t-39.5 13.5t-39.5 -14t-15.5 -37
t15.5 -37.5t39.5 -14.5zM646 41q28 0 45.5 16.5t17.5 44.5q0 29 -18 45t-45 16t-44.5 -16t-17.5 -45q0 -28 17.5 -44.5t44.5 -16.5z" />
    <glyph glyph-name="seveneighths" unicode="&#x215e;" horiz-adv-x="725" 
d="M74 350l141 300h-166v50h227v-47l-142 -303h-60zM139 0l-51 35l434 665l51 -35zM558 -7q-54 0 -89.5 30t-35.5 77q0 60 58 88q-46 28 -46 76q0 40 31.5 66.5t81.5 26.5t81.5 -26.5t31.5 -66.5q0 -48 -46 -76q57 -28 57 -88q0 -47 -35 -77t-89 -30zM558 208
q24 0 39.5 14.5t15.5 37.5t-15.5 37t-39.5 14t-39.5 -13.5t-15.5 -37.5q0 -23 15 -37.5t40 -14.5zM558 41q27 0 44.5 16.5t17.5 44.5q0 29 -17.5 45t-44.5 16t-45 -16t-18 -45q0 -28 17.5 -44.5t45.5 -16.5z" />
    <glyph glyph-name="arrowleft" unicode="&#x2190;" horiz-adv-x="560" 
d="M258 107l-205 204l205 204l48 -47l-124 -125h331v-64h-331l124 -125z" />
    <glyph glyph-name="arrowup" unicode="&#x2191;" horiz-adv-x="495" 
d="M215 142v331l-124 -124l-48 48l205 205l204 -205l-48 -48l-124 124v-331h-65z" />
    <glyph glyph-name="arrowright" unicode="&#x2192;" horiz-adv-x="560" 
d="M302 107l-48 47l124 125h-331v64h331l-124 125l48 47l205 -204z" />
    <glyph glyph-name="arrowdown" unicode="&#x2193;" horiz-adv-x="495" 
d="M248 142l-205 205l48 48l124 -124v331h65v-331l124 124l48 -48z" />
    <glyph glyph-name="arrowboth" unicode="&#x2194;" horiz-adv-x="763" 
d="M258 107l-205 204l205 204l48 -47l-124 -125h400l-125 125l49 47l205 -204l-205 -204l-49 47l125 125h-400l124 -125z" />
    <glyph glyph-name="arrowupdn" unicode="&#x2195;" horiz-adv-x="495" 
d="M248 22l-205 205l48 48l124 -124v400l-124 -124l-48 48l205 205l204 -205l-48 -48l-124 124v-400l124 124l48 -48z" />
    <glyph glyph-name="uni2196" unicode="&#x2196;" horiz-adv-x="513" 
d="M390 125l-235 234v-176h-67v290h289v-67h-175l234 -236z" />
    <glyph glyph-name="uni2197" unicode="&#x2197;" horiz-adv-x="513" 
d="M123 125l-46 45l234 236h-175v67h289v-290h-67v176z" />
    <glyph glyph-name="uni2198" unicode="&#x2198;" horiz-adv-x="513" 
d="M136 130v67h175l-234 236l46 45l235 -234v176h67v-290h-289z" />
    <glyph glyph-name="uni2199" unicode="&#x2199;" horiz-adv-x="513" 
d="M88 130v290h67v-176l235 234l46 -45l-234 -236h175v-67h-289z" />
    <glyph glyph-name="partialdiff" unicode="&#x2202;" horiz-adv-x="580" 
d="M276 -14q-95 0 -162.5 61t-67.5 169q0 105 67.5 175.5t176.5 70.5q53 0 97 -22.5t66 -59.5q-4 68 -26.5 126.5t-67 98.5t-103.5 40q-47 0 -73.5 -21.5t-26.5 -50.5q0 -13 5 -25l-71 -30q-12 21 -12 52q0 58 49.5 101t131.5 43q92 0 155 -57t91 -150t28 -216
q0 -132 -68 -218.5t-189 -86.5zM282 56q71 0 119.5 49t48.5 128q0 75 -44.5 117t-110.5 42q-75 0 -122 -52t-47 -126t46.5 -116t109.5 -42z" />
    <glyph glyph-name="uni2206" unicode="&#x2206;" horiz-adv-x="658" 
d="M6 0l280 700h86l280 -700h-646zM120 73h418l-200 510q-5 11 -9 25l-9 -25z" />
    <glyph glyph-name="product" unicode="&#x220f;" horiz-adv-x="670" 
d="M83 -204v904h504v-904h-84v829h-336v-829h-84z" />
    <glyph glyph-name="summation" unicode="&#x2211;" horiz-adv-x="565" 
d="M34 -120v75l221 335l-212 332v78h476v-78h-380l209 -332l-220 -335h401v-75h-495z" />
    <glyph glyph-name="minus" unicode="&#x2212;" horiz-adv-x="513" 
d="M45 333v64h422v-64h-422z" />
    <glyph glyph-name="uni2215" unicode="&#x2215;" horiz-adv-x="495" 
d="M6 -30l400 760h84l-400 -760h-84z" />
    <glyph glyph-name="uni2219" unicode="&#x2219;" horiz-adv-x="283" 
d="M142 182q-38 0 -65.5 27.5t-27.5 65.5t27.5 65.5t65.5 27.5t65 -27.5t27 -65.5t-27 -65.5t-65 -27.5z" />
    <glyph glyph-name="radical" unicode="&#x221a;" horiz-adv-x="595" 
d="M236 0l-103 288h-103v68h164l83 -245l219 589h78l-260 -700h-78z" />
    <glyph glyph-name="infinity" unicode="&#x221e;" horiz-adv-x="774" 
d="M211 145q-69 0 -112 44t-43 111t43 111t112 44q56 0 96.5 -28.5t79.5 -78.5q39 50 79.5 78.5t96.5 28.5q69 0 112 -44t43 -111t-43 -111t-112 -44q-56 0 -97 28t-79 78q-38 -50 -79 -78t-97 -28zM220 205q38 0 67 24t64 71q-35 47 -64 71t-67 24q-43 0 -69.5 -27.5
t-26.5 -67.5t26.5 -67.5t69.5 -27.5zM554 205q43 0 69.5 27.5t26.5 67.5t-26.5 67.5t-69.5 27.5q-39 0 -67.5 -24t-63.5 -71q35 -47 63.5 -71t67.5 -24z" />
    <glyph glyph-name="integral" unicode="&#x222b;" horiz-adv-x="312" 
d="M47 -218q-31 0 -53 8l15 72q18 -8 34 -8q58 0 58 71v663q0 76 40 119t114 43q27 0 52 -10l-13 -69q-18 7 -39 7q-32 0 -52.5 -21.5t-20.5 -64.5v-661q0 -149 -135 -149z" />
    <glyph glyph-name="approxequal" unicode="&#x2248;" horiz-adv-x="438" 
d="M57 370q-12 18 -12 45q0 40 27 62.5t67 22.5q29 0 53 -10t37.5 -22.5t30 -22.5t32.5 -10q14 0 22.5 8.5t8.5 21.5q0 11 -6 22l64 13q12 -18 12 -45q0 -40 -27 -62.5t-66 -22.5q-29 0 -53.5 10t-38 22.5t-30 22.5t-32.5 10q-14 0 -22.5 -8.5t-8.5 -21.5q0 -10 7 -22z
M57 200q-12 18 -12 45q0 40 27 62.5t67 22.5q29 0 53 -10t37.5 -22.5t30 -22.5t32.5 -10q14 0 22.5 8.5t8.5 21.5q0 11 -6 22l64 13q12 -18 12 -45q0 -40 -27 -62.5t-66 -22.5q-29 0 -53.5 10t-38 22.5t-30 22.5t-32.5 10q-14 0 -22.5 -8.5t-8.5 -21.5q0 -10 7 -22z" />
    <glyph glyph-name="notequal" unicode="&#x2260;" horiz-adv-x="513" 
d="M141 85l-56 33l59 101h-99v65h136l75 129h-211v64h248l79 135l56 -34l-59 -101h98v-64h-136l-74 -129h210v-65h-248z" />
    <glyph glyph-name="lessequal" unicode="&#x2264;" horiz-adv-x="517" 
d="M462 158l-407 201v75l407 201v-80l-329 -158l329 -159v-80zM47 0v65h422v-65h-422z" />
    <glyph glyph-name="greaterequal" unicode="&#x2265;" horiz-adv-x="517" 
d="M55 158v80l329 159l-329 158v80l407 -201v-75zM47 0v65h422v-65h-422z" />
    <glyph glyph-name="lozenge" unicode="&#x25ca;" horiz-adv-x="575" 
d="M244 0l-218 350l218 350h88l217 -350l-217 -350h-88zM288 69l173 281l-173 281l-174 -281z" />
    <glyph glyph-name="uniF8FF" unicode="&#xf8ff;" horiz-adv-x="769" 
d="M111 0q-9 0 -15.5 6.5t-6.5 15.5v595q0 17 16 22l270 78q6 2 10 2t10 -2l270 -78q16 -5 16 -22v-595q0 -9 -6.5 -15.5t-15.5 -6.5q-3 0 -7 1l-267 77l-267 -77q-4 -1 -7 -1zM363 366v303l-230 -67q6 -94 71.5 -161t158.5 -75zM407 366q93 8 158.5 75t71.5 161l-230 67
v-303zM132 51l231 67v204q-73 6 -134 43.5t-97 97.5v-412zM638 51v412q-37 -60 -97.5 -97.5t-133.5 -43.5v-204z" />
    <glyph glyph-name="fi" unicode="&#xfb01;" horiz-adv-x="540" 
d="M388 433h-209v-433h-81v433h-76v63h76v92q0 76 40 119t114 43q29 0 52 -10l-13 -69q-18 7 -39 7q-32 0 -52.5 -21.5t-20.5 -64.5v-96h290v-496h-81v433zM381 680h95v-97h-95v97z" />
    <glyph glyph-name="fl" unicode="&#xfb02;" horiz-adv-x="538" 
d="M22 496h76v92q0 76 40 119t114 43q29 0 52 -10l-13 -69q-18 7 -39 7q-32 0 -52.5 -21.5t-20.5 -64.5v-96h117v-63h-117v-433h-81v433h-76v63zM387 700h81v-700h-81v700z" />
    <glyph glyph-name="i.loclTRK" horiz-adv-x="223" 
d="M64 583v97h95v-97h-95zM71 496h81v-496h-81v496z" />
    <glyph glyph-name="a.ss01" horiz-adv-x="597" 
d="M276 -14q-104 0 -170 73.5t-66 188.5q0 114 67 188t165 74q122 0 172 -96v82h81v-496h-81v86q-52 -100 -168 -100zM287 59q73 0 118.5 53.5t45.5 135.5t-45.5 135.5t-118.5 53.5q-74 0 -119.5 -52.5t-45.5 -136.5t45.5 -136.5t119.5 -52.5z" />
    <glyph glyph-name="aacute.ss01" horiz-adv-x="597" 
d="M243 558l67 145h107l-108 -145h-66zM276 -14q-104 0 -170 73.5t-66 188.5q0 114 67 188t165 74q122 0 172 -96v82h81v-496h-81v86q-52 -100 -168 -100zM287 59q73 0 118.5 53.5t45.5 135.5t-45.5 135.5t-118.5 53.5q-74 0 -119.5 -52.5t-45.5 -136.5t45.5 -136.5
t119.5 -52.5z" />
    <glyph glyph-name="abreve.ss01" horiz-adv-x="597" 
d="M295 568q-46 0 -74.5 29t-28.5 75h63q0 -20 11 -32.5t29 -12.5t28.5 12.5t10.5 32.5h63q0 -46 -28 -75t-74 -29zM276 -14q-104 0 -170 73.5t-66 188.5q0 114 67 188t165 74q122 0 172 -96v82h81v-496h-81v86q-52 -100 -168 -100zM287 59q73 0 118.5 53.5t45.5 135.5
t-45.5 135.5t-118.5 53.5q-74 0 -119.5 -52.5t-45.5 -136.5t45.5 -136.5t119.5 -52.5z" />
    <glyph glyph-name="acircumflex.ss01" horiz-adv-x="597" 
d="M160 558l102 144h64l102 -144h-66l-68 72l-68 -72h-66zM276 -14q-104 0 -170 73.5t-66 188.5q0 114 67 188t165 74q122 0 172 -96v82h81v-496h-81v86q-52 -100 -168 -100zM287 59q73 0 118.5 53.5t45.5 135.5t-45.5 135.5t-118.5 53.5q-74 0 -119.5 -52.5t-45.5 -136.5
t45.5 -136.5t119.5 -52.5z" />
    <glyph glyph-name="adieresis.ss01" horiz-adv-x="597" 
d="M169 588v92h93v-92h-93zM328 588v92h92v-92h-92zM276 -14q-104 0 -170 73.5t-66 188.5q0 114 67 188t165 74q122 0 172 -96v82h81v-496h-81v86q-52 -100 -168 -100zM287 59q73 0 118.5 53.5t45.5 135.5t-45.5 135.5t-118.5 53.5q-74 0 -119.5 -52.5t-45.5 -136.5
t45.5 -136.5t119.5 -52.5z" />
    <glyph glyph-name="agrave.ss01" horiz-adv-x="597" 
d="M274 558l-108 145h107l67 -145h-66zM276 -14q-104 0 -170 73.5t-66 188.5q0 114 67 188t165 74q122 0 172 -96v82h81v-496h-81v86q-52 -100 -168 -100zM287 59q73 0 118.5 53.5t45.5 135.5t-45.5 135.5t-118.5 53.5q-74 0 -119.5 -52.5t-45.5 -136.5t45.5 -136.5
t119.5 -52.5z" />
    <glyph glyph-name="amacron.ss01" horiz-adv-x="597" 
d="M184 601v68h220v-68h-220zM276 -14q-104 0 -170 73.5t-66 188.5q0 114 67 188t165 74q122 0 172 -96v82h81v-496h-81v86q-52 -100 -168 -100zM287 59q73 0 118.5 53.5t45.5 135.5t-45.5 135.5t-118.5 53.5q-74 0 -119.5 -52.5t-45.5 -136.5t45.5 -136.5t119.5 -52.5z" />
    <glyph glyph-name="aogonek.ss01" horiz-adv-x="597" 
d="M522 -127l10 -65q-19 -6 -46 -6q-43 0 -73.5 24.5t-30.5 68.5q0 60 63 105h-1v86q-52 -100 -168 -100q-104 0 -170 73.5t-66 188.5q0 114 67 188t165 74q122 0 172 -96v82h81v-496q-71 -37 -71 -85q0 -20 14 -32t35 -12q11 0 19 2zM287 59q73 0 118.5 53.5t45.5 135.5
t-45.5 135.5t-118.5 53.5q-74 0 -119.5 -52.5t-45.5 -136.5t45.5 -136.5t119.5 -52.5z" />
    <glyph glyph-name="aring.ss01" horiz-adv-x="597" 
d="M295 540q-40 0 -68 27.5t-28 67.5t28 67.5t68 27.5t68 -27.5t28 -67.5t-28 -67.5t-68 -27.5zM295 588q20 0 33 13.5t13 33.5t-13 33.5t-33 13.5t-33 -13.5t-13 -33.5t13 -33.5t33 -13.5zM276 -14q-104 0 -170 73.5t-66 188.5q0 114 67 188t165 74q122 0 172 -96v82h81
v-496h-81v86q-52 -100 -168 -100zM287 59q73 0 118.5 53.5t45.5 135.5t-45.5 135.5t-118.5 53.5q-74 0 -119.5 -52.5t-45.5 -136.5t45.5 -136.5t119.5 -52.5z" />
    <glyph glyph-name="atilde.ss01" horiz-adv-x="597" 
d="M372 561q-31 0 -55 10.5t-36 23t-28 23t-34 10.5q-13 0 -21 -8t-8 -20q0 -14 6 -24l-58 -12q-11 20 -11 45q0 38 26 58.5t62 20.5q32 0 56 -10.5t35.5 -23t27.5 -23t34 -10.5q29 0 29 28q0 12 -5 24l57 12q11 -19 11 -45q0 -38 -26 -58.5t-62 -20.5zM276 -14
q-104 0 -170 73.5t-66 188.5q0 114 67 188t165 74q122 0 172 -96v82h81v-496h-81v86q-52 -100 -168 -100zM287 59q73 0 118.5 53.5t45.5 135.5t-45.5 135.5t-118.5 53.5q-74 0 -119.5 -52.5t-45.5 -136.5t45.5 -136.5t119.5 -52.5z" />
    <glyph glyph-name="ae.ss01" horiz-adv-x="979" 
d="M276 -14q-104 0 -170 73.5t-66 188.5q0 114 67 188t165 74q122 0 172 -96v82h81v-71q29 39 75.5 62t100.5 23q108 0 173 -69t65 -179v-27h-409q4 -78 50.5 -129t119.5 -51q112 0 166 111l59 -35q-69 -145 -228 -145q-51 0 -96.5 22.5t-75.5 62.5v-71h-81v86
q-52 -100 -168 -100zM530 299h329q-4 69 -49 107.5t-110 38.5q-63 0 -110.5 -41.5t-59.5 -104.5zM287 59q73 0 118.5 53.5t45.5 135.5t-45.5 135.5t-118.5 53.5q-74 0 -119.5 -52.5t-45.5 -136.5t45.5 -136.5t119.5 -52.5z" />
    <glyph glyph-name="aeacute.ss01" horiz-adv-x="979" 
d="M438 558l67 145h107l-108 -145h-66zM276 -14q-104 0 -170 73.5t-66 188.5q0 114 67 188t165 74q122 0 172 -96v82h81v-71q29 39 75.5 62t100.5 23q108 0 173 -69t65 -179v-27h-409q4 -78 50.5 -129t119.5 -51q112 0 166 111l59 -35q-69 -145 -228 -145q-51 0 -96.5 22.5
t-75.5 62.5v-71h-81v86q-52 -100 -168 -100zM530 299h329q-4 69 -49 107.5t-110 38.5q-63 0 -110.5 -41.5t-59.5 -104.5zM287 59q73 0 118.5 53.5t45.5 135.5t-45.5 135.5t-118.5 53.5q-74 0 -119.5 -52.5t-45.5 -136.5t45.5 -136.5t119.5 -52.5z" />
    <glyph glyph-name="f_f_j" horiz-adv-x="819" 
d="M621 -211q-33 0 -62 9l11 72q19 -8 40 -8q57 0 57 70v501h-209v-433h-81v433h-198v-433h-81v433h-76v63h76v92q0 76 40 119t114 43q29 0 52 -10l-13 -69q-18 7 -39 7q-32 0 -52.5 -21.5t-20.5 -64.5v-96h198v92q0 76 39.5 119t113.5 43q28 0 53 -10l-14 -69q-18 7 -39 7
q-32 0 -52 -21.5t-20 -64.5v-96h289v-560q0 -68 -30.5 -107.5t-95.5 -39.5zM659 583v97h96v-97h-96z" />
    <glyph glyph-name="f_j" horiz-adv-x="540" 
d="M291 -130q19 -8 40 -8q57 0 57 70v501h-209v-433h-81v433h-76v63h76v92q0 76 40 119t114 43q29 0 52 -10l-13 -69q-18 7 -39 7q-32 0 -52.5 -21.5t-20.5 -64.5v-96h290v-560q0 -68 -31 -107.5t-95 -39.5q-34 0 -63 9zM381 680h95v-97h-95v97z" />
    <glyph glyph-name="uni0414.loclBGR" horiz-adv-x="703" 
d="M618 75h73v-201h-79v126h-521v-126h-79v201h73l221 625h91zM171 75h359l-154 451q-12 34 -25 79q-13 -45 -25 -79z" />
    <glyph glyph-name="uni041B.loclBGR" horiz-adv-x="615" 
d="M2 0l260 700h91l260 -700h-87l-192 530q-15 44 -26 81l-26 -81l-192 -530h-88z" />
    <glyph glyph-name="uni0432.loclBGR" horiz-adv-x="505" 
d="M68 174v349q0 90 52 140.5t140 50.5q83 0 131.5 -49.5t48.5 -129.5q0 -59 -30 -101.5t-74 -61.5q55 -16 90.5 -61t35.5 -117q0 -94 -54 -151t-149 -57q-83 0 -137 48.5t-54 139.5zM148 400h94q49 0 85.5 35t36.5 91q0 60 -29 90.5t-75 30.5q-56 0 -84 -29t-28 -96v-122z
M148 170q0 -55 32 -86t79 -31q58 0 90.5 37.5t32.5 105.5t-39.5 104t-109.5 36h-85v-166z" />
    <glyph glyph-name="uni0433.loclBGR" horiz-adv-x="482" 
d="M228 -14q-87 0 -136.5 44t-49.5 109q0 118 172 149q122 21 122 87q0 32 -26 49.5t-69 17.5q-86 0 -125 -70l-57 40q56 98 182 98q74 0 122 -36t48 -97q0 -121 -161 -150q-67 -12 -98.5 -32.5t-31.5 -56.5q0 -39 28 -61t80 -22q50 0 87 25t56 65l65 -40q-24 -52 -77 -85.5
t-131 -33.5z" />
    <glyph glyph-name="uni0434.loclBGR" horiz-adv-x="584" 
d="M150 -52q-2 -12 -2 -22q0 -34 36.5 -55.5t97.5 -21.5q157 0 157 180v70q-56 -91 -167 -91q-100 0 -166 68.5t-66 182.5q0 115 67.5 183t164.5 68q114 0 167 -85v71h81v-463q0 -118 -63 -184.5t-175 -66.5q-105 0 -160 41t-55 105q0 12 4 30zM282 440q-73 0 -117.5 -49
t-44.5 -132t44.5 -132t117.5 -49t118 49t45 132t-45 132t-118 49z" />
    <glyph glyph-name="uni0436.loclBGR" horiz-adv-x="736" 
d="M328 0v190l-55 60l-161 -250h-92l200 309l-170 187h102l176 -205v409h80v-409l176 205h102l-170 -187l200 -309h-92l-161 250l-55 -60v-190h-80z" />
    <glyph glyph-name="uni0437.loclBGR" horiz-adv-x="496" 
d="M244 -204q-98 0 -157 56t-59 133q0 32 11 54l71 -23q-5 -13 -5 -30q0 -53 40.5 -87t99.5 -34q61 0 98.5 38.5t37.5 103.5q0 59 -41.5 96t-105.5 37h-36v68h37q59 0 92 33t33 88q0 52 -32.5 82t-88.5 30q-54 0 -85.5 -27t-31.5 -71q0 -13 3 -24l-67 -25q-11 22 -11 48
q0 72 52 120t140 48q91 0 144 -49t53 -128q0 -110 -97 -154q54 -22 88 -66t34 -108q0 -92 -58 -150.5t-159 -58.5z" />
    <glyph glyph-name="uni0438.loclBGR" horiz-adv-x="567" 
d="M72 496h80v-314q0 -59 32 -91t87 -32q61 0 103 48.5t42 124.5v264h81v-496h-81v87q-24 -46 -68.5 -73.5t-97.5 -27.5q-77 0 -127.5 46.5t-50.5 139.5v324z" />
    <glyph glyph-name="uni0439.loclBGR" horiz-adv-x="567" 
d="M285 568q-46 0 -74.5 29t-28.5 75h63q0 -20 11 -32.5t29 -12.5t28.5 12.5t10.5 32.5h63q0 -46 -28 -75t-74 -29zM72 496h80v-314q0 -59 32 -91t87 -32q61 0 103 48.5t42 124.5v264h81v-496h-81v87q-24 -46 -68.5 -73.5t-97.5 -27.5q-77 0 -127.5 46.5t-50.5 139.5v324z
" />
    <glyph glyph-name="uni043A.loclBGR" horiz-adv-x="502" 
d="M72 0v700h80v-391l194 187h102l-178 -172l208 -324h-92l-172 268l-62 -60v-208h-80z" />
    <glyph glyph-name="uni043B.loclBGR" horiz-adv-x="494" 
d="M8 0l199 496h80l199 -496h-86l-153 400l-153 -400h-86z" />
    <glyph glyph-name="uni043F.loclBGR" horiz-adv-x="567" 
d="M497 0h-81v316q0 58 -32.5 89.5t-87.5 31.5q-59 0 -102 -47.5t-43 -118.5v-271h-81v496h81v-88q27 47 73 74.5t99 27.5q76 0 125 -44.5t49 -128.5v-337z" />
    <glyph glyph-name="uni0442.loclBGR" horiz-adv-x="816" 
d="M746 0h-81v339q0 101 -96 101q-51 0 -86.5 -45t-35.5 -129v-266h-80v336q0 48 -24 76t-70 28q-51 0 -86.5 -45.5t-35.5 -124.5v-270h-81v496h81v-77q22 41 61.5 66t86.5 25q49 0 85.5 -25t51.5 -70q24 43 66 69t91 26q70 0 111.5 -39.5t41.5 -108.5v-362z" />
    <glyph glyph-name="uni0446.loclBGR" horiz-adv-x="584" 
d="M497 71h70v-187h-74v116h-77v87q-24 -46 -68.5 -73.5t-97.5 -27.5q-77 0 -127.5 46.5t-50.5 139.5v324h80v-314q0 -59 32 -91t87 -32q61 0 103 48.5t42 124.5v264h81v-425z" />
    <glyph glyph-name="uni0448.loclBGR" horiz-adv-x="816" 
d="M70 496h81v-339q0 -101 96 -101q51 0 86.5 45t35.5 129v266h80v-336q0 -48 24 -76t70 -28q51 0 86.5 45.5t35.5 124.5v270h81v-496h-81v77q-22 -41 -61.5 -66t-86.5 -25q-49 0 -85.5 25t-51.5 70q-24 -43 -66 -69t-91 -26q-70 0 -111.5 39.5t-41.5 108.5v362z" />
    <glyph glyph-name="uni0449.loclBGR" horiz-adv-x="825" 
d="M746 71h70v-187h-74v116h-77v77q-22 -41 -61.5 -66t-86.5 -25q-49 0 -85.5 25t-51.5 70q-24 -43 -66 -69t-91 -26q-70 0 -111.5 39.5t-41.5 108.5v362h81v-339q0 -101 96 -101q51 0 86.5 45t35.5 129v266h80v-336q0 -48 24 -76t70 -28q51 0 86.5 45.5t35.5 124.5v270h81
v-425z" />
    <glyph glyph-name="uni044C.loclBGR" horiz-adv-x="505" 
d="M72 164v332h79v-188q64 22 121 22q86 0 136 -46t50 -125q0 -75 -53.5 -124t-141.5 -49q-85 0 -138 48.5t-53 129.5zM151 163q0 -47 30 -79.5t83 -32.5q54 0 84.5 30.5t30.5 77.5q0 48 -30.5 77t-80.5 29t-117 -24v-78z" />
    <glyph glyph-name="uni044A.loclBGR" horiz-adv-x="570" 
d="M328 -14q-86 0 -139 48.5t-53 129.5v267h-119v65h199v-188q64 22 121 22q86 0 136 -46t50 -125q0 -75 -53.5 -124t-141.5 -49zM328 51q54 0 84.5 30.5t30.5 77.5q0 48 -30.5 77t-79.5 29q-51 0 -117 -24v-78q0 -47 30 -79.5t82 -32.5z" />
    <glyph glyph-name="uni044E.loclBGR" horiz-adv-x="749" 
d="M468 -14q-94 0 -162.5 60.5t-79.5 166.5h-77v-213h-79v700h79v-417h77q11 106 79.5 166.5t162.5 60.5q102 0 172.5 -70t70.5 -192t-70.5 -192t-172.5 -70zM468 59q70 0 115.5 53t45.5 136t-45.5 136t-115.5 53t-116 -53t-46 -136t46 -136t116 -53z" />
    <glyph glyph-name="alpha.ss02" horiz-adv-x="633" 
d="M273 -14q-101 0 -167 73t-66 189q0 115 67.5 188.5t165.5 73.5q63 0 107 -27t64 -68v81h80v-381q0 -24 11.5 -40t33.5 -16q14 0 22 4l12 -67q-27 -10 -51 -10q-93 0 -104 98q-63 -98 -175 -98zM285 59q71 0 117 51t46 138q0 82 -47.5 135.5t-116.5 53.5t-115.5 -52.5
t-46.5 -136.5q0 -83 47 -136t116 -53z" />
    <glyph glyph-name="delta.ss02" horiz-adv-x="579" 
d="M289 -14q-101 0 -172 63t-71 175q0 81 48.5 142t119.5 76q-56 15 -92 51.5t-36 82.5q0 64 54.5 101t145.5 37q87 0 143 -32t56 -88q0 -32 -16 -62l-69 25q6 15 6 26q0 33 -36.5 49.5t-84.5 16.5q-55 0 -90 -19t-35 -54q0 -37 42 -62.5t148 -53.5q89 -24 135.5 -84
t46.5 -148q0 -110 -71.5 -176t-171.5 -66zM289 55q71 0 120 47.5t49 121.5q0 75 -49.5 122.5t-119.5 47.5t-119.5 -47.5t-49.5 -122.5q0 -74 49 -121.5t120 -47.5z" />
    <glyph glyph-name="alphatonos.ss02" horiz-adv-x="633" 
d="M252 555l44 145h104l-85 -145h-63zM273 -14q-101 0 -167 73t-66 189q0 115 67.5 188.5t165.5 73.5q63 0 107 -27t64 -68v81h80v-381q0 -24 11.5 -40t33.5 -16q14 0 22 4l12 -67q-27 -10 -51 -10q-93 0 -104 98q-63 -98 -175 -98zM285 59q71 0 117 51t46 138
q0 82 -47.5 135.5t-116.5 53.5t-115.5 -52.5t-46.5 -136.5q0 -83 47 -136t116 -53z" />
    <glyph glyph-name="zero.osf" horiz-adv-x="652" 
d="M326 -14q-115 0 -197 79t-82 217t82 217t197 79t197 -79t82 -217t-82 -217t-197 -79zM326 59q82 0 140 60t58 163t-58 163t-140 60t-140 -60t-58 -163t58 -163t140 -60z" />
    <glyph glyph-name="one.osf" horiz-adv-x="333" 
d="M169 0v451q-23 -28 -53 -39t-80 -11v75q58 0 87 20t54 68h73v-564h-81z" />
    <glyph glyph-name="two.osf" horiz-adv-x="509" 
d="M63 0v55l226 196q83 72 83 154q0 46 -30.5 74.5t-82.5 28.5q-51 0 -83 -31t-32 -80q0 -25 10 -52l-75 -13q-15 35 -15 73q0 75 56 124t138 49q91 0 143 -47t52 -120q0 -56 -25 -104t-83 -100l-146 -129h258v-78h-394z" />
    <glyph glyph-name="three.osf" horiz-adv-x="567" 
d="M279 -90q-106 0 -165.5 57t-59.5 140q0 30 9 57l74 -19q-4 -13 -4 -34q0 -58 40 -94.5t104 -36.5q62 0 101.5 34t39.5 93q0 124 -184 124v66q75 0 118 31.5t43 81.5q0 46 -34.5 72.5t-91.5 26.5q-55 0 -90 -32t-35 -80q0 -21 6 -36l-75 -12q-8 27 -8 52q0 74 56.5 125.5
t145.5 51.5q97 0 150.5 -42.5t53.5 -116.5q0 -50 -29 -89.5t-80 -59.5q57 -16 96.5 -56.5t39.5 -102.5q0 -94 -62 -147.5t-159 -53.5z" />
    <glyph glyph-name="four.osf" horiz-adv-x="581" 
d="M376 -76v141h-324v72l324 427h81v-427h83v-72h-83v-141h-81zM139 137h237v308z" />
    <glyph glyph-name="five.osf" horiz-adv-x="593" 
d="M288 -90q-99 0 -162 52t-63 129q0 29 8 48l73 -19q-3 -14 -3 -27q0 -51 43.5 -82t103.5 -31q74 0 118.5 44t44.5 123q0 77 -44 120.5t-118 43.5q-51 0 -91.5 -28t-63.5 -73l-68 18l36 336h386v-69h-323l-25 -196q64 78 170 78q102 0 161.5 -61.5t59.5 -169.5
q0 -101 -68.5 -168.5t-174.5 -67.5z" />
    <glyph glyph-name="six.osf" horiz-adv-x="577" 
d="M289 -14q-109 0 -175.5 77t-66.5 226q0 68 15 130.5t45 116.5t82 86t119 32q85 0 139 -42t54 -112q0 -32 -12 -60l-75 17q7 20 7 39q0 44 -32 67.5t-80 23.5q-78 0 -127.5 -71.5t-53.5 -190.5q29 45 76 69t100 24q95 0 155 -56.5t60 -156.5t-64 -159.5t-166 -59.5z
M289 55q61 0 105 40.5t44 106.5t-44 106t-105 40t-104.5 -39.5t-43.5 -106.5q0 -68 43 -107.5t105 -39.5z" />
    <glyph glyph-name="seven.osf" horiz-adv-x="518" 
d="M160 -76l213 567h-331v73h413v-67l-217 -573h-78z" />
    <glyph glyph-name="eight.osf" horiz-adv-x="569" 
d="M284 -14q-100 0 -162 52.5t-62 142.5q0 56 32.5 99t80.5 64q-92 48 -92 142q0 75 57.5 121.5t145.5 46.5t146 -46.5t58 -121.5q0 -94 -92 -142q48 -21 80 -63.5t32 -99.5q0 -90 -62 -142.5t-162 -52.5zM284 371q54 0 91 30t37 79q0 50 -37 79.5t-91 29.5t-91 -29.5
t-37 -79.5q0 -49 37 -79t91 -30zM284 53q65 0 105 34.5t40 93.5t-39.5 92.5t-105.5 33.5q-65 0 -104.5 -33.5t-39.5 -92.5t39.5 -93.5t104.5 -34.5z" />
    <glyph glyph-name="nine.osf" horiz-adv-x="578" 
d="M279 -90q-88 0 -143.5 42.5t-55.5 114.5q0 30 11 56l74 -17q-7 -23 -7 -38q0 -44 34 -67.5t90 -23.5q74 0 121 70.5t49 193.5q-28 -45 -73.5 -70t-100.5 -25q-93 0 -155.5 57t-62.5 156t64 159t166 60q114 0 178 -76t64 -227q0 -72 -14.5 -135.5t-43.5 -116t-79.5 -83
t-115.5 -30.5zM290 215q62 0 105 40t43 107t-43 107t-105 40t-105.5 -40t-43.5 -107q0 -68 42 -107.5t107 -39.5z" />
    <glyph glyph-name="zero.osf.zero" horiz-adv-x="652" 
d="M326 -14q-115 0 -197 79t-82 217t82 217t197 79t197 -79t82 -217t-82 -217t-197 -79zM175 132l247 347q-42 26 -96 26q-82 0 -140 -60t-58 -163q0 -90 47 -150zM326 59q82 0 140 60t58 163q0 90 -47 150l-247 -347q42 -26 96 -26z" />
    <glyph glyph-name="zero.tf" horiz-adv-x="610" 
d="M305 -14q-126 0 -202.5 99.5t-76.5 264.5t76.5 264.5t202.5 99.5t202.5 -99.5t76.5 -264.5t-76 -264.5t-203 -99.5zM305 60q87 0 141.5 79.5t54.5 210.5t-54.5 210.5t-141.5 79.5t-141.5 -79.5t-54.5 -210.5t54.5 -210.5t141.5 -79.5z" />
    <glyph glyph-name="one.tf" horiz-adv-x="610" 
d="M98 0v71h181v519q-29 -32 -74.5 -53.5t-96.5 -21.5v75q58 0 105.5 31t73.5 79h74v-629h171v-71h-434z" />
    <glyph glyph-name="two.tf" horiz-adv-x="610" 
d="M82 0v59l269 266q53 53 76 95t23 90q0 60 -38.5 95.5t-104.5 35.5q-61 0 -101 -37.5t-40 -99.5q0 -24 6 -46l-81 -6q-7 31 -7 59q0 83 61.5 143t162.5 60q105 0 164 -54.5t59 -141.5q0 -65 -27.5 -119.5t-98.5 -124.5l-194 -193h323v-81h-452z" />
    <glyph glyph-name="three.tf" horiz-adv-x="610" 
d="M304 -14q-110 0 -173.5 58.5t-63.5 139.5q0 23 6 44l80 -10q-3 -15 -3 -31q0 -55 42.5 -92t111.5 -37q68 0 110.5 37.5t42.5 105.5q0 70 -51 105t-132 35v70q77 0 117 35.5t40 87.5q0 51 -35 80.5t-95 29.5q-55 0 -93 -30.5t-38 -78.5q0 -15 2 -27l-78 -9q-5 15 -5 40
q0 73 61.5 124t151.5 51q99 0 154.5 -49t55.5 -125q0 -50 -30 -93t-87 -63q65 -18 105.5 -64t40.5 -115q0 -100 -66 -159.5t-171 -59.5z" />
    <glyph glyph-name="four.tf" horiz-adv-x="610" 
d="M393 0v139h-338v72l337 489h85v-486h77v-75h-77v-139h-84zM142 214h251v363z" />
    <glyph glyph-name="five.tf" horiz-adv-x="610" 
d="M304 -14q-111 0 -172 56t-61 137q0 21 4 34l81 -6q-2 -14 -2 -25q0 -58 40.5 -91t109.5 -33q75 0 122 48t47 130q0 81 -43.5 126.5t-119.5 45.5q-48 0 -91 -23.5t-71 -57.5l-69 19l31 354h404v-75h-341l-22 -214q33 30 80 48.5t94 18.5q110 0 171 -66.5t61 -175.5
q0 -110 -70.5 -180t-182.5 -70z" />
    <glyph glyph-name="six.tf" horiz-adv-x="610" 
d="M311 -14q-121 0 -190 85t-69 238q0 142 35 231q32 83 93 128.5t140 45.5q96 0 151.5 -42.5t55.5 -115.5q0 -20 -4 -33l-79 7q3 15 3 27q0 41 -33.5 64.5t-92.5 23.5q-90 0 -136 -77.5t-52 -215.5q26 49 78.5 77.5t112.5 28.5q101 0 167 -65.5t66 -167.5
q0 -101 -69.5 -170t-176.5 -69zM310 57q69 0 117 45t48 120q0 76 -47.5 120.5t-117.5 44.5t-118.5 -44.5t-48.5 -120.5q0 -75 48.5 -120t118.5 -45z" />
    <glyph glyph-name="seven.tf" horiz-adv-x="610" 
d="M169 0l279 625h-370v75h454v-69l-280 -631h-83z" />
    <glyph glyph-name="eight.tf" horiz-adv-x="610" 
d="M305 -14q-103 0 -168.5 57.5t-65.5 150.5q0 62 32.5 109t85.5 72q-45 24 -71 66t-26 91q0 80 60.5 131t152.5 51t152.5 -51t60.5 -131q0 -49 -26 -91t-71 -66q53 -25 85.5 -72t32.5 -109q0 -93 -65.5 -150.5t-168.5 -57.5zM305 405q58 0 95 33t37 89q0 55 -38 88t-94 33
t-94 -33t-38 -88q0 -56 37 -89t95 -33zM305 57q67 0 109.5 38.5t42.5 101.5q0 62 -44 101t-108 39t-108 -39t-44 -101q0 -63 42.5 -101.5t109.5 -38.5z" />
    <glyph glyph-name="nine.tf" horiz-adv-x="610" 
d="M284 -14q-96 0 -152 46.5t-56 117.5q0 22 4 35l79 -7q-2 -14 -2 -28q0 -42 34 -68.5t93 -26.5q88 0 137.5 75.5t55.5 215.5q-25 -50 -74.5 -77t-111.5 -27q-103 0 -171.5 66t-68.5 167t69.5 170t177.5 69q125 0 192 -84t67 -239q0 -130 -40 -232q-33 -83 -93 -128
t-140 -45zM299 313q69 0 117.5 45t48.5 120t-48.5 120t-117.5 45t-117 -45t-48 -120t48 -120t117 -45z" />
    <glyph glyph-name="zero.tf.zero" horiz-adv-x="610" 
d="M305 -14q-126 0 -202.5 99.5t-76.5 264.5t76.5 264.5t202.5 99.5t202.5 -99.5t76.5 -264.5t-76 -264.5t-203 -99.5zM152 163l258 438q-45 39 -105 39q-87 0 -141.5 -79.5t-54.5 -210.5q0 -112 43 -187zM305 60q87 0 141.5 79.5t54.5 210.5q0 112 -43 187l-258 -438
q45 -39 105 -39z" />
    <glyph glyph-name="zero.tosf" horiz-adv-x="610" 
d="M305 -14q-115 0 -197 79t-82 217t82 217t197 79t197 -79t82 -217t-82 -217t-197 -79zM305 59q82 0 140 60t58 163t-58 163t-140 60t-140 -60t-58 -163t58 -163t140 -60z" />
    <glyph glyph-name="one.tosf" horiz-adv-x="610" 
d="M117 0v70h172v384q-50 -59 -158 -59v76q119 0 166 93h74v-494h148v-70h-402z" />
    <glyph glyph-name="two.tosf" horiz-adv-x="610" 
d="M120 0v55l226 196q83 71 83 154q0 46 -30.5 74.5t-81.5 28.5t-83 -31t-32 -80q0 -23 9 -52l-74 -13q-16 34 -16 73q0 75 56 124t138 49q91 0 143 -47t52 -120q0 -56 -25 -104t-83 -100l-145 -129h257v-78h-394z" />
    <glyph glyph-name="three.tosf" horiz-adv-x="610" 
d="M311 -90q-106 0 -165.5 57t-59.5 140q0 30 9 57l74 -19q-4 -13 -4 -34q0 -58 40 -94.5t104 -36.5q62 0 101.5 34t39.5 93q0 124 -184 124v66q75 0 118 31.5t43 81.5q0 46 -34.5 72.5t-91.5 26.5q-55 0 -90 -32t-35 -80q0 -21 6 -36l-75 -12q-8 27 -8 52q0 74 56.5 125.5
t145.5 51.5q97 0 150.5 -42.5t53.5 -116.5q0 -50 -29 -89.5t-80 -59.5q57 -16 96.5 -56.5t39.5 -102.5q0 -94 -62 -147.5t-159 -53.5z" />
    <glyph glyph-name="four.tosf" horiz-adv-x="610" 
d="M390 -76v141h-324v72l324 427h81v-427h83v-72h-83v-141h-81zM152 137h238v308z" />
    <glyph glyph-name="five.tosf" horiz-adv-x="610" 
d="M306 -90q-99 0 -162 52t-63 129q0 29 8 48l73 -19q-3 -14 -3 -27q0 -51 43.5 -82t103.5 -31q74 0 118.5 44t44.5 123q0 77 -44 120.5t-118 43.5q-51 0 -91.5 -28t-63.5 -73l-68 18l36 336h386v-69h-323l-25 -196q64 78 170 78q102 0 161.5 -61.5t59.5 -169.5
q0 -101 -68.5 -168.5t-174.5 -67.5z" />
    <glyph glyph-name="six.tosf" horiz-adv-x="610" 
d="M318 -14q-109 0 -175.5 77t-66.5 226q0 68 15 130.5t45 116.5t82 86t119 32q85 0 139 -42t54 -112q0 -32 -12 -60l-75 17q7 20 7 39q0 44 -32 67.5t-80 23.5q-78 0 -127.5 -71.5t-53.5 -190.5q29 45 76 69t100 24q95 0 155 -56.5t60 -156.5t-64 -159.5t-166 -59.5z
M318 55q61 0 105 40.5t44 106.5t-44 106t-105 40t-104.5 -39.5t-43.5 -106.5q0 -68 43 -107.5t105 -39.5z" />
    <glyph glyph-name="seven.tosf" horiz-adv-x="610" 
d="M208 -76l213 567h-331v73h413v-67l-217 -573h-78z" />
    <glyph glyph-name="eight.tosf" horiz-adv-x="610" 
d="M305 -14q-100 0 -162 52.5t-62 142.5q0 57 32 99.5t81 63.5q-93 48 -93 142q0 75 58 121.5t146 46.5t146 -46.5t58 -121.5q0 -94 -93 -142q49 -21 81 -63.5t32 -99.5q0 -90 -62 -142.5t-162 -52.5zM305 371q54 0 91 30t37 79q0 50 -37 79.5t-91 29.5t-91 -29.5t-37 -79.5
q0 -49 37 -79t91 -30zM305 53q65 0 104.5 34.5t39.5 93.5t-39.5 92.5t-104.5 33.5t-104.5 -33.5t-39.5 -92.5t39.5 -93.5t104.5 -34.5z" />
    <glyph glyph-name="nine.tosf" horiz-adv-x="610" 
d="M300 -90q-88 0 -143.5 42.5t-55.5 114.5q0 34 11 56l74 -17q-7 -18 -7 -38q0 -44 33.5 -67.5t90.5 -23.5q74 0 121 70.5t48 193.5q-59 -95 -174 -95q-92 0 -154.5 57t-62.5 156t64 159t166 60q113 0 177.5 -76t64.5 -227q0 -72 -14.5 -135.5t-44 -116t-79.5 -83
t-115 -30.5zM311 215q62 0 105 40t43 107t-43 107t-105 40t-105.5 -40t-43.5 -107q0 -68 42 -107.5t107 -39.5z" />
    <glyph glyph-name="zero.tosf.zero" horiz-adv-x="610" 
d="M305 -14q-115 0 -197 79t-82 217t82 217t197 79t197 -79t82 -217t-82 -217t-197 -79zM154 132l247 347q-42 26 -96 26q-82 0 -140 -60t-58 -163q0 -90 47 -150zM305 59q82 0 140 60t58 163q0 90 -47 150l-247 -347q42 -26 96 -26z" />
    <glyph glyph-name="zero.zero" horiz-adv-x="711" 
d="M356 -14q-134 0 -219.5 100.5t-85.5 263.5t85.5 263.5t219.5 100.5t219 -100.5t85 -263.5t-85 -263.5t-219 -100.5zM191 147l272 462q-48 31 -107 31q-98 0 -160 -78.5t-62 -211.5q0 -127 57 -203zM356 60q98 0 160 78.5t62 211.5q0 126 -58 203l-272 -462
q50 -31 108 -31z" />
    <glyph glyph-name="uni2080.zero" horiz-adv-x="383" 
d="M191 -211q-67 0 -110 50.5t-43 131.5t43 131.5t110 50.5t110.5 -50.5t43.5 -131.5t-43.5 -131.5t-110.5 -50.5zM119 -112l102 203q-18 6 -30 6q-41 0 -66.5 -34t-25.5 -92q0 -48 20 -83zM191 -155q41 0 67 34t26 92q0 49 -21 83l-102 -203q18 -6 30 -6z" />
    <glyph glyph-name="uni2070.zero" horiz-adv-x="383" 
d="M191 343q-67 0 -110 50.5t-43 131.5t43 131.5t110 50.5t110.5 -50.5t43.5 -131.5t-43.5 -131.5t-110.5 -50.5zM119 442l102 203q-18 6 -30 6q-41 0 -66.5 -34t-25.5 -92q0 -48 20 -83zM191 399q41 0 67 34t26 92q0 49 -21 83l-102 -203q18 -6 30 -6z" />
    <glyph glyph-name="exclamdown.case" horiz-adv-x="265" 
d="M83 599v102h99v-102h-99zM90 1v223l13 293h59l12 -293v-223h-84z" />
    <glyph glyph-name="questiondown.case" horiz-adv-x="533" 
d="M325 700v-102h-98v102h98zM318 514v-14q0 -54 -18 -89t-68 -77q-57 -47 -79 -80.5t-22 -79.5q0 -53 38.5 -85t99.5 -32q58 0 98 35t40 98q0 22 -8 41l74 15q13 -26 13 -64q0 -78 -59.5 -137t-156.5 -59q-102 0 -160.5 51t-58.5 130q0 62 26.5 106.5t98.5 106.5
q33 28 46.5 55.5t13.5 78.5h82z" />
    <glyph glyph-name="bullet.case" horiz-adv-x="283" 
d="M142 257q-38 0 -65.5 27.5t-27.5 65.5t27.5 65.5t65.5 27.5t65 -27.5t27 -65.5t-27 -65.5t-65 -27.5z" />
    <glyph glyph-name="parenleft.case" horiz-adv-x="337" 
d="M178 -74q-106 190 -106 424t106 424h73q-97 -187 -97 -424t97 -424h-73z" />
    <glyph glyph-name="parenright.case" horiz-adv-x="337" 
d="M87 -74q96 189 96 424t-96 424h72q107 -189 107 -424t-107 -424h-72z" />
    <glyph glyph-name="braceleft.case" horiz-adv-x="372" 
d="M284 -75q-81 0 -117.5 40t-36.5 130v127q0 53 -17.5 73t-57.5 20v70q40 0 57.5 20t17.5 73v127q0 90 36.5 130t117.5 40h37v-73h-29q-81 0 -81 -90v-140q0 -55 -15 -80.5t-51 -41.5q36 -16 51 -41.5t15 -80.5v-140q0 -90 81 -90h29v-73h-37z" />
    <glyph glyph-name="braceright.case" horiz-adv-x="372" 
d="M51 -75v73h29q81 0 81 90v140q0 55 15 80.5t51 41.5q-36 16 -51 41.5t-15 80.5v140q0 90 -81 90h-29v73h37q80 0 116.5 -40t36.5 -130v-127q0 -53 18 -73t58 -20v-70q-40 0 -58 -20t-18 -73v-127q0 -90 -36.5 -130t-116.5 -40h-37z" />
    <glyph glyph-name="bracketleft.case" horiz-adv-x="325" 
d="M83 -75v850h191v-73h-110v-704h110v-73h-191z" />
    <glyph glyph-name="bracketright.case" horiz-adv-x="325" 
d="M51 -75v73h110v704h-110v73h191v-850h-191z" />
    <glyph glyph-name="hyphen.case" horiz-adv-x="453" 
d="M45 318v64h363v-64h-363z" />
    <glyph glyph-name="uni00AD.case" horiz-adv-x="453" 
d="M45 318v64h363v-64h-363z" />
    <glyph glyph-name="endash.case" horiz-adv-x="527" 
d="M45 318v64h437v-64h-437z" />
    <glyph glyph-name="emdash.case" horiz-adv-x="796" 
d="M45 318v64h706v-64h-706z" />
    <glyph glyph-name="guillemotleft.case" horiz-adv-x="512" 
d="M202 150l-157 200l157 200h94l-156 -200l156 -200h-94zM384 150l-157 200l157 200h94l-156 -200l156 -200h-94z" />
    <glyph glyph-name="guillemotright.case" horiz-adv-x="512" 
d="M34 150l156 200l-156 200h94l157 -200l-157 -200h-94zM216 150l156 200l-156 200h94l157 -200l-157 -200h-94z" />
    <glyph glyph-name="guilsinglleft.case" horiz-adv-x="330" 
d="M202 150l-157 200l157 201h94l-156 -201l156 -200h-94z" />
    <glyph glyph-name="guilsinglright.case" horiz-adv-x="330" 
d="M34 150l156 200l-156 201h94l157 -201l-157 -200h-94z" />
    <glyph glyph-name="at.case" horiz-adv-x="945" 
d="M448 -83q-76 0 -145 25t-126.5 74t-91.5 132t-34 190q0 187 125.5 316t317.5 129q79 0 149 -23t125 -67.5t87.5 -117.5t32.5 -165q0 -137 -70 -225.5t-164 -88.5q-42 0 -66.5 22t-24.5 59q0 13 3 27q-23 -47 -68 -77.5t-95 -30.5q-74 0 -122.5 56t-48.5 152
q0 72 22.5 132t59 96.5t79.5 56.5t86 20q44 0 80 -22.5t49 -62.5l11 69h70l-56 -377q-1 -8 -1 -16q0 -41 37 -41q54 0 100 66.5t46 180.5q0 140 -85.5 225t-242.5 85q-147 0 -254.5 -109.5t-107.5 -270.5q0 -171 96 -262.5t238 -91.5q105 0 184 57l34 -57q-94 -65 -229 -65z
M413 159q72 0 125 77t53 177q0 62 -28.5 96.5t-76.5 34.5q-69 0 -124.5 -65.5t-55.5 -172.5q0 -73 30.5 -110t76.5 -37z" />
    <glyph glyph-name="caroncomb.alt" 
d="M-64 512l-19 10l35 92h-37v86h85v-87z" />
    <glyph glyph-name="uni0308.cap" 
d="M-251 792v92h93v-92h-93zM-92 792v92h92v-92h-92z" />
    <glyph glyph-name="uni0307.cap" 
d="M-95 787v97h95v-97h-95z" />
    <glyph glyph-name="gravecomb.cap" 
d="M-66 762l-108 145h107l67 -145h-66z" />
    <glyph glyph-name="acutecomb.cap" 
d="M-174 762l67 145h107l-108 -145h-66z" />
    <glyph glyph-name="uni030B.cap" 
d="M-335 762l67 145h107l-108 -145h-66zM-173 762l66 145h107l-108 -145h-65z" />
    <glyph glyph-name="uni0302.cap" 
d="M-268 762l102 144h64l102 -144h-66l-68 72l-68 -72h-66z" />
    <glyph glyph-name="uni030C.cap" 
d="M-166 762l-102 144h66l68 -72l68 72h66l-102 -144h-64z" />
    <glyph glyph-name="uni0306.cap" 
d="M-102 772q-46 0 -74.5 29t-28.5 75h63q0 -20 11 -32.5t29 -12.5t28.5 12.5t10.5 32.5h63q0 -46 -28 -75t-74 -29z" />
    <glyph glyph-name="uni030A.cap" 
d="M-96 744q-40 0 -68 27.5t-28 67.5t28 67.5t68 27.5t68 -27.5t28 -67.5t-28 -67.5t-68 -27.5zM-96 792q20 0 33 13.5t13 33.5t-13 33.5t-33 13.5t-33 -13.5t-13 -33.5t13 -33.5t33 -13.5z" />
    <glyph glyph-name="tildecomb.cap" 
d="M-88 765q-31 0 -55 10.5t-36 23t-28 23t-34 10.5q-13 0 -21 -8t-8 -20q0 -14 6 -24l-58 -12q-11 20 -11 45q0 38 26 58.5t62 20.5q32 0 56 -10.5t35.5 -23t27.5 -23t34 -10.5q29 0 29 28q0 12 -5 24l57 12q11 -19 11 -45q0 -38 -26 -58.5t-62 -20.5z" />
    <glyph glyph-name="uni0304.cap" 
d="M-220 805v68h220v-68h-220z" />
    <glyph glyph-name="uni0327.cap" 
d="M-91 -204q-34 0 -56.5 16t-29.5 44l49 13q7 -28 38 -28q16 0 26 9.5t10 26.5t-10.5 27.5t-27.5 10.5q-24 0 -48 -20l-31 29l34 92h55l-39 -73q19 13 46 13q33 0 54 -21.5t21 -55.5q0 -39 -26 -61t-65 -22z" />
    <glyph glyph-name="uni0328.cap" 
d="M-46 -198q-43 0 -73.5 24.5t-30.5 68.5q0 68 77 114l66 -9q-71 -37 -71 -85q0 -20 14 -32t35 -12q11 0 19 2l10 -65q-20 -6 -46 -6z" />
    <glyph glyph-name="uni0335.cap" 
d="M-306 321v64h306v-64h-306z" />
    <glyph glyph-name="uni0337.cap" 
d="M-327 159v84l327 208v-83z" />
    <glyph glyph-name="uni0338.cap" 
d="M-386 -37l-65 36l387 738l64 -36z" />
    <glyph glyph-name="tonos.comb" horiz-adv-x="147" 
d="M0 555l43 145h104l-84 -145h-63z" />
    <glyph glyph-name="dieresistonos.comb" horiz-adv-x="380" 
d="M117 558l44 145h104l-85 -145h-63zM0 588v92h93v-92h-93zM287 588v92h93v-92h-93z" />
    <glyph glyph-name="brevecombcy" 
d="M-102 568q-46 0 -74.5 29t-28.5 75h63q0 -20 11 -32.5t29 -12.5t28.5 12.5t10.5 32.5h63q0 -46 -28 -75t-74 -29z" />
    <glyph glyph-name="brevecombcy.cap" 
d="M-102 772q-46 0 -74.5 29t-28.5 75h63q0 -20 11 -32.5t29 -12.5t28.5 12.5t10.5 32.5h63q0 -46 -28 -75t-74 -29z" />
    <glyph glyph-name="dieresiscombcy" horiz-adv-x="219" 
d="M0 583v97h87v-97h-87zM131 583v97h88v-97h-88z" />
    <glyph glyph-name="NULL" 
 />
    <glyph glyph-name="box" horiz-adv-x="600" 
 />
    </font>
</defs>
</svg>
