<?xml version="1.0" standalone="no"?>
<!DOCTYPE svg PUBLIC "-//W3C//DTD SVG 1.1//EN" "http://www.w3.org/Graphics/SVG/1.1/DTD/svg11.dtd" >
<svg xmlns="http://www.w3.org/2000/svg" xmlns:xlink="http://www.w3.org/1999/xlink" version="1.1">
<metadata>
Created by FontForge 20170731 at Mon Oct 15 18:38:42 2018
 By Aleksey,,,
Copyright (c) 2015 by Colophon Foundry. All rights reserved.
</metadata>
<defs>
<font id="RostelecomBasis-Bold" horiz-adv-x="0" >
  <font-face 
    font-family="Rostelecom Basis"
    font-weight="700"
    font-stretch="normal"
    units-per-em="1000"
    panose-1="2 11 8 3 3 6 4 4 1 3"
    ascent="800"
    descent="-200"
    x-height="496"
    cap-height="700"
    bbox="-742 -314 1126 934"
    underline-thickness="50"
    underline-position="-200"
    unicode-range="U+000D-FB02"
  />
<missing-glyph horiz-adv-x="500" 
 />
    <glyph glyph-name="f_f" unicode="ff" horiz-adv-x="626" 
d="M217 0h-126v394h-72v102h72v70q0 89 48.5 136.5t127.5 47.5q34 0 63 -11l-22 -111q-18 6 -35 6q-56 0 -56 -65v-73h158v70q0 89 48.5 136.5t127.5 47.5q34 0 63 -11l-22 -111q-18 6 -35 6q-56 0 -56 -65v-73h108v-102h-108v-394h-126v394h-158v-394z" />
    <glyph glyph-name="f_f_i" unicode="ffi" horiz-adv-x="876" 
d="M91 0v394h-72v102h72v70q0 89 48.5 136.5t127.5 47.5q34 0 63 -11l-22 -111q-18 6 -35 6q-56 0 -56 -65v-73h158v70q0 89 48.5 136.5t127.5 47.5q34 0 63 -11l-22 -111q-18 6 -35 6q-56 0 -56 -65v-73h313v-496h-126v394h-187v-394h-126v394h-158v-394h-126zM682 568v132
h138v-132h-138z" />
    <glyph glyph-name="f_f_l" unicode="ffl" horiz-adv-x="867" 
d="M91 0v394h-72v102h72v70q0 89 48.5 136.5t127.5 47.5q34 0 63 -11l-22 -111q-18 6 -35 6q-56 0 -56 -65v-73h158v70q0 89 48.5 136.5t127.5 47.5q34 0 63 -11l-22 -111q-18 6 -35 6q-56 0 -56 -65v-73h108v-102h-108v-394h-126v394h-158v-394h-126zM683 700h126v-700
h-126v700z" />
    <glyph glyph-name="f_i" unicode="fi" horiz-adv-x="592" 
d="M404 394h-187v-394h-126v394h-72v102h72v70q0 89 48.5 136.5t127.5 47.5q34 0 63 -11l-22 -111q-18 6 -35 6q-56 0 -56 -65v-73h313v-496h-126v394zM398 700h138v-132h-138v132z" />
    <glyph glyph-name="f_l" unicode="fl" horiz-adv-x="584" 
d="M19 496h72v70q0 89 48.5 136.5t127.5 47.5q34 0 63 -11l-22 -111q-18 6 -35 6q-56 0 -56 -65v-73h108v-102h-108v-394h-126v394h-72v102zM400 700h126v-700h-126v700z" />
    <glyph glyph-name=".notdef" horiz-adv-x="500" 
 />
    <glyph glyph-name=".null" 
 />
    <glyph glyph-name="nonmarkingreturn" horiz-adv-x="333" 
 />
    <glyph glyph-name="CR" unicode="&#xd;" horiz-adv-x="289" 
 />
    <glyph glyph-name="space" unicode=" " horiz-adv-x="276" 
 />
    <glyph glyph-name="exclam" unicode="!" horiz-adv-x="278" 
d="M89 208l-16 249v243h132v-243l-16 -249h-100zM73 0v138h132v-138h-132z" />
    <glyph glyph-name="quotedbl" unicode="&#x22;" horiz-adv-x="394" 
d="M64 454l-13 167v79h120v-79l-13 -167h-94zM236 454l-13 167v79h120v-79l-13 -167h-94z" />
    <glyph glyph-name="numbersign" unicode="#" horiz-adv-x="666" 
d="M96 0l38 204h-89v94h106l19 104h-105v94h122l37 204h110l-37 -204h129l38 204h110l-38 -204h89v-94h-106l-19 -104h105v-94h-122l-37 -204h-110l37 204h-129l-38 -204h-110zM261 298h129l19 104h-129z" />
    <glyph glyph-name="dollar" unicode="$" horiz-adv-x="652" 
d="M280 -100v90q-99 14 -158.5 72.5t-77.5 147.5l116 59q24 -132 120 -160v206q-95 21 -150.5 73t-55.5 134q0 78 56 129t150 61v88h104v-92q148 -26 203 -174l-104 -60q-29 87 -99 116v-177q109 -25 162 -76.5t53 -135.5q0 -80 -58 -140t-157 -72v-89h-104zM280 440v159
q-80 -13 -80 -74q0 -54 80 -85zM384 107q39 9 61 32.5t22 56.5q0 61 -83 92v-181z" />
    <glyph glyph-name="percent" unicode="%" horiz-adv-x="875" 
d="M217 364q-76 0 -125 50t-49 125t49 125t125 50t125 -50t49 -125t-49 -125t-125 -50zM256 -7l-72 49l435 665l72 -49zM217 450q35 0 58.5 25t23.5 64t-23.5 64t-58.5 25t-58.5 -25t-23.5 -64t23.5 -64t58.5 -25zM658 -14q-76 0 -125 50t-49 125t49 125t125 50t125 -50
t49 -125t-49 -125t-125 -50zM658 72q35 0 58.5 25t23.5 64t-23.5 64t-58.5 25t-58.5 -25t-23.5 -64t23.5 -64t58.5 -25z" />
    <glyph glyph-name="ampersand" unicode="&#x26;" horiz-adv-x="663" 
d="M276 -14q-99 0 -162 60.5t-63 157.5q0 125 131 205q-44 72 -44 134q0 76 50.5 123.5t125.5 47.5q76 0 123.5 -39.5t47.5 -105.5q0 -109 -149 -185l128 -168q28 58 42 140l98 -56q-24 -103 -71 -175l95 -125h-144l-31 41q-74 -55 -177 -55zM280 458q55 27 77 49.5t22 50.5
t-19 44t-46 16q-28 0 -47 -18.5t-19 -52.5q0 -41 32 -89zM295 96q52 0 96 29l-151 203q-63 -49 -63 -118q0 -51 33.5 -82.5t84.5 -31.5z" />
    <glyph glyph-name="quotesingle" unicode="'" horiz-adv-x="222" 
d="M64 454l-13 167v79h120v-79l-13 -167h-94z" />
    <glyph glyph-name="parenleft" unicode="(" horiz-adv-x="360" 
d="M171 -148q-108 192 -108 424t108 424h113q-40 -73 -66.5 -196t-26.5 -228t26.5 -228t66.5 -196h-113z" />
    <glyph glyph-name="parenright" unicode=")" horiz-adv-x="360" 
d="M76 -148q40 73 66.5 196t26.5 228t-26.5 228t-66.5 196h113q108 -192 108 -424t-108 -424h-113z" />
    <glyph glyph-name="asterisk" unicode="*" horiz-adv-x="438" 
d="M165 364l20 110l-85 -73l-54 94l106 37l-106 37l54 94l85 -73l-20 110h108l-20 -110l85 73l54 -94l-106 -37l106 -37l-54 -94l-85 73l20 -110h-108z" />
    <glyph glyph-name="plus" unicode="+" horiz-adv-x="564" 
d="M231 123v191h-191v102h191v191h102v-191h191v-102h-191v-191h-102z" />
    <glyph glyph-name="comma" unicode="," horiz-adv-x="214" 
d="M76 -151l-29 11l38 140h-45v134h134v-134z" />
    <glyph glyph-name="hyphen" unicode="-" horiz-adv-x="468" 
d="M40 260v102h388v-102h-388z" />
    <glyph glyph-name="period" unicode="." horiz-adv-x="214" 
d="M40 0v134h134v-134h-134z" />
    <glyph glyph-name="slash" unicode="/" horiz-adv-x="538" 
d="M5 -30l400 760h128l-400 -760h-128z" />
    <glyph glyph-name="zero" unicode="0" horiz-adv-x="722" 
d="M361 -14q-139 0 -227.5 100t-88.5 264t88.5 264t227.5 100t227.5 -100t88.5 -264t-88.5 -264t-227.5 -100zM361 108q82 0 133 65t51 177t-51 177t-133 65t-133 -65t-51 -177t51 -177t133 -65z" />
    <glyph glyph-name="one" unicode="1" horiz-adv-x="394" 
d="M193 0v537q-48 -47 -147 -47v122q59 0 95.5 21.5t59.5 66.5h124v-700h-132z" />
    <glyph glyph-name="two" unicode="2" horiz-adv-x="586" 
d="M47 0v94l266 261q45 44 63.5 75t18.5 68q0 45 -29 72.5t-78 27.5t-79 -26.5t-30 -72.5q0 -23 5 -48l-130 -9q-7 32 -7 64q0 85 66.5 146.5t174.5 61.5q112 0 173.5 -56t61.5 -145q0 -69 -26.5 -120.5t-95.5 -117.5l-157 -153h279v-122h-476z" />
    <glyph glyph-name="three" unicode="3" horiz-adv-x="602" 
d="M303 -14q-120 0 -186 59.5t-66 148.5q0 19 5 41l129 -14q-2 -14 -2 -24q0 -44 34 -71.5t86 -27.5q55 0 88 28.5t33 82.5q0 60 -43.5 88t-109.5 28v98q56 0 92 26.5t36 74.5q0 37 -28 59.5t-73 22.5q-43 0 -72 -20.5t-29 -52.5q0 -16 4 -28l-126 -14q-4 20 -4 36
q0 79 62.5 133t165.5 54q111 0 169.5 -51.5t58.5 -133.5q0 -49 -30.5 -87.5t-76.5 -56.5q60 -20 98 -64.5t38 -111.5q0 -102 -69 -162.5t-184 -60.5z" />
    <glyph glyph-name="four" unicode="4" horiz-adv-x="614" 
d="M382 0v116h-341v122l341 462h132v-462h71v-122h-71v-116h-132zM181 238h201v276z" />
    <glyph glyph-name="five" unicode="5" horiz-adv-x="609" 
d="M298 -14q-122 0 -184 58.5t-62 143.5q0 19 2 29l132 -7q-2 -12 -2 -23q0 -40 31.5 -64.5t83.5 -24.5q61 0 98 37.5t37 104.5q0 63 -37 99.5t-98 36.5q-79 0 -136 -62l-103 27l28 359h434v-122h-342l-16 -149q58 49 155 49q118 0 182.5 -64.5t64.5 -173.5t-74.5 -181.5
t-193.5 -72.5z" />
    <glyph glyph-name="six" unicode="6" horiz-adv-x="619" 
d="M318 -14q-125 0 -199 85.5t-74 237.5q0 147 35 232q73 173 251 173q102 0 160.5 -46.5t58.5 -122.5q0 -21 -4 -33l-125 9q3 13 3 27q0 30 -25.5 47t-66.5 17q-146 0 -162 -227q28 33 73.5 53t95.5 20q105 0 172 -65.5t67 -167.5t-74 -170.5t-186 -68.5zM316 94
q57 0 95.5 34.5t38.5 93.5t-38.5 93.5t-95.5 34.5t-95 -34.5t-38 -93.5t38 -93.5t95 -34.5z" />
    <glyph glyph-name="seven" unicode="7" horiz-adv-x="545" 
d="M114 0l260 578h-338v122h472v-116l-262 -584h-132z" />
    <glyph glyph-name="eight" unicode="8" horiz-adv-x="594" 
d="M297 -14q-115 0 -183 57t-68 151q0 63 32 110t88 71q-99 50 -99 155q0 81 64 132.5t166 51.5t166 -51.5t64 -132.5q0 -105 -99 -155q56 -24 88 -71t32 -110q0 -94 -68 -151t-183 -57zM297 424q43 0 73.5 26t30.5 71t-30.5 70t-73.5 25t-73.5 -25t-30.5 -70t30.5 -71
t73.5 -26zM297 94q53 0 88 31.5t35 79.5t-35 79.5t-88 31.5t-88 -31.5t-35 -79.5t35 -79.5t88 -31.5z" />
    <glyph glyph-name="nine" unicode="9" horiz-adv-x="629" 
d="M296 -14q-107 0 -167.5 50t-60.5 125q0 15 2 29l126 -11q-1 -5 -1 -14q0 -35 30.5 -56t74.5 -21q68 0 110.5 57.5t47.5 169.5q-56 -73 -161 -73q-109 0 -178 65.5t-69 167.5q0 103 73 171t187 68q132 0 202.5 -84t70.5 -239q0 -128 -42 -235q-32 -82 -95.5 -126
t-149.5 -44zM313 350q55 0 93.5 34.5t38.5 93.5t-38.5 93.5t-93.5 34.5t-95 -35t-40 -93t40 -93t95 -35z" />
    <glyph glyph-name="colon" unicode=":" horiz-adv-x="214" 
d="M40 350v134h134v-134h-134zM40 0v134h134v-134h-134z" />
    <glyph glyph-name="semicolon" unicode=";" horiz-adv-x="214" 
d="M40 350v134h134v-134h-134zM73 -162l-29 11l41 151h-45v134h134v-134z" />
    <glyph glyph-name="less" unicode="&#x3c;" horiz-adv-x="526" 
d="M477 46l-437 215v98l437 214v-124l-299 -139l299 -139v-125z" />
    <glyph glyph-name="equal" unicode="=" horiz-adv-x="564" 
d="M40 394v102h484v-102h-484zM40 194v102h484v-102h-484z" />
    <glyph glyph-name="greater" unicode="&#x3e;" horiz-adv-x="526" 
d="M49 46v125l299 139l-299 139v124l437 -214v-98z" />
    <glyph glyph-name="question" unicode="?" horiz-adv-x="549" 
d="M202 208v16q0 46 18.5 79.5t67.5 72.5q51 41 71.5 71.5t20.5 67.5q0 39 -29 62t-75 23q-48 0 -80.5 -27t-32.5 -72q0 -19 7 -37l-115 -24q-14 30 -14 72q0 79 64.5 140.5t167.5 61.5q107 0 169 -52t62 -138q0 -60 -27 -105.5t-102 -109.5q-27 -23 -37 -45.5t-10 -55.5
h-126zM199 0v138h132v-138h-132z" />
    <glyph glyph-name="at" unicode="@" horiz-adv-x="958" 
d="M458 -152q-82 0 -154.5 25t-131.5 75t-93 132.5t-34 188.5q0 187 129.5 316t327.5 129q64 0 122.5 -14t110.5 -44.5t90.5 -73.5t60.5 -105t22 -136q0 -134 -72 -224t-176 -90q-44 0 -71 21t-27 55q0 5 1 12q-23 -38 -63 -63t-90 -25q-83 0 -132.5 59t-49.5 155
q0 69 23 127t59.5 95t79.5 57t86 20q92 0 126 -65l8 49h96l-56 -362q-1 -9 -1 -16q0 -34 31 -34q46 0 84 61.5t38 166.5q0 127 -78 204.5t-229 77.5q-144 0 -244 -102t-100 -258q0 -152 89 -237t222 -85q110 0 190 55l48 -81q-104 -66 -242 -66zM425 112q62 0 107.5 63
t45.5 161q0 117 -89 117q-61 0 -108 -63t-47 -155q0 -59 25.5 -91t65.5 -32z" />
    <glyph glyph-name="A" unicode="A" horiz-adv-x="702" 
d="M5 0l283 700h126l283 -700h-141l-70 183h-270l-70 -183h-141zM261 301h180l-64 168q-13 34 -26 76l-26 -76z" />
    <glyph glyph-name="B" unicode="B" horiz-adv-x="654" 
d="M67 700h288q107 0 165.5 -45t58.5 -126q0 -51 -27.5 -89.5t-69.5 -59.5q126 -50 126 -170q0 -96 -71.5 -153t-176.5 -57h-293v700zM199 428h146q55 0 80.5 19t25.5 59t-25.5 59t-80.5 19h-146v-156zM199 118h153q124 0 124 97t-124 97h-153v-194z" />
    <glyph glyph-name="C" unicode="C" horiz-adv-x="768" 
d="M720 157q-62 -90 -133.5 -130.5t-182.5 -40.5q-156 0 -257 101t-101 263q0 161 103.5 262.5t259.5 101.5q104 0 183 -48t119 -123l-111 -67q-69 116 -195 116q-95 0 -160 -66.5t-65 -175.5q0 -106 65 -174t160 -68q126 0 204 112z" />
    <glyph glyph-name="D" unicode="D" horiz-adv-x="705" 
d="M67 700h211q171 0 276 -90t105 -260t-105 -260t-276 -90h-211v700zM287 122q110 0 174 58.5t64 169.5t-64 169.5t-174 58.5h-88v-456h88z" />
    <glyph glyph-name="E" unicode="E" horiz-adv-x="609" 
d="M67 700h483v-118h-351v-161h323v-118h-323v-185h354v-118h-486v700z" />
    <glyph glyph-name="F" unicode="F" horiz-adv-x="612" 
d="M67 0v700h495v-118h-363v-181h333v-118h-333v-283h-132z" />
    <glyph glyph-name="G" unicode="G" horiz-adv-x="780" 
d="M606 96q-70 -110 -213 -110q-148 0 -247.5 103t-99.5 261t105.5 261t257.5 103q97 0 174 -40t119 -107l-104 -63q-71 94 -191 94q-95 0 -161 -68t-66 -180q0 -106 61.5 -174t155.5 -68q85 0 133 44.5t59 113.5h-226v108h358v-374h-87z" />
    <glyph glyph-name="H" unicode="H" horiz-adv-x="704" 
d="M67 700h132v-282h306v282h132v-700h-132v296h-306v-296h-132v700z" />
    <glyph glyph-name="I" unicode="I" horiz-adv-x="266" 
d="M67 700h132v-700h-132v700z" />
    <glyph glyph-name="J" unicode="J" horiz-adv-x="555" 
d="M500 214q0 -102 -60.5 -165t-168.5 -63q-107 0 -168 60.5t-61 163.5h132q2 -102 97 -102q47 0 72 29.5t25 78.5v484h132v-486z" />
    <glyph glyph-name="K" unicode="K" horiz-adv-x="652" 
d="M67 0v700h132v-270l55 62l196 208h167l-248 -260l264 -440h-154l-205 342l-75 -79v-263h-132z" />
    <glyph glyph-name="L" unicode="L" horiz-adv-x="591" 
d="M67 0v700h132v-578h351v-122h-483z" />
    <glyph glyph-name="M" unicode="M" horiz-adv-x="858" 
d="M67 700h139l223 -556l223 556h139v-700h-128v428l-34 -107l-137 -321h-126l-137 321l-34 107v-428h-128v700z" />
    <glyph glyph-name="N" unicode="N" horiz-adv-x="718" 
d="M67 700h134l292 -445q24 -40 30 -55v500h128v-700h-134l-292 448q-24 40 -30 55v-503h-128v700z" />
    <glyph glyph-name="O" unicode="O" horiz-adv-x="812" 
d="M766 350q0 -157 -102.5 -260.5t-257.5 -103.5t-257.5 103.5t-102.5 260.5t102.5 260.5t257.5 103.5t257.5 -103.5t102.5 -260.5zM406 108q98 0 162 65.5t64 176.5t-64 176.5t-162 65.5t-162 -65.5t-64 -176.5t64 -176.5t162 -65.5z" />
    <glyph glyph-name="P" unicode="P" horiz-adv-x="688" 
d="M67 0v700h318q121 0 191.5 -59.5t70.5 -168.5t-70.5 -168.5t-191.5 -59.5h-186v-244h-132zM199 362h182q67 0 100.5 29.5t33.5 80.5t-33.5 80.5t-100.5 29.5h-182v-220z" />
    <glyph glyph-name="Q" unicode="Q" horiz-adv-x="812" 
d="M766 350q0 -90 -36.5 -165.5t-100.5 -125.5q26 -13 86 -35l-53 -116q-90 36 -163 89q-47 -11 -93 -11q-155 0 -257.5 103.5t-102.5 260.5t102.5 260.5t257.5 103.5t257.5 -103.5t102.5 -260.5zM180 350q0 -111 64 -176.5t162 -65.5t162 65.5t64 176.5t-64 176.5
t-162 65.5t-162 -65.5t-64 -176.5z" />
    <glyph glyph-name="R" unicode="R" horiz-adv-x="655" 
d="M311 284h-112v-284h-132v700h299q115 0 182 -53.5t67 -144.5q0 -149 -160 -206l169 -296h-151zM199 400h167q117 0 117 92t-117 92h-167v-184z" />
    <glyph glyph-name="S" unicode="S" horiz-adv-x="652" 
d="M201 525q0 -40 40 -65.5t129 -43.5q116 -24 172.5 -76t56.5 -139q0 -89 -71.5 -152t-189.5 -63t-194 51.5t-100 135.5l115 54q23 -58 64 -91.5t114 -33.5q59 0 94.5 26t35.5 68q0 47 -41.5 73t-131.5 43q-101 20 -160 72.5t-59 137.5q0 87 68 139.5t178 52.5
q184 0 258 -146l-108 -60q-57 90 -153 90q-50 0 -83.5 -18.5t-33.5 -54.5z" />
    <glyph glyph-name="T" unicode="T" horiz-adv-x="592" 
d="M230 0v578h-214v122h560v-122h-214v-578h-132z" />
    <glyph glyph-name="U" unicode="U" horiz-adv-x="700" 
d="M637 265q0 -131 -80 -205t-207 -74t-207 74t-80 205v435h132v-422q0 -81 41.5 -125.5t113.5 -44.5t113.5 44.5t41.5 125.5v422h132v-435z" />
    <glyph glyph-name="V" unicode="V" horiz-adv-x="658" 
d="M2 700h143l158 -447l26 -89l26 89l158 447h143l-260 -700h-134z" />
    <glyph glyph-name="W" unicode="W" horiz-adv-x="942" 
d="M198 0l-193 700h139l111 -442q12 -51 17 -76l17 77l114 441h136l114 -441q12 -52 17 -77l17 76l111 442h139l-193 -700h-142l-131 508l-131 -508h-142z" />
    <glyph glyph-name="X" unicode="X" horiz-adv-x="617" 
d="M308 478l140 222h134l-200 -319l231 -381h-141l-164 270l-163 -270h-142l234 376l-203 324h141z" />
    <glyph glyph-name="Y" unicode="Y" horiz-adv-x="602" 
d="M235 0v274l-231 426h145l130 -249q13 -27 22 -51l22 51l130 249h145l-231 -426v-274h-132z" />
    <glyph glyph-name="Z" unicode="Z" horiz-adv-x="614" 
d="M48 700h512v-122l-366 -456h383v-122h-542v120l368 458h-355v122z" />
    <glyph glyph-name="bracketleft" unicode="[" horiz-adv-x="347" 
d="M73 -150v850h229v-118h-103v-614h103v-118h-229z" />
    <glyph glyph-name="backslash" unicode="\" horiz-adv-x="538" 
d="M405 -30l-400 760h128l400 -760h-128z" />
    <glyph glyph-name="bracketright" unicode="]" horiz-adv-x="347" 
d="M45 -150v118h103v614h-103v118h229v-850h-229z" />
    <glyph glyph-name="asciicircum" unicode="^" horiz-adv-x="498" 
d="M18 430l176 270h110l176 -270h-120l-111 172l-111 -172h-120z" />
    <glyph glyph-name="underscore" unicode="_" horiz-adv-x="512" 
d="M7 -109v102h498v-102h-498z" />
    <glyph glyph-name="grave" unicode="`" horiz-adv-x="325" 
d="M176 550l-124 158h153l68 -158h-97z" />
    <glyph glyph-name="a" unicode="a" horiz-adv-x="550" 
d="M386 0q-10 40 -10 79q-52 -93 -166 -93q-74 0 -120.5 42.5t-46.5 112.5q0 136 177 161l149 20v25q0 75 -93 75q-40 0 -63.5 -16t-23.5 -40q0 -10 1 -14l-119 -13q-2 9 -2 26q0 60 56.5 102.5t150.5 42.5q106 0 162.5 -45t56.5 -135v-207q0 -74 16 -123h-125zM237 88
q58 0 95 34.5t37 103.5v9l-120 -17q-83 -12 -83 -70q0 -29 20 -44.5t51 -15.5z" />
    <glyph glyph-name="b" unicode="b" horiz-adv-x="616" 
d="M58 700h126v-265q59 75 163 75q103 0 170 -70.5t67 -191.5q0 -120 -69 -191t-170 -71q-106 0 -161 75v-61h-126v700zM316 104q61 0 100.5 40.5t39.5 103.5t-39.5 103.5t-100.5 40.5t-100.5 -40.5t-39.5 -103.5t39.5 -103.5t100.5 -40.5z" />
    <glyph glyph-name="c" unicode="c" horiz-adv-x="541" 
d="M520 119q-78 -133 -227 -133q-112 0 -186.5 72.5t-74.5 189.5q0 116 76 189t185 73q80 0 137.5 -32.5t84.5 -91.5l-108 -62q-45 68 -115 68q-57 0 -94.5 -39.5t-37.5 -104.5q0 -66 37 -105t95 -39q43 0 70.5 18t53.5 54z" />
    <glyph glyph-name="d" unicode="d" horiz-adv-x="616" 
d="M558 0h-126v70q-21 -37 -61.5 -60.5t-94.5 -23.5q-105 0 -174.5 71t-69.5 191q0 118 73.5 190t170.5 72q110 0 156 -75v265h126v-700zM300 104q60 0 100 40.5t40 103.5t-40 103.5t-100 40.5t-100 -40.5t-40 -103.5t40 -103.5t100 -40.5z" />
    <glyph glyph-name="e" unicode="e" horiz-adv-x="565" 
d="M153 218q6 -57 43 -90.5t93 -33.5q46 0 72 16.5t54 51.5l100 -50q-38 -65 -92.5 -95.5t-135.5 -30.5q-106 0 -180.5 73.5t-74.5 188.5q0 116 75.5 189t185.5 73q106 0 174 -69.5t68 -178.5v-44h-382zM289 414q-48 0 -84 -28t-50 -72h263q-9 47 -43 73.5t-86 26.5z" />
    <glyph glyph-name="f" unicode="f" horiz-adv-x="342" 
d="M19 496h72v70q0 89 48.5 136.5t127.5 47.5q34 0 63 -11l-22 -111q-18 6 -35 6q-56 0 -56 -65v-73h108v-102h-108v-394h-126v394h-72v102z" />
    <glyph glyph-name="g" unicode="g" horiz-adv-x="597" 
d="M185 -38q-2 -10 -2 -21q0 -26 27.5 -42.5t78.5 -16.5q126 0 126 141v59q-45 -74 -141 -74q-100 0 -169.5 71t-69.5 180t71 180t169 71q94 0 140 -68v54h126v-462q0 -121 -68.5 -186.5t-183.5 -65.5q-111 0 -171.5 43t-60.5 122q0 15 3 30zM288 400q-55 0 -93 -37.5
t-38 -103.5t38 -103.5t93 -37.5q56 0 95 38t39 103t-39 103t-95 38z" />
    <glyph glyph-name="h" unicode="h" horiz-adv-x="590" 
d="M532 0h-126v286q0 50 -25.5 78t-74.5 28q-53 0 -87.5 -39t-34.5 -101v-252h-126v700h126v-282q59 92 172 92q81 0 128.5 -47.5t47.5 -127.5v-335z" />
    <glyph glyph-name="i" unicode="i" horiz-adv-x="250" 
d="M56 568v132h138v-132h-138zM62 496h126v-496h-126v496z" />
    <glyph glyph-name="j" unicode="j" horiz-adv-x="250" 
d="M56 700h138v-132h-138v132zM-33 -87q19 -8 39 -8q30 0 43 17.5t13 53.5v520h126v-534q0 -84 -40.5 -128.5t-121.5 -44.5q-39 0 -75 10z" />
    <glyph glyph-name="k" unicode="k" horiz-adv-x="541" 
d="M63 0v700h126v-354l151 150h156l-181 -177l205 -319h-145l-148 232l-38 -37v-195h-126z" />
    <glyph glyph-name="l" unicode="l" horiz-adv-x="242" 
d="M58 700h126v-700h-126v700z" />
    <glyph glyph-name="m" unicode="m" horiz-adv-x="842" 
d="M784 0h-126v307q0 93 -78 93q-43 0 -69.5 -32t-26.5 -92v-276h-126v305q0 95 -80 95q-39 0 -66.5 -32.5t-27.5 -89.5v-278h-126v496h126v-66q52 80 144 80q104 0 138 -85q53 85 158 85q76 0 118 -44t42 -119v-347z" />
    <glyph glyph-name="n" unicode="n" horiz-adv-x="584" 
d="M526 0h-126v286q0 106 -101 106q-50 0 -82.5 -39t-32.5 -101v-252h-126v496h126v-80q61 94 168 94q79 0 126.5 -47t47.5 -125v-338z" />
    <glyph glyph-name="o" unicode="o" horiz-adv-x="606" 
d="M574 248q0 -123 -80.5 -192.5t-190.5 -69.5t-190.5 69.5t-80.5 192.5t80.5 192.5t190.5 69.5t190.5 -69.5t80.5 -192.5zM303 104q58 0 100.5 39.5t42.5 104.5t-42.5 104.5t-100.5 39.5t-100.5 -39.5t-42.5 -104.5t42.5 -104.5t100.5 -39.5z" />
    <glyph glyph-name="p" unicode="p" horiz-adv-x="621" 
d="M63 496h126v-71q26 38 72 61.5t100 23.5q97 0 162.5 -71t65.5 -191q0 -117 -69 -189.5t-170 -72.5t-161 75v-265h-126v700zM321 392q-60 0 -100 -41.5t-40 -102.5t40 -102.5t100 -41.5t100 41.5t40 102.5t-40 102.5t-100 41.5z" />
    <glyph glyph-name="q" unicode="q" horiz-adv-x="621" 
d="M558 -204h-126v270q-50 -80 -160 -80q-98 0 -169 73t-71 189q0 118 72 190t168 72q56 0 98 -22.5t62 -62.5v71h126v-700zM300 392q-60 0 -100 -41.5t-40 -102.5t40 -102.5t100 -41.5t100 41.5t40 102.5t-40 102.5t-100 41.5z" />
    <glyph glyph-name="r" unicode="r" horiz-adv-x="379" 
d="M345 385q-19 7 -41 7q-55 0 -87.5 -41.5t-32.5 -105.5v-245h-126v496h126v-79q46 93 138 93q24 0 43 -6z" />
    <glyph glyph-name="s" unicode="s" horiz-adv-x="489" 
d="M178 370q0 -24 26.5 -39t86.5 -27q87 -18 125.5 -54.5t38.5 -98.5q0 -72 -53 -118.5t-143 -46.5q-153 0 -216 115l101 64q45 -73 117 -73q34 0 56 14t22 41q0 43 -104 64q-169 33 -169 155q0 67 52.5 105.5t128.5 38.5q133 0 189 -98l-82 -57q-38 57 -105 57
q-32 0 -51.5 -11t-19.5 -31z" />
    <glyph glyph-name="t" unicode="t" horiz-adv-x="364" 
d="M20 496h77v134h126v-134h108v-102h-108v-226q0 -70 63 -70q22 0 42 6l12 -104q-38 -14 -84 -14q-159 0 -159 158v250h-77v102z" />
    <glyph glyph-name="u" unicode="u" horiz-adv-x="589" 
d="M63 496h126v-279q0 -113 101 -113q52 0 83.5 38t31.5 98v256h126v-496h-126v78q-50 -92 -158 -92q-81 0 -132.5 53t-51.5 149v308z" />
    <glyph glyph-name="v" unicode="v" horiz-adv-x="534" 
d="M326 0h-118l-201 496h134l126 -336l126 336h134z" />
    <glyph glyph-name="w" unicode="w" horiz-adv-x="714" 
d="M506 164l80 332h122l-138 -496h-122l-91 341l-91 -341h-122l-138 496h122l80 -332l89 332h120z" />
    <glyph glyph-name="x" unicode="x" horiz-adv-x="497" 
d="M247 363l84 133h146l-155 -231l174 -265h-147l-102 163l-103 -163h-145l181 262l-160 234h144z" />
    <glyph glyph-name="y" unicode="y" horiz-adv-x="546" 
d="M92 -83q22 -12 45 -12q39 0 56 47l16 44l-204 500h143l128 -322l122 322h143l-236 -586q-26 -64 -65.5 -92.5t-98.5 -28.5q-41 0 -69 11z" />
    <glyph glyph-name="z" unicode="z" horiz-adv-x="496" 
d="M460 102v-102h-424v102l261 292h-250v102h396v-102l-262 -292h279z" />
    <glyph glyph-name="braceleft" unicode="{" horiz-adv-x="395" 
d="M302 -150q-89 0 -134 44t-45 143v108q0 45 -18.5 62t-56.5 17v102q38 0 56.5 17t18.5 62v108q0 99 45 143t134 44h48v-118h-25q-76 0 -76 -87v-107q0 -49 -17 -74t-52 -39q35 -14 52 -39t17 -74v-107q0 -87 76 -87h25v-118h-48z" />
    <glyph glyph-name="bar" unicode="|" horiz-adv-x="268" 
d="M73 -110v850h122v-850h-122z" />
    <glyph glyph-name="braceright" unicode="}" horiz-adv-x="395" 
d="M45 -150v118h25q76 0 76 87v107q0 49 17 74t52 39q-35 14 -52 39t-17 74v107q0 87 -76 87h-25v118h48q89 0 134 -44t45 -143v-108q0 -45 18.5 -62t56.5 -17v-102q-38 0 -56.5 -17t-18.5 -62v-108q0 -99 -45 -143t-134 -44h-48z" />
    <glyph glyph-name="asciitilde" unicode="~" horiz-adv-x="461" 
d="M55 253q-15 23 -15 53q0 48 30 76t76 28q41 0 70.5 -16t48 -31.5t33.5 -15.5q27 0 27 25q0 11 -7 23l88 16q15 -23 15 -55q0 -47 -30 -74.5t-76 -27.5q-41 0 -70.5 16t-48 31.5t-33.5 15.5q-27 0 -27 -25q0 -11 7 -23z" />
    <glyph glyph-name="uni00A0" unicode="&#xa0;" horiz-adv-x="276" 
 />
    <glyph glyph-name="exclamdown" unicode="&#xa1;" horiz-adv-x="278" 
d="M73 358v138h132v-138h-132zM73 -204v243l16 249h100l16 -249v-243h-132z" />
    <glyph glyph-name="cent" unicode="&#xa2;" horiz-adv-x="569" 
d="M526 119q-65 -111 -177 -129v-100h-100v100q-94 16 -152.5 85.5t-58.5 172.5q0 101 60 171t151 87v114h100v-114q125 -18 172 -120l-108 -62q-28 42 -64 58v-269q39 14 73 63zM166 248q0 -50 22.5 -85.5t60.5 -49.5v270q-38 -15 -60.5 -50.5t-22.5 -84.5z" />
    <glyph glyph-name="sterling" unicode="&#xa3;" horiz-adv-x="575" 
d="M60 0v94q34 36 47.5 68t13.5 81q0 27 -6 56h-87v98h63q-15 64 -15 104q0 98 66.5 155.5t171.5 57.5q106 0 164.5 -52.5t58.5 -130.5q0 -37 -15 -71l-116 20q9 24 9 48q0 35 -27.5 57.5t-76.5 22.5t-79 -28t-30 -81q0 -42 15 -102h189v-98h-169q3 -24 3 -51
q0 -76 -40 -138h330v-110h-470z" />
    <glyph glyph-name="currency" unicode="&#xa4;" horiz-adv-x="652" 
d="M130 82l-72 72l78 77q-32 53 -32 119t32 119l-78 77l72 72l78 -78q54 33 118 33t118 -33l78 78l72 -72l-78 -77q32 -53 32 -119t-32 -119l78 -77l-72 -72l-78 78q-54 -33 -118 -33t-118 33zM326 224q53 0 86.5 35t33.5 91t-33.5 91t-86.5 35t-86.5 -35t-33.5 -91
t33.5 -91t86.5 -35z" />
    <glyph glyph-name="yen" unicode="&#xa5;" horiz-adv-x="606" 
d="M237 0v112h-146v102h146v60h-146v102h93l-170 324h142l123 -249q15 -30 24 -54l24 54l123 249h142l-170 -324h93v-102h-146v-60h146v-102h-146v-112h-132z" />
    <glyph glyph-name="brokenbar" unicode="&#xa6;" horiz-adv-x="268" 
d="M73 386v354h122v-354h-122zM73 -110v354h122v-354h-122z" />
    <glyph glyph-name="section" unicode="&#xa7;" horiz-adv-x="525" 
d="M267 -93q-156 0 -220 139l85 62q44 -105 136 -105q40 0 65.5 19t25.5 52q0 70 -136 98q-79 16 -123 58t-44 105q0 57 46 98q-42 42 -42 110q0 78 57 124.5t141 46.5q78 0 134 -37.5t86 -101.5l-85 -62q-43 105 -136 105q-40 0 -65.5 -19t-25.5 -52q0 -69 136 -98
q88 -19 127.5 -54.5t39.5 -99.5q0 -63 -45 -105q41 -42 41 -112q0 -78 -57 -124.5t-141 -46.5zM349 235q20 18 20 42q0 29 -29 50t-98 38q-36 9 -66 21q-20 -18 -20 -42q0 -29 29 -50t98 -38q37 -9 66 -21z" />
    <glyph glyph-name="dieresis" unicode="&#xa8;" horiz-adv-x="414" 
d="M58 576v124h118v-124h-118zM238 576v124h118v-124h-118z" />
    <glyph glyph-name="copyright" unicode="&#xa9;" horiz-adv-x="828" 
d="M414 -14q-150 0 -257 106.5t-107 257.5t107 257.5t257 106.5t257 -106.5t107 -257.5t-107 -257.5t-257 -106.5zM414 72q115 0 195.5 81t80.5 197t-80.5 197t-195.5 81t-195.5 -81t-80.5 -197t80.5 -197t195.5 -81zM416 146q-88 0 -146 56.5t-58 147.5q0 90 59.5 147
t144.5 57q64 0 110 -27.5t66 -77.5l-80 -53q-30 66 -97 66q-44 0 -73.5 -30.5t-29.5 -81.5t29 -81.5t74 -30.5q67 0 102 71l79 -52q-55 -111 -180 -111z" />
    <glyph glyph-name="ordfeminine" unicode="&#xaa;" horiz-adv-x="396" 
d="M288 300q-15 18 -15 55q-39 -62 -115 -62q-51 0 -84 30t-33 78q0 50 38.5 79t97.5 38l92 15v9q0 52 -64 52q-30 0 -47.5 -10.5t-17.5 -26.5q0 -5 1 -9l-80 -29q-6 13 -6 29q0 43 40 76t110 33q151 0 151 -125v-144q0 -56 22 -88h-90zM180 365q40 0 64.5 26t24.5 70v9
l-84 -13q-58 -9 -58 -49q0 -20 14.5 -31.5t38.5 -11.5z" />
    <glyph glyph-name="guillemotleft" unicode="&#xab;" horiz-adv-x="594" 
d="M207 62l-167 213l167 213h141l-166 -213l166 -213h-141zM423 62l-167 213l167 213h141l-166 -213l166 -213h-141z" />
    <glyph glyph-name="logicalnot" unicode="&#xac;" horiz-adv-x="549" 
d="M368 174v140h-328v102h446v-242h-118z" />
    <glyph glyph-name="uni00AD" unicode="&#xad;" horiz-adv-x="468" 
d="M40 260v102h388v-102h-388z" />
    <glyph glyph-name="registered" unicode="&#xae;" horiz-adv-x="828" 
d="M414 -14q-150 0 -257 106.5t-107 257.5t107 257.5t257 106.5t257 -106.5t107 -257.5t-107 -257.5t-257 -106.5zM414 72q115 0 195.5 81t80.5 197t-80.5 197t-195.5 81t-195.5 -81t-80.5 -197t80.5 -197t195.5 -81zM267 151v398h163q71 0 107.5 -33.5t36.5 -89.5
q0 -44 -27 -76t-72 -43l95 -156h-97l-91 153h-27v-153h-88zM355 376h72q62 0 62 50q0 49 -62 49h-72v-99z" />
    <glyph glyph-name="macron" unicode="&#xaf;" horiz-adv-x="328" 
d="M40 588v94h248v-94h-248z" />
    <glyph glyph-name="degree" unicode="&#xb0;" horiz-adv-x="354" 
d="M177 436q-60 0 -100 40.5t-40 98.5t40 98.5t100 40.5t100 -40.5t40 -98.5t-40 -98.5t-100 -40.5zM177 514q27 0 43.5 17t16.5 44t-16.5 44t-43.5 17t-43.5 -17t-16.5 -44t16.5 -44t43.5 -17z" />
    <glyph glyph-name="plusminus" unicode="&#xb1;" horiz-adv-x="575" 
d="M236 183v191h-191v102h191v191h102v-191h191v-102h-191v-191h-102zM45 0v102h484v-102h-484z" />
    <glyph glyph-name="uni00B2" unicode="&#xb2;" horiz-adv-x="339" 
d="M53 350v53l132 127q35 32 35 65q0 41 -43 41q-20 0 -33.5 -11t-13.5 -31q0 -10 4 -24l-76 -11q-7 17 -7 40q0 43 35 75.5t91 32.5q58 0 91.5 -27.5t33.5 -75.5q0 -36 -13.5 -62t-47.5 -60l-65 -63h129v-69h-252z" />
    <glyph glyph-name="uni00B3" unicode="&#xb3;" horiz-adv-x="347" 
d="M173 343q-59 0 -94.5 29.5t-35.5 75.5q0 22 7 36l79 -17q-2 -6 -2 -15q0 -20 14 -30t34 -10q22 0 36.5 11.5t14.5 32.5q0 49 -82 49v60q32 0 50.5 11t18.5 30q0 35 -41 35q-18 0 -31 -8.5t-13 -24.5q0 -11 3 -17l-73 -10q-5 12 -5 27q0 40 32 69.5t87 29.5
q59 0 89.5 -23.5t30.5 -63.5q0 -44 -45 -75q63 -24 63 -91q0 -51 -37.5 -81t-99.5 -30z" />
    <glyph glyph-name="acute" unicode="&#xb4;" horiz-adv-x="325" 
d="M52 550l68 158h153l-124 -158h-97z" />
    <glyph glyph-name="uni00B5" unicode="&#xb5;" horiz-adv-x="594" 
d="M63 -204v700h126v-279q0 -113 101 -113q52 0 83.5 38t31.5 98v256h126v-496h-126v78q-50 -92 -158 -92q-33 0 -61 9q3 -57 3 -68v-131h-126z" />
    <glyph glyph-name="paragraph" unicode="&#xb6;" horiz-adv-x="655" 
d="M263 -120v432h-9q-94 0 -155.5 53t-61.5 141t61.5 141t155.5 53h370v-102h-65v-718h-112v718h-72v-718h-112z" />
    <glyph glyph-name="periodcentered" unicode="&#xb7;" horiz-adv-x="214" 
d="M40 290v134h134v-134h-134z" />
    <glyph glyph-name="cedilla" unicode="&#xb8;" horiz-adv-x="295" 
d="M147 -204q-78 0 -94 61l66 17q4 -22 28 -22q25 0 25 25q0 29 -28 29q-24 0 -45 -18l-37 33l33 95h70l-41 -69q16 9 40 9q34 0 56 -22t22 -56q0 -38 -27.5 -60t-67.5 -22z" />
    <glyph glyph-name="uni00B9" unicode="&#xb9;" horiz-adv-x="254" 
d="M112 350v254q-21 -24 -74 -24v77q57 0 78 43h80v-350h-84z" />
    <glyph glyph-name="ordmasculine" unicode="&#xba;" horiz-adv-x="458" 
d="M417 475q0 -86 -56 -134t-132 -48q-77 0 -132.5 48t-55.5 134t55.5 134t132.5 48q76 0 132 -48t56 -134zM229 380q40 0 66.5 26t26.5 69t-26 69t-67 26t-67.5 -26t-26.5 -69t26.5 -69t67.5 -26z" />
    <glyph glyph-name="guillemotright" unicode="&#xbb;" horiz-adv-x="594" 
d="M30 62l166 213l-166 213h141l167 -213l-167 -213h-141zM246 62l166 213l-166 213h141l167 -213l-167 -213h-141z" />
    <glyph glyph-name="onequarter" unicode="&#xbc;" horiz-adv-x="722" 
d="M182 -7l-72 49l435 665l72 -49zM112 350v254q-21 -24 -74 -24v77q57 0 78 43h80v-350h-84zM557 0v58h-162v66l162 226h84v-226h36v-66h-36v-58h-84zM474 124h83v116z" />
    <glyph glyph-name="onehalf" unicode="&#xbd;" horiz-adv-x="741" 
d="M182 -7l-72 49l435 665l72 -49zM112 350v254q-21 -24 -74 -24v77q57 0 78 43h80v-350h-84zM455 0v53l132 127q35 32 35 65q0 41 -43 41q-20 0 -33.5 -11t-13.5 -31q0 -10 4 -24l-76 -11q-7 17 -7 40q0 43 35 75.5t91 32.5q58 0 91.5 -27.5t33.5 -75.5q0 -36 -13.5 -62
t-47.5 -60l-65 -63h129v-69h-252z" />
    <glyph glyph-name="threequarters" unicode="&#xbe;" horiz-adv-x="780" 
d="M173 343q-59 0 -94.5 29.5t-35.5 75.5q0 22 7 36l79 -17q-2 -6 -2 -15q0 -20 14 -30t34 -10q22 0 36.5 11.5t14.5 32.5q0 49 -82 49v60q32 0 50.5 11t18.5 30q0 35 -41 35q-18 0 -31 -8.5t-13 -24.5q0 -11 3 -17l-73 -10q-5 12 -5 27q0 40 32 69.5t87 29.5
q59 0 89.5 -23.5t30.5 -63.5q0 -44 -45 -75q63 -24 63 -91q0 -51 -37.5 -81t-99.5 -30zM241 -7l-72 49l435 665l72 -49zM615 0v58h-162v66l162 226h84v-226h36v-66h-36v-58h-84zM532 124h83v116z" />
    <glyph glyph-name="questiondown" unicode="&#xbf;" horiz-adv-x="549" 
d="M350 496v-138h-132v138h132zM347 288v-16q0 -46 -18.5 -79.5t-67.5 -72.5q-51 -41 -71.5 -71.5t-20.5 -67.5q0 -39 29 -62t75 -23q48 0 80.5 27t32.5 72q0 20 -7 37l115 24q14 -30 14 -72q0 -79 -64.5 -140.5t-167.5 -61.5q-107 0 -169 52t-62 138q0 60 27 105.5
t102 109.5q27 23 37 45.5t10 55.5h126z" />
    <glyph glyph-name="Agrave" unicode="&#xc0;" horiz-adv-x="702" 
d="M314 754l-124 158h153l68 -158h-97zM5 0l283 700h126l283 -700h-141l-70 183h-270l-70 -183h-141zM261 301h180l-64 168q-13 34 -26 76l-26 -76z" />
    <glyph glyph-name="Aacute" unicode="&#xc1;" horiz-adv-x="702" 
d="M291 754l68 158h153l-124 -158h-97zM5 0l283 700h126l283 -700h-141l-70 183h-270l-70 -183h-141zM261 301h180l-64 168q-13 34 -26 76l-26 -76z" />
    <glyph glyph-name="Acircumflex" unicode="&#xc2;" horiz-adv-x="702" 
d="M193 754l113 157h90l113 -157h-99l-59 60l-59 -60h-99zM5 0l283 700h126l283 -700h-141l-70 183h-270l-70 -183h-141zM261 301h180l-64 168q-13 34 -26 76l-26 -76z" />
    <glyph glyph-name="Atilde" unicode="&#xc3;" horiz-adv-x="702" 
d="M430 754q-31 0 -56 10.5t-38 22.5t-28.5 22.5t-29.5 10.5q-10 0 -16.5 -6t-6.5 -16q0 -12 7 -26l-74 -15q-14 21 -14 53q0 43 30 67t68 24q32 0 56.5 -10.5t37.5 -22.5t28 -22.5t30 -10.5q10 0 16.5 6t6.5 16q0 12 -7 26l74 15q14 -21 14 -53q0 -43 -30 -67t-68 -24zM5 0
l283 700h126l283 -700h-141l-70 183h-270l-70 -183h-141zM261 301h180l-64 168q-13 34 -26 76l-26 -76z" />
    <glyph glyph-name="Adieresis" unicode="&#xc4;" horiz-adv-x="702" 
d="M202 780v124h118v-124h-118zM382 780v124h118v-124h-118zM5 0l283 700h126l283 -700h-141l-70 183h-270l-70 -183h-141zM261 301h180l-64 168q-13 34 -26 76l-26 -76z" />
    <glyph glyph-name="Aring" unicode="&#xc5;" horiz-adv-x="702" 
d="M352 744q-40 0 -68 27.5t-28 67.5t28 67.5t68 27.5t68 -27.5t28 -67.5t-28 -67.5t-68 -27.5zM352 805q15 0 24 9t9 25t-9 25t-24 9t-24 -9t-9 -25t9 -25t24 -9zM5 0l283 700h126l283 -700h-141l-70 183h-270l-70 -183h-141zM261 301h180l-64 168q-13 34 -26 76l-26 -76z
" />
    <glyph glyph-name="AE" unicode="&#xc6;" horiz-adv-x="985" 
d="M443 183h-219l-81 -183h-138l320 700h601v-118h-351v-161h323v-118h-323v-185h354v-118h-486v183zM276 301h167v281h-42z" />
    <glyph glyph-name="Ccedilla" unicode="&#xc7;" horiz-adv-x="768" 
d="M404 -14q-14 0 -21 1l-16 -27q17 9 40 9q35 0 56.5 -21.5t21.5 -56.5q0 -38 -27.5 -60t-67.5 -22q-78 0 -94 61l66 17q4 -22 28 -22q25 0 25 25q0 29 -28 29q-24 0 -45 -18l-37 33l21 59q-126 25 -203 121t-77 236q0 161 103.5 262.5t259.5 101.5q104 0 183 -48t119 -123
l-111 -67q-69 116 -195 116q-95 0 -160 -66.5t-65 -175.5q0 -106 65 -174t160 -68q126 0 204 112l111 -63q-62 -90 -133.5 -130.5t-182.5 -40.5z" />
    <glyph glyph-name="Egrave" unicode="&#xc8;" horiz-adv-x="609" 
d="M280 754l-124 158h153l68 -158h-97zM67 700h483v-118h-351v-161h323v-118h-323v-185h354v-118h-486v700z" />
    <glyph glyph-name="Eacute" unicode="&#xc9;" horiz-adv-x="609" 
d="M257 754l68 158h153l-124 -158h-97zM67 700h483v-118h-351v-161h323v-118h-323v-185h354v-118h-486v700z" />
    <glyph glyph-name="Ecircumflex" unicode="&#xca;" horiz-adv-x="609" 
d="M159 754l113 157h90l113 -157h-99l-59 60l-59 -60h-99zM67 700h483v-118h-351v-161h323v-118h-323v-185h354v-118h-486v700z" />
    <glyph glyph-name="Edieresis" unicode="&#xcb;" horiz-adv-x="609" 
d="M168 780v124h118v-124h-118zM348 780v124h118v-124h-118zM67 700h483v-118h-351v-161h323v-118h-323v-185h354v-118h-486v700z" />
    <glyph glyph-name="Igrave" unicode="&#xcc;" horiz-adv-x="266" 
d="M96 754l-124 158h153l68 -158h-97zM67 700h132v-700h-132v700z" />
    <glyph glyph-name="Iacute" unicode="&#xcd;" horiz-adv-x="266" 
d="M73 754l68 158h153l-124 -158h-97zM67 700h132v-700h-132v700z" />
    <glyph glyph-name="Icircumflex" unicode="&#xce;" horiz-adv-x="266" 
d="M-25 754l113 157h90l113 -157h-99l-59 60l-59 -60h-99zM67 700h132v-700h-132v700z" />
    <glyph glyph-name="Idieresis" unicode="&#xcf;" horiz-adv-x="266" 
d="M-16 780v124h118v-124h-118zM164 780v124h118v-124h-118zM67 700h132v-700h-132v700z" />
    <glyph glyph-name="Eth" unicode="&#xd0;" horiz-adv-x="749" 
d="M33 405h78v295h211q171 0 276 -90t105 -260t-105 -260t-276 -90h-211v295h-78v110zM331 122q110 0 174 58.5t64 169.5t-64 169.5t-174 58.5h-88v-173h155v-110h-155v-173h88z" />
    <glyph glyph-name="Ntilde" unicode="&#xd1;" horiz-adv-x="718" 
d="M438 754q-32 0 -56.5 10.5t-37.5 22.5t-28.5 22.5t-29.5 10.5q-10 0 -16.5 -6t-6.5 -16q0 -12 7 -26l-74 -15q-14 21 -14 53q0 43 30 67t68 24q32 0 56.5 -10.5t37.5 -22.5t28.5 -22.5t29.5 -10.5q10 0 16.5 6t6.5 16q0 12 -7 26l74 15q14 -21 14 -53q0 -43 -30 -67
t-68 -24zM67 700h134l292 -445q24 -40 30 -55v500h128v-700h-134l-292 448q-24 40 -30 55v-503h-128v700z" />
    <glyph glyph-name="Ograve" unicode="&#xd2;" horiz-adv-x="812" 
d="M369 754l-124 158h153l68 -158h-97zM766 350q0 -157 -102.5 -260.5t-257.5 -103.5t-257.5 103.5t-102.5 260.5t102.5 260.5t257.5 103.5t257.5 -103.5t102.5 -260.5zM406 108q98 0 162 65.5t64 176.5t-64 176.5t-162 65.5t-162 -65.5t-64 -176.5t64 -176.5t162 -65.5z
" />
    <glyph glyph-name="Oacute" unicode="&#xd3;" horiz-adv-x="812" 
d="M346 754l68 158h153l-124 -158h-97zM766 350q0 -157 -102.5 -260.5t-257.5 -103.5t-257.5 103.5t-102.5 260.5t102.5 260.5t257.5 103.5t257.5 -103.5t102.5 -260.5zM406 108q98 0 162 65.5t64 176.5t-64 176.5t-162 65.5t-162 -65.5t-64 -176.5t64 -176.5t162 -65.5z
" />
    <glyph glyph-name="Ocircumflex" unicode="&#xd4;" horiz-adv-x="812" 
d="M248 754l113 157h90l113 -157h-99l-59 60l-59 -60h-99zM766 350q0 -157 -102.5 -260.5t-257.5 -103.5t-257.5 103.5t-102.5 260.5t102.5 260.5t257.5 103.5t257.5 -103.5t102.5 -260.5zM406 108q98 0 162 65.5t64 176.5t-64 176.5t-162 65.5t-162 -65.5t-64 -176.5
t64 -176.5t162 -65.5z" />
    <glyph glyph-name="Otilde" unicode="&#xd5;" horiz-adv-x="812" 
d="M485 754q-31 0 -56 10.5t-38 22.5t-28 22.5t-30 10.5q-10 0 -16.5 -6t-6.5 -16q0 -12 7 -26l-74 -15q-14 21 -14 53q0 43 30 67t68 24q31 0 56 -10.5t38 -22.5t28 -22.5t30 -10.5q10 0 16.5 6t6.5 16q0 12 -7 26l74 15q14 -21 14 -53q0 -43 -30 -67t-68 -24zM766 350
q0 -157 -102.5 -260.5t-257.5 -103.5t-257.5 103.5t-102.5 260.5t102.5 260.5t257.5 103.5t257.5 -103.5t102.5 -260.5zM406 108q98 0 162 65.5t64 176.5t-64 176.5t-162 65.5t-162 -65.5t-64 -176.5t64 -176.5t162 -65.5z" />
    <glyph glyph-name="Odieresis" unicode="&#xd6;" horiz-adv-x="812" 
d="M257 780v124h118v-124h-118zM437 780v124h118v-124h-118zM766 350q0 -157 -102.5 -260.5t-257.5 -103.5t-257.5 103.5t-102.5 260.5t102.5 260.5t257.5 103.5t257.5 -103.5t102.5 -260.5zM406 108q98 0 162 65.5t64 176.5t-64 176.5t-162 65.5t-162 -65.5t-64 -176.5
t64 -176.5t162 -65.5z" />
    <glyph glyph-name="multiply" unicode="&#xd7;" horiz-adv-x="556" 
d="M143 158l-72 72l135 135l-135 135l72 72l135 -135l135 135l72 -72l-135 -135l135 -135l-72 -72l-135 135z" />
    <glyph glyph-name="Oslash" unicode="&#xd8;" horiz-adv-x="812" 
d="M624 644q67 -49 104.5 -125.5t37.5 -168.5q0 -157 -102.5 -260.5t-257.5 -103.5q-62 0 -118 18l-35 -66l-98 56l33 62q-67 49 -104.5 125.5t-37.5 168.5q0 157 102.5 260.5t257.5 103.5q63 0 118 -18l35 66l98 -56zM180 350q0 -112 68 -180l218 415q-27 7 -60 7
q-98 0 -162 -65.5t-64 -176.5zM406 108q98 0 162 65.5t64 176.5q0 112 -68 180l-218 -415q27 -7 60 -7z" />
    <glyph glyph-name="Ugrave" unicode="&#xd9;" horiz-adv-x="700" 
d="M313 754l-124 158h153l68 -158h-97zM637 265q0 -131 -80 -205t-207 -74t-207 74t-80 205v435h132v-422q0 -81 41.5 -125.5t113.5 -44.5t113.5 44.5t41.5 125.5v422h132v-435z" />
    <glyph glyph-name="Uacute" unicode="&#xda;" horiz-adv-x="700" 
d="M290 754l68 158h153l-124 -158h-97zM637 265q0 -131 -80 -205t-207 -74t-207 74t-80 205v435h132v-422q0 -81 41.5 -125.5t113.5 -44.5t113.5 44.5t41.5 125.5v422h132v-435z" />
    <glyph glyph-name="Ucircumflex" unicode="&#xdb;" horiz-adv-x="700" 
d="M192 754l113 157h90l113 -157h-99l-59 60l-59 -60h-99zM637 265q0 -131 -80 -205t-207 -74t-207 74t-80 205v435h132v-422q0 -81 41.5 -125.5t113.5 -44.5t113.5 44.5t41.5 125.5v422h132v-435z" />
    <glyph glyph-name="Udieresis" unicode="&#xdc;" horiz-adv-x="700" 
d="M201 780v124h118v-124h-118zM381 780v124h118v-124h-118zM637 265q0 -131 -80 -205t-207 -74t-207 74t-80 205v435h132v-422q0 -81 41.5 -125.5t113.5 -44.5t113.5 44.5t41.5 125.5v422h132v-435z" />
    <glyph glyph-name="Yacute" unicode="&#xdd;" horiz-adv-x="602" 
d="M241 754l68 158h153l-124 -158h-97zM235 0v274l-231 426h145l130 -249q13 -27 22 -51l22 51l130 249h145l-231 -426v-274h-132z" />
    <glyph glyph-name="Thorn" unicode="&#xde;" horiz-adv-x="698" 
d="M73 700h132v-122h186q121 0 191.5 -59.5t70.5 -168.5t-70.5 -168.5t-191.5 -59.5h-186v-122h-132v700zM205 240h182q67 0 100.5 29.5t33.5 80.5t-33.5 80.5t-100.5 29.5h-182v-220z" />
    <glyph glyph-name="germandbls" unicode="&#xdf;" horiz-adv-x="602" 
d="M366 -14q-88 0 -145 45l55 98q33 -33 77 -33q34 0 58 24t24 70q0 62 -45.5 99t-112.5 37h-31v110h35q47 0 76 24.5t29 67.5q0 35 -23.5 55.5t-64.5 20.5q-40 0 -67.5 -27.5t-27.5 -79.5v-497h-126v394h-56v102h56v7q0 101 65 156t159 55q95 0 151.5 -46t56.5 -120
q0 -107 -101 -156q153 -59 153 -209q0 -88 -54 -142.5t-141 -54.5z" />
    <glyph glyph-name="agrave" unicode="&#xe0;" horiz-adv-x="550" 
d="M248 550l-124 158h153l68 -158h-97zM386 0q-10 40 -10 79q-52 -93 -166 -93q-74 0 -120.5 42.5t-46.5 112.5q0 136 177 161l149 20v25q0 75 -93 75q-40 0 -63.5 -16t-23.5 -40q0 -10 1 -14l-119 -13q-2 9 -2 26q0 60 56.5 102.5t150.5 42.5q106 0 162.5 -45t56.5 -135
v-207q0 -74 16 -123h-125zM237 88q58 0 95 34.5t37 103.5v9l-120 -17q-83 -12 -83 -70q0 -29 20 -44.5t51 -15.5z" />
    <glyph glyph-name="aacute" unicode="&#xe1;" horiz-adv-x="550" 
d="M217 550l68 158h153l-124 -158h-97zM386 0q-10 40 -10 79q-52 -93 -166 -93q-74 0 -120.5 42.5t-46.5 112.5q0 136 177 161l149 20v25q0 75 -93 75q-40 0 -63.5 -16t-23.5 -40q0 -10 1 -14l-119 -13q-2 9 -2 26q0 60 56.5 102.5t150.5 42.5q106 0 162.5 -45t56.5 -135
v-207q0 -74 16 -123h-125zM237 88q58 0 95 34.5t37 103.5v9l-120 -17q-83 -12 -83 -70q0 -29 20 -44.5t51 -15.5z" />
    <glyph glyph-name="acircumflex" unicode="&#xe2;" horiz-adv-x="550" 
d="M120 550l113 157h90l113 -157h-99l-59 60l-59 -60h-99zM386 0q-10 40 -10 79q-52 -93 -166 -93q-74 0 -120.5 42.5t-46.5 112.5q0 136 177 161l149 20v25q0 75 -93 75q-40 0 -63.5 -16t-23.5 -40q0 -10 1 -14l-119 -13q-2 9 -2 26q0 60 56.5 102.5t150.5 42.5
q106 0 162.5 -45t56.5 -135v-207q0 -74 16 -123h-125zM237 88q58 0 95 34.5t37 103.5v9l-120 -17q-83 -12 -83 -70q0 -29 20 -44.5t51 -15.5z" />
    <glyph glyph-name="atilde" unicode="&#xe3;" horiz-adv-x="550" 
d="M357 550q-31 0 -56 10.5t-38 22.5t-28 22.5t-30 10.5q-10 0 -16.5 -6t-6.5 -16q0 -12 7 -26l-74 -15q-14 21 -14 53q0 43 30 67t68 24q31 0 56 -10.5t38 -22.5t28 -22.5t30 -10.5q10 0 16.5 6t6.5 16q0 12 -7 26l74 15q14 -21 14 -53q0 -43 -30 -67t-68 -24zM386 0
q-10 40 -10 79q-52 -93 -166 -93q-74 0 -120.5 42.5t-46.5 112.5q0 136 177 161l149 20v25q0 75 -93 75q-40 0 -63.5 -16t-23.5 -40q0 -10 1 -14l-119 -13q-2 9 -2 26q0 60 56.5 102.5t150.5 42.5q106 0 162.5 -45t56.5 -135v-207q0 -74 16 -123h-125zM237 88q58 0 95 34.5
t37 103.5v9l-120 -17q-83 -12 -83 -70q0 -29 20 -44.5t51 -15.5z" />
    <glyph glyph-name="adieresis" unicode="&#xe4;" horiz-adv-x="550" 
d="M129 576v124h118v-124h-118zM309 576v124h118v-124h-118zM386 0q-10 40 -10 79q-52 -93 -166 -93q-74 0 -120.5 42.5t-46.5 112.5q0 136 177 161l149 20v25q0 75 -93 75q-40 0 -63.5 -16t-23.5 -40q0 -10 1 -14l-119 -13q-2 9 -2 26q0 60 56.5 102.5t150.5 42.5
q106 0 162.5 -45t56.5 -135v-207q0 -74 16 -123h-125zM237 88q58 0 95 34.5t37 103.5v9l-120 -17q-83 -12 -83 -70q0 -29 20 -44.5t51 -15.5z" />
    <glyph glyph-name="aring" unicode="&#xe5;" horiz-adv-x="550" 
d="M279 540q-40 0 -68 27.5t-28 67.5t28 67.5t68 27.5t68 -27.5t28 -67.5t-28 -67.5t-68 -27.5zM279 601q15 0 24 9t9 25t-9 25t-24 9t-24 -9t-9 -25t9 -25t24 -9zM386 0q-10 40 -10 79q-52 -93 -166 -93q-74 0 -120.5 42.5t-46.5 112.5q0 136 177 161l149 20v25
q0 75 -93 75q-40 0 -63.5 -16t-23.5 -40q0 -10 1 -14l-119 -13q-2 9 -2 26q0 60 56.5 102.5t150.5 42.5q106 0 162.5 -45t56.5 -135v-207q0 -74 16 -123h-125zM237 88q58 0 95 34.5t37 103.5v9l-120 -17q-83 -12 -83 -70q0 -29 20 -44.5t51 -15.5z" />
    <glyph glyph-name="ae" unicode="&#xe6;" horiz-adv-x="915" 
d="M227 -14q-82 0 -133 42.5t-51 112.5q0 78 61.5 123.5t168.5 45.5h97v13q0 51 -19 75t-72 24q-43 0 -66 -16t-23 -40q0 -6 2 -12l-113 -38q-9 20 -9 42q0 61 54 106.5t144 45.5q131 0 185 -71q74 71 183 71q106 0 174 -69.5t68 -178.5v-44h-382q6 -57 43 -90.5t93 -33.5
q92 0 137 91l94 -54q-70 -145 -233 -145q-65 0 -120.5 30t-90.5 83q-28 -57 -80.5 -85t-111.5 -28zM496 310h266q-9 49 -43 76.5t-87 27.5q-49 0 -85.5 -29.5t-50.5 -74.5zM239 88q55 0 93 34.5t38 90.5v5h-105q-47 0 -73 -20.5t-26 -51.5q0 -27 20 -42.5t53 -15.5z" />
    <glyph glyph-name="ccedilla" unicode="&#xe7;" horiz-adv-x="541" 
d="M293 -14h-6l-23 -39q16 9 40 9q34 0 56 -22t22 -56q0 -38 -27.5 -60t-67.5 -22q-78 0 -94 61l66 17q4 -22 28 -22q25 0 25 25q0 29 -28 29q-24 0 -45 -18l-37 33l25 72q-87 21 -141 89t-54 166q0 116 76 189t185 73q80 0 137.5 -32.5t84.5 -91.5l-108 -62q-45 68 -115 68
q-57 0 -94.5 -39.5t-37.5 -104.5q0 -66 37 -105t95 -39q43 0 70.5 18t53.5 54l104 -57q-78 -133 -227 -133z" />
    <glyph glyph-name="egrave" unicode="&#xe8;" horiz-adv-x="565" 
d="M263 550l-124 158h153l68 -158h-97zM153 218q6 -57 43 -90.5t93 -33.5q46 0 72 16.5t54 51.5l100 -50q-38 -65 -92.5 -95.5t-135.5 -30.5q-106 0 -180.5 73.5t-74.5 188.5q0 116 75.5 189t185.5 73q106 0 174 -69.5t68 -178.5v-44h-382zM289 414q-48 0 -84 -28t-50 -72
h263q-9 47 -43 73.5t-86 26.5z" />
    <glyph glyph-name="eacute" unicode="&#xe9;" horiz-adv-x="565" 
d="M232 550l68 158h153l-124 -158h-97zM153 218q6 -57 43 -90.5t93 -33.5q46 0 72 16.5t54 51.5l100 -50q-38 -65 -92.5 -95.5t-135.5 -30.5q-106 0 -180.5 73.5t-74.5 188.5q0 116 75.5 189t185.5 73q106 0 174 -69.5t68 -178.5v-44h-382zM289 414q-48 0 -84 -28t-50 -72
h263q-9 47 -43 73.5t-86 26.5z" />
    <glyph glyph-name="ecircumflex" unicode="&#xea;" horiz-adv-x="565" 
d="M135 550l113 157h90l113 -157h-99l-59 60l-59 -60h-99zM153 218q6 -57 43 -90.5t93 -33.5q46 0 72 16.5t54 51.5l100 -50q-38 -65 -92.5 -95.5t-135.5 -30.5q-106 0 -180.5 73.5t-74.5 188.5q0 116 75.5 189t185.5 73q106 0 174 -69.5t68 -178.5v-44h-382zM289 414
q-48 0 -84 -28t-50 -72h263q-9 47 -43 73.5t-86 26.5z" />
    <glyph glyph-name="edieresis" unicode="&#xeb;" horiz-adv-x="565" 
d="M144 576v124h118v-124h-118zM324 576v124h118v-124h-118zM153 218q6 -57 43 -90.5t93 -33.5q46 0 72 16.5t54 51.5l100 -50q-38 -65 -92.5 -95.5t-135.5 -30.5q-106 0 -180.5 73.5t-74.5 188.5q0 116 75.5 189t185.5 73q106 0 174 -69.5t68 -178.5v-44h-382zM289 414
q-48 0 -84 -28t-50 -72h263q-9 47 -43 73.5t-86 26.5z" />
    <glyph glyph-name="igrave" unicode="&#xec;" horiz-adv-x="250" 
d="M95 550l-124 158h153l68 -158h-97zM62 496h126v-496h-126v496z" />
    <glyph glyph-name="iacute" unicode="&#xed;" horiz-adv-x="250" 
d="M64 550l68 158h153l-124 -158h-97zM62 496h126v-496h-126v496z" />
    <glyph glyph-name="icircumflex" unicode="&#xee;" horiz-adv-x="250" 
d="M-33 550l113 157h90l113 -157h-99l-59 60l-59 -60h-99zM62 496h126v-496h-126v496z" />
    <glyph glyph-name="idieresis" unicode="&#xef;" horiz-adv-x="250" 
d="M-24 576v124h118v-124h-118zM156 576v124h118v-124h-118zM62 496h126v-496h-126v496z" />
    <glyph glyph-name="eth" unicode="&#xf0;" horiz-adv-x="590" 
d="M293 -14q-112 0 -182 67.5t-70 173.5q0 103 69.5 169t169.5 66q92 0 139 -53q-28 71 -88 127l-104 -40l-31 83l53 20q-52 34 -107 57l58 94q98 -44 171 -103l106 41l32 -83l-67 -26q107 -127 107 -296q0 -137 -67.5 -217t-188.5 -80zM296 92q54 0 92.5 36t38.5 96
t-38.5 96t-92.5 36t-92.5 -36t-38.5 -96t38.5 -96t92.5 -36z" />
    <glyph glyph-name="ntilde" unicode="&#xf1;" horiz-adv-x="584" 
d="M371 550q-31 0 -56 10.5t-38 22.5t-28 22.5t-30 10.5q-10 0 -16.5 -6t-6.5 -16q0 -12 7 -26l-74 -15q-14 21 -14 53q0 43 30 67t68 24q32 0 56.5 -10.5t37.5 -22.5t28 -22.5t30 -10.5q10 0 16.5 6t6.5 16q0 12 -7 26l74 15q14 -21 14 -53q0 -43 -30 -67t-68 -24zM526 0
h-126v286q0 106 -101 106q-50 0 -82.5 -39t-32.5 -101v-252h-126v496h126v-80q61 94 168 94q79 0 126.5 -47t47.5 -125v-338z" />
    <glyph glyph-name="ograve" unicode="&#xf2;" horiz-adv-x="606" 
d="M273 550l-124 158h153l68 -158h-97zM574 248q0 -123 -80.5 -192.5t-190.5 -69.5t-190.5 69.5t-80.5 192.5t80.5 192.5t190.5 69.5t190.5 -69.5t80.5 -192.5zM303 104q58 0 100.5 39.5t42.5 104.5t-42.5 104.5t-100.5 39.5t-100.5 -39.5t-42.5 -104.5t42.5 -104.5
t100.5 -39.5z" />
    <glyph glyph-name="oacute" unicode="&#xf3;" horiz-adv-x="606" 
d="M242 550l68 158h153l-124 -158h-97zM574 248q0 -123 -80.5 -192.5t-190.5 -69.5t-190.5 69.5t-80.5 192.5t80.5 192.5t190.5 69.5t190.5 -69.5t80.5 -192.5zM303 104q58 0 100.5 39.5t42.5 104.5t-42.5 104.5t-100.5 39.5t-100.5 -39.5t-42.5 -104.5t42.5 -104.5
t100.5 -39.5z" />
    <glyph glyph-name="ocircumflex" unicode="&#xf4;" horiz-adv-x="606" 
d="M145 550l113 157h90l113 -157h-99l-59 60l-59 -60h-99zM574 248q0 -123 -80.5 -192.5t-190.5 -69.5t-190.5 69.5t-80.5 192.5t80.5 192.5t190.5 69.5t190.5 -69.5t80.5 -192.5zM303 104q58 0 100.5 39.5t42.5 104.5t-42.5 104.5t-100.5 39.5t-100.5 -39.5t-42.5 -104.5
t42.5 -104.5t100.5 -39.5z" />
    <glyph glyph-name="otilde" unicode="&#xf5;" horiz-adv-x="606" 
d="M382 550q-32 0 -56.5 10.5t-37.5 22.5t-28.5 22.5t-29.5 10.5q-10 0 -16.5 -6t-6.5 -16q0 -12 7 -26l-74 -15q-14 21 -14 53q0 43 30 67t68 24q32 0 56.5 -10.5t37.5 -22.5t28.5 -22.5t29.5 -10.5q10 0 16.5 6t6.5 16q0 12 -7 26l74 15q14 -21 14 -53q0 -43 -30 -67
t-68 -24zM574 248q0 -123 -80.5 -192.5t-190.5 -69.5t-190.5 69.5t-80.5 192.5t80.5 192.5t190.5 69.5t190.5 -69.5t80.5 -192.5zM303 104q58 0 100.5 39.5t42.5 104.5t-42.5 104.5t-100.5 39.5t-100.5 -39.5t-42.5 -104.5t42.5 -104.5t100.5 -39.5z" />
    <glyph glyph-name="odieresis" unicode="&#xf6;" horiz-adv-x="606" 
d="M154 576v124h118v-124h-118zM334 576v124h118v-124h-118zM574 248q0 -123 -80.5 -192.5t-190.5 -69.5t-190.5 69.5t-80.5 192.5t80.5 192.5t190.5 69.5t190.5 -69.5t80.5 -192.5zM303 104q58 0 100.5 39.5t42.5 104.5t-42.5 104.5t-100.5 39.5t-100.5 -39.5t-42.5 -104.5
t42.5 -104.5t100.5 -39.5z" />
    <glyph glyph-name="divide" unicode="&#xf7;" horiz-adv-x="575" 
d="M220 350v134h134v-134h-134zM45 191v102h484v-102h-484zM220 0v134h134v-134h-134z" />
    <glyph glyph-name="oslash" unicode="&#xf8;" horiz-adv-x="606" 
d="M480 452q94 -72 94 -204q0 -123 -80.5 -192.5t-190.5 -69.5q-48 0 -90 13l-24 -41l-83 51l20 35q-94 72 -94 204q0 123 80.5 192.5t190.5 69.5q48 0 90 -13l24 41l83 -51zM160 248q0 -56 32 -93l138 235q-18 2 -27 2q-58 0 -100.5 -39.5t-42.5 -104.5zM303 104
q58 0 100.5 39.5t42.5 104.5q0 56 -32 93l-138 -235q18 -2 27 -2z" />
    <glyph glyph-name="ugrave" unicode="&#xf9;" horiz-adv-x="589" 
d="M267 550l-124 158h153l68 -158h-97zM63 496h126v-279q0 -113 101 -113q52 0 83.5 38t31.5 98v256h126v-496h-126v78q-50 -92 -158 -92q-81 0 -132.5 53t-51.5 149v308z" />
    <glyph glyph-name="uacute" unicode="&#xfa;" horiz-adv-x="589" 
d="M236 550l68 158h153l-124 -158h-97zM63 496h126v-279q0 -113 101 -113q52 0 83.5 38t31.5 98v256h126v-496h-126v78q-50 -92 -158 -92q-81 0 -132.5 53t-51.5 149v308z" />
    <glyph glyph-name="ucircumflex" unicode="&#xfb;" horiz-adv-x="589" 
d="M139 550l113 157h90l113 -157h-99l-59 60l-59 -60h-99zM63 496h126v-279q0 -113 101 -113q52 0 83.5 38t31.5 98v256h126v-496h-126v78q-50 -92 -158 -92q-81 0 -132.5 53t-51.5 149v308z" />
    <glyph glyph-name="udieresis" unicode="&#xfc;" horiz-adv-x="589" 
d="M148 576v124h118v-124h-118zM328 576v124h118v-124h-118zM63 496h126v-279q0 -113 101 -113q52 0 83.5 38t31.5 98v256h126v-496h-126v78q-50 -92 -158 -92q-81 0 -132.5 53t-51.5 149v308z" />
    <glyph glyph-name="yacute" unicode="&#xfd;" horiz-adv-x="546" 
d="M212 550l68 158h153l-124 -158h-97zM92 -83q22 -12 45 -12q39 0 56 47l16 44l-204 500h143l128 -322l122 322h143l-236 -586q-26 -64 -65.5 -92.5t-98.5 -28.5q-41 0 -69 11z" />
    <glyph glyph-name="thorn" unicode="&#xfe;" horiz-adv-x="621" 
d="M63 700h126v-275q26 37 73 61t102 24q94 0 159.5 -71.5t65.5 -190.5q0 -117 -68 -189.5t-169 -72.5q-103 0 -163 75v-265h-126v904zM321 392q-60 0 -100 -41.5t-40 -102.5t40 -102.5t100 -41.5t100 41.5t40 102.5t-40 102.5t-100 41.5z" />
    <glyph glyph-name="ydieresis" unicode="&#xff;" horiz-adv-x="546" 
d="M124 576v124h118v-124h-118zM304 576v124h118v-124h-118zM92 -83q22 -12 45 -12q39 0 56 47l16 44l-204 500h143l128 -322l122 322h143l-236 -586q-26 -64 -65.5 -92.5t-98.5 -28.5q-41 0 -69 11z" />
    <glyph glyph-name="Amacron" unicode="&#x100;" horiz-adv-x="702" 
d="M227 792v94h248v-94h-248zM5 0l283 700h126l283 -700h-141l-70 183h-270l-70 -183h-141zM261 301h180l-64 168q-13 34 -26 76l-26 -76z" />
    <glyph glyph-name="amacron" unicode="&#x101;" horiz-adv-x="550" 
d="M154 588v94h248v-94h-248zM386 0q-10 40 -10 79q-52 -93 -166 -93q-74 0 -120.5 42.5t-46.5 112.5q0 136 177 161l149 20v25q0 75 -93 75q-40 0 -63.5 -16t-23.5 -40q0 -10 1 -14l-119 -13q-2 9 -2 26q0 60 56.5 102.5t150.5 42.5q106 0 162.5 -45t56.5 -135v-207
q0 -74 16 -123h-125zM237 88q58 0 95 34.5t37 103.5v9l-120 -17q-83 -12 -83 -70q0 -29 20 -44.5t51 -15.5z" />
    <glyph glyph-name="Abreve" unicode="&#x102;" horiz-adv-x="702" 
d="M351 768q-51 0 -82.5 32t-31.5 81h76q0 -19 10 -31t28 -12t28 12t10 31h76q0 -49 -31.5 -81t-82.5 -32zM5 0l283 700h126l283 -700h-141l-70 183h-270l-70 -183h-141zM261 301h180l-64 168q-13 34 -26 76l-26 -76z" />
    <glyph glyph-name="abreve" unicode="&#x103;" horiz-adv-x="550" 
d="M278 564q-51 0 -82.5 32t-31.5 81h76q0 -19 10 -31t28 -12t28 12t10 31h76q0 -49 -31.5 -81t-82.5 -32zM386 0q-10 40 -10 79q-52 -93 -166 -93q-74 0 -120.5 42.5t-46.5 112.5q0 136 177 161l149 20v25q0 75 -93 75q-40 0 -63.5 -16t-23.5 -40q0 -10 1 -14l-119 -13
q-2 9 -2 26q0 60 56.5 102.5t150.5 42.5q106 0 162.5 -45t56.5 -135v-207q0 -74 16 -123h-125zM237 88q58 0 95 34.5t37 103.5v9l-120 -17q-83 -12 -83 -70q0 -29 20 -44.5t51 -15.5z" />
    <glyph glyph-name="Aogonek" unicode="&#x104;" horiz-adv-x="702" 
d="M688 -114l11 -77q-26 -7 -60 -7q-45 0 -79.5 25t-34.5 69q0 61 59 104h-28l-70 183h-270l-70 -183h-141l283 700h126l283 -700q-72 -40 -72 -78q0 -18 11.5 -28t29.5 -10q9 0 22 2zM261 301h180l-64 168q-13 34 -26 76l-26 -76z" />
    <glyph glyph-name="aogonek" unicode="&#x105;" horiz-adv-x="550" 
d="M502 -114l11 -77q-26 -7 -60 -7q-45 0 -79.5 25t-34.5 69q0 61 59 104h-12q-10 40 -10 79q-52 -93 -166 -93q-74 0 -120.5 42.5t-46.5 112.5q0 136 177 161l149 20v25q0 75 -93 75q-40 0 -63.5 -16t-23.5 -40q0 -10 1 -14l-119 -13q-2 9 -2 26q0 60 56.5 102.5
t150.5 42.5q106 0 162.5 -45t56.5 -135v-207q0 -74 16 -123q-72 -40 -72 -78q0 -18 11.5 -28t29.5 -10q9 0 22 2zM369 226v9l-120 -17q-83 -12 -83 -70q0 -29 20 -44.5t51 -15.5q58 0 95 34.5t37 103.5z" />
    <glyph glyph-name="Cacute" unicode="&#x106;" horiz-adv-x="768" 
d="M343 754l68 158h153l-124 -158h-97zM720 157q-62 -90 -133.5 -130.5t-182.5 -40.5q-156 0 -257 101t-101 263q0 161 103.5 262.5t259.5 101.5q104 0 183 -48t119 -123l-111 -67q-69 116 -195 116q-95 0 -160 -66.5t-65 -175.5q0 -106 65 -174t160 -68q126 0 204 112z" />
    <glyph glyph-name="cacute" unicode="&#x107;" horiz-adv-x="541" 
d="M232 550l68 158h153l-124 -158h-97zM520 119q-78 -133 -227 -133q-112 0 -186.5 72.5t-74.5 189.5q0 116 76 189t185 73q80 0 137.5 -32.5t84.5 -91.5l-108 -62q-45 68 -115 68q-57 0 -94.5 -39.5t-37.5 -104.5q0 -66 37 -105t95 -39q43 0 70.5 18t53.5 54z" />
    <glyph glyph-name="Ccircumflex" unicode="&#x108;" horiz-adv-x="768" 
d="M245 754l113 157h90l113 -157h-99l-59 60l-59 -60h-99zM720 157q-62 -90 -133.5 -130.5t-182.5 -40.5q-156 0 -257 101t-101 263q0 161 103.5 262.5t259.5 101.5q104 0 183 -48t119 -123l-111 -67q-69 116 -195 116q-95 0 -160 -66.5t-65 -175.5q0 -106 65 -174t160 -68
q126 0 204 112z" />
    <glyph glyph-name="ccircumflex" unicode="&#x109;" horiz-adv-x="541" 
d="M135 550l113 157h90l113 -157h-99l-59 60l-59 -60h-99zM520 119q-78 -133 -227 -133q-112 0 -186.5 72.5t-74.5 189.5q0 116 76 189t185 73q80 0 137.5 -32.5t84.5 -91.5l-108 -62q-45 68 -115 68q-57 0 -94.5 -39.5t-37.5 -104.5q0 -66 37 -105t95 -39q43 0 70.5 18
t53.5 54z" />
    <glyph glyph-name="Cdotaccent" unicode="&#x10a;" horiz-adv-x="768" 
d="M334 772v132h138v-132h-138zM720 157q-62 -90 -133.5 -130.5t-182.5 -40.5q-156 0 -257 101t-101 263q0 161 103.5 262.5t259.5 101.5q104 0 183 -48t119 -123l-111 -67q-69 116 -195 116q-95 0 -160 -66.5t-65 -175.5q0 -106 65 -174t160 -68q126 0 204 112z" />
    <glyph glyph-name="cdotaccent" unicode="&#x10b;" horiz-adv-x="541" 
d="M224 568v132h138v-132h-138zM520 119q-78 -133 -227 -133q-112 0 -186.5 72.5t-74.5 189.5q0 116 76 189t185 73q80 0 137.5 -32.5t84.5 -91.5l-108 -62q-45 68 -115 68q-57 0 -94.5 -39.5t-37.5 -104.5q0 -66 37 -105t95 -39q43 0 70.5 18t53.5 54z" />
    <glyph glyph-name="Ccaron" unicode="&#x10c;" horiz-adv-x="768" 
d="M358 754l-113 157h99l59 -60l59 60h99l-113 -157h-90zM720 157q-62 -90 -133.5 -130.5t-182.5 -40.5q-156 0 -257 101t-101 263q0 161 103.5 262.5t259.5 101.5q104 0 183 -48t119 -123l-111 -67q-69 116 -195 116q-95 0 -160 -66.5t-65 -175.5q0 -106 65 -174t160 -68
q126 0 204 112z" />
    <glyph glyph-name="ccaron" unicode="&#x10d;" horiz-adv-x="541" 
d="M248 550l-113 157h99l59 -60l59 60h99l-113 -157h-90zM520 119q-78 -133 -227 -133q-112 0 -186.5 72.5t-74.5 189.5q0 116 76 189t185 73q80 0 137.5 -32.5t84.5 -91.5l-108 -62q-45 68 -115 68q-57 0 -94.5 -39.5t-37.5 -104.5q0 -66 37 -105t95 -39q43 0 70.5 18
t53.5 54z" />
    <glyph glyph-name="Dcaron" unicode="&#x10e;" horiz-adv-x="705" 
d="M215 754l-113 157h99l59 -60l59 60h99l-113 -157h-90zM67 700h211q171 0 276 -90t105 -260t-105 -260t-276 -90h-211v700zM287 122q110 0 174 58.5t64 169.5t-64 169.5t-174 58.5h-88v-456h88z" />
    <glyph glyph-name="dcaron" unicode="&#x10f;" horiz-adv-x="730" 
d="M558 0h-126v70q-21 -37 -61.5 -60.5t-94.5 -23.5q-105 0 -174.5 71t-69.5 191q0 118 73.5 190t170.5 72q110 0 156 -75v265h126v-700zM656 484l-26 15l39 95h-45v106h106v-108zM300 104q60 0 100 40.5t40 103.5t-40 103.5t-100 40.5t-100 -40.5t-40 -103.5t40 -103.5
t100 -40.5z" />
    <glyph glyph-name="Dcroat" unicode="&#x110;" horiz-adv-x="749" 
d="M33 405h78v295h211q171 0 276 -90t105 -260t-105 -260t-276 -90h-211v295h-78v110zM331 122q110 0 174 58.5t64 169.5t-64 169.5t-174 58.5h-88v-173h155v-110h-155v-173h88z" />
    <glyph glyph-name="dcroat" unicode="&#x111;" horiz-adv-x="616" 
d="M612 648v-96h-54v-552h-126v70q-21 -37 -61.5 -60.5t-94.5 -23.5q-105 0 -174.5 71t-69.5 191q0 118 73.5 190t170.5 72q110 0 156 -75v117h-168v96h168v52h126v-52h54zM300 104q60 0 100 40.5t40 103.5t-40 103.5t-100 40.5t-100 -40.5t-40 -103.5t40 -103.5t100 -40.5z
" />
    <glyph glyph-name="Emacron" unicode="&#x112;" horiz-adv-x="609" 
d="M193 792v94h248v-94h-248zM67 700h483v-118h-351v-161h323v-118h-323v-185h354v-118h-486v700z" />
    <glyph glyph-name="emacron" unicode="&#x113;" horiz-adv-x="565" 
d="M169 588v94h248v-94h-248zM153 218q6 -57 43 -90.5t93 -33.5q46 0 72 16.5t54 51.5l100 -50q-38 -65 -92.5 -95.5t-135.5 -30.5q-106 0 -180.5 73.5t-74.5 188.5q0 116 75.5 189t185.5 73q106 0 174 -69.5t68 -178.5v-44h-382zM289 414q-48 0 -84 -28t-50 -72h263
q-9 47 -43 73.5t-86 26.5z" />
    <glyph glyph-name="Ebreve" unicode="&#x114;" horiz-adv-x="609" 
d="M317 768q-51 0 -82.5 32t-31.5 81h76q0 -19 10 -31t28 -12t28 12t10 31h76q0 -49 -31.5 -81t-82.5 -32zM67 700h483v-118h-351v-161h323v-118h-323v-185h354v-118h-486v700z" />
    <glyph glyph-name="ebreve" unicode="&#x115;" horiz-adv-x="565" 
d="M293 564q-51 0 -82.5 32t-31.5 81h76q0 -19 10 -31t28 -12t28 12t10 31h76q0 -49 -31.5 -81t-82.5 -32zM153 218q6 -57 43 -90.5t93 -33.5q46 0 72 16.5t54 51.5l100 -50q-38 -65 -92.5 -95.5t-135.5 -30.5q-106 0 -180.5 73.5t-74.5 188.5q0 116 75.5 189t185.5 73
q106 0 174 -69.5t68 -178.5v-44h-382zM289 414q-48 0 -84 -28t-50 -72h263q-9 47 -43 73.5t-86 26.5z" />
    <glyph glyph-name="Edotaccent" unicode="&#x116;" horiz-adv-x="609" 
d="M248 772v132h138v-132h-138zM67 700h483v-118h-351v-161h323v-118h-323v-185h354v-118h-486v700z" />
    <glyph glyph-name="edotaccent" unicode="&#x117;" horiz-adv-x="565" 
d="M224 568v132h138v-132h-138zM153 218q6 -57 43 -90.5t93 -33.5q46 0 72 16.5t54 51.5l100 -50q-38 -65 -92.5 -95.5t-135.5 -30.5q-106 0 -180.5 73.5t-74.5 188.5q0 116 75.5 189t185.5 73q106 0 174 -69.5t68 -178.5v-44h-382zM289 414q-48 0 -84 -28t-50 -72h263
q-9 47 -43 73.5t-86 26.5z" />
    <glyph glyph-name="Eogonek" unicode="&#x118;" horiz-adv-x="609" 
d="M544 -114l11 -77q-26 -7 -60 -7q-45 0 -79.5 25t-34.5 69q0 61 59 104h-373v700h483v-118h-351v-161h323v-118h-323v-185h354v-118q-72 -40 -72 -78q0 -18 11.5 -28t29.5 -10q9 0 22 2z" />
    <glyph glyph-name="eogonek" unicode="&#x119;" horiz-adv-x="565" 
d="M535 262v-44h-382q6 -57 43 -90.5t93 -33.5q46 0 72 16.5t54 51.5l100 -50q-53 -90 -138 -114q-68 -39 -68 -76q0 -18 11.5 -28t29.5 -10q9 0 22 2l11 -77q-26 -7 -60 -7q-45 0 -79.5 25t-34.5 69q0 52 45 92q-95 12 -158.5 83.5t-63.5 176.5q0 116 75.5 189t185.5 73
q106 0 174 -69.5t68 -178.5zM155 314h263q-9 47 -43 73.5t-86 26.5q-48 0 -84 -28t-50 -72z" />
    <glyph glyph-name="Ecaron" unicode="&#x11a;" horiz-adv-x="609" 
d="M272 754l-113 157h99l59 -60l59 60h99l-113 -157h-90zM67 700h483v-118h-351v-161h323v-118h-323v-185h354v-118h-486v700z" />
    <glyph glyph-name="ecaron" unicode="&#x11b;" horiz-adv-x="565" 
d="M248 550l-113 157h99l59 -60l59 60h99l-113 -157h-90zM153 218q6 -57 43 -90.5t93 -33.5q46 0 72 16.5t54 51.5l100 -50q-38 -65 -92.5 -95.5t-135.5 -30.5q-106 0 -180.5 73.5t-74.5 188.5q0 116 75.5 189t185.5 73q106 0 174 -69.5t68 -178.5v-44h-382zM289 414
q-48 0 -84 -28t-50 -72h263q-9 47 -43 73.5t-86 26.5z" />
    <glyph glyph-name="Gcircumflex" unicode="&#x11c;" horiz-adv-x="780" 
d="M251 754l113 157h90l113 -157h-99l-59 60l-59 -60h-99zM606 96q-70 -110 -213 -110q-148 0 -247.5 103t-99.5 261t105.5 261t257.5 103q97 0 174 -40t119 -107l-104 -63q-71 94 -191 94q-95 0 -161 -68t-66 -180q0 -106 61.5 -174t155.5 -68q85 0 133 44.5t59 113.5h-226
v108h358v-374h-87z" />
    <glyph glyph-name="gcircumflex" unicode="&#x11d;" horiz-adv-x="597" 
d="M128 550l113 157h90l113 -157h-99l-59 60l-59 -60h-99zM185 -38q-2 -10 -2 -21q0 -26 27.5 -42.5t78.5 -16.5q126 0 126 141v59q-45 -74 -141 -74q-100 0 -169.5 71t-69.5 180t71 180t169 71q94 0 140 -68v54h126v-462q0 -121 -68.5 -186.5t-183.5 -65.5
q-111 0 -171.5 43t-60.5 122q0 15 3 30zM288 400q-55 0 -93 -37.5t-38 -103.5t38 -103.5t93 -37.5q56 0 95 38t39 103t-39 103t-95 38z" />
    <glyph glyph-name="Gbreve" unicode="&#x11e;" horiz-adv-x="780" 
d="M409 768q-51 0 -82.5 32t-31.5 81h76q0 -19 10 -31t28 -12t28 12t10 31h76q0 -49 -31.5 -81t-82.5 -32zM606 96q-70 -110 -213 -110q-148 0 -247.5 103t-99.5 261t105.5 261t257.5 103q97 0 174 -40t119 -107l-104 -63q-71 94 -191 94q-95 0 -161 -68t-66 -180
q0 -106 61.5 -174t155.5 -68q85 0 133 44.5t59 113.5h-226v108h358v-374h-87z" />
    <glyph glyph-name="gbreve" unicode="&#x11f;" horiz-adv-x="597" 
d="M286 564q-51 0 -82.5 32t-31.5 81h76q0 -19 10 -31t28 -12t28 12t10 31h76q0 -49 -31.5 -81t-82.5 -32zM185 -38q-2 -10 -2 -21q0 -26 27.5 -42.5t78.5 -16.5q126 0 126 141v59q-45 -74 -141 -74q-100 0 -169.5 71t-69.5 180t71 180t169 71q94 0 140 -68v54h126v-462
q0 -121 -68.5 -186.5t-183.5 -65.5q-111 0 -171.5 43t-60.5 122q0 15 3 30zM288 400q-55 0 -93 -37.5t-38 -103.5t38 -103.5t93 -37.5q56 0 95 38t39 103t-39 103t-95 38z" />
    <glyph glyph-name="Gdotaccent" unicode="&#x120;" horiz-adv-x="780" 
d="M340 772v132h138v-132h-138zM606 96q-70 -110 -213 -110q-148 0 -247.5 103t-99.5 261t105.5 261t257.5 103q97 0 174 -40t119 -107l-104 -63q-71 94 -191 94q-95 0 -161 -68t-66 -180q0 -106 61.5 -174t155.5 -68q85 0 133 44.5t59 113.5h-226v108h358v-374h-87z" />
    <glyph glyph-name="gdotaccent" unicode="&#x121;" horiz-adv-x="597" 
d="M217 568v132h138v-132h-138zM185 -38q-2 -10 -2 -21q0 -26 27.5 -42.5t78.5 -16.5q126 0 126 141v59q-45 -74 -141 -74q-100 0 -169.5 71t-69.5 180t71 180t169 71q94 0 140 -68v54h126v-462q0 -121 -68.5 -186.5t-183.5 -65.5q-111 0 -171.5 43t-60.5 122q0 15 3 30z
M288 400q-55 0 -93 -37.5t-38 -103.5t38 -103.5t93 -37.5q56 0 95 38t39 103t-39 103t-95 38z" />
    <glyph glyph-name="uni0122" unicode="&#x122;" horiz-adv-x="780" 
d="M606 96q-70 -110 -213 -110q-148 0 -247.5 103t-99.5 261t105.5 261t257.5 103q97 0 174 -40t119 -107l-104 -63q-71 94 -191 94q-95 0 -161 -68t-66 -180q0 -106 61.5 -174t155.5 -68q85 0 133 44.5t59 113.5h-226v108h358v-374h-87zM330 -60h126v-122l-90 -132l-29 11
l37 121h-44v122z" />
    <glyph glyph-name="uni0123" unicode="&#x123;" horiz-adv-x="597" 
d="M218 563v123l111 136l25 -18l-61 -118h51v-123h-126zM185 -38q-2 -10 -2 -21q0 -26 27.5 -42.5t78.5 -16.5q126 0 126 141v59q-45 -74 -141 -74q-100 0 -169.5 71t-69.5 180t71 180t169 71q94 0 140 -68v54h126v-462q0 -121 -68.5 -186.5t-183.5 -65.5q-111 0 -171.5 43
t-60.5 122q0 15 3 30zM288 400q-55 0 -93 -37.5t-38 -103.5t38 -103.5t93 -37.5q56 0 95 38t39 103t-39 103t-95 38z" />
    <glyph glyph-name="Hcircumflex" unicode="&#x124;" horiz-adv-x="704" 
d="M194 754l113 157h90l113 -157h-99l-59 60l-59 -60h-99zM67 700h132v-282h306v282h132v-700h-132v296h-306v-296h-132v700z" />
    <glyph glyph-name="hcircumflex" unicode="&#x125;" horiz-adv-x="590" 
d="M36 754l113 157h90l113 -157h-99l-59 60l-59 -60h-99zM532 0h-126v286q0 50 -25.5 78t-74.5 28q-53 0 -87.5 -39t-34.5 -101v-252h-126v700h126v-282q59 92 172 92q81 0 128.5 -47.5t47.5 -127.5v-335z" />
    <glyph glyph-name="Hbar" unicode="&#x126;" horiz-adv-x="704" 
d="M723 578v-94h-86v-484h-132v296h-306v-296h-132v484h-86v94h86v122h132v-122h306v122h132v-122h86zM505 418v66h-306v-66h306z" />
    <glyph glyph-name="hbar" unicode="&#x127;" horiz-adv-x="590" 
d="M356 510q81 0 128.5 -47.5t47.5 -127.5v-335h-126v286q0 50 -25.5 78t-74.5 28q-53 0 -87.5 -39t-34.5 -101v-252h-126v552h-54v96h54v52h126v-52h168v-96h-168v-134q59 92 172 92z" />
    <glyph glyph-name="Itilde" unicode="&#x128;" horiz-adv-x="266" 
d="M212 754q-32 0 -56.5 10.5t-37.5 22.5t-28.5 22.5t-29.5 10.5q-10 0 -16.5 -6t-6.5 -16q0 -12 7 -26l-74 -15q-14 21 -14 53q0 43 30 67t68 24q32 0 56.5 -10.5t37.5 -22.5t28 -22.5t30 -10.5q10 0 16.5 6t6.5 16q0 12 -7 26l74 15q14 -21 14 -53q0 -43 -30 -67t-68 -24z
M67 700h132v-700h-132v700z" />
    <glyph glyph-name="itilde" unicode="&#x129;" horiz-adv-x="250" 
d="M204 550q-31 0 -56 10.5t-38 22.5t-28.5 22.5t-29.5 10.5q-10 0 -16.5 -6t-6.5 -16q0 -12 7 -26l-74 -15q-14 21 -14 53q0 43 30 67t68 24q32 0 56.5 -10.5t37.5 -22.5t28.5 -22.5t29.5 -10.5q10 0 16.5 6t6.5 16q0 12 -7 26l74 15q14 -21 14 -53q0 -43 -30 -67t-68 -24z
M62 496h126v-496h-126v496z" />
    <glyph glyph-name="Imacron" unicode="&#x12a;" horiz-adv-x="266" 
d="M9 792v94h248v-94h-248zM67 700h132v-700h-132v700z" />
    <glyph glyph-name="imacron" unicode="&#x12b;" horiz-adv-x="250" 
d="M1 588v94h248v-94h-248zM62 496h126v-496h-126v496z" />
    <glyph glyph-name="Ibreve" unicode="&#x12c;" horiz-adv-x="266" 
d="M133 768q-51 0 -82.5 32t-31.5 81h76q0 -19 10 -31t28 -12t28 12t10 31h76q0 -49 -31.5 -81t-82.5 -32zM67 700h132v-700h-132v700z" />
    <glyph glyph-name="ibreve" unicode="&#x12d;" horiz-adv-x="250" 
d="M125 564q-51 0 -82.5 32t-31.5 81h76q0 -19 10 -31t28 -12t28 12t10 31h76q0 -49 -31.5 -81t-82.5 -32zM62 496h126v-496h-126v496z" />
    <glyph glyph-name="Iogonek" unicode="&#x12e;" horiz-adv-x="266" 
d="M190 -114l11 -77q-26 -7 -60 -7q-45 0 -79.5 25t-34.5 69q0 61 59 104h-19v700h132v-700q-72 -40 -72 -78q0 -18 11.5 -28t29.5 -10q9 0 22 2z" />
    <glyph glyph-name="iogonek" unicode="&#x12f;" horiz-adv-x="250" 
d="M57 568v132h138v-132h-138zM131 -198q-45 0 -79.5 25t-34.5 69q0 61 59 104h-13v496h126v-496q-72 -40 -72 -78q0 -18 11.5 -28t29.5 -10q9 0 22 2l11 -77q-26 -7 -60 -7z" />
    <glyph glyph-name="Idotaccent" unicode="&#x130;" horiz-adv-x="266" 
d="M64 772v132h138v-132h-138zM67 700h132v-700h-132v700z" />
    <glyph glyph-name="dotlessi" unicode="&#x131;" horiz-adv-x="250" 
d="M62 496h126v-496h-126v496z" />
    <glyph glyph-name="IJ" unicode="&#x132;" horiz-adv-x="802" 
d="M67 700h132v-700h-132v700zM747 214q0 -102 -60.5 -165t-168.5 -63q-107 0 -168 60.5t-61 163.5h132q1 -102 97 -102q47 0 72 29.5t25 78.5v484h132v-486z" />
    <glyph glyph-name="ij" unicode="&#x133;" horiz-adv-x="500" 
d="M56 568v132h138v-132h-138zM306 700h138v-132h-138v132zM62 496h126v-496h-126v496zM217 -87q19 -8 39 -8q30 0 43 17.5t13 53.5v520h126v-534q0 -84 -40.5 -128.5t-121.5 -44.5q-39 0 -75 10z" />
    <glyph glyph-name="Jcircumflex" unicode="&#x134;" horiz-adv-x="555" 
d="M277 754l113 157h90l113 -157h-99l-59 60l-59 -60h-99zM500 214q0 -102 -60.5 -165t-168.5 -63q-107 0 -168 60.5t-61 163.5h132q2 -102 97 -102q47 0 72 29.5t25 78.5v484h132v-486z" />
    <glyph glyph-name="jcircumflex" unicode="&#x135;" horiz-adv-x="250" 
d="M-33 550l113 157h90l113 -157h-99l-59 60l-59 -60h-99zM-33 -87q19 -8 39 -8q30 0 43 17.5t13 53.5v520h126v-534q0 -84 -40.5 -128.5t-121.5 -44.5q-39 0 -75 10z" />
    <glyph glyph-name="uni0136" unicode="&#x136;" horiz-adv-x="652" 
d="M67 0v700h132v-270l55 62l196 208h167l-248 -260l264 -440h-154l-205 342l-75 -79v-263h-132zM270 -60h126v-122l-90 -132l-29 11l37 121h-44v122z" />
    <glyph glyph-name="uni0137" unicode="&#x137;" horiz-adv-x="541" 
d="M63 0v700h126v-354l151 150h156l-181 -177l205 -319h-145l-148 232l-38 -37v-195h-126zM212 -60h126v-122l-90 -132l-29 11l37 121h-44v122z" />
    <glyph glyph-name="kgreenlandic" unicode="&#x138;" horiz-adv-x="541" 
d="M63 0v496h126v-158l151 158h156l-186 -190l210 -306h-145l-152 217l-34 -35v-182h-126z" />
    <glyph glyph-name="Lacute" unicode="&#x139;" horiz-adv-x="591" 
d="M79 754l68 158h153l-124 -158h-97zM67 0v700h132v-578h351v-122h-483z" />
    <glyph glyph-name="lacute" unicode="&#x13a;" horiz-adv-x="242" 
d="M60 754l68 158h153l-124 -158h-97zM58 700h126v-700h-126v700z" />
    <glyph glyph-name="uni013B" unicode="&#x13b;" horiz-adv-x="591" 
d="M67 0v700h132v-578h351v-122h-483zM245 -60h126v-122l-90 -132l-29 11l37 121h-44v122z" />
    <glyph glyph-name="uni013C" unicode="&#x13c;" horiz-adv-x="242" 
d="M58 700h126v-700h-126v700zM58 -60h126v-122l-90 -132l-29 11l37 121h-44v122z" />
    <glyph glyph-name="Lcaron" unicode="&#x13d;" horiz-adv-x="591" 
d="M67 0v700h132v-578h351v-122h-483zM476 484l-26 15l39 95h-45v106h106v-108z" />
    <glyph glyph-name="lcaron" unicode="&#x13e;" horiz-adv-x="358" 
d="M58 700h126v-700h-126v700zM284 484l-26 15l39 95h-45v106h106v-108z" />
    <glyph glyph-name="Ldot" unicode="&#x13f;" horiz-adv-x="597" 
d="M67 0v700h132v-578h351v-122h-483zM361 283v134h134v-134h-134z" />
    <glyph glyph-name="ldot" unicode="&#x140;" horiz-adv-x="386" 
d="M58 700h126v-700h-126v700zM252 283v134h134v-134h-134z" />
    <glyph glyph-name="Lslash" unicode="&#x141;" horiz-adv-x="591" 
d="M199 122h351v-122h-483v174l-73 -46v122l73 46v404h132v-320l158 101v-122l-158 -101v-136z" />
    <glyph glyph-name="lslash" unicode="&#x142;" horiz-adv-x="242" 
d="M249 486v-110l-65 -41v-335h-126v254l-65 -41v110l65 41v336h126v-255z" />
    <glyph glyph-name="Nacute" unicode="&#x143;" horiz-adv-x="718" 
d="M299 754l68 158h153l-124 -158h-97zM67 700h134l292 -445q24 -40 30 -55v500h128v-700h-134l-292 448q-24 40 -30 55v-503h-128v700z" />
    <glyph glyph-name="nacute" unicode="&#x144;" horiz-adv-x="584" 
d="M231 550l68 158h153l-124 -158h-97zM526 0h-126v286q0 106 -101 106q-50 0 -82.5 -39t-32.5 -101v-252h-126v496h126v-80q61 94 168 94q79 0 126.5 -47t47.5 -125v-338z" />
    <glyph glyph-name="uni0145" unicode="&#x145;" horiz-adv-x="718" 
d="M67 700h134l292 -445q24 -40 30 -55v500h128v-700h-134l-292 448q-24 40 -30 55v-503h-128v700zM296 -60h126v-122l-90 -132l-29 11l37 121h-44v122z" />
    <glyph glyph-name="uni0146" unicode="&#x146;" horiz-adv-x="584" 
d="M526 0h-126v286q0 106 -101 106q-50 0 -82.5 -39t-32.5 -101v-252h-126v496h126v-80q61 94 168 94q79 0 126.5 -47t47.5 -125v-338zM229 -60h126v-122l-90 -132l-29 11l37 121h-44v122z" />
    <glyph glyph-name="Ncaron" unicode="&#x147;" horiz-adv-x="718" 
d="M314 754l-113 157h99l59 -60l59 60h99l-113 -157h-90zM67 700h134l292 -445q24 -40 30 -55v500h128v-700h-134l-292 448q-24 40 -30 55v-503h-128v700z" />
    <glyph glyph-name="ncaron" unicode="&#x148;" horiz-adv-x="584" 
d="M247 550l-113 157h99l59 -60l59 60h99l-113 -157h-90zM526 0h-126v286q0 106 -101 106q-50 0 -82.5 -39t-32.5 -101v-252h-126v496h126v-80q61 94 168 94q79 0 126.5 -47t47.5 -125v-338z" />
    <glyph glyph-name="napostrophe" unicode="&#x149;" horiz-adv-x="669" 
d="M49 730h116v-116l-96 -110l-24 17l53 93h-49v116zM601 0h-126v286q0 106 -101 106q-50 0 -82.5 -39t-32.5 -101v-252h-126v496h126v-80q61 94 168 94q79 0 126.5 -47t47.5 -125v-338z" />
    <glyph glyph-name="Eng" unicode="&#x14a;" horiz-adv-x="730" 
d="M455 -218q-57 0 -105 19l47 116q21 -13 49 -13q41 0 59 23t18 73l-292 448q-24 40 -30 55v-503h-128v700h134l292 -445q24 -40 30 -55v500h128v-690q0 -109 -49.5 -168.5t-152.5 -59.5z" />
    <glyph glyph-name="eng" unicode="&#x14b;" horiz-adv-x="594" 
d="M369 -211q-39 0 -75 10l16 114q19 -8 39 -8q30 0 43 17.5t13 53.5v310q0 106 -101 106q-50 0 -82.5 -39t-32.5 -101v-252h-126v496h126v-80q63 94 167 94q79 0 127 -47.5t48 -124.5v-376q0 -84 -40.5 -128.5t-121.5 -44.5z" />
    <glyph glyph-name="Omacron" unicode="&#x14c;" horiz-adv-x="812" 
d="M282 792v94h248v-94h-248zM766 350q0 -157 -102.5 -260.5t-257.5 -103.5t-257.5 103.5t-102.5 260.5t102.5 260.5t257.5 103.5t257.5 -103.5t102.5 -260.5zM406 108q98 0 162 65.5t64 176.5t-64 176.5t-162 65.5t-162 -65.5t-64 -176.5t64 -176.5t162 -65.5z" />
    <glyph glyph-name="omacron" unicode="&#x14d;" horiz-adv-x="606" 
d="M179 588v94h248v-94h-248zM574 248q0 -123 -80.5 -192.5t-190.5 -69.5t-190.5 69.5t-80.5 192.5t80.5 192.5t190.5 69.5t190.5 -69.5t80.5 -192.5zM303 104q58 0 100.5 39.5t42.5 104.5t-42.5 104.5t-100.5 39.5t-100.5 -39.5t-42.5 -104.5t42.5 -104.5t100.5 -39.5z" />
    <glyph glyph-name="Obreve" unicode="&#x14e;" horiz-adv-x="812" 
d="M406 768q-51 0 -82.5 32t-31.5 81h76q0 -19 10 -31t28 -12t28 12t10 31h76q0 -49 -31.5 -81t-82.5 -32zM766 350q0 -157 -102.5 -260.5t-257.5 -103.5t-257.5 103.5t-102.5 260.5t102.5 260.5t257.5 103.5t257.5 -103.5t102.5 -260.5zM406 108q98 0 162 65.5t64 176.5
t-64 176.5t-162 65.5t-162 -65.5t-64 -176.5t64 -176.5t162 -65.5z" />
    <glyph glyph-name="obreve" unicode="&#x14f;" horiz-adv-x="606" 
d="M303 564q-51 0 -82.5 32t-31.5 81h76q0 -19 10 -31t28 -12t28 12t10 31h76q0 -49 -31.5 -81t-82.5 -32zM574 248q0 -123 -80.5 -192.5t-190.5 -69.5t-190.5 69.5t-80.5 192.5t80.5 192.5t190.5 69.5t190.5 -69.5t80.5 -192.5zM303 104q58 0 100.5 39.5t42.5 104.5
t-42.5 104.5t-100.5 39.5t-100.5 -39.5t-42.5 -104.5t42.5 -104.5t100.5 -39.5z" />
    <glyph glyph-name="Ohungarumlaut" unicode="&#x150;" horiz-adv-x="812" 
d="M244 754l68 158h153l-124 -158h-97zM433 754l68 158h153l-124 -158h-97zM766 350q0 -157 -102.5 -260.5t-257.5 -103.5t-257.5 103.5t-102.5 260.5t102.5 260.5t257.5 103.5t257.5 -103.5t102.5 -260.5zM406 108q98 0 162 65.5t64 176.5t-64 176.5t-162 65.5t-162 -65.5
t-64 -176.5t64 -176.5t162 -65.5z" />
    <glyph glyph-name="ohungarumlaut" unicode="&#x151;" horiz-adv-x="606" 
d="M141 550l68 158h153l-124 -158h-97zM330 550l68 158h153l-124 -158h-97zM574 248q0 -123 -80.5 -192.5t-190.5 -69.5t-190.5 69.5t-80.5 192.5t80.5 192.5t190.5 69.5t190.5 -69.5t80.5 -192.5zM303 104q58 0 100.5 39.5t42.5 104.5t-42.5 104.5t-100.5 39.5
t-100.5 -39.5t-42.5 -104.5t42.5 -104.5t100.5 -39.5z" />
    <glyph glyph-name="OE" unicode="&#x152;" horiz-adv-x="1174" 
d="M406 -14q-155 0 -257.5 103.5t-102.5 260.5t102.5 260.5t257.5 103.5q145 0 226 -93v79h483v-118h-351v-161h323v-118h-323v-185h354v-118h-486v87q-89 -101 -226 -101zM406 108q97 0 161.5 67t64.5 175q0 111 -64 176.5t-162 65.5t-162 -65.5t-64 -176.5t64 -176.5
t162 -65.5z" />
    <glyph glyph-name="oe" unicode="&#x153;" horiz-adv-x="999" 
d="M306 -14q-110 0 -190.5 69.5t-80.5 192.5t80.5 192.5t190.5 69.5q60 0 115.5 -24t94.5 -68q79 92 201 92q106 0 174 -69.5t68 -178.5v-44h-382q6 -57 43 -90.5t93 -33.5q91 0 137 91l94 -54q-70 -145 -233 -145q-119 0 -195 90q-38 -43 -94 -66.5t-116 -23.5zM577 310
h266q-9 49 -43 76.5t-87 27.5q-49 0 -85.5 -29.5t-50.5 -74.5zM306 104q58 0 100.5 39.5t42.5 104.5t-42.5 104.5t-100.5 39.5t-100.5 -39.5t-42.5 -104.5t42.5 -104.5t100.5 -39.5z" />
    <glyph glyph-name="Racute" unicode="&#x154;" horiz-adv-x="655" 
d="M268 754l68 158h153l-124 -158h-97zM311 284h-112v-284h-132v700h299q115 0 182 -53.5t67 -144.5q0 -149 -160 -206l169 -296h-151zM199 400h167q117 0 117 92t-117 92h-167v-184z" />
    <glyph glyph-name="racute" unicode="&#x155;" horiz-adv-x="379" 
d="M158 550l68 158h153l-124 -158h-97zM345 385q-19 7 -41 7q-55 0 -87.5 -41.5t-32.5 -105.5v-245h-126v496h126v-79q46 93 138 93q24 0 43 -6z" />
    <glyph glyph-name="uni0156" unicode="&#x156;" horiz-adv-x="655" 
d="M311 284h-112v-284h-132v700h299q115 0 182 -53.5t67 -144.5q0 -149 -160 -206l169 -296h-151zM199 400h167q117 0 117 92t-117 92h-167v-184zM265 -60h126v-122l-90 -132l-29 11l37 121h-44v122z" />
    <glyph glyph-name="uni0157" unicode="&#x157;" horiz-adv-x="379" 
d="M345 385q-19 7 -41 7q-55 0 -87.5 -41.5t-32.5 -105.5v-245h-126v496h126v-79q46 93 138 93q24 0 43 -6zM58 -60h126v-122l-90 -132l-29 11l37 121h-44v122z" />
    <glyph glyph-name="Rcaron" unicode="&#x158;" horiz-adv-x="655" 
d="M283 754l-113 157h99l59 -60l59 60h99l-113 -157h-90zM311 284h-112v-284h-132v700h299q115 0 182 -53.5t67 -144.5q0 -149 -160 -206l169 -296h-151zM199 400h167q117 0 117 92t-117 92h-167v-184z" />
    <glyph glyph-name="rcaron" unicode="&#x159;" horiz-adv-x="379" 
d="M174 550l-113 157h99l59 -60l59 60h99l-113 -157h-90zM345 385q-19 7 -41 7q-55 0 -87.5 -41.5t-32.5 -105.5v-245h-126v496h126v-79q46 93 138 93q24 0 43 -6z" />
    <glyph glyph-name="Sacute" unicode="&#x15a;" horiz-adv-x="652" 
d="M262 754l68 158h153l-124 -158h-97zM201 525q0 -40 40 -65.5t129 -43.5q116 -24 172.5 -76t56.5 -139q0 -89 -71.5 -152t-189.5 -63t-194 51.5t-100 135.5l115 54q23 -58 64 -91.5t114 -33.5q59 0 94.5 26t35.5 68q0 47 -41.5 73t-131.5 43q-101 20 -160 72.5t-59 137.5
q0 87 68 139.5t178 52.5q184 0 258 -146l-108 -60q-57 90 -153 90q-50 0 -83.5 -18.5t-33.5 -54.5z" />
    <glyph glyph-name="sacute" unicode="&#x15b;" horiz-adv-x="489" 
d="M186 550l68 158h153l-124 -158h-97zM178 370q0 -24 26.5 -39t86.5 -27q87 -18 125.5 -54.5t38.5 -98.5q0 -72 -53 -118.5t-143 -46.5q-153 0 -216 115l101 64q45 -73 117 -73q34 0 56 14t22 41q0 43 -104 64q-169 33 -169 155q0 67 52.5 105.5t128.5 38.5q133 0 189 -98
l-82 -57q-38 57 -105 57q-32 0 -51.5 -11t-19.5 -31z" />
    <glyph glyph-name="Scircumflex" unicode="&#x15c;" horiz-adv-x="652" 
d="M164 754l113 157h90l113 -157h-99l-59 60l-59 -60h-99zM201 525q0 -40 40 -65.5t129 -43.5q116 -24 172.5 -76t56.5 -139q0 -89 -71.5 -152t-189.5 -63t-194 51.5t-100 135.5l115 54q23 -58 64 -91.5t114 -33.5q59 0 94.5 26t35.5 68q0 47 -41.5 73t-131.5 43
q-101 20 -160 72.5t-59 137.5q0 87 68 139.5t178 52.5q184 0 258 -146l-108 -60q-57 90 -153 90q-50 0 -83.5 -18.5t-33.5 -54.5z" />
    <glyph glyph-name="scircumflex" unicode="&#x15d;" horiz-adv-x="489" 
d="M89 550l113 157h90l113 -157h-99l-59 60l-59 -60h-99zM178 370q0 -24 26.5 -39t86.5 -27q87 -18 125.5 -54.5t38.5 -98.5q0 -72 -53 -118.5t-143 -46.5q-153 0 -216 115l101 64q45 -73 117 -73q34 0 56 14t22 41q0 43 -104 64q-169 33 -169 155q0 67 52.5 105.5
t128.5 38.5q133 0 189 -98l-82 -57q-38 57 -105 57q-32 0 -51.5 -11t-19.5 -31z" />
    <glyph glyph-name="Scedilla" unicode="&#x15e;" horiz-adv-x="652" 
d="M599 201q0 -88 -69.5 -150.5t-185.5 -64.5l-24 -41q16 9 40 9q34 0 56 -22t22 -56q0 -38 -27.5 -60t-67.5 -22q-78 0 -94 61l66 17q4 -22 28 -22q25 0 25 25q0 29 -28 29q-24 0 -45 -18l-37 33l24 70q-95 12 -156 61.5t-82 122.5l115 54q23 -58 64 -91.5t114 -33.5
q59 0 94.5 26t35.5 68q0 47 -41.5 73t-131.5 43q-101 20 -160 72.5t-59 137.5q0 87 68 139.5t178 52.5q184 0 258 -146l-108 -60q-57 90 -153 90q-50 0 -83.5 -18.5t-33.5 -54.5q0 -40 40 -65.5t129 -43.5q116 -24 172.5 -76t56.5 -139z" />
    <glyph glyph-name="scedilla" unicode="&#x15f;" horiz-adv-x="489" 
d="M259 -14h-4l-23 -39q16 9 40 9q34 0 56 -22t22 -56q0 -38 -27.5 -60t-67.5 -22q-78 0 -94 61l66 17q4 -22 28 -22q25 0 25 25q0 29 -28 29q-24 0 -45 -18l-37 33l25 71q-105 21 -152 109l101 64q45 -73 117 -73q34 0 56 14t22 41q0 43 -104 64q-169 33 -169 155
q0 67 52.5 105.5t128.5 38.5q133 0 189 -98l-82 -57q-38 57 -105 57q-32 0 -51.5 -11t-19.5 -31q0 -24 26.5 -39t86.5 -27q87 -18 125.5 -54.5t38.5 -98.5q0 -72 -53 -118.5t-143 -46.5z" />
    <glyph glyph-name="Scaron" unicode="&#x160;" horiz-adv-x="652" 
d="M277 754l-113 157h99l59 -60l59 60h99l-113 -157h-90zM201 525q0 -40 40 -65.5t129 -43.5q116 -24 172.5 -76t56.5 -139q0 -89 -71.5 -152t-189.5 -63t-194 51.5t-100 135.5l115 54q23 -58 64 -91.5t114 -33.5q59 0 94.5 26t35.5 68q0 47 -41.5 73t-131.5 43
q-101 20 -160 72.5t-59 137.5q0 87 68 139.5t178 52.5q184 0 258 -146l-108 -60q-57 90 -153 90q-50 0 -83.5 -18.5t-33.5 -54.5z" />
    <glyph glyph-name="scaron" unicode="&#x161;" horiz-adv-x="489" 
d="M202 550l-113 157h99l59 -60l59 60h99l-113 -157h-90zM178 370q0 -24 26.5 -39t86.5 -27q87 -18 125.5 -54.5t38.5 -98.5q0 -72 -53 -118.5t-143 -46.5q-153 0 -216 115l101 64q45 -73 117 -73q34 0 56 14t22 41q0 43 -104 64q-169 33 -169 155q0 67 52.5 105.5
t128.5 38.5q133 0 189 -98l-82 -57q-38 57 -105 57q-32 0 -51.5 -11t-19.5 -31z" />
    <glyph glyph-name="uni0162" unicode="&#x162;" horiz-adv-x="592" 
d="M362 0h-33l-31 -53q16 9 40 9q34 0 56 -22t22 -56q0 -38 -27.5 -60t-67.5 -22q-78 0 -94 61l66 17q4 -22 28 -22q25 0 25 25q0 29 -28 29q-24 0 -45 -18l-37 33l27 79h-33v578h-214v122h560v-122h-214v-578z" />
    <glyph glyph-name="uni0163" unicode="&#x163;" horiz-adv-x="364" 
d="M248 -44q34 0 56 -22t22 -56q0 -38 -27.5 -60t-67.5 -22q-78 0 -94 61l66 17q4 -22 28 -22q25 0 25 25q0 29 -28 29q-24 0 -45 -18l-37 33l28 80q-77 33 -77 143v250h-77v102h77v134h126v-134h108v-102h-108v-226q0 -70 63 -70q22 0 42 6l12 -104q-38 -14 -84 -14
q-16 0 -24 1l-24 -40q16 9 40 9z" />
    <glyph glyph-name="Tcaron" unicode="&#x164;" horiz-adv-x="592" 
d="M251 754l-113 157h99l59 -60l59 60h99l-113 -157h-90zM230 0v578h-214v122h560v-122h-214v-578h-132z" />
    <glyph glyph-name="tcaron" unicode="&#x165;" horiz-adv-x="364" 
d="M296 547l-26 15l39 95h-45v106h106v-108zM20 496h77v134h126v-134h108v-102h-108v-226q0 -70 63 -70q22 0 42 6l12 -104q-38 -14 -84 -14q-159 0 -159 158v250h-77v102z" />
    <glyph glyph-name="Tbar" unicode="&#x166;" horiz-adv-x="592" 
d="M16 700h560v-122h-214v-140h138v-94h-138v-344h-132v344h-138v94h138v140h-214v122z" />
    <glyph glyph-name="tbar" unicode="&#x167;" horiz-adv-x="374" 
d="M24 496h77v134h126v-134h108v-102h-108v-86h95v-96h-95v-44q0 -70 63 -70q22 0 42 6l12 -104q-38 -14 -84 -14q-159 0 -159 158v68h-65v96h65v86h-77v102z" />
    <glyph glyph-name="Utilde" unicode="&#x168;" horiz-adv-x="700" 
d="M429 754q-32 0 -56.5 10.5t-37.5 22.5t-28 22.5t-30 10.5q-10 0 -16.5 -6t-6.5 -16q0 -12 7 -26l-74 -15q-14 21 -14 53q0 43 30 67t68 24q31 0 56 -10.5t38 -22.5t28 -22.5t30 -10.5q10 0 16.5 6t6.5 16q0 12 -7 26l74 15q14 -21 14 -53q0 -43 -30 -67t-68 -24zM637 265
q0 -131 -80 -205t-207 -74t-207 74t-80 205v435h132v-422q0 -81 41.5 -125.5t113.5 -44.5t113.5 44.5t41.5 125.5v422h132v-435z" />
    <glyph glyph-name="utilde" unicode="&#x169;" horiz-adv-x="589" 
d="M376 550q-32 0 -56.5 10.5t-37.5 22.5t-28.5 22.5t-29.5 10.5q-10 0 -16.5 -6t-6.5 -16q0 -12 7 -26l-74 -15q-14 21 -14 53q0 43 30 67t68 24q32 0 56.5 -10.5t37.5 -22.5t28.5 -22.5t29.5 -10.5q10 0 16.5 6t6.5 16q0 12 -7 26l74 15q14 -21 14 -53q0 -43 -30 -67
t-68 -24zM63 496h126v-279q0 -113 101 -113q52 0 83.5 38t31.5 98v256h126v-496h-126v78q-50 -92 -158 -92q-81 0 -132.5 53t-51.5 149v308z" />
    <glyph glyph-name="Umacron" unicode="&#x16a;" horiz-adv-x="700" 
d="M226 792v94h248v-94h-248zM637 265q0 -131 -80 -205t-207 -74t-207 74t-80 205v435h132v-422q0 -81 41.5 -125.5t113.5 -44.5t113.5 44.5t41.5 125.5v422h132v-435z" />
    <glyph glyph-name="umacron" unicode="&#x16b;" horiz-adv-x="589" 
d="M173 588v94h248v-94h-248zM63 496h126v-279q0 -113 101 -113q52 0 83.5 38t31.5 98v256h126v-496h-126v78q-50 -92 -158 -92q-81 0 -132.5 53t-51.5 149v308z" />
    <glyph glyph-name="Ubreve" unicode="&#x16c;" horiz-adv-x="700" 
d="M350 768q-51 0 -82.5 32t-31.5 81h76q0 -19 10 -31t28 -12t28 12t10 31h76q0 -49 -31.5 -81t-82.5 -32zM637 265q0 -131 -80 -205t-207 -74t-207 74t-80 205v435h132v-422q0 -81 41.5 -125.5t113.5 -44.5t113.5 44.5t41.5 125.5v422h132v-435z" />
    <glyph glyph-name="ubreve" unicode="&#x16d;" horiz-adv-x="589" 
d="M297 564q-51 0 -82.5 32t-31.5 81h76q0 -19 10 -31t28 -12t28 12t10 31h76q0 -49 -31.5 -81t-82.5 -32zM63 496h126v-279q0 -113 101 -113q52 0 83.5 38t31.5 98v256h126v-496h-126v78q-50 -92 -158 -92q-81 0 -132.5 53t-51.5 149v308z" />
    <glyph glyph-name="Uring" unicode="&#x16e;" horiz-adv-x="700" 
d="M351 744q-40 0 -68 27.5t-28 67.5t28 67.5t68 27.5t68 -27.5t28 -67.5t-28 -67.5t-68 -27.5zM351 805q15 0 24 9t9 25t-9 25t-24 9t-24 -9t-9 -25t9 -25t24 -9zM637 265q0 -131 -80 -205t-207 -74t-207 74t-80 205v435h132v-422q0 -81 41.5 -125.5t113.5 -44.5
t113.5 44.5t41.5 125.5v422h132v-435z" />
    <glyph glyph-name="uring" unicode="&#x16f;" horiz-adv-x="589" 
d="M298 540q-40 0 -68 27.5t-28 67.5t28 67.5t68 27.5t68 -27.5t28 -67.5t-28 -67.5t-68 -27.5zM298 601q15 0 24 9t9 25t-9 25t-24 9t-24 -9t-9 -25t9 -25t24 -9zM63 496h126v-279q0 -113 101 -113q52 0 83.5 38t31.5 98v256h126v-496h-126v78q-50 -92 -158 -92
q-81 0 -132.5 53t-51.5 149v308z" />
    <glyph glyph-name="Uhungarumlaut" unicode="&#x170;" horiz-adv-x="700" 
d="M188 754l68 158h153l-124 -158h-97zM377 754l68 158h153l-124 -158h-97zM637 265q0 -131 -80 -205t-207 -74t-207 74t-80 205v435h132v-422q0 -81 41.5 -125.5t113.5 -44.5t113.5 44.5t41.5 125.5v422h132v-435z" />
    <glyph glyph-name="uhungarumlaut" unicode="&#x171;" horiz-adv-x="589" 
d="M135 550l68 158h153l-124 -158h-97zM324 550l68 158h153l-124 -158h-97zM63 496h126v-279q0 -113 101 -113q52 0 83.5 38t31.5 98v256h126v-496h-126v78q-50 -92 -158 -92q-81 0 -132.5 53t-51.5 149v308z" />
    <glyph glyph-name="Uogonek" unicode="&#x172;" horiz-adv-x="700" 
d="M505 700h132v-435q0 -102 -50.5 -170.5t-137.5 -94.5q-71 -40 -71 -78q0 -18 11.5 -28t29.5 -10q9 0 22 2l11 -77q-26 -7 -60 -7q-45 0 -79.5 25t-34.5 69q0 50 43 91q-115 9 -186.5 82t-71.5 196v435h132v-422q0 -81 41.5 -125.5t113.5 -44.5t113.5 44.5t41.5 125.5v422
z" />
    <glyph glyph-name="uogonek" unicode="&#x173;" horiz-adv-x="589" 
d="M522 -114l11 -77q-26 -7 -60 -7q-45 0 -79.5 25t-34.5 69q0 61 59 104h-13v78q-50 -92 -158 -92q-81 0 -132.5 53t-51.5 149v308h126v-279q0 -113 101 -113q52 0 83.5 38t31.5 98v256h126v-496q-72 -40 -72 -78q0 -18 11.5 -28t29.5 -10q9 0 22 2z" />
    <glyph glyph-name="Wcircumflex" unicode="&#x174;" horiz-adv-x="942" 
d="M313 754l113 157h90l113 -157h-99l-59 60l-59 -60h-99zM198 0l-193 700h139l111 -442q12 -51 17 -76l17 77l114 441h136l114 -441q12 -52 17 -77l17 76l111 442h139l-193 -700h-142l-131 508l-131 -508h-142z" />
    <glyph glyph-name="wcircumflex" unicode="&#x175;" horiz-adv-x="714" 
d="M199 550l113 157h90l113 -157h-99l-59 60l-59 -60h-99zM506 164l80 332h122l-138 -496h-122l-91 341l-91 -341h-122l-138 496h122l80 -332l89 332h120z" />
    <glyph glyph-name="Ycircumflex" unicode="&#x176;" horiz-adv-x="602" 
d="M143 754l113 157h90l113 -157h-99l-59 60l-59 -60h-99zM235 0v274l-231 426h145l130 -249q13 -27 22 -51l22 51l130 249h145l-231 -426v-274h-132z" />
    <glyph glyph-name="ycircumflex" unicode="&#x177;" horiz-adv-x="546" 
d="M115 550l113 157h90l113 -157h-99l-59 60l-59 -60h-99zM92 -83q22 -12 45 -12q39 0 56 47l16 44l-204 500h143l128 -322l122 322h143l-236 -586q-26 -64 -65.5 -92.5t-98.5 -28.5q-41 0 -69 11z" />
    <glyph glyph-name="Ydieresis" unicode="&#x178;" horiz-adv-x="602" 
d="M152 780v124h118v-124h-118zM332 780v124h118v-124h-118zM235 0v274l-231 426h145l130 -249q13 -27 22 -51l22 51l130 249h145l-231 -426v-274h-132z" />
    <glyph glyph-name="Zacute" unicode="&#x179;" horiz-adv-x="614" 
d="M249 754l68 158h153l-124 -158h-97zM48 700h512v-122l-366 -456h383v-122h-542v120l368 458h-355v122z" />
    <glyph glyph-name="zacute" unicode="&#x17a;" horiz-adv-x="496" 
d="M186 550l68 158h153l-124 -158h-97zM460 102v-102h-424v102l261 292h-250v102h396v-102l-262 -292h279z" />
    <glyph glyph-name="Zdotaccent" unicode="&#x17b;" horiz-adv-x="614" 
d="M240 772v132h138v-132h-138zM48 700h512v-122l-366 -456h383v-122h-542v120l368 458h-355v122z" />
    <glyph glyph-name="zdotaccent" unicode="&#x17c;" horiz-adv-x="496" 
d="M178 568v132h138v-132h-138zM460 102v-102h-424v102l261 292h-250v102h396v-102l-262 -292h279z" />
    <glyph glyph-name="Zcaron" unicode="&#x17d;" horiz-adv-x="614" 
d="M264 754l-113 157h99l59 -60l59 60h99l-113 -157h-90zM48 700h512v-122l-366 -456h383v-122h-542v120l368 458h-355v122z" />
    <glyph glyph-name="zcaron" unicode="&#x17e;" horiz-adv-x="496" 
d="M202 550l-113 157h99l59 -60l59 60h99l-113 -157h-90zM460 102v-102h-424v102l261 292h-250v102h396v-102l-262 -292h279z" />
    <glyph glyph-name="longs" unicode="&#x17f;" horiz-adv-x="342" 
d="M19 496h72v70q0 89 48.5 136.5t127.5 47.5q34 0 63 -11l-22 -111q-18 6 -35 6q-56 0 -56 -65v-569h-126v394h-72v102z" />
    <glyph glyph-name="florin" unicode="&#x192;" horiz-adv-x="353" 
d="M58 -218q-34 0 -63 11l22 113q17 -8 35 -8q50 0 50 62v434h-72v102h72v70q0 89 48.5 136.5t127.5 47.5q34 0 63 -11l-22 -111q-18 6 -35 6q-56 0 -56 -65v-73h108v-102h-108v-428q0 -90 -44.5 -137t-125.5 -47z" />
    <glyph glyph-name="uni01B5" unicode="&#x1b5;" horiz-adv-x="614" 
d="M48 700h512v-122l-142 -177h127v-94h-203l-148 -185h383v-122h-542v120l150 187h-122v94h198l142 177h-355v122z" />
    <glyph glyph-name="uni01B6" unicode="&#x1b6;" horiz-adv-x="496" 
d="M36 0v102l96 108h-68v96h154l79 88h-250v102h396v-102l-79 -88h68v-96h-154l-97 -108h279v-102h-424z" />
    <glyph glyph-name="Aringacute" unicode="&#x1fa;" horiz-adv-x="702" 
d="M425 672l272 -672h-141l-70 183h-270l-70 -183h-141l272 674q-21 26 -21 60q0 30 16 53.5t43 34.5l45 104h153l-96 -122q31 -28 31 -70q0 -34 -23 -62zM319 734q0 -16 9 -25t24 -9t24 9t9 25t-9 25t-24 9t-24 -9t-9 -25zM261 301h180l-64 168q-13 34 -26 76l-26 -76z" />
    <glyph glyph-name="aringacute" unicode="&#x1fb;" horiz-adv-x="550" 
d="M223 754l68 158h153l-124 -158h-97zM279 540q-40 0 -68 27.5t-28 67.5t28 67.5t68 27.5t68 -27.5t28 -67.5t-28 -67.5t-68 -27.5zM279 601q15 0 24 9t9 25t-9 25t-24 9t-24 -9t-9 -25t9 -25t24 -9zM386 0q-10 40 -10 79q-52 -93 -166 -93q-74 0 -120.5 42.5t-46.5 112.5
q0 136 177 161l149 20v25q0 75 -93 75q-40 0 -63.5 -16t-23.5 -40q0 -10 1 -14l-119 -13q-2 9 -2 26q0 60 56.5 102.5t150.5 42.5q106 0 162.5 -45t56.5 -135v-207q0 -74 16 -123h-125zM237 88q58 0 95 34.5t37 103.5v9l-120 -17q-83 -12 -83 -70q0 -29 20 -44.5t51 -15.5z
" />
    <glyph glyph-name="AEacute" unicode="&#x1fc;" horiz-adv-x="985" 
d="M540 754l68 158h153l-124 -158h-97zM443 183h-219l-81 -183h-138l320 700h601v-118h-351v-161h323v-118h-323v-185h354v-118h-486v183zM276 301h167v281h-42z" />
    <glyph glyph-name="aeacute" unicode="&#x1fd;" horiz-adv-x="915" 
d="M397 550l68 158h153l-124 -158h-97zM227 -14q-82 0 -133 42.5t-51 112.5q0 78 61.5 123.5t168.5 45.5h97v13q0 51 -19 75t-72 24q-43 0 -66 -16t-23 -40q0 -6 2 -12l-113 -38q-9 20 -9 42q0 61 54 106.5t144 45.5q131 0 185 -71q74 71 183 71q106 0 174 -69.5t68 -178.5
v-44h-382q6 -57 43 -90.5t93 -33.5q92 0 137 91l94 -54q-70 -145 -233 -145q-65 0 -120.5 30t-90.5 83q-28 -57 -80.5 -85t-111.5 -28zM496 310h266q-9 49 -43 76.5t-87 27.5q-49 0 -85.5 -29.5t-50.5 -74.5zM239 88q55 0 93 34.5t38 90.5v5h-105q-47 0 -73 -20.5t-26 -51.5
q0 -27 20 -42.5t53 -15.5z" />
    <glyph glyph-name="uni0218" unicode="&#x218;" horiz-adv-x="652" 
d="M201 525q0 -40 40 -65.5t129 -43.5q116 -24 172.5 -76t56.5 -139q0 -89 -71.5 -152t-189.5 -63t-194 51.5t-100 135.5l115 54q23 -58 64 -91.5t114 -33.5q59 0 94.5 26t35.5 68q0 47 -41.5 73t-131.5 43q-101 20 -160 72.5t-59 137.5q0 87 68 139.5t178 52.5
q184 0 258 -146l-108 -60q-57 90 -153 90q-50 0 -83.5 -18.5t-33.5 -54.5zM274 -60h126v-122l-90 -132l-29 11l37 121h-44v122z" />
    <glyph glyph-name="uni0219" unicode="&#x219;" horiz-adv-x="489" 
d="M178 370q0 -24 26.5 -39t86.5 -27q87 -18 125.5 -54.5t38.5 -98.5q0 -72 -53 -118.5t-143 -46.5q-153 0 -216 115l101 64q45 -73 117 -73q34 0 56 14t22 41q0 43 -104 64q-169 33 -169 155q0 67 52.5 105.5t128.5 38.5q133 0 189 -98l-82 -57q-38 57 -105 57
q-32 0 -51.5 -11t-19.5 -31zM197 -60h126v-122l-90 -132l-29 11l37 121h-44v122z" />
    <glyph glyph-name="uni021A" unicode="&#x21a;" horiz-adv-x="592" 
d="M230 0v578h-214v122h560v-122h-214v-578h-132zM233 -60h126v-122l-90 -132l-29 11l37 121h-44v122z" />
    <glyph glyph-name="uni021B" unicode="&#x21b;" horiz-adv-x="364" 
d="M20 496h77v134h126v-134h108v-102h-108v-226q0 -70 63 -70q22 0 42 6l12 -104q-38 -14 -84 -14q-159 0 -159 158v250h-77v102zM173 -60h126v-122l-90 -132l-29 11l37 121h-44v122z" />
    <glyph glyph-name="uni0237" unicode="&#x237;" horiz-adv-x="250" 
d="M-33 -87q19 -8 39 -8q30 0 43 17.5t13 53.5v520h126v-534q0 -84 -40.5 -128.5t-121.5 -44.5q-39 0 -75 10z" />
    <glyph glyph-name="uni02BC" unicode="&#x2bc;" horiz-adv-x="214" 
d="M54 412l-26 18l68 136h-53v134h134v-134z" />
    <glyph glyph-name="circumflex" unicode="&#x2c6;" horiz-adv-x="408" 
d="M46 550l113 157h90l113 -157h-99l-59 60l-59 -60h-99z" />
    <glyph glyph-name="caron" unicode="&#x2c7;" horiz-adv-x="408" 
d="M159 550l-113 157h99l59 -60l59 60h99l-113 -157h-90z" />
    <glyph glyph-name="uni02C9" unicode="&#x2c9;" horiz-adv-x="328" 
d="M40 588v94h248v-94h-248z" />
    <glyph glyph-name="breve" unicode="&#x2d8;" horiz-adv-x="294" 
d="M147 564q-51 0 -82.5 32t-31.5 81h76q0 -19 10 -31t28 -12t28 12t10 31h76q0 -49 -31.5 -81t-82.5 -32z" />
    <glyph glyph-name="dotaccent" unicode="&#x2d9;" horiz-adv-x="250" 
d="M56 568v132h138v-132h-138z" />
    <glyph glyph-name="ring" unicode="&#x2da;" horiz-adv-x="274" 
d="M137 540q-40 0 -68 27.5t-28 67.5t28 67.5t68 27.5t68 -27.5t28 -67.5t-28 -67.5t-68 -27.5zM137 601q15 0 24 9t9 25t-9 25t-24 9t-24 -9t-9 -25t9 -25t24 -9z" />
    <glyph glyph-name="ogonek" unicode="&#x2db;" horiz-adv-x="224" 
d="M142 -198q-45 0 -79.5 25t-34.5 69q0 69 77 116l95 -12q-72 -40 -72 -78q0 -18 11.5 -28t29.5 -10q9 0 22 2l11 -77q-26 -7 -60 -7z" />
    <glyph glyph-name="tilde" unicode="&#x2dc;" horiz-adv-x="470" 
d="M314 550q-32 0 -56.5 10.5t-37.5 22.5t-28.5 22.5t-29.5 10.5q-10 0 -16.5 -6t-6.5 -16q0 -12 7 -26l-74 -15q-14 21 -14 53q0 43 30 67t68 24q32 0 56.5 -10.5t37.5 -22.5t28.5 -22.5t29.5 -10.5q10 0 16.5 6t6.5 16q0 12 -7 26l74 15q14 -21 14 -53q0 -43 -30 -67
t-68 -24z" />
    <glyph glyph-name="hungarumlaut" unicode="&#x2dd;" horiz-adv-x="516" 
d="M53 550l68 158h153l-124 -158h-97zM242 550l68 158h153l-124 -158h-97z" />
    <glyph glyph-name="gravecomb" unicode="&#x300;" 
d="M-97 550l-124 158h153l68 -158h-97z" />
    <glyph glyph-name="acutecomb" unicode="&#x301;" 
d="M-221 550l68 158h153l-124 -158h-97z" />
    <glyph glyph-name="uni0302" unicode="&#x302;" 
d="M-316 550l113 157h90l113 -157h-99l-59 60l-59 -60h-99z" />
    <glyph glyph-name="tildecomb" unicode="&#x303;" 
d="M-98 550q-32 0 -56.5 10.5t-37.5 22.5t-28 22.5t-30 10.5q-10 0 -16.5 -6t-6.5 -16q0 -12 7 -26l-74 -15q-14 21 -14 53q0 43 30 67t68 24q32 0 56.5 -10.5t37.5 -22.5t28.5 -22.5t29.5 -10.5q10 0 16.5 6t6.5 16q0 12 -7 26l74 15q14 -21 14 -53q0 -43 -30 -67t-68 -24z
" />
    <glyph glyph-name="uni0304" unicode="&#x304;" 
d="M-248 588v94h248v-94h-248z" />
    <glyph glyph-name="uni0306" unicode="&#x306;" 
d="M-114 564q-51 0 -82.5 32t-31.5 81h76q0 -19 10 -31t28 -12t28 12t10 31h76q0 -49 -31.5 -81t-82.5 -32z" />
    <glyph glyph-name="uni0307" unicode="&#x307;" 
d="M-138 568v132h138v-132h-138z" />
    <glyph glyph-name="uni0308" unicode="&#x308;" 
d="M-298 576v124h118v-124h-118zM-118 576v124h118v-124h-118z" />
    <glyph glyph-name="uni030A" unicode="&#x30a;" 
d="M-96 540q-40 0 -68 27.5t-28 67.5t28 67.5t68 27.5t68 -27.5t28 -67.5t-28 -67.5t-68 -27.5zM-96 601q15 0 24 9t9 25t-9 25t-24 9t-24 -9t-9 -25t9 -25t24 -9z" />
    <glyph glyph-name="uni030B" unicode="&#x30b;" 
d="M-410 550l68 158h153l-124 -158h-97zM-221 550l68 158h153l-124 -158h-97z" />
    <glyph glyph-name="uni030C" unicode="&#x30c;" 
d="M-203 550l-113 157h99l59 -60l59 60h99l-113 -157h-90z" />
    <glyph glyph-name="uni0312" unicode="&#x312;" 
d="M-136 563v123l111 136l25 -18l-61 -118h51v-123h-126z" />
    <glyph glyph-name="uni0326" unicode="&#x326;" 
d="M-126 -60h126v-122l-90 -132l-29 11l37 121h-44v122z" />
    <glyph glyph-name="uni0327" unicode="&#x327;" 
d="M-95 -204q-78 0 -94 61l66 17q4 -22 28 -22q25 0 25 25q0 29 -28 29q-24 0 -45 -18l-37 33l33 95h70l-41 -69q16 9 40 9q34 0 56 -22t22 -56q0 -38 -27.5 -60t-67.5 -22z" />
    <glyph glyph-name="uni0328" unicode="&#x328;" 
d="M-60 -198q-45 0 -79.5 25t-34.5 69q0 69 77 116l95 -12q-72 -40 -72 -78q0 -18 11.5 -28t29.5 -10q9 0 22 2l11 -77q-26 -7 -60 -7z" />
    <glyph glyph-name="uni0335" unicode="&#x335;" 
d="M-348 304v96h348v-96h-348z" />
    <glyph glyph-name="uni0336" unicode="&#x336;" 
d="M-742 484v94h742v-94h-742z" />
    <glyph glyph-name="uni0337" unicode="&#x337;" 
d="M-256 138v110l256 163v-110z" />
    <glyph glyph-name="uni0338" unicode="&#x338;" 
d="M-311 -42l-83 51l311 529l83 -51z" />
    <glyph glyph-name="uni0374" unicode="&#x374;" horiz-adv-x="309" 
d="M50 420l63 288h146l-119 -288h-90z" />
    <glyph glyph-name="uni0375" unicode="&#x375;" horiz-adv-x="309" 
d="M50 -158l119 288h90l-63 -288h-146z" />
    <glyph glyph-name="uni037A" unicode="&#x37a;" horiz-adv-x="235" 
d="M156 -198q-53 0 -86.5 30t-33.5 95v53h106v-30q0 -53 45 -53q17 0 27 3v-89q-23 -9 -58 -9z" />
    <glyph glyph-name="uni037E" unicode="&#x37e;" horiz-adv-x="214" 
d="M40 350v134h134v-134h-134zM73 -162l-29 11l41 151h-45v134h134v-134z" />
    <glyph glyph-name="tonos" unicode="&#x384;" horiz-adv-x="300" 
d="M55 542l46 158h144l-102 -158h-88z" />
    <glyph glyph-name="dieresistonos" unicode="&#x385;" horiz-adv-x="494" 
d="M151 550l46 158h144l-102 -158h-88zM17 576v124h118v-124h-118zM359 576v124h118v-124h-118z" />
    <glyph glyph-name="Alphatonos" unicode="&#x386;" horiz-adv-x="702" 
d="M5 0l283 700h126l283 -700h-141l-70 183h-270l-70 -183h-141zM37 542l46 158h144l-102 -158h-88zM261 301h180l-64 168q-13 34 -26 76l-26 -76z" />
    <glyph glyph-name="anoteleia" unicode="&#x387;" horiz-adv-x="214" 
d="M40 300v134h134v-134h-134z" />
    <glyph glyph-name="Epsilontonos" unicode="&#x388;" horiz-adv-x="609" 
d="M-136 542l46 158h144l-102 -158h-88zM67 700h483v-118h-351v-161h323v-118h-323v-185h354v-118h-486v700z" />
    <glyph glyph-name="Etatonos" unicode="&#x389;" horiz-adv-x="704" 
d="M-136 542l46 158h144l-102 -158h-88zM67 700h132v-282h306v282h132v-700h-132v296h-306v-296h-132v700z" />
    <glyph glyph-name="Iotatonos" unicode="&#x38a;" horiz-adv-x="266" 
d="M-136 542l46 158h144l-102 -158h-88zM67 700h132v-700h-132v700z" />
    <glyph glyph-name="Omicrontonos" unicode="&#x38c;" horiz-adv-x="812" 
d="M766 350q0 -157 -102.5 -260.5t-257.5 -103.5t-257.5 103.5t-102.5 260.5t102.5 260.5t257.5 103.5t257.5 -103.5t102.5 -260.5zM-38 542l46 158h144l-102 -158h-88zM406 108q98 0 162 65.5t64 176.5t-64 176.5t-162 65.5t-162 -65.5t-64 -176.5t64 -176.5t162 -65.5z
" />
    <glyph glyph-name="Upsilontonos" unicode="&#x38e;" horiz-adv-x="602" 
d="M-212 542l46 158h144l-102 -158h-88zM235 0v274l-231 426h145l130 -249q13 -27 22 -51l22 51l130 249h145l-231 -426v-274h-132z" />
    <glyph glyph-name="Omegatonos" unicode="&#x38f;" horiz-adv-x="784" 
d="M58 0v96h138q-63 49 -106.5 124t-43.5 171q0 140 99 231.5t247 91.5t247 -91.5t99 -231.5q0 -96 -43.5 -171t-106.5 -124h138v-96h-288v110q72 43 120 114.5t48 159.5q0 91 -59.5 149.5t-154.5 58.5t-154.5 -58.5t-59.5 -149.5q0 -88 48 -159.5t120 -114.5v-110h-288z
M-59 542l46 158h144l-102 -158h-88z" />
    <glyph glyph-name="iotadieresistonos" unicode="&#x390;" horiz-adv-x="323" 
d="M30 550l46 158h144l-102 -158h-88zM-104 576v124h118v-124h-118zM238 576v124h118v-124h-118zM219 -14q-156 0 -156 158v352h126v-330q0 -68 60 -68q18 0 38 6l12 -104q-44 -14 -80 -14z" />
    <glyph glyph-name="Alpha" unicode="&#x391;" horiz-adv-x="702" 
d="M5 0l283 700h126l283 -700h-141l-70 183h-270l-70 -183h-141zM261 301h180l-64 168q-13 34 -26 76l-26 -76z" />
    <glyph glyph-name="Beta" unicode="&#x392;" horiz-adv-x="654" 
d="M67 700h288q107 0 165.5 -45t58.5 -126q0 -51 -27.5 -89.5t-69.5 -59.5q126 -50 126 -170q0 -96 -71.5 -153t-176.5 -57h-293v700zM199 428h146q55 0 80.5 19t25.5 59t-25.5 59t-80.5 19h-146v-156zM199 118h153q124 0 124 97t-124 97h-153v-194z" />
    <glyph glyph-name="Gamma" unicode="&#x393;" horiz-adv-x="566" 
d="M67 0v700h483v-118h-351v-582h-132z" />
    <glyph glyph-name="uni0394" unicode="&#x394;" horiz-adv-x="702" 
d="M5 0l283 700h126l283 -700h-692zM191 118h320l-134 351q-13 34 -26 76l-26 -76z" />
    <glyph glyph-name="Epsilon" unicode="&#x395;" horiz-adv-x="609" 
d="M67 700h483v-118h-351v-161h323v-118h-323v-185h354v-118h-486v700z" />
    <glyph glyph-name="Zeta" unicode="&#x396;" horiz-adv-x="614" 
d="M48 700h512v-122l-366 -456h383v-122h-542v120l368 458h-355v122z" />
    <glyph glyph-name="Eta" unicode="&#x397;" horiz-adv-x="704" 
d="M67 700h132v-282h306v282h132v-700h-132v296h-306v-296h-132v700z" />
    <glyph glyph-name="Theta" unicode="&#x398;" horiz-adv-x="704" 
d="M352 -14q-143 0 -224.5 102.5t-81.5 261.5t81.5 261.5t224.5 102.5t224.5 -102.5t81.5 -261.5t-81.5 -261.5t-224.5 -102.5zM183 408h338q-11 88 -54 136t-115 48q-73 0 -115.5 -48t-53.5 -136zM352 108q72 0 115 48t54 136h-338q11 -88 53.5 -136t115.5 -48z" />
    <glyph glyph-name="Iota" unicode="&#x399;" horiz-adv-x="266" 
d="M67 700h132v-700h-132v700z" />
    <glyph glyph-name="Kappa" unicode="&#x39a;" horiz-adv-x="652" 
d="M67 0v700h132v-270l55 62l196 208h167l-248 -260l264 -440h-154l-205 342l-75 -79v-263h-132z" />
    <glyph glyph-name="Lambda" unicode="&#x39b;" horiz-adv-x="665" 
d="M5 0l261 700h134l260 -700h-147l-154 448l-26 89l-26 -89l-155 -448h-147z" />
    <glyph glyph-name="Mu" unicode="&#x39c;" horiz-adv-x="858" 
d="M67 700h139l223 -556l223 556h139v-700h-128v428l-34 -107l-137 -321h-126l-137 321l-34 107v-428h-128v700z" />
    <glyph glyph-name="Nu" unicode="&#x39d;" horiz-adv-x="718" 
d="M67 700h134l292 -445q24 -40 30 -55v500h128v-700h-134l-292 448q-24 40 -30 55v-503h-128v700z" />
    <glyph glyph-name="Xi" unicode="&#x39e;" horiz-adv-x="612" 
d="M59 582v118h494v-118h-494zM87 303v118h438v-118h-438zM56 0v118h500v-118h-500z" />
    <glyph glyph-name="Omicron" unicode="&#x39f;" horiz-adv-x="812" 
d="M766 350q0 -157 -102.5 -260.5t-257.5 -103.5t-257.5 103.5t-102.5 260.5t102.5 260.5t257.5 103.5t257.5 -103.5t102.5 -260.5zM406 108q98 0 162 65.5t64 176.5t-64 176.5t-162 65.5t-162 -65.5t-64 -176.5t64 -176.5t162 -65.5z" />
    <glyph glyph-name="Pi" unicode="&#x3a0;" horiz-adv-x="688" 
d="M67 0v700h554v-700h-132v578h-290v-578h-132z" />
    <glyph glyph-name="Rho" unicode="&#x3a1;" horiz-adv-x="688" 
d="M67 0v700h318q121 0 191.5 -59.5t70.5 -168.5t-70.5 -168.5t-191.5 -59.5h-186v-244h-132zM199 362h182q67 0 100.5 29.5t33.5 80.5t-33.5 80.5t-100.5 29.5h-182v-220z" />
    <glyph glyph-name="Sigma" unicode="&#x3a3;" horiz-adv-x="596" 
d="M40 0v122l193 228l-185 228v122h502v-122h-346l181 -228l-189 -228h365v-122h-521z" />
    <glyph glyph-name="Tau" unicode="&#x3a4;" horiz-adv-x="592" 
d="M230 0v578h-214v122h560v-122h-214v-578h-132z" />
    <glyph glyph-name="Upsilon" unicode="&#x3a5;" horiz-adv-x="602" 
d="M235 0v274l-231 426h145l130 -249q13 -27 22 -51l22 51l130 249h145l-231 -426v-274h-132z" />
    <glyph glyph-name="Phi" unicode="&#x3a6;" horiz-adv-x="842" 
d="M353 -14v72h-4q-123 0 -215.5 78.5t-92.5 213.5t92.5 213.5t215.5 78.5h4v72h136v-72h4q123 0 215.5 -78.5t92.5 -213.5t-92.5 -213.5t-215.5 -78.5h-4v-72h-136zM344 170h9v360h-9q-75 0 -126 -48t-51 -132t51 -132t126 -48zM489 170h9q75 0 126 48t51 132t-51 132
t-126 48h-9v-360z" />
    <glyph glyph-name="Chi" unicode="&#x3a7;" horiz-adv-x="617" 
d="M308 478l140 222h134l-200 -319l231 -381h-141l-164 270l-163 -270h-142l234 376l-203 324h141z" />
    <glyph glyph-name="Psi" unicode="&#x3a8;" horiz-adv-x="794" 
d="M331 0v160q-131 0 -200.5 72.5t-69.5 213.5v254h132v-250q0 -84 36 -129t102 -45v424h132v-424q66 0 102 45t36 129v250h132v-254q0 -141 -69.5 -213.5t-200.5 -72.5v-160h-132z" />
    <glyph glyph-name="uni03A9" unicode="&#x3a9;" horiz-adv-x="784" 
d="M58 0v96h138q-63 49 -106.5 124t-43.5 171q0 140 99 231.5t247 91.5t247 -91.5t99 -231.5q0 -96 -43.5 -171t-106.5 -124h138v-96h-288v110q72 43 120 114.5t48 159.5q0 91 -59.5 149.5t-154.5 58.5t-154.5 -58.5t-59.5 -149.5q0 -88 48 -159.5t120 -114.5v-110h-288z
" />
    <glyph glyph-name="Iotadieresis" unicode="&#x3aa;" horiz-adv-x="266" 
d="M-16 780v124h118v-124h-118zM164 780v124h118v-124h-118zM67 700h132v-700h-132v700z" />
    <glyph glyph-name="Upsilondieresis" unicode="&#x3ab;" horiz-adv-x="602" 
d="M152 780v124h118v-124h-118zM332 780v124h118v-124h-118zM235 0v274l-231 426h145l130 -249q13 -27 22 -51l22 51l130 249h145l-231 -426v-274h-132z" />
    <glyph glyph-name="alphatonos" unicode="&#x3ac;" horiz-adv-x="687" 
d="M283 542l46 158h144l-102 -158h-88zM292 -14q-110 0 -183.5 72.5t-73.5 189.5q0 118 72 190t168 72q120 0 185 -84l13 70h128l-55 -287q10 -113 58 -113q19 0 38 13l26 -109q-40 -14 -75 -14q-95 0 -133 88q-59 -88 -168 -88zM299 104q60 0 98 41t38 103t-38 103t-98 41
t-98 -41t-38 -103t38 -103t98 -41z" />
    <glyph glyph-name="epsilontonos" unicode="&#x3ad;" horiz-adv-x="487" 
d="M200 542l46 158h144l-102 -158h-88zM245 -14q-97 0 -150.5 45t-53.5 115q0 86 95 122q-73 36 -73 112q0 57 51.5 93.5t137.5 36.5q87 0 132.5 -37.5t45.5 -98.5q0 -32 -15 -58l-99 36q3 8 3 18q0 24 -21 37t-48 13q-33 0 -54 -14t-21 -38q0 -60 101 -60v-87
q-52 0 -82.5 -18t-30.5 -52q0 -31 24 -49t61 -18t58.5 16t21.5 45q0 14 -5 27l108 36q16 -25 16 -61q0 -80 -52.5 -120.5t-149.5 -40.5z" />
    <glyph glyph-name="etatonos" unicode="&#x3ae;" horiz-adv-x="594" 
d="M253 542l46 158h144l-102 -158h-88zM405 -204v490q0 106 -101 106q-50 0 -82.5 -39t-32.5 -101v-252h-126v496h126v-80q61 94 168 94q79 0 126.5 -47t47.5 -125v-542h-126z" />
    <glyph glyph-name="iotatonos" unicode="&#x3af;" horiz-adv-x="323" 
d="M82 542l46 158h144l-102 -158h-88zM219 -14q-156 0 -156 158v352h126v-330q0 -68 60 -68q18 0 38 6l12 -104q-44 -14 -80 -14z" />
    <glyph glyph-name="upsilondieresistonos" unicode="&#x3b0;" horiz-adv-x="582" 
d="M195 550l46 158h144l-102 -158h-88zM61 576v124h118v-124h-118zM403 576v124h118v-124h-118zM291 -14q-104 0 -166 58.5t-62 170.5v281h126v-279q0 -54 26.5 -83.5t75.5 -29.5t75.5 29.5t26.5 83.5v279h126v-281q0 -112 -62 -170.5t-166 -58.5z" />
    <glyph glyph-name="alpha" unicode="&#x3b1;" horiz-adv-x="687" 
d="M292 -14q-110 0 -183.5 72.5t-73.5 189.5q0 118 72 190t168 72q120 0 185 -84l13 70h128l-55 -287q10 -113 58 -113q19 0 38 13l26 -109q-40 -14 -75 -14q-95 0 -133 88q-59 -88 -168 -88zM299 104q60 0 98 41t38 103t-38 103t-98 41t-98 -41t-38 -103t38 -103t98 -41z
" />
    <glyph glyph-name="beta" unicode="&#x3b2;" horiz-adv-x="588" 
d="M63 -204v700q0 106 63 162t155 56q97 0 154.5 -47.5t57.5 -125.5q0 -101 -99 -149q67 -24 110 -72t43 -122q0 -92 -59.5 -152t-150.5 -60q-98 0 -148 67v-257h-126zM312 96q48 0 78.5 28t30.5 80q0 62 -45 92t-113 30h-31v110h30q51 0 79.5 23t28.5 67q0 34 -23 56
t-64 22t-67.5 -27.5t-26.5 -79.5v-266q0 -65 35.5 -100t87.5 -35z" />
    <glyph glyph-name="gamma" unicode="&#x3b3;" horiz-adv-x="548" 
d="M211 -204v214l-197 486h137l123 -336l123 336h137l-197 -486v-214h-126z" />
    <glyph glyph-name="delta" unicode="&#x3b4;" horiz-adv-x="578" 
d="M288 -14q-104 0 -175.5 63t-71.5 175q0 95 63.5 159.5t161.5 72.5l-191 168v76h370v-98h-190l165 -146q59 -52 88 -103.5t29 -128.5q0 -105 -73.5 -171.5t-175.5 -66.5zM288 94q56 0 92.5 35.5t36.5 94.5q0 58 -37.5 94t-91.5 36t-91.5 -36t-37.5 -94q0 -59 36.5 -94.5
t92.5 -35.5z" />
    <glyph glyph-name="epsilon" unicode="&#x3b5;" horiz-adv-x="487" 
d="M245 -14q-97 0 -150.5 45t-53.5 115q0 86 95 122q-73 36 -73 112q0 57 51.5 93.5t137.5 36.5q87 0 132.5 -37.5t45.5 -98.5q0 -32 -15 -58l-99 36q3 8 3 18q0 24 -21 37t-48 13q-33 0 -54 -14t-21 -38q0 -60 101 -60v-87q-52 0 -82.5 -18t-30.5 -52q0 -31 24 -49t61 -18
t58.5 16t21.5 45q0 14 -5 27l108 36q16 -25 16 -61q0 -80 -52.5 -120.5t-149.5 -40.5z" />
    <glyph glyph-name="zeta" unicode="&#x3b6;" horiz-adv-x="511" 
d="M437 -144l-89 71q16 20 16 36q0 37 -53 37q-270 0 -270 239q0 113 72.5 207.5t175.5 151.5h-236v102h368v-102q-110 -57 -182 -148.5t-72 -180.5q0 -151 169 -153q76 -1 116 -37.5t40 -102.5q0 -58 -55 -120z" />
    <glyph glyph-name="eta" unicode="&#x3b7;" horiz-adv-x="594" 
d="M405 -204v490q0 106 -101 106q-50 0 -82.5 -39t-32.5 -101v-252h-126v496h126v-80q61 94 168 94q79 0 126.5 -47t47.5 -125v-542h-126z" />
    <glyph glyph-name="theta" unicode="&#x3b8;" horiz-adv-x="640" 
d="M320 -14q-128 0 -203.5 95.5t-75.5 268.5q0 171 78 267.5t201 96.5t201 -96.5t78 -267.5q0 -173 -75.5 -268.5t-203.5 -95.5zM173 408h294q-17 188 -147 188t-147 -188zM320 104q130 0 147 188h-294q17 -188 147 -188z" />
    <glyph glyph-name="iota" unicode="&#x3b9;" horiz-adv-x="323" 
d="M219 -14q-156 0 -156 158v352h126v-330q0 -68 60 -68q18 0 38 6l12 -104q-44 -14 -80 -14z" />
    <glyph glyph-name="kappa" unicode="&#x3ba;" horiz-adv-x="541" 
d="M63 0v496h126v-158l151 158h156l-186 -190l210 -306h-145l-152 217l-34 -35v-182h-126z" />
    <glyph glyph-name="lambda" unicode="&#x3bb;" horiz-adv-x="546" 
d="M5 0l204 500l-16 44q-17 48 -56 48q-23 0 -45 -12l-20 115q31 12 69 12q59 0 98.5 -28.5t65.5 -92.5l236 -586h-143l-122 322l-128 -322h-143z" />
    <glyph glyph-name="uni03BC" unicode="&#x3bc;" horiz-adv-x="594" 
d="M63 -204v700h126v-279q0 -113 101 -113q52 0 83.5 38t31.5 98v256h126v-496h-126v78q-50 -92 -158 -92q-33 0 -61 9q3 -57 3 -68v-131h-126z" />
    <glyph glyph-name="nu" unicode="&#x3bd;" horiz-adv-x="534" 
d="M326 0h-118l-201 496h134l126 -336l126 336h134z" />
    <glyph glyph-name="xi" unicode="&#x3be;" horiz-adv-x="548" 
d="M423 -157l-76 69q18 20 18 37q0 20 -14 28.5t-46 8.5q-117 0 -190 58t-73 151q0 74 39.5 120t96.5 69q-43 22 -73 62t-30 93q0 77 60.5 126t163.5 49q110 0 164 -46.5t54 -124.5q0 -34 -13 -64l-119 26q6 16 6 34q0 32 -24 49.5t-69 17.5q-43 0 -69 -22.5t-26 -61.5
q0 -46 39 -72.5t111 -26.5v-98q-80 0 -129.5 -29.5t-49.5 -85.5q0 -53 44 -82.5t127 -29.5q70 0 111 -32t41 -86q0 -45 -18.5 -75t-55.5 -62z" />
    <glyph glyph-name="omicron" unicode="&#x3bf;" horiz-adv-x="606" 
d="M574 248q0 -123 -80.5 -192.5t-190.5 -69.5t-190.5 69.5t-80.5 192.5t80.5 192.5t190.5 69.5t190.5 -69.5t80.5 -192.5zM303 104q58 0 100.5 39.5t42.5 104.5t-42.5 104.5t-100.5 39.5t-100.5 -39.5t-42.5 -104.5t42.5 -104.5t100.5 -39.5z" />
    <glyph glyph-name="pi" unicode="&#x3c0;" horiz-adv-x="682" 
d="M566 -14q-66 0 -105 40.5t-39 117.5v250h-167v-394h-126v394h-104v102h627v-102h-104v-230q0 -66 54 -66q19 0 37 6l12 -104q-39 -14 -85 -14z" />
    <glyph glyph-name="rho" unicode="&#x3c1;" horiz-adv-x="624" 
d="M63 -204v452q0 122 72.5 192t189.5 70q118 0 191 -70t73 -192q0 -117 -69 -189.5t-174 -72.5q-47 0 -89.5 20t-67.5 52v-262h-126zM325 104q60 0 98 41t38 103t-38 103t-98 41t-98 -41t-38 -103t38 -103t98 -41z" />
    <glyph glyph-name="uni03C2" unicode="&#x3c2;" horiz-adv-x="555" 
d="M383 -172l-79 79q24 21 24 44q0 30 -39 36q-107 15 -180.5 83.5t-73.5 184.5q0 111 76.5 183t184.5 72q88 0 145 -38t82 -100l-103 -68q-41 88 -129 88q-55 0 -91.5 -38t-36.5 -97q0 -65 43.5 -105.5t118.5 -55.5q76 -15 111 -44t35 -88q0 -74 -88 -136z" />
    <glyph glyph-name="sigma" unicode="&#x3c3;" horiz-adv-x="639" 
d="M306 -14q-110 0 -190.5 69.5t-80.5 192.5q0 124 82 193t199 69h298v-94h-110q73 -67 73 -168q0 -123 -80.5 -192.5t-190.5 -69.5zM306 104q58 0 100.5 39.5t42.5 104.5t-42.5 104.5t-100.5 39.5t-100.5 -39.5t-42.5 -104.5t42.5 -104.5t100.5 -39.5z" />
    <glyph glyph-name="tau" unicode="&#x3c4;" horiz-adv-x="459" 
d="M329 -14q-73 0 -120.5 36.5t-47.5 121.5v250h-143v102h412v-102h-143v-226q0 -70 67 -70q24 0 47 7l13 -105q-39 -14 -85 -14z" />
    <glyph glyph-name="upsilon" unicode="&#x3c5;" horiz-adv-x="582" 
d="M291 -14q-104 0 -166 58.5t-62 170.5v281h126v-279q0 -54 26.5 -83.5t75.5 -29.5t75.5 29.5t26.5 83.5v279h126v-281q0 -112 -62 -170.5t-166 -58.5z" />
    <glyph glyph-name="phi" unicode="&#x3c6;" horiz-adv-x="736" 
d="M305 -204v204h-11q-105 0 -182 68t-77 180q0 116 73.5 182t196.5 66h126q123 0 196.5 -66t73.5 -182q0 -112 -77 -180t-182 -68h-11v-204h-126zM305 106v284q-61 0 -102.5 -36t-41.5 -106t41.5 -106t102.5 -36zM431 106q61 0 102.5 36t41.5 106t-41.5 106t-102.5 36v-284
z" />
    <glyph glyph-name="chi" unicode="&#x3c7;" horiz-adv-x="567" 
d="M495 -211q-54 0 -86.5 23t-56.5 79l-60 139l-114 -234h-137l191 370l-91 195q-15 32 -38 32q-21 0 -41 -15l-40 86q43 39 102 39q87 0 121 -77l54 -121l90 191h132l-161 -328l103 -221q11 -25 22 -35t30 -10q18 0 38 13l28 -103q-35 -23 -86 -23z" />
    <glyph glyph-name="psi" unicode="&#x3c8;" horiz-adv-x="702" 
d="M288 -204v190q-105 0 -165 57t-60 165v288h126v-288q0 -109 99 -109v397h126v-397q99 0 99 109v288h126v-288q0 -108 -60 -165t-165 -57v-190h-126z" />
    <glyph glyph-name="omega" unicode="&#x3c9;" horiz-adv-x="818" 
d="M253 -14q-93 0 -145 66t-52 176q0 166 79 282l112 -53q-34 -64 -49.5 -116t-15.5 -117t22 -96.5t59 -31.5q38 0 60.5 28.5t22.5 82.5v153h126v-153q0 -54 22.5 -82.5t60.5 -28.5q37 0 59 31.5t22 96.5t-15.5 117t-49.5 116l112 53q79 -116 79 -282q0 -110 -52 -176
t-145 -66q-116 0 -156 104q-40 -104 -156 -104z" />
    <glyph glyph-name="iotadieresis" unicode="&#x3ca;" horiz-adv-x="323" 
d="M-23 576v124h118v-124h-118zM157 576v124h118v-124h-118zM219 -14q-156 0 -156 158v352h126v-330q0 -68 60 -68q18 0 38 6l12 -104q-44 -14 -80 -14z" />
    <glyph glyph-name="upsilondieresis" unicode="&#x3cb;" horiz-adv-x="582" 
d="M142 576v124h118v-124h-118zM322 576v124h118v-124h-118zM291 -14q-104 0 -166 58.5t-62 170.5v281h126v-279q0 -54 26.5 -83.5t75.5 -29.5t75.5 29.5t26.5 83.5v279h126v-281q0 -112 -62 -170.5t-166 -58.5z" />
    <glyph glyph-name="omicrontonos" unicode="&#x3cc;" horiz-adv-x="606" 
d="M242 550l68 158h153l-124 -158h-97zM574 248q0 -123 -80.5 -192.5t-190.5 -69.5t-190.5 69.5t-80.5 192.5t80.5 192.5t190.5 69.5t190.5 -69.5t80.5 -192.5zM303 104q58 0 100.5 39.5t42.5 104.5t-42.5 104.5t-100.5 39.5t-100.5 -39.5t-42.5 -104.5t42.5 -104.5
t100.5 -39.5z" />
    <glyph glyph-name="upsilontonos" unicode="&#x3cd;" horiz-adv-x="582" 
d="M247 542l46 158h144l-102 -158h-88zM291 -14q-104 0 -166 58.5t-62 170.5v281h126v-279q0 -54 26.5 -83.5t75.5 -29.5t75.5 29.5t26.5 83.5v279h126v-281q0 -112 -62 -170.5t-166 -58.5z" />
    <glyph glyph-name="omegatonos" unicode="&#x3ce;" horiz-adv-x="818" 
d="M365 542l46 158h144l-102 -158h-88zM253 -14q-93 0 -145 66t-52 176q0 166 79 282l112 -53q-34 -64 -49.5 -116t-15.5 -117t22 -96.5t59 -31.5q38 0 60.5 28.5t22.5 82.5v153h126v-153q0 -54 22.5 -82.5t60.5 -28.5q37 0 59 31.5t22 96.5t-15.5 117t-49.5 116l112 53
q79 -116 79 -282q0 -110 -52 -176t-145 -66q-116 0 -156 104q-40 -104 -156 -104z" />
    <glyph glyph-name="uni0400" unicode="&#x400;" horiz-adv-x="609" 
d="M280 754l-124 158h153l68 -158h-97zM67 700h483v-118h-351v-161h323v-118h-323v-185h354v-118h-486v700z" />
    <glyph glyph-name="uni0401" unicode="&#x401;" horiz-adv-x="609" 
d="M168 780v124h118v-124h-118zM348 780v124h118v-124h-118zM67 700h483v-118h-351v-161h323v-118h-323v-185h354v-118h-486v700z" />
    <glyph glyph-name="uni0402" unicode="&#x402;" horiz-adv-x="774" 
d="M503 418q109 0 174 -55.5t65 -152.5q0 -102 -63 -159.5t-166 -57.5q-28 0 -61 7v115q25 -6 57 -6q46 0 73.5 25t27.5 70q0 44 -31.5 70t-81.5 26q-86 0 -145 -37v-263h-132v578h-204v122h560v-122h-224v-192q77 32 151 32z" />
    <glyph glyph-name="uni0403" unicode="&#x403;" horiz-adv-x="566" 
d="M248 754l68 158h153l-124 -158h-97zM67 0v700h483v-118h-351v-582h-132z" />
    <glyph glyph-name="uni0404" unicode="&#x404;" horiz-adv-x="768" 
d="M404 -14q-156 0 -257 101t-101 263q0 161 103.5 262.5t259.5 101.5q104 0 183 -48t119 -123l-111 -67q-69 116 -195 116q-79 0 -138.5 -46.5t-78.5 -127.5h298v-122h-301q16 -85 77 -136.5t143 -51.5q126 0 204 112l111 -63q-62 -90 -133.5 -130.5t-182.5 -40.5z" />
    <glyph glyph-name="uni0405" unicode="&#x405;" horiz-adv-x="652" 
d="M201 525q0 -40 40 -65.5t129 -43.5q116 -24 172.5 -76t56.5 -139q0 -89 -71.5 -152t-189.5 -63t-194 51.5t-100 135.5l115 54q23 -58 64 -91.5t114 -33.5q59 0 94.5 26t35.5 68q0 47 -41.5 73t-131.5 43q-101 20 -160 72.5t-59 137.5q0 87 68 139.5t178 52.5
q184 0 258 -146l-108 -60q-57 90 -153 90q-50 0 -83.5 -18.5t-33.5 -54.5z" />
    <glyph glyph-name="uni0406" unicode="&#x406;" horiz-adv-x="266" 
d="M67 700h132v-700h-132v700z" />
    <glyph glyph-name="uni0407" unicode="&#x407;" horiz-adv-x="266" 
d="M-16 780v124h118v-124h-118zM164 780v124h118v-124h-118zM67 700h132v-700h-132v700z" />
    <glyph glyph-name="uni0408" unicode="&#x408;" horiz-adv-x="555" 
d="M500 214q0 -102 -60.5 -165t-168.5 -63q-107 0 -168 60.5t-61 163.5h132q2 -102 97 -102q47 0 72 29.5t25 78.5v484h132v-486z" />
    <glyph glyph-name="uni0409" unicode="&#x409;" horiz-adv-x="1106" 
d="M96 -7q-16 0 -32.5 1.5t-25.5 3.5l-8 2v123q20 -6 44 -6q32 0 48.5 25t21.5 97q4 54 8 148t7 145l9 168h478v-252h163q118 0 187 -57t69 -166t-69 -167t-187 -58h-295v582h-229l-3 -56q-3 -51 -8 -149.5t-9 -161.5q-8 -119 -51.5 -170.5t-117.5 -51.5zM646 118h153
q134 0 134 107t-134 107h-153v-214z" />
    <glyph glyph-name="uni040A" unicode="&#x40a;" horiz-adv-x="1057" 
d="M67 0v700h132v-262h286v262h132v-262h153q110 0 178 -58.5t68 -162.5t-67.5 -160.5t-178.5 -56.5h-285v316h-286v-316h-132zM617 118h143q124 0 124 99t-124 99h-143v-198z" />
    <glyph glyph-name="uni040B" unicode="&#x40b;" horiz-adv-x="795" 
d="M509 418q108 0 168 -55t60 -162v-201h-132v183q0 56 -30 86.5t-87 30.5q-73 0 -136 -37v-263h-132v578h-204v122h560v-122h-224v-192q69 32 157 32z" />
    <glyph glyph-name="uni040C" unicode="&#x40c;" horiz-adv-x="648" 
d="M484 912l-124 -158h-97l68 158h153zM315 371l314 -371h-164l-214 254q-8 9 -25.5 30t-26.5 31v-315h-132v700h132v-285q24 33 55 67l191 218h170z" />
    <glyph glyph-name="uni040D" unicode="&#x40d;" horiz-adv-x="709" 
d="M318 754l-124 158h153l68 -158h-97zM67 0v700h128v-514l30 55l283 459h134v-700h-128v517l-30 -55l-283 -462h-134z" />
    <glyph glyph-name="uni040E" unicode="&#x40e;" horiz-adv-x="638" 
d="M329 768q-51 0 -82.5 32t-31.5 81h76q0 -19 10 -31t28 -12t28 12t10 31h76q0 -49 -31.5 -81t-82.5 -32zM486 700h144l-257 -568q-37 -81 -79 -113.5t-106 -32.5q-62 0 -106 18v144q52 -26 102 -26q47 0 69 49l13 29l-254 500h149l173 -345z" />
    <glyph glyph-name="uni040F" unicode="&#x40f;" horiz-adv-x="688" 
d="M282 -126v126h-215v700h132v-578h290v578h132v-700h-216v-126h-123z" />
    <glyph glyph-name="uni0410" unicode="&#x410;" horiz-adv-x="702" 
d="M5 0l283 700h126l283 -700h-141l-70 183h-270l-70 -183h-141zM261 301h180l-64 168q-13 34 -26 76l-26 -76z" />
    <glyph glyph-name="uni0411" unicode="&#x411;" horiz-adv-x="654" 
d="M67 0v700h491v-116h-359v-150h163q110 0 178 -57.5t68 -158.5t-68.5 -159.5t-177.5 -58.5h-295zM199 118h153q124 0 124 100t-124 100h-153v-200z" />
    <glyph glyph-name="uni0412" unicode="&#x412;" horiz-adv-x="654" 
d="M67 700h288q107 0 165.5 -45t58.5 -126q0 -51 -27.5 -89.5t-69.5 -59.5q126 -50 126 -170q0 -96 -71.5 -153t-176.5 -57h-293v700zM199 428h146q55 0 80.5 19t25.5 59t-25.5 59t-80.5 19h-146v-156zM199 118h153q124 0 124 97t-124 97h-153v-194z" />
    <glyph glyph-name="uni0413" unicode="&#x413;" horiz-adv-x="566" 
d="M67 0v700h483v-118h-351v-582h-132z" />
    <glyph glyph-name="uni0414" unicode="&#x414;" horiz-adv-x="737" 
d="M10 -126v248h60q31 64 46.5 130t21.5 167l16 281h466v-578h97v-248h-123v126h-461v-126h-123zM209 122h279v460h-212l-9 -160q-6 -104 -18.5 -168.5t-39.5 -131.5z" />
    <glyph glyph-name="uni0415" unicode="&#x415;" horiz-adv-x="609" 
d="M67 700h483v-118h-351v-161h323v-118h-323v-185h354v-118h-486v700z" />
    <glyph glyph-name="uni0416" unicode="&#x416;" horiz-adv-x="1030" 
d="M697 371l314 -371h-164l-214 254q-8 9 -25.5 30t-26.5 31v-315h-132v315q-9 -10 -26.5 -31t-25.5 -30l-214 -254h-164l314 371l-300 329h170l191 -218q31 -34 55 -67v285h132v-285q24 33 55 67l191 218h170z" />
    <glyph glyph-name="uni0417" unicode="&#x417;" horiz-adv-x="633" 
d="M472 372q53 -21 83 -64t30 -99q0 -102 -73.5 -162.5t-192.5 -60.5q-220 0 -273 194l124 54q11 -56 50 -92t99 -36q59 0 96.5 27t37.5 78q0 42 -35.5 66t-91.5 24h-77v116h77q46 0 74 24.5t28 66.5q0 40 -29 63t-78 23q-107 0 -126 -93l-118 34q14 78 76 128.5t169 50.5
q115 0 174.5 -53.5t59.5 -139.5q0 -47 -22.5 -86t-61.5 -63z" />
    <glyph glyph-name="uni0418" unicode="&#x418;" horiz-adv-x="709" 
d="M67 0v700h128v-514l30 55l283 459h134v-700h-128v517l-30 -55l-283 -462h-134z" />
    <glyph glyph-name="uni0419" unicode="&#x419;" horiz-adv-x="709" 
d="M355 768q-51 0 -82.5 32t-31.5 81h76q0 -19 10 -31t28 -12t28 12t10 31h76q0 -49 -31.5 -81t-82.5 -32zM67 0v700h128v-514l30 55l283 459h134v-700h-128v517l-30 -55l-283 -462h-134z" />
    <glyph glyph-name="uni041A" unicode="&#x41a;" horiz-adv-x="648" 
d="M315 371l314 -371h-164l-214 254q-8 9 -25.5 30t-26.5 31v-315h-132v700h132v-285q24 33 55 67l191 218h170z" />
    <glyph glyph-name="uni041B" unicode="&#x41b;" horiz-adv-x="728" 
d="M96 -7q-16 0 -32.5 1.5t-25.5 3.5l-8 2v123q20 -6 44 -6q32 0 48.5 25t21.5 97q4 54 8 148t7 145l9 168h493v-700h-132v582h-244l-3 -56q-2 -38 -7 -141.5t-10 -169.5q-9 -119 -52 -170.5t-117 -51.5z" />
    <glyph glyph-name="uni041C" unicode="&#x41c;" horiz-adv-x="858" 
d="M67 700h139l223 -556l223 556h139v-700h-128v428l-34 -107l-137 -321h-126l-137 321l-34 107v-428h-128v700z" />
    <glyph glyph-name="uni041D" unicode="&#x41d;" horiz-adv-x="704" 
d="M67 700h132v-282h306v282h132v-700h-132v296h-306v-296h-132v700z" />
    <glyph glyph-name="uni041E" unicode="&#x41e;" horiz-adv-x="812" 
d="M766 350q0 -157 -102.5 -260.5t-257.5 -103.5t-257.5 103.5t-102.5 260.5t102.5 260.5t257.5 103.5t257.5 -103.5t102.5 -260.5zM406 108q98 0 162 65.5t64 176.5t-64 176.5t-162 65.5t-162 -65.5t-64 -176.5t64 -176.5t162 -65.5z" />
    <glyph glyph-name="uni041F" unicode="&#x41f;" horiz-adv-x="688" 
d="M67 0v700h554v-700h-132v578h-290v-578h-132z" />
    <glyph glyph-name="uni0420" unicode="&#x420;" horiz-adv-x="688" 
d="M67 0v700h318q121 0 191.5 -59.5t70.5 -168.5t-70.5 -168.5t-191.5 -59.5h-186v-244h-132zM199 362h182q67 0 100.5 29.5t33.5 80.5t-33.5 80.5t-100.5 29.5h-182v-220z" />
    <glyph glyph-name="uni0421" unicode="&#x421;" horiz-adv-x="768" 
d="M720 157q-62 -90 -133.5 -130.5t-182.5 -40.5q-156 0 -257 101t-101 263q0 161 103.5 262.5t259.5 101.5q104 0 183 -48t119 -123l-111 -67q-69 116 -195 116q-95 0 -160 -66.5t-65 -175.5q0 -106 65 -174t160 -68q126 0 204 112z" />
    <glyph glyph-name="uni0422" unicode="&#x422;" horiz-adv-x="592" 
d="M230 0v578h-214v122h560v-122h-214v-578h-132z" />
    <glyph glyph-name="uni0423" unicode="&#x423;" horiz-adv-x="638" 
d="M486 700h144l-257 -568q-37 -81 -79 -113.5t-106 -32.5q-62 0 -106 18v144q52 -26 102 -26q47 0 69 49l13 29l-254 500h149l173 -345z" />
    <glyph glyph-name="uni0424" unicode="&#x424;" horiz-adv-x="842" 
d="M353 -14v72h-4q-123 0 -215.5 78.5t-92.5 213.5t92.5 213.5t215.5 78.5h4v72h136v-72h4q123 0 215.5 -78.5t92.5 -213.5t-92.5 -213.5t-215.5 -78.5h-4v-72h-136zM344 170h9v360h-9q-75 0 -126 -48t-51 -132t51 -132t126 -48zM489 170h9q75 0 126 48t51 132t-51 132
t-126 48h-9v-360z" />
    <glyph glyph-name="uni0425" unicode="&#x425;" horiz-adv-x="617" 
d="M308 478l140 222h134l-200 -319l231 -381h-141l-164 270l-163 -270h-142l234 376l-203 324h141z" />
    <glyph glyph-name="uni0426" unicode="&#x426;" horiz-adv-x="739" 
d="M596 -126v126h-529v700h132v-578h291v578h132v-578h97v-248h-123z" />
    <glyph glyph-name="uni0427" unicode="&#x427;" horiz-adv-x="681" 
d="M482 0v268q-58 -32 -164 -32q-114 0 -186 63.5t-72 184.5v216h132v-204q0 -142 128 -142q110 0 162 35v311h132v-700h-132z" />
    <glyph glyph-name="uni0428" unicode="&#x428;" horiz-adv-x="944" 
d="M67 0v700h132v-578h207v578h132v-578h207v578h132v-700h-810z" />
    <glyph glyph-name="uni0429" unicode="&#x429;" horiz-adv-x="994" 
d="M851 -126v126h-784v700h132v-578h207v578h132v-578h207v578h132v-578h97v-248h-123z" />
    <glyph glyph-name="uni042A" unicode="&#x42a;" horiz-adv-x="748" 
d="M156 0v584h-140v116h272v-252h163q118 0 187 -57t69 -166t-69 -167t-187 -58h-295zM288 118h153q134 0 134 107t-134 107h-153v-214z" />
    <glyph glyph-name="uni042B" unicode="&#x42b;" horiz-adv-x="896" 
d="M67 0v700h132v-252h163q118 0 187 -57t69 -166t-69 -167t-187 -58h-295zM697 700h132v-700h-132v700zM199 118h153q134 0 134 107t-134 107h-153v-214z" />
    <glyph glyph-name="uni042C" unicode="&#x42c;" horiz-adv-x="659" 
d="M67 0v700h132v-252h163q118 0 187 -57t69 -166t-69 -167t-187 -58h-295zM199 118h153q134 0 134 107t-134 107h-153v-214z" />
    <glyph glyph-name="uni042D" unicode="&#x42d;" horiz-adv-x="768" 
d="M364 -14q-111 0 -182.5 40.5t-133.5 130.5l111 63q78 -112 204 -112q82 0 143 51.5t77 136.5h-301v122h298q-19 81 -78.5 127.5t-138.5 46.5q-126 0 -195 -116l-111 67q40 75 119 123t183 48q156 0 259.5 -101.5t103.5 -262.5q0 -162 -101 -263t-257 -101z" />
    <glyph glyph-name="uni042E" unicode="&#x42e;" horiz-adv-x="1012" 
d="M620 -14q-134 0 -228 84.5t-114 218.5h-79v-289h-132v700h132v-289h79q20 134 114 218.5t228 84.5q149 0 247.5 -103.5t98.5 -260.5t-98.5 -260.5t-247.5 -103.5zM620 108q91 0 151.5 67t60.5 175t-59.5 175t-152.5 67t-152.5 -67t-59.5 -175t59.5 -175t152.5 -67z" />
    <glyph glyph-name="uni042F" unicode="&#x42f;" horiz-adv-x="655" 
d="M289 700h299v-700h-132v264h-120l-160 -264h-145l171 280q-162 44 -162 212q0 96 67 152t182 56zM456 380v204h-167q-117 0 -117 -102t117 -102h167z" />
    <glyph glyph-name="uni0430" unicode="&#x430;" horiz-adv-x="550" 
d="M386 0q-10 40 -10 79q-52 -93 -166 -93q-74 0 -120.5 42.5t-46.5 112.5q0 136 177 161l149 20v25q0 75 -93 75q-40 0 -63.5 -16t-23.5 -40q0 -10 1 -14l-119 -13q-2 9 -2 26q0 60 56.5 102.5t150.5 42.5q106 0 162.5 -45t56.5 -135v-207q0 -74 16 -123h-125zM237 88
q58 0 95 34.5t37 103.5v9l-120 -17q-83 -12 -83 -70q0 -29 20 -44.5t51 -15.5z" />
    <glyph glyph-name="uni0431" unicode="&#x431;" horiz-adv-x="599" 
d="M307 -14q-129 0 -197.5 89.5t-68.5 245.5q0 123 50 221q63 124 265 148q64 8 94 37l71 -79q-28 -32 -66 -47t-100 -23q-33 -4 -53.5 -8.5t-49 -17t-47 -31t-35.5 -52.5t-25 -80q62 89 185 89q96 0 162 -66.5t66 -176.5q0 -111 -71.5 -180t-179.5 -69zM307 96
q58 0 96.5 37t38.5 99t-38.5 99t-96.5 37t-96 -37t-38 -99t38 -99t96 -37z" />
    <glyph glyph-name="uni0432" unicode="&#x432;" horiz-adv-x="525" 
d="M58 0v496h231q81 0 127 -34.5t46 -88.5q0 -75 -74 -111q92 -27 92 -117q0 -64 -51 -104.5t-129 -40.5h-242zM182 306h96q65 0 65 47t-65 47h-96v-94zM182 96h101q72 0 72 58q0 56 -72 56h-101v-114z" />
    <glyph glyph-name="uni0433" unicode="&#x433;" horiz-adv-x="429" 
d="M58 0v496h339v-114h-213v-382h-126z" />
    <glyph glyph-name="uni0434" unicode="&#x434;" horiz-adv-x="593" 
d="M10 -116v230h55q36 63 42 173l12 209h389v-382h75v-230h-114v116h-345v-116h-114zM184 114h198v268h-158l-6 -99q-8 -120 -34 -169z" />
    <glyph glyph-name="uni0435" unicode="&#x435;" horiz-adv-x="565" 
d="M153 218q6 -57 43 -90.5t93 -33.5q46 0 72 16.5t54 51.5l100 -50q-38 -65 -92.5 -95.5t-135.5 -30.5q-106 0 -180.5 73.5t-74.5 188.5q0 116 75.5 189t185.5 73q106 0 174 -69.5t68 -178.5v-44h-382zM289 414q-48 0 -84 -28t-50 -72h263q-9 47 -43 73.5t-86 26.5z" />
    <glyph glyph-name="uni0436" unicode="&#x436;" horiz-adv-x="766" 
d="M745 496l-196 -233l196 -263h-152l-147 205v-205h-126v205l-147 -205h-152l196 263l-196 233h161l138 -179v179h126v-179l138 179h161z" />
    <glyph glyph-name="uni0437" unicode="&#x437;" horiz-adv-x="498" 
d="M355 262q104 -29 104 -118q0 -72 -57 -115t-160 -43q-93 0 -145 44.5t-52 115.5q0 34 12 60l106 -34q-5 -12 -5 -25q0 -29 25 -46t59 -17q45 0 70 18t25 47q0 28 -23.5 43.5t-65.5 15.5h-41v100h38q77 0 77 54q0 50 -69 50q-37 0 -59.5 -12.5t-22.5 -30.5q0 -11 3 -18
l-107 -36q-10 27 -10 50q0 62 53 103.5t144 41.5q93 0 139 -36.5t46 -96.5q0 -82 -84 -115z" />
    <glyph glyph-name="uni0438" unicode="&#x438;" horiz-adv-x="582" 
d="M58 0v496h120v-327l216 327h130v-496h-120v327l-216 -327h-130z" />
    <glyph glyph-name="uni0439" unicode="&#x439;" horiz-adv-x="582" 
d="M291 564q-51 0 -82.5 32t-31.5 81h76q0 -19 10 -31t28 -12t28 12t10 31h76q0 -49 -31.5 -81t-82.5 -32zM58 0v496h120v-327l216 327h130v-496h-120v327l-216 -327h-130z" />
    <glyph glyph-name="uni043A" unicode="&#x43a;" horiz-adv-x="519" 
d="M498 496l-214 -234l214 -262h-149l-165 207v-207h-126v496h126v-180l161 180h153z" />
    <glyph glyph-name="uni043B" unicode="&#x43b;" horiz-adv-x="570" 
d="M64 -7q-10 0 -21 1.5t-17 3.5l-6 2v111q13 -6 35 -6q24 0 35.5 23t15.5 87l16 281h390v-496h-126v382h-154l-9 -172q-5 -111 -41.5 -164t-117.5 -53z" />
    <glyph glyph-name="uni043C" unicode="&#x43c;" horiz-adv-x="720" 
d="M58 0v496h165l137 -348l137 348h165v-496h-120v314l-133 -314h-98l-133 314v-314h-120z" />
    <glyph glyph-name="uni043D" unicode="&#x43d;" horiz-adv-x="574" 
d="M58 0v496h126v-185h206v185h126v-496h-126v201h-206v-201h-126z" />
    <glyph glyph-name="uni043E" unicode="&#x43e;" horiz-adv-x="606" 
d="M574 248q0 -123 -80.5 -192.5t-190.5 -69.5t-190.5 69.5t-80.5 192.5t80.5 192.5t190.5 69.5t190.5 -69.5t80.5 -192.5zM303 104q58 0 100.5 39.5t42.5 104.5t-42.5 104.5t-100.5 39.5t-100.5 -39.5t-42.5 -104.5t42.5 -104.5t100.5 -39.5z" />
    <glyph glyph-name="uni043F" unicode="&#x43f;" horiz-adv-x="564" 
d="M58 0v496h448v-496h-126v382h-196v-382h-126z" />
    <glyph glyph-name="uni0440" unicode="&#x440;" horiz-adv-x="621" 
d="M63 496h126v-71q26 38 72 61.5t100 23.5q97 0 162.5 -71t65.5 -191q0 -117 -69 -189.5t-170 -72.5t-161 75v-265h-126v700zM321 392q-60 0 -100 -41.5t-40 -102.5t40 -102.5t100 -41.5t100 41.5t40 102.5t-40 102.5t-100 41.5z" />
    <glyph glyph-name="uni0441" unicode="&#x441;" horiz-adv-x="541" 
d="M520 119q-78 -133 -227 -133q-112 0 -186.5 72.5t-74.5 189.5q0 116 76 189t185 73q80 0 137.5 -32.5t84.5 -91.5l-108 -62q-45 68 -115 68q-57 0 -94.5 -39.5t-37.5 -104.5q0 -66 37 -105t95 -39q43 0 70.5 18t53.5 54z" />
    <glyph glyph-name="uni0442" unicode="&#x442;" horiz-adv-x="466" 
d="M170 0v382h-148v114h422v-114h-148v-382h-126z" />
    <glyph glyph-name="uni0443" unicode="&#x443;" horiz-adv-x="546" 
d="M138 -211q-64 0 -96 14v125q49 -23 95 -23q39 0 56 47l16 44l-204 500h143l128 -322l122 322h143l-236 -586q-26 -64 -65.5 -92.5t-101.5 -28.5z" />
    <glyph glyph-name="uni0444" unicode="&#x444;" horiz-adv-x="706" 
d="M674 248q0 -107 -71 -175t-189 -83v-194h-122v194q-118 15 -189 83t-71 175t71 175t189 83v194h122v-194q118 -15 189 -83t71 -175zM160 248q0 -118 132 -139v278q-132 -21 -132 -139zM414 109q132 21 132 139t-132 139v-278z" />
    <glyph glyph-name="uni0445" unicode="&#x445;" horiz-adv-x="497" 
d="M247 363l84 133h146l-155 -231l174 -265h-147l-102 163l-103 -163h-145l181 262l-160 234h144z" />
    <glyph glyph-name="uni0446" unicode="&#x446;" horiz-adv-x="590" 
d="M466 -116v116h-408v496h126v-382h196v382h126v-382h74v-230h-114z" />
    <glyph glyph-name="uni0447" unicode="&#x447;" horiz-adv-x="534" 
d="M358 0v184q-66 -22 -124 -22q-85 0 -134.5 52t-49.5 145v137h118v-122q0 -102 91 -102q42 0 99 18v206h118v-496h-118z" />
    <glyph glyph-name="uni0448" unicode="&#x448;" horiz-adv-x="794" 
d="M58 0v496h126v-382h150v382h126v-382h150v382h126v-496h-678z" />
    <glyph glyph-name="uni0449" unicode="&#x449;" horiz-adv-x="820" 
d="M698 -116v116h-640v496h126v-382h150v382h126v-382h150v382h126v-382h74v-230h-112z" />
    <glyph glyph-name="uni044A" unicode="&#x44a;" horiz-adv-x="584" 
d="M131 0v402h-116v94h242v-162h100q90 0 143.5 -42.5t53.5 -124.5t-53.5 -124.5t-143.5 -42.5h-226zM257 96h91q84 0 84 71t-84 71h-91v-142z" />
    <glyph glyph-name="uni044B" unicode="&#x44b;" horiz-adv-x="719" 
d="M58 0v496h126v-162h100q90 0 143.5 -42.5t53.5 -124.5t-53.5 -124.5t-143.5 -42.5h-226zM535 496h126v-496h-126v496zM184 96h91q84 0 84 71t-84 71h-91v-142z" />
    <glyph glyph-name="uni044C" unicode="&#x44c;" horiz-adv-x="511" 
d="M58 0v496h126v-162h100q90 0 143.5 -42.5t53.5 -124.5t-53.5 -124.5t-143.5 -42.5h-226zM184 96h91q84 0 84 71t-84 71h-91v-142z" />
    <glyph glyph-name="uni044D" unicode="&#x44d;" horiz-adv-x="539" 
d="M255 -14q-155 0 -234 134l98 60q38 -84 138 -84q48 0 80.5 26t43.5 77h-191v98h191q-13 50 -47 76.5t-83 26.5q-80 0 -121 -69l-96 57q63 122 217 122q114 0 185 -70.5t71 -191.5t-70 -191.5t-182 -70.5z" />
    <glyph glyph-name="uni044E" unicode="&#x44e;" horiz-adv-x="768" 
d="M483 -14q-91 0 -162 54.5t-87 153.5h-56v-194h-120v496h120v-194h56q16 99 87 153.5t162 54.5q105 0 179 -69t74 -193t-74 -193t-179 -69zM483 104q53 0 89 39t36 105t-36 105t-89 39t-89 -39t-36 -105t36 -105t89 -39z" />
    <glyph glyph-name="uni044F" unicode="&#x44f;" horiz-adv-x="515" 
d="M229 496h228v-496h-122v180h-63l-110 -180h-132l120 195q-102 33 -102 144q0 72 48.5 114.5t132.5 42.5zM335 280v116h-94q-71 0 -71 -58t71 -58h94z" />
    <glyph glyph-name="uni0450" unicode="&#x450;" horiz-adv-x="565" 
d="M263 550l-124 158h153l68 -158h-97zM153 218q6 -57 43 -90.5t93 -33.5q46 0 72 16.5t54 51.5l100 -50q-38 -65 -92.5 -95.5t-135.5 -30.5q-106 0 -180.5 73.5t-74.5 188.5q0 116 75.5 189t185.5 73q106 0 174 -69.5t68 -178.5v-44h-382zM289 414q-48 0 -84 -28t-50 -72
h263q-9 47 -43 73.5t-86 26.5z" />
    <glyph glyph-name="uni0451" unicode="&#x451;" horiz-adv-x="565" 
d="M144 576v124h118v-124h-118zM324 576v124h118v-124h-118zM153 218q6 -57 43 -90.5t93 -33.5q46 0 72 16.5t54 51.5l100 -50q-38 -65 -92.5 -95.5t-135.5 -30.5q-106 0 -180.5 73.5t-74.5 188.5q0 116 75.5 189t185.5 73q106 0 174 -69.5t68 -178.5v-44h-382zM289 414
q-48 0 -84 -28t-50 -72h263q-9 47 -43 73.5t-86 26.5z" />
    <glyph glyph-name="uni0452" unicode="&#x452;" horiz-adv-x="608" 
d="M383 -211q-38 0 -70 10v114q27 -8 50 -8q30 0 43 17.5t13 53.5v310q0 50 -25.5 78t-74.5 28q-53 0 -87.5 -39t-34.5 -101v-252h-126v552h-62v96h62v52h126v-52h160v-96h-160v-134q59 92 172 92q81 0 128.5 -47.5t47.5 -127.5v-373q0 -84 -40.5 -128.5t-121.5 -44.5z" />
    <glyph glyph-name="uni0453" unicode="&#x453;" horiz-adv-x="429" 
d="M166 550l68 158h153l-124 -158h-97zM58 0v496h339v-114h-213v-382h-126z" />
    <glyph glyph-name="uni0454" unicode="&#x454;" horiz-adv-x="533" 
d="M284 -14q-112 0 -182 70.5t-70 191.5q0 120 72 191t184 71q158 0 217 -117l-94 -59q-37 66 -123 66q-49 0 -84.5 -27.5t-45.5 -75.5h192v-98h-192q9 -48 44 -75.5t88 -27.5q85 0 125 76l97 -60q-78 -126 -228 -126z" />
    <glyph glyph-name="uni0455" unicode="&#x455;" horiz-adv-x="489" 
d="M178 370q0 -24 26.5 -39t86.5 -27q87 -18 125.5 -54.5t38.5 -98.5q0 -72 -53 -118.5t-143 -46.5q-153 0 -216 115l101 64q45 -73 117 -73q34 0 56 14t22 41q0 43 -104 64q-169 33 -169 155q0 67 52.5 105.5t128.5 38.5q133 0 189 -98l-82 -57q-38 57 -105 57
q-32 0 -51.5 -11t-19.5 -31z" />
    <glyph glyph-name="uni0456" unicode="&#x456;" horiz-adv-x="250" 
d="M56 568v132h138v-132h-138zM62 496h126v-496h-126v496z" />
    <glyph glyph-name="uni0457" unicode="&#x457;" horiz-adv-x="250" 
d="M3 568v132h108v-132h-108zM139 568v132h108v-132h-108zM62 496h126v-496h-126v496z" />
    <glyph glyph-name="uni0458" unicode="&#x458;" horiz-adv-x="250" 
d="M56 700h138v-132h-138v132zM-33 -87q19 -8 39 -8q30 0 43 17.5t13 53.5v520h126v-534q0 -84 -40.5 -128.5t-121.5 -44.5q-39 0 -75 10z" />
    <glyph glyph-name="uni0459" unicode="&#x459;" horiz-adv-x="839" 
d="M64 -7q-23 0 -44 7v111q14 -6 35 -6q24 0 35.5 23t15.5 87l16 281h390v-162h100q90 0 143.5 -42.5t53.5 -124.5t-53.5 -124.5t-143.5 -42.5h-226v382h-154l-9 -172q-5 -111 -41.5 -164t-117.5 -53zM512 96h91q84 0 84 71t-84 71h-91v-142z" />
    <glyph glyph-name="uni045A" unicode="&#x45a;" horiz-adv-x="829" 
d="M58 0v496h120v-174h196v174h120v-174h128q79 0 128 -43t49 -118q0 -76 -48.5 -118.5t-128.5 -42.5h-248v212h-196v-212h-120zM494 96h111q72 0 72 62q0 61 -72 61h-111v-123z" />
    <glyph glyph-name="uni045B" unicode="&#x45b;" horiz-adv-x="590" 
d="M356 510q81 0 128.5 -47.5t47.5 -127.5v-335h-126v286q0 50 -25.5 78t-74.5 28q-53 0 -87.5 -39t-34.5 -101v-252h-126v552h-54v96h54v52h126v-52h168v-96h-168v-134q59 92 172 92z" />
    <glyph glyph-name="uni045C" unicode="&#x45c;" horiz-adv-x="519" 
d="M426 708l-124 -158h-97l68 158h153zM498 496l-214 -234l214 -262h-149l-165 207v-207h-126v496h126v-180l161 180h153z" />
    <glyph glyph-name="uni045D" unicode="&#x45d;" horiz-adv-x="582" 
d="M261 550l-124 158h153l68 -158h-97zM58 0v496h120v-327l216 327h130v-496h-120v327l-216 -327h-130z" />
    <glyph glyph-name="uni045E" unicode="&#x45e;" horiz-adv-x="546" 
d="M273 564q-51 0 -82.5 32t-31.5 81h76q0 -19 10 -31t28 -12t28 12t10 31h76q0 -49 -31.5 -81t-82.5 -32zM138 -211q-64 0 -96 14v125q49 -23 95 -23q39 0 56 47l16 44l-204 500h143l128 -322l122 322h143l-236 -586q-26 -64 -65.5 -92.5t-101.5 -28.5z" />
    <glyph glyph-name="uni045F" unicode="&#x45f;" horiz-adv-x="564" 
d="M225 -116v116h-167v496h126v-382h196v382h126v-496h-167v-116h-114z" />
    <glyph glyph-name="uni0462" unicode="&#x462;" horiz-adv-x="723" 
d="M426 428q120 0 188 -52.5t68 -160.5t-68.5 -161.5t-187.5 -53.5h-295v517h-119v112h119v71h132v-71h231v-112h-231v-89h163zM416 118q68 0 101 23.5t33 73.5t-33 73.5t-101 23.5h-153v-194h153z" />
    <glyph glyph-name="uni0463" unicode="&#x463;" horiz-adv-x="548" 
d="M321 325q90 0 143.5 -42t53.5 -121t-53.5 -120.5t-143.5 -41.5h-222v396h-77v100h77v204h122v-204h153v-100h-153v-71h100zM312 96q84 0 84 66q0 67 -84 67h-91v-133h91z" />
    <glyph glyph-name="uni0472" unicode="&#x472;" horiz-adv-x="812" 
d="M406 714q155 0 257.5 -103.5t102.5 -260.5t-102.5 -260.5t-257.5 -103.5t-257.5 103.5t-102.5 260.5t102.5 260.5t257.5 103.5zM406 592q-85 0 -145.5 -50.5t-75.5 -137.5q49 33 106 33q61 0 133 -30t97 -30q53 0 105 36q-18 84 -78 131.5t-142 47.5zM406 108
q85 0 145 49.5t76 136.5q-47 -31 -106 -31q-61 0 -133 30t-97 30q-54 0 -105 -37q18 -83 78 -130.5t142 -47.5z" />
    <glyph glyph-name="uni0473" unicode="&#x473;" horiz-adv-x="606" 
d="M303 510q110 0 190.5 -69.5t80.5 -192.5t-80.5 -192.5t-190.5 -69.5t-190.5 69.5t-80.5 192.5t80.5 192.5t190.5 69.5zM303 392q-45 0 -82 -24.5t-52 -66.5q34 23 73 23q31 0 68 -22t57 -22q38 0 70 21q-15 42 -52 66.5t-82 24.5zM303 104q45 0 82 24.5t52 66.5
q-34 -23 -73 -23q-31 0 -68 22t-57 22q-38 0 -70 -21q15 -42 52 -66.5t82 -24.5z" />
    <glyph glyph-name="uni0474" unicode="&#x474;" horiz-adv-x="791" 
d="M262 0l-260 700h143l158 -447l26 -89l26 89l118 335q24 67 62.5 96.5t97.5 29.5q107 0 145 -81l-90 -78q-16 33 -45 33t-43 -39l-204 -549h-134z" />
    <glyph glyph-name="uni0475" unicode="&#x475;" horiz-adv-x="644" 
d="M208 0l-201 496h134l126 -336l92 246q40 104 147 104q95 0 134 -74l-86 -71q-14 37 -43 37q-22 0 -38 -39l-147 -363h-118z" />
    <glyph glyph-name="uni0490" unicode="&#x490;" horiz-adv-x="566" 
d="M428 825h122v-243h-351v-582h-132v700h361v125z" />
    <glyph glyph-name="uni0491" unicode="&#x491;" horiz-adv-x="429" 
d="M283 612h114v-230h-213v-382h-126v496h225v116z" />
    <glyph glyph-name="Wgrave" unicode="&#x1e80;" horiz-adv-x="942" 
d="M434 754l-124 158h153l68 -158h-97zM198 0l-193 700h139l111 -442q12 -51 17 -76l17 77l114 441h136l114 -441q12 -52 17 -77l17 76l111 442h139l-193 -700h-142l-131 508l-131 -508h-142z" />
    <glyph glyph-name="wgrave" unicode="&#x1e81;" horiz-adv-x="714" 
d="M327 550l-124 158h153l68 -158h-97zM506 164l80 332h122l-138 -496h-122l-91 341l-91 -341h-122l-138 496h122l80 -332l89 332h120z" />
    <glyph glyph-name="Wacute" unicode="&#x1e82;" horiz-adv-x="942" 
d="M411 754l68 158h153l-124 -158h-97zM198 0l-193 700h139l111 -442q12 -51 17 -76l17 77l114 441h136l114 -441q12 -52 17 -77l17 76l111 442h139l-193 -700h-142l-131 508l-131 -508h-142z" />
    <glyph glyph-name="wacute" unicode="&#x1e83;" horiz-adv-x="714" 
d="M296 550l68 158h153l-124 -158h-97zM506 164l80 332h122l-138 -496h-122l-91 341l-91 -341h-122l-138 496h122l80 -332l89 332h120z" />
    <glyph glyph-name="Wdieresis" unicode="&#x1e84;" horiz-adv-x="942" 
d="M322 780v124h118v-124h-118zM502 780v124h118v-124h-118zM198 0l-193 700h139l111 -442q12 -51 17 -76l17 77l114 441h136l114 -441q12 -52 17 -77l17 76l111 442h139l-193 -700h-142l-131 508l-131 -508h-142z" />
    <glyph glyph-name="wdieresis" unicode="&#x1e85;" horiz-adv-x="714" 
d="M208 576v124h118v-124h-118zM388 576v124h118v-124h-118zM506 164l80 332h122l-138 -496h-122l-91 341l-91 -341h-122l-138 496h122l80 -332l89 332h120z" />
    <glyph glyph-name="uni1E9E" unicode="&#x1e9e;" horiz-adv-x="684" 
d="M421 -14q-63 0 -103 20.5t-71 60.5l91 92q12 -22 37 -36.5t49 -14.5q42 0 63 26t21 72q0 122 -186 122v102l113 152h-133q-49 0 -76 -26.5t-27 -78.5v-477h-132v477q0 223 235 223h260v-118l-115 -152q92 -18 141.5 -76t49.5 -148q0 -104 -63.5 -162t-153.5 -58z" />
    <glyph glyph-name="Ygrave" unicode="&#x1ef2;" horiz-adv-x="602" 
d="M264 754l-124 158h153l68 -158h-97zM235 0v274l-231 426h145l130 -249q13 -27 22 -51l22 51l130 249h145l-231 -426v-274h-132z" />
    <glyph glyph-name="ygrave" unicode="&#x1ef3;" horiz-adv-x="546" 
d="M243 550l-124 158h153l68 -158h-97zM92 -83q22 -12 45 -12q39 0 56 47l16 44l-204 500h143l128 -322l122 322h143l-236 -586q-26 -64 -65.5 -92.5t-98.5 -28.5q-41 0 -69 11z" />
    <glyph glyph-name="endash" unicode="&#x2013;" horiz-adv-x="578" 
d="M40 260v102h498v-102h-498z" />
    <glyph glyph-name="emdash" unicode="&#x2014;" horiz-adv-x="848" 
d="M40 260v102h768v-102h-768z" />
    <glyph glyph-name="quoteleft" unicode="&#x2018;" horiz-adv-x="214" 
d="M37 419v134l123 154l26 -18l-68 -136h53v-134h-134z" />
    <glyph glyph-name="quoteright" unicode="&#x2019;" horiz-adv-x="214" 
d="M54 412l-26 18l68 136h-53v134h134v-134z" />
    <glyph glyph-name="quotesinglbase" unicode="&#x201a;" horiz-adv-x="214" 
d="M54 -154l-26 18l68 136h-53v134h134v-134z" />
    <glyph glyph-name="quotedblleft" unicode="&#x201c;" horiz-adv-x="382" 
d="M37 419v134l123 154l26 -18l-68 -136h53v-134h-134zM205 419v134l123 154l26 -18l-68 -136h53v-134h-134z" />
    <glyph glyph-name="quotedblright" unicode="&#x201d;" horiz-adv-x="382" 
d="M54 412l-26 18l68 136h-53v134h134v-134zM222 412l-26 18l68 136h-53v134h134v-134z" />
    <glyph glyph-name="quotedblbase" unicode="&#x201e;" horiz-adv-x="382" 
d="M54 -154l-26 18l68 136h-53v134h134v-134zM222 -154l-26 18l68 136h-53v134h134v-134z" />
    <glyph glyph-name="dagger" unicode="&#x2020;" horiz-adv-x="468" 
d="M172 -110v504h-132v102h132v244h122v-244h134v-102h-134v-504h-122z" />
    <glyph glyph-name="daggerdbl" unicode="&#x2021;" horiz-adv-x="468" 
d="M172 -110v244h-132v102h132v158h-132v102h132v244h122v-244h134v-102h-134v-158h134v-102h-134v-244h-122z" />
    <glyph glyph-name="bullet" unicode="&#x2022;" horiz-adv-x="326" 
d="M163 155q-50 0 -85 35t-35 85t35 85t85 35t85 -35t35 -85t-35 -85t-85 -35z" />
    <glyph glyph-name="ellipsis" unicode="&#x2026;" horiz-adv-x="594" 
d="M40 0v134h134v-134h-134zM230 0v134h134v-134h-134zM420 0v134h134v-134h-134z" />
    <glyph glyph-name="perthousand" unicode="&#x2030;" horiz-adv-x="1131" 
d="M217 364q-76 0 -125 50t-49 125t49 125t125 50t125 -50t49 -125t-49 -125t-125 -50zM256 -7l-72 49l435 665l72 -49zM217 450q35 0 58.5 25t23.5 64t-23.5 64t-58.5 25t-58.5 -25t-23.5 -64t23.5 -64t58.5 -25zM658 -14q-76 0 -125 50t-49 125t49 125t125 50
q78 0 128 -53q50 53 128 53q76 0 125 -50t49 -125t-49 -125t-125 -50q-78 0 -128 53q-50 -53 -128 -53zM658 72q35 0 58.5 25t23.5 64t-23.5 64t-58.5 25t-58.5 -25t-23.5 -64t23.5 -64t58.5 -25zM914 72q35 0 58.5 25t23.5 64t-23.5 64t-58.5 25t-58.5 -25t-23.5 -64
t23.5 -64t58.5 -25z" />
    <glyph glyph-name="guilsinglleft" unicode="&#x2039;" horiz-adv-x="378" 
d="M207 63l-167 212l167 214h141l-166 -214l166 -212h-141z" />
    <glyph glyph-name="guilsinglright" unicode="&#x203a;" horiz-adv-x="378" 
d="M30 63l166 212l-166 214h141l167 -214l-167 -212h-141z" />
    <glyph glyph-name="fraction" unicode="&#x2044;" horiz-adv-x="541" 
d="M89 -7l-72 49l435 665l72 -49z" />
    <glyph glyph-name="uni2070" unicode="&#x2070;" horiz-adv-x="388" 
d="M194 343q-69 0 -115 50.5t-46 131.5t46 131.5t115 50.5t115 -50.5t46 -131.5t-46 -131.5t-115 -50.5zM194 419q35 0 56 27.5t21 78.5t-21 78.5t-56 27.5t-56 -27.5t-21 -78.5t21 -78.5t56 -27.5z" />
    <glyph glyph-name="uni2074" unicode="&#x2074;" horiz-adv-x="374" 
d="M209 350v58h-162v66l162 226h84v-226h36v-66h-36v-58h-84zM126 474h83v116z" />
    <glyph glyph-name="uni2075" unicode="&#x2075;" horiz-adv-x="354" 
d="M183 343q-63 0 -99 31t-36 74q0 17 5 29l81 -15q-2 -6 -2 -13q0 -18 14.5 -28.5t37.5 -10.5q28 0 42 16.5t14 43.5q0 25 -14.5 41.5t-43.5 16.5q-41 0 -66 -34l-62 18l18 188h230v-66h-168l-10 -72q27 27 75 27q56 0 89 -32.5t33 -86.5q0 -58 -38 -92.5t-100 -34.5z" />
    <glyph glyph-name="uni2076" unicode="&#x2076;" horiz-adv-x="354" 
d="M188 343q-63 0 -102.5 44t-39.5 119q0 95 46 152q41 49 106 49q53 0 84 -26t31 -64q0 -16 -7 -30l-72 15q4 10 4 18q0 11 -11.5 18.5t-30.5 7.5q-33 0 -53 -29t-24 -76q29 37 82 37q51 0 84.5 -32t33.5 -84t-36.5 -85.5t-94.5 -33.5zM188 406q24 0 40 15.5t16 39.5
t-16 39.5t-40 15.5t-40 -15.5t-16 -39.5t16 -39.5t40 -15.5z" />
    <glyph glyph-name="uni2077" unicode="&#x2077;" horiz-adv-x="309" 
d="M67 350l134 284h-158v66h238v-63l-135 -287h-79z" />
    <glyph glyph-name="uni2078" unicode="&#x2078;" horiz-adv-x="334" 
d="M167 343q-56 0 -93 30.5t-37 76.5q0 59 57 88q-46 26 -46 74q0 42 32.5 68.5t86.5 26.5t86.5 -26.5t32.5 -68.5q0 -48 -46 -74q57 -29 57 -88q0 -46 -37 -76.5t-93 -30.5zM167 565q19 0 32 11.5t13 32.5t-13 32.5t-32 11.5t-32 -11.5t-13 -32.5t13 -32.5t32 -11.5z
M167 403q24 0 38 13.5t14 37.5t-14 37.5t-38 13.5t-38 -13.5t-14 -37.5t14 -37.5t38 -13.5z" />
    <glyph glyph-name="uni2079" unicode="&#x2079;" horiz-adv-x="340" 
d="M162 343q-52 0 -83.5 26.5t-31.5 63.5q0 16 7 30l72 -15q-4 -10 -4 -18q0 -11 11.5 -18.5t30.5 -7.5q68 0 77 105q-29 -37 -82 -37q-51 0 -84.5 32t-33.5 84t36.5 85.5t94.5 33.5q63 0 102.5 -44t39.5 -119q0 -95 -45 -151q-42 -50 -107 -50zM172 534q24 0 40 15.5
t16 39.5t-16 39.5t-40 15.5t-40 -15.5t-16 -39.5t16 -39.5t40 -15.5z" />
    <glyph glyph-name="uni2080" unicode="&#x2080;" horiz-adv-x="388" 
d="M194 -211q-69 0 -115 50.5t-46 131.5t46 131.5t115 50.5t115 -50.5t46 -131.5t-46 -131.5t-115 -50.5zM194 -135q35 0 56 27.5t21 78.5t-21 78.5t-56 27.5t-56 -27.5t-21 -78.5t21 -78.5t56 -27.5z" />
    <glyph glyph-name="uni2081" unicode="&#x2081;" horiz-adv-x="254" 
d="M112 -204v254q-21 -24 -74 -24v77q57 0 78 43h80v-350h-84z" />
    <glyph glyph-name="uni2082" unicode="&#x2082;" horiz-adv-x="339" 
d="M53 -204v53l132 127q35 32 35 65q0 41 -43 41q-20 0 -33.5 -11t-13.5 -31q0 -10 4 -24l-76 -11q-7 17 -7 40q0 43 35 75.5t91 32.5q58 0 91.5 -27.5t33.5 -75.5q0 -36 -13.5 -62t-47.5 -60l-65 -63h129v-69h-252z" />
    <glyph glyph-name="uni2083" unicode="&#x2083;" horiz-adv-x="347" 
d="M173 -211q-59 0 -94.5 29.5t-35.5 75.5q0 22 7 36l79 -17q-2 -6 -2 -15q0 -20 14 -30t34 -10q22 0 36.5 11.5t14.5 32.5q0 49 -82 49v60q32 0 50.5 11t18.5 30q0 35 -41 35q-18 0 -31 -8.5t-13 -24.5q0 -11 3 -17l-73 -10q-5 12 -5 27q0 40 32 69.5t87 29.5
q59 0 89.5 -23.5t30.5 -63.5q0 -44 -45 -75q63 -24 63 -91q0 -51 -37.5 -81t-99.5 -30z" />
    <glyph glyph-name="uni2084" unicode="&#x2084;" horiz-adv-x="374" 
d="M209 -204v58h-162v66l162 226h84v-226h36v-66h-36v-58h-84zM126 -80h83v116z" />
    <glyph glyph-name="uni2085" unicode="&#x2085;" horiz-adv-x="354" 
d="M183 -211q-63 0 -99 31t-36 74q0 17 5 29l81 -15q-2 -6 -2 -13q0 -18 14.5 -28.5t37.5 -10.5q28 0 42 16.5t14 43.5q0 25 -14.5 41.5t-43.5 16.5q-41 0 -66 -34l-62 18l18 188h230v-66h-168l-10 -72q27 27 75 27q56 0 89 -32.5t33 -86.5q0 -58 -38 -92.5t-100 -34.5z" />
    <glyph glyph-name="uni2086" unicode="&#x2086;" horiz-adv-x="354" 
d="M188 -211q-63 0 -102.5 44t-39.5 119q0 95 46 152q41 49 106 49q53 0 84 -26t31 -64q0 -16 -7 -30l-72 15q4 10 4 18q0 11 -11.5 18.5t-30.5 7.5q-33 0 -53 -29t-24 -76q29 37 82 37q51 0 84.5 -32t33.5 -84t-36.5 -85.5t-94.5 -33.5zM188 -148q24 0 40 15.5t16 39.5
t-16 39.5t-40 15.5t-40 -15.5t-16 -39.5t16 -39.5t40 -15.5z" />
    <glyph glyph-name="uni2087" unicode="&#x2087;" horiz-adv-x="309" 
d="M67 -204l134 284h-158v66h238v-63l-135 -287h-79z" />
    <glyph glyph-name="uni2088" unicode="&#x2088;" horiz-adv-x="334" 
d="M167 -211q-56 0 -93 30.5t-37 76.5q0 59 57 88q-46 26 -46 74q0 42 32.5 68.5t86.5 26.5t86.5 -26.5t32.5 -68.5q0 -48 -46 -74q57 -29 57 -88q0 -46 -37 -76.5t-93 -30.5zM167 11q19 0 32 11.5t13 32.5t-13 32.5t-32 11.5t-32 -11.5t-13 -32.5t13 -32.5t32 -11.5z
M167 -151q24 0 38 13.5t14 37.5t-14 37.5t-38 13.5t-38 -13.5t-14 -37.5t14 -37.5t38 -13.5z" />
    <glyph glyph-name="uni2089" unicode="&#x2089;" horiz-adv-x="340" 
d="M162 -211q-52 0 -83.5 26.5t-31.5 63.5q0 16 7 30l72 -15q-4 -10 -4 -18q0 -11 11.5 -18.5t30.5 -7.5q68 0 77 105q-29 -37 -82 -37q-51 0 -84.5 32t-33.5 84t36.5 85.5t94.5 33.5q63 0 102.5 -44t39.5 -119q0 -95 -45 -151q-42 -50 -107 -50zM172 -20q24 0 40 15.5
t16 39.5t-16 39.5t-40 15.5t-40 -15.5t-16 -39.5t16 -39.5t40 -15.5z" />
    <glyph glyph-name="Euro" unicode="&#x20ac;" horiz-adv-x="788" 
d="M436 -14q-118 0 -200.5 64.5t-112.5 178.5h-88l42 92h30q-1 9 -1 29q0 19 1 29h-72l42 92h46q33 111 119 177t197 66q228 0 300 -201l-119 -53q-44 132 -185 132q-63 0 -110 -31.5t-70 -89.5h278l-42 -92h-254q-1 -10 -1 -29q0 -5 0.5 -15t0.5 -14h296l-42 -92h-236
q24 -57 71.5 -89t109.5 -32q141 0 190 146l116 -42q-77 -226 -306 -226z" />
    <glyph glyph-name="uni20B4" unicode="&#x20b4;" horiz-adv-x="620" 
d="M15 373v86h392q24 27 24 66q0 36 -30.5 54.5t-76.5 18.5q-114 0 -153 -109l-104 60q57 165 254 165q105 0 170.5 -49.5t65.5 -129.5q0 -45 -23 -76h71v-86h-590zM304 -14q-116 0 -183.5 55t-67.5 143q0 30 8 53h-46v86h590v-86h-412q-8 -20 -8 -41q0 -42 33 -68t87 -26
q134 0 160 106l126 -21q-19 -95 -91.5 -148t-195.5 -53z" />
    <glyph glyph-name="uni20BA" unicode="&#x20ba;" horiz-adv-x="556" 
d="M401 312h114v-20q0 -76 -26 -134t-71 -91.5t-99 -50t-116 -16.5h-130v159l-64 -30v115l64 30v76l-64 -30v115l64 30v235h132v-172l121 57v-115l-121 -57v-76l121 57v-115l-121 -57v-100q196 0 196 170v20z" />
    <glyph glyph-name="uni20BD" unicode="&#x20bd;" horiz-adv-x="628" 
d="M209 244v-59h265v-106h-265v-79h-132v79h-69v106h69v59h-69v118h69v338h248q121 0 191.5 -59.5t70.5 -168.5t-70.5 -168.5t-191.5 -59.5h-116zM209 582v-220h112q67 0 100.5 29.5t33.5 80.5t-33.5 80.5t-100.5 29.5h-112z" />
    <glyph glyph-name="uni2113" unicode="&#x2113;" horiz-adv-x="579" 
d="M264 90q64 0 112 94l85 -52q-66 -146 -211 -146q-70 0 -114 38.5t-54 114.5q-19 -5 -57 -13v110q22 4 56 11q13 211 108.5 339t218.5 128q69 0 105 -40t36 -112q0 -122 -96 -225t-265 -165q11 -82 76 -82zM389 614q-55 0 -117.5 -95.5t-79.5 -236.5q117 47 181 120
t64 150q0 62 -48 62z" />
    <glyph glyph-name="uni2116" unicode="&#x2116;" horiz-adv-x="1158" 
d="M925 310q-82 0 -141.5 53.5t-59.5 148.5t59.5 148.5t141.5 53.5t141.5 -53.5t59.5 -148.5t-59.5 -148.5t-141.5 -53.5zM67 700h134l292 -445q24 -40 30 -55v500h128v-700h-134l-292 448q-24 40 -30 55v-503h-128v700zM925 428q30 0 51.5 23t21.5 61t-21.5 61t-51.5 23
t-51.5 -23t-21.5 -61t21.5 -61t51.5 -23zM743 160v102h364v-102h-364z" />
    <glyph glyph-name="uni2117" unicode="&#x2117;" horiz-adv-x="828" 
d="M414 -14q-150 0 -257 106.5t-107 257.5t107 257.5t257 106.5t257 -106.5t107 -257.5t-107 -257.5t-257 -106.5zM414 72q115 0 195.5 81t80.5 197t-80.5 197t-195.5 81t-195.5 -81t-80.5 -197t80.5 -197t195.5 -81zM267 151v398h187q71 0 107.5 -33.5t36.5 -89.5
t-36.5 -89t-107.5 -33h-99v-153h-88zM355 376h96q62 0 62 50q0 49 -62 49h-96v-99z" />
    <glyph glyph-name="uni2120" unicode="&#x2120;" horiz-adv-x="882" 
d="M207 293q-138 0 -172 124l69 32q19 -82 102 -82q30 0 49 13.5t19 34.5q0 25 -19 39t-67 22q-131 22 -131 116q0 53 35.5 84.5t101.5 31.5q120 0 157 -102l-64 -37q-26 71 -93 71q-30 0 -47.5 -12t-17.5 -31q0 -22 21 -35t79 -25q127 -25 127 -116q0 -56 -40 -92t-109 -36
zM413 300v400h91l121 -302l121 302h91v-400h-82v224l-90 -224h-80l-90 224v-224h-82z" />
    <glyph glyph-name="trademark" unicode="&#x2122;" horiz-adv-x="860" 
d="M151 300v326h-119v74h320v-74h-119v-326h-82zM391 300v400h91l121 -302l121 302h91v-400h-82v224l-90 -224h-80l-90 224v-224h-82z" />
    <glyph glyph-name="uni2126" unicode="&#x2126;" horiz-adv-x="784" 
d="M58 0v96h138q-63 49 -106.5 124t-43.5 171q0 140 99 231.5t247 91.5t247 -91.5t99 -231.5q0 -96 -43.5 -171t-106.5 -124h138v-96h-288v110q72 43 120 114.5t48 159.5q0 91 -59.5 149.5t-154.5 58.5t-154.5 -58.5t-59.5 -149.5q0 -88 48 -159.5t120 -114.5v-110h-288z
" />
    <glyph glyph-name="estimated" unicode="&#x212e;" horiz-adv-x="848" 
d="M424 32q95 0 172.5 51t115.5 135h51q-40 -103 -132.5 -167.5t-206.5 -64.5q-150 0 -257 106.5t-107 257.5t107 257.5t257 106.5t257 -106.5t107 -257.5h-596v-217q93 -101 232 -101zM424 668q-139 0 -232 -101v-171h464v171q-93 101 -232 101z" />
    <glyph glyph-name="uni2153" unicode="&#x2153;" horiz-adv-x="749" 
d="M181 -7l-72 49l435 665l72 -49zM112 350v254q-21 -24 -74 -24v77q57 0 78 43h80v-350h-84zM575 -7q-59 0 -94.5 29.5t-35.5 75.5q0 22 7 36l79 -17q-2 -6 -2 -15q0 -20 14 -30t34 -10q22 0 36.5 11.5t14.5 32.5q0 49 -82 49v60q32 0 50.5 11t18.5 30q0 35 -41 35
q-18 0 -31 -8.5t-13 -24.5q0 -11 3 -17l-73 -10q-5 12 -5 27q0 40 32 69.5t87 29.5q59 0 89.5 -23.5t30.5 -63.5q0 -44 -45 -75q63 -24 63 -91q0 -51 -37.5 -81t-99.5 -30z" />
    <glyph glyph-name="uni2154" unicode="&#x2154;" horiz-adv-x="827" 
d="M53 350v53l132 127q35 32 35 65q0 41 -43 41q-20 0 -33.5 -11t-13.5 -31q0 -10 4 -24l-76 -11q-7 17 -7 40q0 43 35 75.5t91 32.5q58 0 91.5 -27.5t33.5 -75.5q0 -36 -13.5 -62t-47.5 -60l-65 -63h129v-69h-252zM260 -7l-72 49l435 665l72 -49zM653 -7q-59 0 -94.5 29.5
t-35.5 75.5q0 22 7 36l79 -17q-2 -6 -2 -15q0 -20 14 -30t34 -10q22 0 36.5 11.5t14.5 32.5q0 49 -82 49v60q32 0 50.5 11t18.5 30q0 35 -41 35q-18 0 -31 -8.5t-13 -24.5q0 -11 3 -17l-73 -10q-5 12 -5 27q0 40 32 69.5t87 29.5q59 0 89.5 -23.5t30.5 -63.5q0 -44 -45 -75
q63 -24 63 -91q0 -51 -37.5 -81t-99.5 -30z" />
    <glyph glyph-name="oneeighth" unicode="&#x215b;" horiz-adv-x="755" 
d="M182 -7l-72 49l435 665l72 -49zM112 350v254q-21 -24 -74 -24v77q57 0 78 43h80v-350h-84zM588 -7q-56 0 -93 30.5t-37 76.5q0 59 57 88q-46 26 -46 74q0 42 32.5 68.5t86.5 26.5t86.5 -26.5t32.5 -68.5q0 -48 -46 -74q57 -29 57 -88q0 -46 -37 -76.5t-93 -30.5zM588 215
q19 0 32 11.5t13 32.5t-13 32.5t-32 11.5t-32 -11.5t-13 -32.5t13 -32.5t32 -11.5zM588 53q24 0 38 13.5t14 37.5t-14 37.5t-38 13.5t-38 -13.5t-14 -37.5t14 -37.5t38 -13.5z" />
    <glyph glyph-name="threeeighths" unicode="&#x215c;" horiz-adv-x="814" 
d="M173 343q-59 0 -94.5 29.5t-35.5 75.5q0 22 7 36l79 -17q-2 -6 -2 -15q0 -20 14 -30t34 -10q22 0 36.5 11.5t14.5 32.5q0 49 -82 49v60q32 0 50.5 11t18.5 30q0 35 -41 35q-18 0 -31 -8.5t-13 -24.5q0 -11 3 -17l-73 -10q-5 12 -5 27q0 40 32 69.5t87 29.5
q59 0 89.5 -23.5t30.5 -63.5q0 -44 -45 -75q63 -24 63 -91q0 -51 -37.5 -81t-99.5 -30zM241 -7l-72 49l435 665l72 -49zM647 -7q-56 0 -93 30.5t-37 76.5q0 59 57 88q-46 26 -46 74q0 42 32.5 68.5t86.5 26.5t86.5 -26.5t32.5 -68.5q0 -48 -46 -74q57 -29 57 -88
q0 -46 -37 -76.5t-93 -30.5zM647 215q19 0 32 11.5t13 32.5t-13 32.5t-32 11.5t-32 -11.5t-13 -32.5t13 -32.5t32 -11.5zM647 53q24 0 38 13.5t14 37.5t-14 37.5t-38 13.5t-38 -13.5t-14 -37.5t14 -37.5t38 -13.5z" />
    <glyph glyph-name="fiveeighths" unicode="&#x215d;" horiz-adv-x="814" 
d="M241 -7l-72 49l435 665l72 -49zM183 343q-63 0 -99 31t-36 74q0 17 5 29l81 -15q-2 -6 -2 -13q0 -18 14.5 -28.5t37.5 -10.5q28 0 42 16.5t14 43.5q0 25 -14.5 41.5t-43.5 16.5q-41 0 -66 -34l-62 18l18 188h230v-66h-168l-10 -72q27 27 75 27q56 0 89 -32.5t33 -86.5
q0 -58 -38 -92.5t-100 -34.5zM647 -7q-56 0 -93 30.5t-37 76.5q0 59 57 88q-46 26 -46 74q0 42 32.5 68.5t86.5 26.5t86.5 -26.5t32.5 -68.5q0 -48 -46 -74q57 -29 57 -88q0 -46 -37 -76.5t-93 -30.5zM647 215q19 0 32 11.5t13 32.5t-13 32.5t-32 11.5t-32 -11.5t-13 -32.5
t13 -32.5t32 -11.5zM647 53q24 0 38 13.5t14 37.5t-14 37.5t-38 13.5t-38 -13.5t-14 -37.5t14 -37.5t38 -13.5z" />
    <glyph glyph-name="seveneighths" unicode="&#x215e;" horiz-adv-x="728" 
d="M155 -7l-72 49l435 665l72 -49zM67 350l134 284h-158v66h238v-63l-135 -287h-79zM561 -7q-56 0 -93 30.5t-37 76.5q0 59 57 88q-46 26 -46 74q0 42 32.5 68.5t86.5 26.5t86.5 -26.5t32.5 -68.5q0 -48 -46 -74q57 -29 57 -88q0 -46 -37 -76.5t-93 -30.5zM561 215
q19 0 32 11.5t13 32.5t-13 32.5t-32 11.5t-32 -11.5t-13 -32.5t13 -32.5t32 -11.5zM561 53q24 0 38 13.5t14 37.5t-14 37.5t-38 13.5t-38 -13.5t-14 -37.5t14 -37.5t38 -13.5z" />
    <glyph glyph-name="arrowleft" unicode="&#x2190;" horiz-adv-x="595" 
d="M277 80l-231 231l231 231l75 -75l-105 -105h307v-102h-307l105 -105z" />
    <glyph glyph-name="arrowup" unicode="&#x2191;" horiz-adv-x="538" 
d="M218 116v307l-105 -105l-75 75l231 231l231 -231l-75 -75l-105 105v-307h-102z" />
    <glyph glyph-name="arrowright" unicode="&#x2192;" horiz-adv-x="595" 
d="M318 80l-75 75l105 105h-307v102h307l-105 105l75 75l231 -231z" />
    <glyph glyph-name="arrowdown" unicode="&#x2193;" horiz-adv-x="538" 
d="M269 116l-231 231l75 75l105 -105v307h102v-307l105 105l75 -75z" />
    <glyph glyph-name="arrowboth" unicode="&#x2194;" horiz-adv-x="800" 
d="M277 80l-231 231l231 231l75 -75l-105 -105h306l-105 105l75 75l231 -231l-231 -231l-75 75l105 105h-306l105 -105z" />
    <glyph glyph-name="arrowupdn" unicode="&#x2195;" horiz-adv-x="538" 
d="M269 -4l-231 231l75 75l105 -105v306l-105 -105l-75 75l231 231l231 -231l-75 -75l-105 105v-306l105 105l75 -75z" />
    <glyph glyph-name="uni2196" unicode="&#x2196;" horiz-adv-x="541" 
d="M401 93l-218 217v-148h-106v327h327v-106h-148l217 -218z" />
    <glyph glyph-name="uni2197" unicode="&#x2197;" horiz-adv-x="541" 
d="M140 93l-72 72l217 218h-148v106h327v-327h-106v148z" />
    <glyph glyph-name="uni2198" unicode="&#x2198;" horiz-adv-x="541" 
d="M137 108v106h148l-217 218l72 72l218 -217v148h106v-327h-327z" />
    <glyph glyph-name="uni2199" unicode="&#x2199;" horiz-adv-x="541" 
d="M77 108v327h106v-148l218 217l72 -72l-217 -218h148v-106h-327z" />
    <glyph glyph-name="partialdiff" unicode="&#x2202;" horiz-adv-x="591" 
d="M291 -14q-110 0 -180 64t-70 169q0 104 69 173.5t171 69.5q103 0 155 -61q-12 94 -59 153.5t-110 59.5q-37 0 -58.5 -17t-21.5 -41q0 -6 2 -12l-107 -45q-14 23 -14 56q0 61 48.5 110t145.5 49q140 0 214 -110.5t74 -295.5q0 -144 -68 -233t-191 -89zM292 92q55 0 95 36
t40 99q0 59 -37 94t-90 35q-60 0 -97.5 -38.5t-37.5 -97.5q0 -57 37.5 -92.5t89.5 -35.5z" />
    <glyph glyph-name="uni2206" unicode="&#x2206;" horiz-adv-x="702" 
d="M5 0l283 700h126l283 -700h-692zM191 118h320l-134 351q-13 34 -26 76l-26 -76z" />
    <glyph glyph-name="product" unicode="&#x220f;" horiz-adv-x="686" 
d="M73 -204v904h540v-904h-132v782h-276v-782h-132z" />
    <glyph glyph-name="summation" unicode="&#x2211;" horiz-adv-x="585" 
d="M30 -120v122l195 288l-185 288v122h506v-122h-350l181 -288l-191 -288h367v-122h-523z" />
    <glyph glyph-name="minus" unicode="&#x2212;" horiz-adv-x="564" 
d="M40 314v102h484v-102h-484z" />
    <glyph glyph-name="uni2215" unicode="&#x2215;" horiz-adv-x="538" 
d="M5 -30l400 760h128l-400 -760h-128z" />
    <glyph glyph-name="uni2219" unicode="&#x2219;" horiz-adv-x="326" 
d="M163 155q-50 0 -85 35t-35 85t35 85t85 35t85 -35t35 -85t-35 -85t-85 -35z" />
    <glyph glyph-name="radical" unicode="&#x221a;" horiz-adv-x="628" 
d="M223 0l-93 256h-103v100h202l60 -178l194 522h126l-260 -700h-126z" />
    <glyph glyph-name="infinity" unicode="&#x221e;" horiz-adv-x="774" 
d="M209 131q-75 0 -121.5 47t-46.5 122t46.5 122t121.5 47q95 0 178 -100q83 100 178 100q75 0 121.5 -47t46.5 -122t-46.5 -122t-121.5 -47q-95 0 -178 100q-83 -100 -178 -100zM220 219q31 0 57 20.5t57 60.5q-32 40 -57.5 60.5t-56.5 20.5q-35 0 -58 -23.5t-23 -57.5
t23 -57.5t58 -23.5zM554 219q35 0 58 23.5t23 57.5t-23 57.5t-58 23.5q-31 0 -57.5 -21t-56.5 -60q61 -81 114 -81z" />
    <glyph glyph-name="integral" unicode="&#x222b;" horiz-adv-x="346" 
d="M58 -218q-34 0 -63 11l22 113q17 -8 35 -8q50 0 50 62v606q0 89 48.5 136.5t127.5 47.5q34 0 63 -11l-22 -111q-18 6 -35 6q-56 0 -56 -65v-603q0 -90 -44.5 -137t-125.5 -47z" />
    <glyph glyph-name="approxequal" unicode="&#x2248;" horiz-adv-x="461" 
d="M55 365q-15 23 -15 53q0 48 30 76t76 28q41 0 70.5 -16t48 -31.5t33.5 -15.5q27 0 27 25q0 11 -7 23l88 16q15 -23 15 -55q0 -47 -30 -74.5t-76 -27.5q-41 0 -70.5 16t-48 31.5t-33.5 15.5q-27 0 -27 -25q0 -11 7 -23zM55 175q-15 23 -15 53q0 48 30 76t76 28
q41 0 70.5 -16t48 -31.5t33.5 -15.5q27 0 27 25q0 11 -7 23l88 16q15 -23 15 -55q0 -47 -30 -74.5t-76 -27.5q-41 0 -70.5 16t-48 31.5t-33.5 15.5q-27 0 -27 -25q0 -11 7 -23z" />
    <glyph glyph-name="notequal" unicode="&#x2260;" horiz-adv-x="564" 
d="M170 49l-88 52l54 93h-96v102h154l57 98h-211v102h270l84 145l88 -52l-54 -93h96v-102h-154l-57 -98h211v-102h-270z" />
    <glyph glyph-name="lessequal" unicode="&#x2264;" horiz-adv-x="564" 
d="M501 146l-437 215v98l437 214v-124l-299 -139l299 -139v-125zM40 0v102h484v-102h-484z" />
    <glyph glyph-name="greaterequal" unicode="&#x2265;" horiz-adv-x="564" 
d="M64 146v125l299 139l-299 139v124l437 -214v-98zM40 0v102h484v-102h-484z" />
    <glyph glyph-name="lozenge" unicode="&#x25ca;" horiz-adv-x="606" 
d="M239 0l-216 350l216 350h128l216 -350l-216 -350h-128zM303 110l148 240l-148 240l-148 -240z" />
    <glyph glyph-name="uniF8FF" unicode="&#xf8ff;" horiz-adv-x="748" 
d="M100 0q-9 0 -15.5 6.5t-6.5 15.5v595q0 17 16 22l270 78q6 2 10 2t10 -2l270 -78q16 -5 16 -22v-595q0 -9 -6.5 -15.5t-15.5 -6.5q-3 0 -7 1l-267 77l-267 -77q-4 -1 -7 -1zM352 366v303l-230 -67q6 -94 71.5 -161t158.5 -75zM396 366q93 8 158.5 75t71.5 161l-230 67
v-303zM121 51l231 67v204q-73 6 -134 43.5t-97 97.5v-412zM627 51v412q-37 -60 -97.5 -97.5t-133.5 -43.5v-204z" />
    <glyph glyph-name="fi" unicode="&#xfb01;" horiz-adv-x="592" 
d="M404 394h-187v-394h-126v394h-72v102h72v70q0 89 48.5 136.5t127.5 47.5q34 0 63 -11l-22 -111q-18 6 -35 6q-56 0 -56 -65v-73h313v-496h-126v394zM398 700h138v-132h-138v132z" />
    <glyph glyph-name="fl" unicode="&#xfb02;" horiz-adv-x="584" 
d="M19 496h72v70q0 89 48.5 136.5t127.5 47.5q34 0 63 -11l-22 -111q-18 6 -35 6q-56 0 -56 -65v-73h108v-102h-108v-394h-126v394h-72v102zM400 700h126v-700h-126v700z" />
    <glyph glyph-name="i.loclTRK" horiz-adv-x="250" 
d="M56 568v132h138v-132h-138zM62 496h126v-496h-126v496z" />
    <glyph glyph-name="a.ss01" horiz-adv-x="618" 
d="M276 -14q-104 0 -172.5 70.5t-68.5 191.5q0 118 71.5 190t165.5 72q108 0 157 -70v56h126v-496h-126v64q-47 -78 -153 -78zM300 104q60 0 98.5 40.5t38.5 103.5t-38.5 103.5t-98.5 40.5t-98.5 -40.5t-38.5 -103.5t38.5 -103.5t98.5 -40.5z" />
    <glyph glyph-name="aacute.ss01" horiz-adv-x="618" 
d="M248 550l68 158h153l-124 -158h-97zM276 -14q-104 0 -172.5 70.5t-68.5 191.5q0 118 71.5 190t165.5 72q108 0 157 -70v56h126v-496h-126v64q-47 -78 -153 -78zM300 104q60 0 98.5 40.5t38.5 103.5t-38.5 103.5t-98.5 40.5t-98.5 -40.5t-38.5 -103.5t38.5 -103.5
t98.5 -40.5z" />
    <glyph glyph-name="abreve.ss01" horiz-adv-x="618" 
d="M309 564q-51 0 -82.5 32t-31.5 81h76q0 -19 10 -31t28 -12t28 12t10 31h76q0 -49 -31.5 -81t-82.5 -32zM276 -14q-104 0 -172.5 70.5t-68.5 191.5q0 118 71.5 190t165.5 72q108 0 157 -70v56h126v-496h-126v64q-47 -78 -153 -78zM300 104q60 0 98.5 40.5t38.5 103.5
t-38.5 103.5t-98.5 40.5t-98.5 -40.5t-38.5 -103.5t38.5 -103.5t98.5 -40.5z" />
    <glyph glyph-name="acircumflex.ss01" horiz-adv-x="618" 
d="M151 550l113 157h90l113 -157h-99l-59 60l-59 -60h-99zM276 -14q-104 0 -172.5 70.5t-68.5 191.5q0 118 71.5 190t165.5 72q108 0 157 -70v56h126v-496h-126v64q-47 -78 -153 -78zM300 104q60 0 98.5 40.5t38.5 103.5t-38.5 103.5t-98.5 40.5t-98.5 -40.5t-38.5 -103.5
t38.5 -103.5t98.5 -40.5z" />
    <glyph glyph-name="adieresis.ss01" horiz-adv-x="618" 
d="M160 576v124h118v-124h-118zM340 576v124h118v-124h-118zM276 -14q-104 0 -172.5 70.5t-68.5 191.5q0 118 71.5 190t165.5 72q108 0 157 -70v56h126v-496h-126v64q-47 -78 -153 -78zM300 104q60 0 98.5 40.5t38.5 103.5t-38.5 103.5t-98.5 40.5t-98.5 -40.5t-38.5 -103.5
t38.5 -103.5t98.5 -40.5z" />
    <glyph glyph-name="agrave.ss01" horiz-adv-x="618" 
d="M279 550l-124 158h153l68 -158h-97zM276 -14q-104 0 -172.5 70.5t-68.5 191.5q0 118 71.5 190t165.5 72q108 0 157 -70v56h126v-496h-126v64q-47 -78 -153 -78zM300 104q60 0 98.5 40.5t38.5 103.5t-38.5 103.5t-98.5 40.5t-98.5 -40.5t-38.5 -103.5t38.5 -103.5
t98.5 -40.5z" />
    <glyph glyph-name="amacron.ss01" horiz-adv-x="618" 
d="M185 588v94h248v-94h-248zM276 -14q-104 0 -172.5 70.5t-68.5 191.5q0 118 71.5 190t165.5 72q108 0 157 -70v56h126v-496h-126v64q-47 -78 -153 -78zM300 104q60 0 98.5 40.5t38.5 103.5t-38.5 103.5t-98.5 40.5t-98.5 -40.5t-38.5 -103.5t38.5 -103.5t98.5 -40.5z" />
    <glyph glyph-name="aogonek.ss01" horiz-adv-x="618" 
d="M546 -114l11 -77q-26 -7 -60 -7q-45 0 -79.5 25t-34.5 69q0 61 59 104h-13v64q-47 -78 -153 -78q-104 0 -172.5 70.5t-68.5 191.5q0 118 71.5 190t165.5 72q108 0 157 -70v56h126v-496q-72 -40 -72 -78q0 -18 11.5 -28t29.5 -10q9 0 22 2zM300 104q60 0 98.5 40.5
t38.5 103.5t-38.5 103.5t-98.5 40.5t-98.5 -40.5t-38.5 -103.5t38.5 -103.5t98.5 -40.5z" />
    <glyph glyph-name="aring.ss01" horiz-adv-x="618" 
d="M310 540q-40 0 -68 27.5t-28 67.5t28 67.5t68 27.5t68 -27.5t28 -67.5t-28 -67.5t-68 -27.5zM310 601q15 0 24 9t9 25t-9 25t-24 9t-24 -9t-9 -25t9 -25t24 -9zM276 -14q-104 0 -172.5 70.5t-68.5 191.5q0 118 71.5 190t165.5 72q108 0 157 -70v56h126v-496h-126v64
q-47 -78 -153 -78zM300 104q60 0 98.5 40.5t38.5 103.5t-38.5 103.5t-98.5 40.5t-98.5 -40.5t-38.5 -103.5t38.5 -103.5t98.5 -40.5z" />
    <glyph glyph-name="atilde.ss01" horiz-adv-x="618" 
d="M388 550q-32 0 -56.5 10.5t-37.5 22.5t-28.5 22.5t-29.5 10.5q-10 0 -16.5 -6t-6.5 -16q0 -12 7 -26l-74 -15q-14 21 -14 53q0 43 30 67t68 24q32 0 56.5 -10.5t37.5 -22.5t28.5 -22.5t29.5 -10.5q10 0 16.5 6t6.5 16q0 12 -7 26l74 15q14 -21 14 -53q0 -43 -30 -67
t-68 -24zM276 -14q-104 0 -172.5 70.5t-68.5 191.5q0 118 71.5 190t165.5 72q108 0 157 -70v56h126v-496h-126v64q-47 -78 -153 -78zM300 104q60 0 98.5 40.5t38.5 103.5t-38.5 103.5t-98.5 40.5t-98.5 -40.5t-38.5 -103.5t38.5 -103.5t98.5 -40.5z" />
    <glyph glyph-name="ae.ss01" horiz-adv-x="970" 
d="M276 -14q-104 0 -172.5 70.5t-68.5 191.5q0 118 71.5 190t165.5 72q108 0 157 -70v56h126v-46q20 24 59 42t84 18q106 0 174 -69.5t68 -178.5v-44h-382q6 -57 43 -90.5t93 -33.5q92 0 137 91l94 -54q-70 -145 -233 -145q-38 0 -76 16.5t-61 45.5v-48h-126v64
q-47 -78 -153 -78zM558 310h266q-9 49 -43 76.5t-87 27.5q-49 0 -85.5 -29.5t-50.5 -74.5zM300 104q60 0 98.5 40.5t38.5 103.5t-38.5 103.5t-98.5 40.5t-98.5 -40.5t-38.5 -103.5t38.5 -103.5t98.5 -40.5z" />
    <glyph glyph-name="aeacute.ss01" horiz-adv-x="970" 
d="M428 550l68 158h153l-124 -158h-97zM276 -14q-104 0 -172.5 70.5t-68.5 191.5q0 118 71.5 190t165.5 72q108 0 157 -70v56h126v-46q20 24 59 42t84 18q106 0 174 -69.5t68 -178.5v-44h-382q6 -57 43 -90.5t93 -33.5q92 0 137 91l94 -54q-70 -145 -233 -145
q-38 0 -76 16.5t-61 45.5v-48h-126v64q-47 -78 -153 -78zM558 310h266q-9 49 -43 76.5t-87 27.5q-49 0 -85.5 -29.5t-50.5 -74.5zM300 104q60 0 98.5 40.5t38.5 103.5t-38.5 103.5t-98.5 40.5t-98.5 -40.5t-38.5 -103.5t38.5 -103.5t98.5 -40.5z" />
    <glyph glyph-name="f_f_j" horiz-adv-x="876" 
d="M652 -211q-39 0 -75 10l16 114q19 -8 39 -8q30 0 43 17.5t13 53.5v418h-187v-394h-126v394h-158v-394h-126v394h-72v102h72v70q0 89 48.5 136.5t127.5 47.5q34 0 63 -11l-22 -111q-18 6 -35 6q-56 0 -56 -65v-73h158v70q0 89 48.5 136.5t127.5 47.5q34 0 63 -11l-22 -111
q-18 6 -35 6q-56 0 -56 -65v-73h313v-534q0 -84 -40.5 -128.5t-121.5 -44.5zM682 568v132h138v-132h-138z" />
    <glyph glyph-name="f_j" horiz-adv-x="592" 
d="M309 -87q19 -8 39 -8q30 0 43 17.5t13 53.5v418h-187v-394h-126v394h-72v102h72v70q0 89 48.5 136.5t127.5 47.5q34 0 63 -11l-22 -111q-18 6 -35 6q-56 0 -56 -65v-73h313v-534q0 -84 -40.5 -128.5t-121.5 -44.5q-39 0 -75 10zM398 700h138v-132h-138v132z" />
    <glyph glyph-name="uni0414.loclBGR" horiz-adv-x="748" 
d="M659 122h74v-248h-123v126h-472v-126h-123v248h74l218 578h134zM230 122h288l-115 314q-15 40 -29 100q-14 -60 -29 -100z" />
    <glyph glyph-name="uni041B.loclBGR" horiz-adv-x="658" 
d="M2 0l260 700h134l260 -700h-143l-158 447l-26 89l-26 -89l-158 -447h-143z" />
    <glyph glyph-name="uni0432.loclBGR" horiz-adv-x="513" 
d="M53 187v335q0 88 53 140t161 52q93 0 145.5 -49.5t52.5 -131.5q0 -59 -27.5 -99.5t-66.5 -61.5q49 -16 80.5 -61t31.5 -106q0 -103 -58 -161t-159 -58q-213 0 -213 201zM175 416h72q43 0 72.5 30t29.5 77q0 45 -23.5 68t-59.5 23q-44 0 -67.5 -21.5t-23.5 -73.5v-103z
M175 176q0 -41 24.5 -65.5t66.5 -24.5q44 0 69.5 29.5t25.5 88.5q0 51 -32.5 83.5t-89.5 32.5h-64v-144z" />
    <glyph glyph-name="uni0433.loclBGR" horiz-adv-x="489" 
d="M235 -14q-89 0 -142.5 42.5t-53.5 109.5q0 66 39 104t125 55q57 11 83 26.5t26 38.5q0 44 -62 44q-70 0 -110 -59l-82 57q62 106 192 106q77 0 127.5 -38t50.5 -106q0 -129 -169 -162q-55 -11 -79.5 -25.5t-24.5 -37.5q0 -49 78 -49q75 0 120 71l95 -60
q-64 -117 -213 -117z" />
    <glyph glyph-name="uni0434.loclBGR" horiz-adv-x="597" 
d="M185 -38q-2 -10 -2 -21q0 -26 27.5 -42.5t78.5 -16.5q126 0 126 141v59q-45 -74 -141 -74q-100 0 -169.5 71t-69.5 180t71 180t169 71q94 0 140 -68v54h126v-462q0 -121 -68.5 -186.5t-183.5 -65.5q-111 0 -171.5 43t-60.5 122q0 15 3 30zM288 400q-55 0 -93 -37.5
t-38 -103.5t38 -103.5t93 -37.5q56 0 95 38t39 103t-39 103t-95 38z" />
    <glyph glyph-name="uni0436.loclBGR" horiz-adv-x="800" 
d="M337 0v176l-34 38l-137 -214h-145l197 306l-173 190h156l136 -162v366h126v-366l136 162h156l-173 -190l197 -306h-145l-137 214l-34 -38v-176h-126z" />
    <glyph glyph-name="uni0437.loclBGR" horiz-adv-x="499" 
d="M245 -204q-104 0 -164.5 56.5t-60.5 147.5q0 36 13 65l110 -36q-5 -13 -5 -30q0 -45 33 -70t75 -25q49 0 78.5 27.5t29.5 79.5q0 48 -35 76t-86 28h-42v103h44q50 0 79 26t29 74q0 37 -27 60.5t-70 23.5q-40 0 -65 -18t-25 -50q0 -10 3 -18l-110 -41q-11 22 -11 54
q0 81 57.5 131t150.5 50q91 0 151 -48.5t60 -131.5q0 -61 -27 -100t-70 -55q55 -20 87 -63t32 -104q0 -95 -60 -153.5t-174 -58.5z" />
    <glyph glyph-name="uni0438.loclBGR" horiz-adv-x="589" 
d="M63 496h126v-279q0 -113 101 -113q52 0 83.5 38t31.5 98v256h126v-496h-126v78q-50 -92 -158 -92q-81 0 -132.5 53t-51.5 149v308z" />
    <glyph glyph-name="uni0439.loclBGR" horiz-adv-x="589" 
d="M297 564q-51 0 -82.5 32t-31.5 81h76q0 -19 10 -31t28 -12t28 12t10 31h76q0 -49 -31.5 -81t-82.5 -32zM63 496h126v-279q0 -113 101 -113q52 0 83.5 38t31.5 98v256h126v-496h-126v78q-50 -92 -158 -92q-81 0 -132.5 53t-51.5 149v308z" />
    <glyph glyph-name="uni043A.loclBGR" horiz-adv-x="541" 
d="M63 0v700h126v-354l151 150h156l-181 -177l205 -319h-145l-148 232l-38 -37v-195h-126z" />
    <glyph glyph-name="uni043B.loclBGR" horiz-adv-x="534" 
d="M7 0l201 496h118l201 -496h-134l-126 336l-126 -336h-134z" />
    <glyph glyph-name="uni043F.loclBGR" horiz-adv-x="584" 
d="M526 0h-126v286q0 106 -101 106q-50 0 -82.5 -39t-32.5 -101v-252h-126v496h126v-80q61 94 168 94q79 0 126.5 -47t47.5 -125v-338z" />
    <glyph glyph-name="uni0442.loclBGR" horiz-adv-x="842" 
d="M784 0h-126v307q0 93 -78 93q-43 0 -69.5 -32t-26.5 -92v-276h-126v305q0 95 -80 95q-39 0 -66.5 -32.5t-27.5 -89.5v-278h-126v496h126v-66q52 80 144 80q104 0 138 -85q53 85 158 85q76 0 118 -44t42 -119v-347z" />
    <glyph glyph-name="uni0446.loclBGR" horiz-adv-x="611" 
d="M531 114h70v-230h-114v116h-82v78q-50 -92 -158 -92q-81 0 -132.5 53t-51.5 149v308h126v-279q0 -113 101 -113q52 0 83.5 38t31.5 98v256h126v-382z" />
    <glyph glyph-name="uni0448.loclBGR" horiz-adv-x="842" 
d="M58 496h126v-307q0 -93 78 -93q43 0 69.5 32t26.5 92v276h126v-305q0 -95 80 -95q39 0 66.5 32.5t27.5 89.5v278h126v-496h-126v66q-52 -80 -144 -80q-104 0 -138 85q-53 -85 -158 -85q-76 0 -118 44t-42 119v347z" />
    <glyph glyph-name="uni0449.loclBGR" horiz-adv-x="842" 
d="M784 114h70v-230h-114v116h-82v66q-52 -80 -144 -80q-104 0 -138 85q-53 -85 -158 -85q-76 0 -118 44t-42 119v347h126v-307q0 -93 78 -93q43 0 69.5 32t26.5 92v276h126v-305q0 -95 80 -95q39 0 66.5 32.5t27.5 89.5v278h126v-382z" />
    <glyph glyph-name="uni044C.loclBGR" horiz-adv-x="523" 
d="M63 174v322h122v-160q50 12 100 12q89 0 143 -46.5t54 -128.5q0 -85 -56.5 -136t-153.5 -51q-106 0 -157.5 51t-51.5 137zM185 168q0 -34 21.5 -60t66.5 -26q40 0 63.5 26.5t23.5 64.5q0 33 -22.5 56t-65.5 23q-27 0 -87 -12v-72z" />
    <glyph glyph-name="uni044A.loclBGR" horiz-adv-x="591" 
d="M340 -14q-106 0 -157.5 51t-51.5 137v228h-116v94h238v-160q50 12 100 12q89 0 143 -46.5t54 -128.5q0 -85 -56.5 -136t-153.5 -51zM341 82q40 0 63.5 26.5t23.5 64.5q0 33 -22.5 56t-65.5 23q-27 0 -87 -12v-72q0 -34 21.5 -60t66.5 -26z" />
    <glyph glyph-name="uni044E.loclBGR" horiz-adv-x="768" 
d="M483 -14q-91 0 -162 54.5t-87 153.5h-56v-194h-120v700h120v-398h56q16 99 87 153.5t162 54.5q105 0 179 -69t74 -193t-74 -193t-179 -69zM483 104q53 0 89 39t36 105t-36 105t-89 39t-89 -39t-36 -105t36 -105t89 -39z" />
    <glyph glyph-name="alpha.ss02" horiz-adv-x="648" 
d="M276 -14q-104 0 -172.5 70.5t-68.5 191.5q0 118 71.5 190t165.5 72q108 0 157 -70v56h126v-348q0 -44 32 -44q7 0 15 2l20 -106q-34 -14 -71 -14q-96 0 -110 89q-58 -89 -165 -89zM300 104q60 0 98.5 40.5t38.5 103.5t-38.5 103.5t-98.5 40.5t-98.5 -40.5t-38.5 -103.5
t38.5 -103.5t98.5 -40.5z" />
    <glyph glyph-name="delta.ss02" horiz-adv-x="578" 
d="M288 -14q-104 0 -175.5 63t-71.5 175q0 88 51.5 144.5t102.5 68.5q-52 13 -85.5 50.5t-33.5 76.5q0 71 58 110.5t154 39.5q82 0 143 -32t61 -91q0 -40 -20 -69l-111 38q3 6 3 13q0 18 -21 30.5t-58 12.5q-40 0 -66 -13.5t-26 -39.5q0 -30 35 -51.5t129 -49.5
q180 -54 180 -238q0 -105 -73.5 -171.5t-175.5 -66.5zM288 96q56 0 92.5 35t36.5 94q0 58 -37.5 93.5t-91.5 35.5t-91.5 -35.5t-37.5 -93.5q0 -59 36.5 -94t92.5 -35z" />
    <glyph glyph-name="alphatonos.ss02" horiz-adv-x="648" 
d="M240 542l46 158h144l-102 -158h-88zM276 -14q-104 0 -172.5 70.5t-68.5 191.5q0 118 71.5 190t165.5 72q108 0 157 -70v56h126v-348q0 -44 32 -44q7 0 15 2l20 -106q-34 -14 -71 -14q-96 0 -110 89q-58 -89 -165 -89zM300 104q60 0 98.5 40.5t38.5 103.5t-38.5 103.5
t-98.5 40.5t-98.5 -40.5t-38.5 -103.5t38.5 -103.5t98.5 -40.5z" />
    <glyph glyph-name="zero.osf" horiz-adv-x="676" 
d="M338 -14q-80 0 -145.5 31t-108.5 100t-43 165t43 165t108.5 100t145.5 31t145.5 -31t108.5 -100t43 -165t-43 -165t-108.5 -100t-145.5 -31zM338 104q70 0 119.5 47.5t49.5 130.5t-49.5 130.5t-119.5 47.5t-119.5 -47.5t-49.5 -130.5t49.5 -130.5t119.5 -47.5z" />
    <glyph glyph-name="one.osf" horiz-adv-x="375" 
d="M174 0v401q-27 -27 -58.5 -37t-83.5 -10v122q61 0 94 21t56 67h120v-564h-128z" />
    <glyph glyph-name="two.osf" horiz-adv-x="526" 
d="M63 0v81l230 193q63 53 63 117q0 33 -21.5 55t-58.5 22q-40 0 -65.5 -23.5t-25.5 -61.5q0 -22 9 -45l-116 -23q-19 36 -19 78q0 79 59.5 132t153.5 53q98 0 154 -50t56 -131q0 -98 -102 -189l-102 -90h202v-118h-417z" />
    <glyph glyph-name="three.osf" horiz-adv-x="594" 
d="M295 -90q-117 0 -182 57t-65 147q0 35 11 62l121 -30q-4 -12 -4 -29q0 -47 31 -72t88 -25q112 0 112 96q0 99 -176 99v98q148 0 148 88q0 35 -26 53t-69 18q-44 0 -72.5 -22t-28.5 -59q0 -20 6 -34l-119 -20q-9 25 -9 55q0 78 61.5 132t160.5 54q102 0 162 -42t60 -118
q0 -50 -28 -86.5t-73 -56.5q55 -20 93 -60t38 -99q0 -96 -66.5 -151t-173.5 -55z" />
    <glyph glyph-name="four.osf" horiz-adv-x="604" 
d="M364 -76v116h-318v114l318 410h128v-410h76v-114h-76v-116h-128zM186 154h178v229z" />
    <glyph glyph-name="five.osf" horiz-adv-x="608" 
d="M295 -90q-110 0 -175.5 57t-65.5 139q0 34 10 55l119 -32q-3 -10 -3 -26q0 -36 33.5 -59.5t82.5 -23.5q60 0 96 34.5t36 97.5q0 59 -35.5 93t-92.5 34q-44 0 -81.5 -22.5t-58.5 -61.5l-97 25l32 344h413v-106h-317l-17 -142q59 61 156 61q103 0 163.5 -61t60.5 -167
q0 -102 -69.5 -170.5t-189.5 -68.5z" />
    <glyph glyph-name="six.osf" horiz-adv-x="592" 
d="M298 -14q-115 0 -186 80t-71 232q0 149 75 252.5t203 103.5q91 0 146.5 -43t55.5 -116q0 -37 -15 -67l-119 26q8 19 8 33q0 33 -21.5 51t-57.5 18q-63 0 -103.5 -61t-45.5 -142q57 65 152 65q97 0 159.5 -56.5t62.5 -156.5q0 -103 -66 -161t-177 -58zM297 90
q51 0 84.5 30t33.5 81t-33.5 81t-84.5 30t-84.5 -30t-33.5 -81t33.5 -81t84.5 -30z" />
    <glyph glyph-name="seven.osf" horiz-adv-x="527" 
d="M145 -76l197 522h-305v118h435v-112l-199 -528h-128z" />
    <glyph glyph-name="eight.osf" horiz-adv-x="586" 
d="M293 -14q-109 0 -174.5 50.5t-65.5 146.5q0 56 32.5 97.5t83.5 63.5q-93 49 -93 139q0 76 57.5 123.5t159.5 47.5t159.5 -47.5t57.5 -123.5q0 -90 -93 -139q51 -22 83.5 -63.5t32.5 -97.5q0 -96 -65.5 -146.5t-174.5 -50.5zM293 386q42 0 70 23.5t28 63.5t-28 63.5
t-70 23.5t-70 -23.5t-28 -63.5t28 -63.5t70 -23.5zM293 88q52 0 84.5 27.5t32.5 72.5t-32.5 71.5t-84.5 26.5t-84.5 -26.5t-32.5 -71.5t32.5 -72.5t84.5 -27.5z" />
    <glyph glyph-name="nine.osf" horiz-adv-x="593" 
d="M289 -90q-100 0 -158 41t-58 114q0 37 15 67l119 -26q-8 -19 -8 -33q0 -65 90 -65q62 0 100 58.5t38 144.5q-57 -65 -152 -65q-97 0 -159.5 56.5t-62.5 156.5q0 102 67 160.5t176 58.5q122 0 189.5 -78t67.5 -234q0 -155 -70.5 -255.5t-193.5 -100.5zM296 250
q53 0 86 30.5t33 81.5t-33 81.5t-86 30.5t-85 -30.5t-32 -81.5t32 -81.5t85 -30.5z" />
    <glyph glyph-name="zero.osf.zero" horiz-adv-x="676" 
d="M338 -14q-80 0 -145.5 31t-108.5 100t-43 165t43 165t108.5 100t145.5 31t145.5 -31t108.5 -100t43 -165t-43 -165t-108.5 -100t-145.5 -31zM196 179l195 273q-23 8 -53 8q-70 0 -119.5 -47.5t-49.5 -130.5q0 -60 27 -103zM338 104q70 0 119.5 47.5t49.5 130.5
q0 60 -27 103l-195 -273q23 -8 53 -8z" />
    <glyph glyph-name="zero.tf" horiz-adv-x="610" 
d="M305 -14q-132 0 -209 97.5t-77 266.5t77 266.5t209 97.5t209 -97.5t77 -266.5t-77 -266.5t-209 -97.5zM305 108q72 0 113 65.5t41 176.5t-41 176.5t-113 65.5t-113 -65.5t-41 -176.5t41 -176.5t113 -65.5z" />
    <glyph glyph-name="one.tf" horiz-adv-x="610" 
d="M67 0v122h187v416q-56 -55 -177 -55v121q131 0 185 96h124v-578h177v-122h-496z" />
    <glyph glyph-name="two.tf" horiz-adv-x="610" 
d="M69 0v94l266 261q45 44 63.5 75t18.5 68q0 45 -29 72.5t-78 27.5t-79 -26.5t-30 -72.5q0 -23 5 -48l-130 -9q-7 32 -7 64q0 85 66.5 146.5t174.5 61.5q112 0 173.5 -56t61.5 -145q0 -69 -26.5 -120.5t-95.5 -117.5l-157 -153h279v-122h-476z" />
    <glyph glyph-name="three.tf" horiz-adv-x="610" 
d="M301 -13q-120 0 -186 59.5t-66 148.5q0 19 5 41l129 -14q-2 -14 -2 -24q0 -44 34 -71.5t86 -27.5q55 0 88 28.5t33 82.5q0 60 -43.5 88t-109.5 28v98q56 0 92 26.5t36 74.5q0 37 -28 59.5t-73 22.5q-43 0 -72 -20.5t-29 -52.5q0 -16 4 -28l-126 -14q-4 20 -4 36
q0 79 62.5 133t165.5 54q111 0 169.5 -51.5t58.5 -133.5q0 -49 -30.5 -87.5t-76.5 -56.5q60 -20 98 -64.5t38 -111.5q0 -102 -69 -162.5t-184 -60.5z" />
    <glyph glyph-name="four.tf" horiz-adv-x="610" 
d="M369 0v116h-331v114l329 470h134v-462h71v-122h-71v-116h-132zM173 238h196v276z" />
    <glyph glyph-name="five.tf" horiz-adv-x="610" 
d="M302 -14q-122 0 -184 58.5t-62 143.5q0 19 2 29l132 -7q-2 -12 -2 -23q0 -40 31.5 -64.5t83.5 -24.5q61 0 98 37.5t37 104.5q0 63 -37 99.5t-98 36.5q-79 0 -136 -62l-103 27l28 359h434v-122h-342l-16 -149q58 49 155 49q118 0 182.5 -64.5t64.5 -173.5t-74.5 -181.5
t-193.5 -72.5z" />
    <glyph glyph-name="six.tf" horiz-adv-x="610" 
d="M312 -14q-125 0 -199 85.5t-74 237.5q0 147 35 232q73 173 251 173q102 0 160.5 -46.5t58.5 -122.5q0 -21 -4 -33l-125 9q3 13 3 27q0 30 -25.5 47t-66.5 17q-146 0 -162 -227q28 33 73.5 53t95.5 20q105 0 172 -65.5t67 -167.5t-74 -170.5t-186 -68.5zM310 94
q57 0 95.5 34.5t38.5 93.5t-38.5 93.5t-95.5 34.5t-95 -34.5t-38 -93.5t38 -93.5t95 -34.5z" />
    <glyph glyph-name="seven.tf" horiz-adv-x="610" 
d="M147 0l260 578h-338v122h472v-116l-262 -584h-132z" />
    <glyph glyph-name="eight.tf" horiz-adv-x="610" 
d="M305 -14q-115 0 -183 57t-68 151q0 63 32 110t88 71q-99 50 -99 155q0 81 64 132.5t166 51.5t166 -51.5t64 -132.5q0 -105 -99 -155q56 -24 88 -71t32 -110q0 -94 -68 -151t-183 -57zM305 424q43 0 73.5 26t30.5 71t-30.5 70t-73.5 25t-73.5 -25t-30.5 -70t30.5 -71
t73.5 -26zM305 94q53 0 88 31.5t35 79.5t-35 79.5t-88 31.5t-88 -31.5t-35 -79.5t35 -79.5t88 -31.5z" />
    <glyph glyph-name="nine.tf" horiz-adv-x="610" 
d="M283 -14q-107 0 -167.5 50t-60.5 125q0 15 2 29l126 -11q-1 -5 -1 -14q0 -35 30.5 -56t74.5 -21q68 0 110.5 57.5t47.5 169.5q-56 -73 -161 -73q-109 0 -178 65.5t-69 167.5q0 103 73 171t187 68q132 0 202.5 -84t70.5 -239q0 -128 -42 -235q-32 -82 -95.5 -126
t-149.5 -44zM300 350q55 0 93.5 34.5t38.5 93.5t-38.5 93.5t-93.5 34.5t-95 -35t-40 -93t40 -93t95 -35z" />
    <glyph glyph-name="zero.tf.zero" horiz-adv-x="610" 
d="M305 -14q-132 0 -209 97.5t-77 266.5t77 266.5t209 97.5t209 -97.5t77 -266.5t-77 -266.5t-209 -97.5zM167 229l204 345q-29 18 -66 18q-72 0 -113 -65.5t-41 -176.5q0 -72 16 -121zM305 108q72 0 113 65.5t41 176.5q0 72 -16 121l-204 -345q28 -18 66 -18z" />
    <glyph glyph-name="zero.tosf" horiz-adv-x="610" 
d="M305 -14q-80 0 -145.5 31t-108.5 100t-43 165t43 165t108.5 100t145.5 31t145.5 -31t108.5 -100t43 -165t-43 -165t-108.5 -100t-145.5 -31zM305 104q70 0 119.5 47.5t49.5 130.5t-49.5 130.5t-119.5 47.5t-119.5 -47.5t-49.5 -130.5t49.5 -130.5t119.5 -47.5z" />
    <glyph glyph-name="one.tosf" horiz-adv-x="610" 
d="M86 0v118h180v283q-47 -47 -162 -47v122q126 0 170 88h120v-446h148v-118h-456z" />
    <glyph glyph-name="two.tosf" horiz-adv-x="610" 
d="M109 0v81l230 193q63 53 63 117q0 33 -21.5 55t-58.5 22q-40 0 -65.5 -23.5t-25.5 -61.5q0 -22 9 -45l-116 -23q-19 36 -19 78q0 79 59.5 132t153.5 53q98 0 154 -50t56 -131q0 -98 -102 -189l-102 -90h202v-118h-417z" />
    <glyph glyph-name="three.tosf" horiz-adv-x="610" 
d="M311 -90q-117 0 -182 57t-65 147q0 35 11 62l121 -30q-4 -12 -4 -29q0 -47 31 -72t88 -25q112 0 112 96q0 99 -176 99v98q148 0 148 88q0 35 -26 53t-69 18q-44 0 -72.5 -22t-28.5 -59q0 -20 6 -34l-119 -20q-9 25 -9 55q0 78 61.5 132t160.5 54q102 0 162 -42t60 -118
q0 -50 -28 -86.5t-73 -56.5q55 -20 93 -60t38 -99q0 -96 -66.5 -151t-173.5 -55z" />
    <glyph glyph-name="four.tosf" horiz-adv-x="610" 
d="M367 -76v116h-318v114l318 410h128v-410h76v-114h-76v-116h-128zM189 154h178v229z" />
    <glyph glyph-name="five.tosf" horiz-adv-x="610" 
d="M305 -90q-110 0 -175.5 57t-65.5 139q0 34 10 55l119 -32q-3 -10 -3 -26q0 -36 33.5 -59.5t82.5 -23.5q60 0 96 34.5t36 97.5q0 59 -35.5 93t-92.5 34q-44 0 -81.5 -22.5t-58.5 -61.5l-97 25l32 344h413v-106h-317l-17 -142q59 61 156 61q103 0 163.5 -61t60.5 -167
q0 -102 -69.5 -170.5t-189.5 -68.5z" />
    <glyph glyph-name="six.tosf" horiz-adv-x="610" 
d="M317 -14q-115 0 -186 80t-71 232q0 149 75 252.5t203 103.5q91 0 146.5 -43t55.5 -116q0 -37 -15 -67l-119 26q8 19 8 33q0 33 -21.5 51t-57.5 18q-63 0 -103.5 -61t-45.5 -142q57 65 152 65q97 0 159.5 -56.5t62.5 -156.5q0 -103 -66 -161t-177 -58zM316 90
q51 0 84.5 30t33.5 81t-33.5 81t-84.5 30t-84.5 -30t-33.5 -81t33.5 -81t84.5 -30z" />
    <glyph glyph-name="seven.tosf" horiz-adv-x="610" 
d="M187 -76l197 522h-305v118h435v-112l-199 -528h-128z" />
    <glyph glyph-name="eight.tosf" horiz-adv-x="610" 
d="M305 -14q-109 0 -174.5 50.5t-65.5 146.5q0 56 32.5 97.5t83.5 63.5q-93 49 -93 139q0 76 57.5 123.5t159.5 47.5t159.5 -47.5t57.5 -123.5q0 -90 -93 -139q51 -22 83.5 -63.5t32.5 -97.5q0 -96 -65.5 -146.5t-174.5 -50.5zM305 386q42 0 70 23.5t28 63.5t-28 63.5
t-70 23.5t-70 -23.5t-28 -63.5t28 -63.5t70 -23.5zM305 88q52 0 84.5 27.5t32.5 72.5t-32.5 71.5t-84.5 26.5t-84.5 -26.5t-32.5 -71.5t32.5 -72.5t84.5 -27.5z" />
    <glyph glyph-name="nine.tosf" horiz-adv-x="610" 
d="M301 -90q-100 0 -158 41t-58 114q0 37 15 67l119 -26q-8 -19 -8 -33q0 -65 90 -65q62 0 100 58.5t38 144.5q-57 -65 -152 -65q-97 0 -159.5 56.5t-62.5 156.5q0 102 67 160.5t176 58.5q122 0 189.5 -78t67.5 -234q0 -155 -70.5 -255.5t-193.5 -100.5zM308 250
q53 0 86 30.5t33 81.5t-33 81.5t-86 30.5t-85 -30.5t-32 -81.5t32 -81.5t85 -30.5z" />
    <glyph glyph-name="zero.tosf.zero" horiz-adv-x="610" 
d="M305 -14q-80 0 -145.5 31t-108.5 100t-43 165t43 165t108.5 100t145.5 31t145.5 -31t108.5 -100t43 -165t-43 -165t-108.5 -100t-145.5 -31zM163 179l195 273q-23 8 -53 8q-70 0 -119.5 -47.5t-49.5 -130.5q0 -60 27 -103zM305 104q70 0 119.5 47.5t49.5 130.5
q0 60 -27 103l-195 -273q23 -8 53 -8z" />
    <glyph glyph-name="zero.zero" horiz-adv-x="722" 
d="M361 -14q-139 0 -227.5 100t-88.5 264t88.5 264t227.5 100t227.5 -100t88.5 -264t-88.5 -264t-227.5 -100zM206 208l219 372q-30 12 -64 12q-82 0 -133 -65t-51 -177q0 -84 29 -142zM361 108q82 0 133 65t51 177q0 84 -29 142l-219 -372q30 -12 64 -12z" />
    <glyph glyph-name="uni2080.zero" horiz-adv-x="388" 
d="M194 -211q-69 0 -115 50.5t-46 131.5t46 131.5t115 50.5t115 -50.5t46 -131.5t-46 -131.5t-115 -50.5zM126 -87l82 163q-5 1 -14 1q-35 0 -56 -27.5t-21 -78.5q0 -35 9 -58zM194 -135q35 0 56 27.5t21 78.5q0 36 -9 58l-82 -163q5 -1 14 -1z" />
    <glyph glyph-name="uni2070.zero" horiz-adv-x="388" 
d="M194 343q-69 0 -115 50.5t-46 131.5t46 131.5t115 50.5t115 -50.5t46 -131.5t-46 -131.5t-115 -50.5zM126 467l82 163q-5 1 -14 1q-35 0 -56 -27.5t-21 -78.5q0 -35 9 -58zM194 419q35 0 56 27.5t21 78.5q0 35 -9 58l-82 -163q5 -1 14 -1z" />
    <glyph glyph-name="exclamdown.case" horiz-adv-x="278" 
d="M73 563v138h132v-138h-132zM73 1v243l16 249h100l16 -249v-243h-132z" />
    <glyph glyph-name="questiondown.case" horiz-adv-x="549" 
d="M350 700v-138h-132v138h132zM347 492v-16q0 -46 -18.5 -79.5t-67.5 -72.5q-51 -41 -71.5 -71.5t-20.5 -67.5q0 -39 29 -62t75 -23q48 0 80.5 27t32.5 72q0 19 -7 37l115 24q14 -30 14 -72q0 -79 -64.5 -140.5t-167.5 -61.5q-107 0 -169 52t-62 138q0 60 27 105.5
t102 109.5q27 23 37 45.5t10 55.5h126z" />
    <glyph glyph-name="bullet.case" horiz-adv-x="326" 
d="M163 230q-50 0 -85 35t-35 85t35 85t85 35t85 -35t35 -85t-35 -85t-85 -35z" />
    <glyph glyph-name="parenleft.case" horiz-adv-x="360" 
d="M171 -74q-108 192 -108 424t108 424h113q-40 -73 -66.5 -196t-26.5 -228t26.5 -228t66.5 -196h-113z" />
    <glyph glyph-name="parenright.case" horiz-adv-x="360" 
d="M76 -74q40 73 66.5 196t26.5 228t-26.5 228t-66.5 196h113q108 -192 108 -424t-108 -424h-113z" />
    <glyph glyph-name="braceleft.case" horiz-adv-x="395" 
d="M302 -75q-89 0 -134 44t-45 143v108q0 45 -18.5 62t-56.5 17v102q38 0 56.5 17t18.5 62v108q0 99 45 143t134 44h48v-118h-25q-76 0 -76 -87v-107q0 -49 -17 -74t-52 -39q35 -14 52 -39t17 -74v-107q0 -87 76 -87h25v-118h-48z" />
    <glyph glyph-name="braceright.case" horiz-adv-x="395" 
d="M45 -75v118h25q76 0 76 87v107q0 49 17 74t52 39q-35 14 -52 39t-17 74v107q0 87 -76 87h-25v118h48q89 0 134 -44t45 -143v-108q0 -45 18.5 -62t56.5 -17v-102q-38 0 -56.5 -17t-18.5 -62v-108q0 -99 -45 -143t-134 -44h-48z" />
    <glyph glyph-name="bracketleft.case" horiz-adv-x="347" 
d="M73 -75v850h229v-118h-103v-614h103v-118h-229z" />
    <glyph glyph-name="bracketright.case" horiz-adv-x="347" 
d="M45 -75v118h103v614h-103v118h229v-850h-229z" />
    <glyph glyph-name="hyphen.case" horiz-adv-x="468" 
d="M40 299v102h388v-102h-388z" />
    <glyph glyph-name="uni00AD.case" horiz-adv-x="468" 
d="M40 299v102h388v-102h-388z" />
    <glyph glyph-name="endash.case" horiz-adv-x="578" 
d="M40 299v102h498v-102h-498z" />
    <glyph glyph-name="emdash.case" horiz-adv-x="848" 
d="M40 299v102h768v-102h-768z" />
    <glyph glyph-name="guillemotleft.case" horiz-adv-x="594" 
d="M207 137l-167 213l167 213h141l-166 -213l166 -213h-141zM423 137l-167 213l167 213h141l-166 -213l166 -213h-141z" />
    <glyph glyph-name="guillemotright.case" horiz-adv-x="594" 
d="M30 137l166 213l-166 213h141l167 -213l-167 -213h-141zM246 137l166 213l-166 213h141l167 -213l-167 -213h-141z" />
    <glyph glyph-name="guilsinglleft.case" horiz-adv-x="378" 
d="M207 138l-167 212l167 214h141l-166 -214l166 -212h-141z" />
    <glyph glyph-name="guilsinglright.case" horiz-adv-x="378" 
d="M30 138l166 212l-166 214h141l167 -214l-167 -212h-141z" />
    <glyph glyph-name="at.case" horiz-adv-x="958" 
d="M458 -83q-82 0 -154.5 25t-131.5 75t-93 132.5t-34 188.5q0 187 129.5 316t327.5 129q64 0 122.5 -14t110.5 -44.5t90.5 -73.5t60.5 -105t22 -136q0 -134 -72 -224t-176 -90q-44 0 -71 21t-27 55q0 5 1 12q-23 -38 -63 -63t-90 -25q-83 0 -132.5 59t-49.5 155
q0 69 23 127t59.5 95t79.5 57t86 20q92 0 126 -65l8 49h96l-56 -362q-1 -9 -1 -16q0 -34 31 -34q46 0 84 61.5t38 166.5q0 127 -78 204.5t-229 77.5q-144 0 -244 -102t-100 -258q0 -152 89 -237t222 -85q110 0 190 55l48 -81q-104 -66 -242 -66zM425 181q62 0 107.5 63
t45.5 161q0 117 -89 117q-61 0 -108 -63t-47 -155q0 -59 25.5 -91t65.5 -32z" />
    <glyph glyph-name="caroncomb.alt" 
d="M-74 484l-26 15l39 95h-45v106h106v-108z" />
    <glyph glyph-name="uni0308.cap" 
d="M-298 780v124h118v-124h-118zM-118 780v124h118v-124h-118z" />
    <glyph glyph-name="uni0307.cap" 
d="M-138 772v132h138v-132h-138z" />
    <glyph glyph-name="gravecomb.cap" 
d="M-97 754l-124 158h153l68 -158h-97z" />
    <glyph glyph-name="acutecomb.cap" 
d="M-221 754l68 158h153l-124 -158h-97z" />
    <glyph glyph-name="uni030B.cap" 
d="M-410 754l68 158h153l-124 -158h-97zM-221 754l68 158h153l-124 -158h-97z" />
    <glyph glyph-name="uni0302.cap" 
d="M-316 754l113 157h90l113 -157h-99l-59 60l-59 -60h-99z" />
    <glyph glyph-name="uni030C.cap" 
d="M-203 754l-113 157h99l59 -60l59 60h99l-113 -157h-90z" />
    <glyph glyph-name="uni0306.cap" 
d="M-114 768q-51 0 -82.5 32t-31.5 81h76q0 -19 10 -31t28 -12t28 12t10 31h76q0 -49 -31.5 -81t-82.5 -32z" />
    <glyph glyph-name="uni030A.cap" 
d="M-96 744q-40 0 -68 27.5t-28 67.5t28 67.5t68 27.5t68 -27.5t28 -67.5t-28 -67.5t-68 -27.5zM-96 805q15 0 24 9t9 25t-9 25t-24 9t-24 -9t-9 -25t9 -25t24 -9z" />
    <glyph glyph-name="tildecomb.cap" 
d="M-98 754q-32 0 -56.5 10.5t-37.5 22.5t-28 22.5t-30 10.5q-10 0 -16.5 -6t-6.5 -16q0 -12 7 -26l-74 -15q-14 21 -14 53q0 43 30 67t68 24q32 0 56.5 -10.5t37.5 -22.5t28.5 -22.5t29.5 -10.5q10 0 16.5 6t6.5 16q0 12 -7 26l74 15q14 -21 14 -53q0 -43 -30 -67t-68 -24z
" />
    <glyph glyph-name="uni0304.cap" 
d="M-248 792v94h248v-94h-248z" />
    <glyph glyph-name="uni0327.cap" 
d="M-95 -204q-78 0 -94 61l66 17q4 -22 28 -22q25 0 25 25q0 29 -28 29q-24 0 -45 -18l-37 33l33 95h70l-41 -69q16 9 40 9q34 0 56 -22t22 -56q0 -38 -27.5 -60t-67.5 -22z" />
    <glyph glyph-name="uni0328.cap" 
d="M-60 -198q-45 0 -79.5 25t-34.5 69q0 69 77 116l95 -12q-72 -40 -72 -78q0 -18 11.5 -28t29.5 -10q9 0 22 2l11 -77q-26 -7 -60 -7z" />
    <glyph glyph-name="uni0335.cap" 
d="M-348 304v96h348v-96h-348z" />
    <glyph glyph-name="uni0337.cap" 
d="M-363 128v122l363 231v-122z" />
    <glyph glyph-name="uni0338.cap" 
d="M-404 -62l-98 56l404 768l98 -56z" />
    <glyph glyph-name="tonos.comb" horiz-adv-x="190" 
d="M0 542l46 158h144l-102 -158h-88z" />
    <glyph glyph-name="dieresistonos.comb" horiz-adv-x="460" 
d="M134 550l46 158h144l-102 -158h-88zM0 576v124h118v-124h-118zM342 576v124h118v-124h-118z" />
    <glyph glyph-name="brevecombcy" 
d="M-114 564q-51 0 -82.5 32t-31.5 81h76q0 -19 10 -31t28 -12t28 12t10 31h76q0 -49 -31.5 -81t-82.5 -32z" />
    <glyph glyph-name="brevecombcy.cap" 
d="M-114 768q-51 0 -82.5 32t-31.5 81h76q0 -19 10 -31t28 -12t28 12t10 31h76q0 -49 -31.5 -81t-82.5 -32z" />
    <glyph glyph-name="dieresiscombcy" horiz-adv-x="244" 
d="M0 568v132h108v-132h-108zM136 568v132h108v-132h-108z" />
    <glyph glyph-name="NULL" 
 />
    <glyph glyph-name="box" horiz-adv-x="600" 
 />
    </font>
</defs>
</svg>
